<svg width="45" height="44" viewBox="0 0 45 44" fill="none" xmlns="http://www.w3.org/2000/svg">
<path fill-rule="evenodd" clip-rule="evenodd" d="M10.502 43.9921L20.5 22.0019L10.502 0.0117357L10.502 -4.37026e-07L10.4993 0.00586764L10.498 0.0028672L10.498 0.00886809L0.500001 21.999L10.498 43.9892L10.498 44.001L10.5007 43.9951L10.502 43.9981L10.502 43.9921Z" fill="#6209A7"/>
<path fill-rule="evenodd" clip-rule="evenodd" d="M34.502 43.9921L44.5 22.0019L34.502 0.0117357L34.502 -4.37026e-07L34.4993 0.00586764L34.498 0.0028672L34.498 0.00886809L24.5 21.999L34.498 43.9892L34.498 44.001L34.5007 43.9951L34.502 43.9981L34.502 43.9921Z" fill="#6209A7"/>
<path fill-rule="evenodd" clip-rule="evenodd" d="M22.503 36.9949L37.5 22.0015L22.503 7.00801L22.503 7L22.499 7.004L22.497 7.00196L22.497 7.00605L7.5 21.9995L22.497 36.993L22.497 37.001L22.501 36.997L22.503 36.999L22.503 36.9949Z" fill="#6209A7"/>
</svg>
