<svg width="60" height="60" viewBox="0 0 60 60" fill="none" xmlns="http://www.w3.org/2000/svg">
<path d="M30 6C26.8174 6 23.7652 7.26428 21.5147 9.51472C19.2643 11.7652 18 14.8174 18 18C18 21.1826 19.2643 24.2348 21.5147 26.4853C23.7652 28.7357 26.8174 30 30 30C33.1826 30 36.2348 28.7357 38.4853 26.4853C40.7357 24.2348 42 21.1826 42 18C42 14.8174 40.7357 11.7652 38.4853 9.51472C36.2348 7.26428 33.1826 6 30 6ZM21 18C21 15.6131 21.9482 13.3239 23.636 11.636C25.3239 9.94821 27.6131 9 30 9C32.3869 9 34.6761 9.94821 36.364 11.636C38.0518 13.3239 39 15.6131 39 18C39 20.3869 38.0518 22.6761 36.364 24.364C34.6761 26.0518 32.3869 27 30 27C27.6131 27 25.3239 26.0518 23.636 24.364C21.9482 22.6761 21 20.3869 21 18ZM15.027 33C14.2368 32.9964 13.4537 33.149 12.7226 33.4489C11.9915 33.7489 11.3269 34.1903 10.7669 34.7478C10.2069 35.3053 9.76251 35.9679 9.45929 36.6976C9.15608 37.4274 8.99999 38.2098 9 39C9 44.073 11.499 47.898 15.405 50.391C19.251 52.842 24.435 54 30 54C35.565 54 40.749 52.842 44.595 50.391C48.501 47.901 51 44.07 51 39C51 37.4087 50.3679 35.8826 49.2426 34.7574C48.1174 33.6321 46.5913 33 45 33H15.027ZM12 39C12 37.341 13.344 36 15.027 36H45C45.7957 36 46.5587 36.3161 47.1213 36.8787C47.6839 37.4413 48 38.2043 48 39C48 42.927 46.134 45.852 42.981 47.859C39.771 49.908 35.205 51 30 51C24.795 51 20.229 49.908 17.019 47.859C13.869 45.849 12 42.93 12 39Z" fill="white" stroke="white"/>
</svg>
