<svg width="60" height="60" viewBox="0 0 60 60" fill="none" xmlns="http://www.w3.org/2000/svg">
<path d="M45.4876 25.2727L34.5274 14.3126C34.1369 13.9221 33.5037 13.9221 33.1132 14.3126L10.5265 36.8993C10.3918 37.0339 10.2984 37.2043 10.2573 37.3902L7.42238 50.1931C7.34852 50.5266 7.45006 50.8748 7.69163 51.1164L8.68376 52.1085C8.92533 52.3501 9.27351 52.4516 9.60706 52.3778L22.4099 49.5429C22.5959 49.5017 22.7662 49.4083 22.9009 49.2736L45.4876 26.6869C45.8781 26.2964 45.8781 25.6633 45.4876 25.2727Z" fill="#0FE597"/>
<path d="M43.0116 4.41421C43.7926 3.63317 45.0589 3.63317 45.84 4.41421L55.3859 13.9602C56.167 14.7412 56.167 16.0075 55.3859 16.7886L49.7291 22.4454L37.3547 10.0711L43.0116 4.41421Z" fill="#868686"/>
</svg>
