<svg width="45" height="45" viewBox="0 0 45 45" fill="none" xmlns="http://www.w3.org/2000/svg">
<path fill-rule="evenodd" clip-rule="evenodd" d="M7.99989 0L15.3611 11.25H8.16347L15.3611 22.25H8.16347L15.3611 33.25H8.16347L15.3611 44.25H0.638672L7.83631 33.25H0.638672L7.83631 22.25H0.638672L7.83631 11.25H0.638672L7.99989 0ZM22.9999 0L30.3611 11.25H23.1635L30.3611 22.25H23.1635L30.3611 33.25H23.1635L30.3611 44.25H15.6387L22.8363 33.25H15.6387L22.8363 22.25H15.6387L22.8363 11.25H15.6387L22.9999 0ZM44.4281 11.25L37.4999 0L30.5717 11.25H37.3459L30.5717 22.25H37.3459L30.5717 33.25H37.3459L30.5717 44.25H44.4281L37.6538 33.25H44.4281L37.6538 22.25H44.4281L37.6538 11.25H44.4281Z" fill="#A26060"/>
</svg>
