<svg width="219" height="201" viewBox="0 0 219 201" fill="none" xmlns="http://www.w3.org/2000/svg">
<g filter="url(#filter0_bd_948_8728)">
<rect x="53.875" y="11" width="155" height="149" rx="20" transform="rotate(10 53.875 11)" fill="#6B3363" fill-opacity="0.9" shape-rendering="crispEdges"/>
<rect x="54.2806" y="11.5792" width="154" height="148" rx="19.5" transform="rotate(10 54.2806 11.5792)" stroke="#E036C6" stroke-opacity="0.3" shape-rendering="crispEdges"/>
<path d="M79.5295 35.5903L79.1767 37.5907L76.6955 37.1532L75.1387 45.9818L72.6767 45.5477L75.7563 28.0827L78.2183 28.5168L77.0482 35.1528L79.5295 35.5903ZM67.1134 28.2842L65.4414 37.7668C67.6873 38.1331 70.1289 38.3454 72.7481 38.2817L72.6387 40.3647C69.6099 40.4454 66.736 40.0973 64.1586 39.6429L62.6391 39.3749L64.6706 27.8535L67.1134 28.2842ZM84.4218 30.047L84.1505 31.5858L85.7854 31.8741L86.0568 30.3353L88.3264 30.7355L87.1292 37.5253L80.9165 36.4298L82.1137 29.64L84.4218 30.047ZM83.5705 34.8749L85.2055 35.1632L85.4598 33.7206L83.8249 33.4323L83.5705 34.8749ZM91.6732 31.3256L91.4019 32.8644L92.9791 33.1425L93.2505 31.6037L95.5778 32.0141L94.3806 38.8039L88.1486 37.705L89.3459 30.9153L91.6732 31.3256ZM90.822 36.1535L92.3992 36.4316L92.6536 34.989L91.0763 34.7109L90.822 36.1535ZM95.424 40.1977L95.078 42.1596L79.1134 39.3446L79.4593 37.3827L95.424 40.1977ZM92.9217 43.0288L91.9076 48.7799L79.7322 46.6331L80.7462 40.882L92.9217 43.0288ZM82.808 43.2486L82.4824 45.0951L89.8685 46.3975L90.1941 44.551L82.808 43.2486Z" fill="white"/>
<path d="M79.5295 35.5903L79.1767 37.5907L76.6955 37.1532L75.1387 45.9818L72.6767 45.5477L75.7563 28.0827L78.2183 28.5168L77.0482 35.1528L79.5295 35.5903ZM67.1134 28.2842L65.4414 37.7668C67.6873 38.1331 70.1289 38.3454 72.7481 38.2817L72.6387 40.3647C69.6099 40.4454 66.736 40.0973 64.1586 39.6429L62.6391 39.3749L64.6706 27.8535L67.1134 28.2842ZM84.4218 30.047L84.1505 31.5858L85.7854 31.8741L86.0568 30.3353L88.3264 30.7355L87.1292 37.5253L80.9165 36.4298L82.1137 29.64L84.4218 30.047ZM83.5705 34.8749L85.2055 35.1632L85.4598 33.7206L83.8249 33.4323L83.5705 34.8749ZM91.6732 31.3256L91.4019 32.8644L92.9791 33.1425L93.2505 31.6037L95.5778 32.0141L94.3806 38.8039L88.1486 37.705L89.3459 30.9153L91.6732 31.3256ZM90.822 36.1535L92.3992 36.4316L92.6536 34.989L91.0763 34.7109L90.822 36.1535ZM95.424 40.1977L95.078 42.1596L79.1134 39.3446L79.4593 37.3827L95.424 40.1977ZM92.9217 43.0288L91.9076 48.7799L79.7322 46.6331L80.7462 40.882L92.9217 43.0288ZM82.808 43.2486L82.4824 45.0951L89.8685 46.3975L90.1941 44.551L82.808 43.2486Z" fill="black" fill-opacity="0.2"/>
<path d="M79.5295 35.5903L79.1767 37.5907L76.6955 37.1532L75.1387 45.9818L72.6767 45.5477L75.7563 28.0827L78.2183 28.5168L77.0482 35.1528L79.5295 35.5903ZM67.1134 28.2842L65.4414 37.7668C67.6873 38.1331 70.1289 38.3454 72.7481 38.2817L72.6387 40.3647C69.6099 40.4454 66.736 40.0973 64.1586 39.6429L62.6391 39.3749L64.6706 27.8535L67.1134 28.2842ZM84.4218 30.047L84.1505 31.5858L85.7854 31.8741L86.0568 30.3353L88.3264 30.7355L87.1292 37.5253L80.9165 36.4298L82.1137 29.64L84.4218 30.047ZM83.5705 34.8749L85.2055 35.1632L85.4598 33.7206L83.8249 33.4323L83.5705 34.8749ZM91.6732 31.3256L91.4019 32.8644L92.9791 33.1425L93.2505 31.6037L95.5778 32.0141L94.3806 38.8039L88.1486 37.705L89.3459 30.9153L91.6732 31.3256ZM90.822 36.1535L92.3992 36.4316L92.6536 34.989L91.0763 34.7109L90.822 36.1535ZM95.424 40.1977L95.078 42.1596L79.1134 39.3446L79.4593 37.3827L95.424 40.1977ZM92.9217 43.0288L91.9076 48.7799L79.7322 46.6331L80.7462 40.882L92.9217 43.0288ZM82.808 43.2486L82.4824 45.0951L89.8685 46.3975L90.1941 44.551L82.808 43.2486Z" fill="black" fill-opacity="0.2"/>
<path d="M79.5295 35.5903L79.1767 37.5907L76.6955 37.1532L75.1387 45.9818L72.6767 45.5477L75.7563 28.0827L78.2183 28.5168L77.0482 35.1528L79.5295 35.5903ZM67.1134 28.2842L65.4414 37.7668C67.6873 38.1331 70.1289 38.3454 72.7481 38.2817L72.6387 40.3647C69.6099 40.4454 66.736 40.0973 64.1586 39.6429L62.6391 39.3749L64.6706 27.8535L67.1134 28.2842ZM84.4218 30.047L84.1505 31.5858L85.7854 31.8741L86.0568 30.3353L88.3264 30.7355L87.1292 37.5253L80.9165 36.4298L82.1137 29.64L84.4218 30.047ZM83.5705 34.8749L85.2055 35.1632L85.4598 33.7206L83.8249 33.4323L83.5705 34.8749ZM91.6732 31.3256L91.4019 32.8644L92.9791 33.1425L93.2505 31.6037L95.5778 32.0141L94.3806 38.8039L88.1486 37.705L89.3459 30.9153L91.6732 31.3256ZM90.822 36.1535L92.3992 36.4316L92.6536 34.989L91.0763 34.7109L90.822 36.1535ZM95.424 40.1977L95.078 42.1596L79.1134 39.3446L79.4593 37.3827L95.424 40.1977ZM92.9217 43.0288L91.9076 48.7799L79.7322 46.6331L80.7462 40.882L92.9217 43.0288ZM82.808 43.2486L82.4824 45.0951L89.8685 46.3975L90.1941 44.551L82.808 43.2486Z" fill="black" fill-opacity="0.2"/>
<path d="M79.5295 35.5903L79.1767 37.5907L76.6955 37.1532L75.1387 45.9818L72.6767 45.5477L75.7563 28.0827L78.2183 28.5168L77.0482 35.1528L79.5295 35.5903ZM67.1134 28.2842L65.4414 37.7668C67.6873 38.1331 70.1289 38.3454 72.7481 38.2817L72.6387 40.3647C69.6099 40.4454 66.736 40.0973 64.1586 39.6429L62.6391 39.3749L64.6706 27.8535L67.1134 28.2842ZM84.4218 30.047L84.1505 31.5858L85.7854 31.8741L86.0568 30.3353L88.3264 30.7355L87.1292 37.5253L80.9165 36.4298L82.1137 29.64L84.4218 30.047ZM83.5705 34.8749L85.2055 35.1632L85.4598 33.7206L83.8249 33.4323L83.5705 34.8749ZM91.6732 31.3256L91.4019 32.8644L92.9791 33.1425L93.2505 31.6037L95.5778 32.0141L94.3806 38.8039L88.1486 37.705L89.3459 30.9153L91.6732 31.3256ZM90.822 36.1535L92.3992 36.4316L92.6536 34.989L91.0763 34.7109L90.822 36.1535ZM95.424 40.1977L95.078 42.1596L79.1134 39.3446L79.4593 37.3827L95.424 40.1977ZM92.9217 43.0288L91.9076 48.7799L79.7322 46.6331L80.7462 40.882L92.9217 43.0288ZM82.808 43.2486L82.4824 45.0951L89.8685 46.3975L90.1941 44.551L82.808 43.2486Z" fill="black" fill-opacity="0.2"/>
<path d="M79.5295 35.5903L79.1767 37.5907L76.6955 37.1532L75.1387 45.9818L72.6767 45.5477L75.7563 28.0827L78.2183 28.5168L77.0482 35.1528L79.5295 35.5903ZM67.1134 28.2842L65.4414 37.7668C67.6873 38.1331 70.1289 38.3454 72.7481 38.2817L72.6387 40.3647C69.6099 40.4454 66.736 40.0973 64.1586 39.6429L62.6391 39.3749L64.6706 27.8535L67.1134 28.2842ZM84.4218 30.047L84.1505 31.5858L85.7854 31.8741L86.0568 30.3353L88.3264 30.7355L87.1292 37.5253L80.9165 36.4298L82.1137 29.64L84.4218 30.047ZM83.5705 34.8749L85.2055 35.1632L85.4598 33.7206L83.8249 33.4323L83.5705 34.8749ZM91.6732 31.3256L91.4019 32.8644L92.9791 33.1425L93.2505 31.6037L95.5778 32.0141L94.3806 38.8039L88.1486 37.705L89.3459 30.9153L91.6732 31.3256ZM90.822 36.1535L92.3992 36.4316L92.6536 34.989L91.0763 34.7109L90.822 36.1535ZM95.424 40.1977L95.078 42.1596L79.1134 39.3446L79.4593 37.3827L95.424 40.1977ZM92.9217 43.0288L91.9076 48.7799L79.7322 46.6331L80.7462 40.882L92.9217 43.0288ZM82.808 43.2486L82.4824 45.0951L89.8685 46.3975L90.1941 44.551L82.808 43.2486Z" fill="black" fill-opacity="0.2"/>
<path d="M79.5295 35.5903L79.1767 37.5907L76.6955 37.1532L75.1387 45.9818L72.6767 45.5477L75.7563 28.0827L78.2183 28.5168L77.0482 35.1528L79.5295 35.5903ZM67.1134 28.2842L65.4414 37.7668C67.6873 38.1331 70.1289 38.3454 72.7481 38.2817L72.6387 40.3647C69.6099 40.4454 66.736 40.0973 64.1586 39.6429L62.6391 39.3749L64.6706 27.8535L67.1134 28.2842ZM84.4218 30.047L84.1505 31.5858L85.7854 31.8741L86.0568 30.3353L88.3264 30.7355L87.1292 37.5253L80.9165 36.4298L82.1137 29.64L84.4218 30.047ZM83.5705 34.8749L85.2055 35.1632L85.4598 33.7206L83.8249 33.4323L83.5705 34.8749ZM91.6732 31.3256L91.4019 32.8644L92.9791 33.1425L93.2505 31.6037L95.5778 32.0141L94.3806 38.8039L88.1486 37.705L89.3459 30.9153L91.6732 31.3256ZM90.822 36.1535L92.3992 36.4316L92.6536 34.989L91.0763 34.7109L90.822 36.1535ZM95.424 40.1977L95.078 42.1596L79.1134 39.3446L79.4593 37.3827L95.424 40.1977ZM92.9217 43.0288L91.9076 48.7799L79.7322 46.6331L80.7462 40.882L92.9217 43.0288ZM82.808 43.2486L82.4824 45.0951L89.8685 46.3975L90.1941 44.551L82.808 43.2486Z" fill="black" fill-opacity="0.2"/>
<rect x="46.2324" y="111.93" width="42.8612" height="103.646" rx="21.4306" transform="rotate(-62.2826 46.2324 111.93)" fill="#E036C6"/>
<g filter="url(#filter1_bdi_948_8728)">
<rect x="84.166" y="137.059" width="42.8612" height="103.646" rx="21.4306" transform="rotate(-100.808 84.166 137.059)" fill="url(#paint0_linear_948_8728)" fill-opacity="0.8" shape-rendering="crispEdges"/>
<rect x="83.7686" y="137.644" width="43.8612" height="104.646" rx="21.9306" transform="rotate(-100.808 83.7686 137.644)" stroke="url(#paint1_linear_948_8728)" stroke-opacity="0.2" shape-rendering="crispEdges"/>
</g>
</g>
<g filter="url(#filter2_bd_948_8728)">
<rect x="15" y="11" width="155" height="149" rx="20" fill="#774545" fill-opacity="0.9" shape-rendering="crispEdges"/>
<rect x="15.5" y="11.5" width="154" height="148" rx="19.5" stroke="#FF6D6D" stroke-opacity="0.3" shape-rendering="crispEdges"/>
<path d="M44.2422 33.1445V35.0977H37.543V37.9688H35.082V35.0977H27.9727V33.1445H44.2422ZM42.4453 39.4922V41.4844H29.8867V36.5625H32.3477V39.4922H42.4453ZM32.5234 24.5898V26.4453H39.6523V24.5898H42.1328V31.8945H30.0625V24.5898H32.5234ZM32.5234 29.9219H39.6523V28.3008H32.5234V29.9219ZM59.2695 31.6797V33.6914H54.1523V37.7734H61.0469V39.7656H44.7773V37.7734H51.6328V33.6914H46.5938V25.3906H49.1523V31.6797H59.2695Z" fill="#FFD2D2"/>
<path d="M92.5 73L157.019 136.75H27.9811L92.5 73Z" fill="#FF6D6D"/>
<g filter="url(#filter3_bdi_948_8728)">
<path d="M100.5 50L165.019 113.75H35.9811L100.5 50Z" fill="url(#paint2_linear_948_8728)" fill-opacity="0.8" shape-rendering="crispEdges"/>
<path d="M36.5898 113.5L100.5 50.3515L164.41 113.5H36.5898Z" stroke="url(#paint3_linear_948_8728)" stroke-opacity="0.2" stroke-width="0.5" shape-rendering="crispEdges"/>
</g>
</g>
<defs>
<filter id="filter0_bd_948_8728" x="8.00195" y="-9" width="218.518" height="213.652" filterUnits="userSpaceOnUse" color-interpolation-filters="sRGB">
<feFlood flood-opacity="0" result="BackgroundImageFix"/>
<feGaussianBlur in="BackgroundImageFix" stdDeviation="10"/>
<feComposite in2="SourceAlpha" operator="in" result="effect1_backgroundBlur_948_8728"/>
<feColorMatrix in="SourceAlpha" type="matrix" values="0 0 0 0 0 0 0 0 0 0 0 0 0 0 0 0 0 0 127 0" result="hardAlpha"/>
<feOffset dy="4"/>
<feGaussianBlur stdDeviation="7.5"/>
<feComposite in2="hardAlpha" operator="out"/>
<feColorMatrix type="matrix" values="0 0 0 0 0 0 0 0 0 0 0 0 0 0 0 0 0 0 0.15 0"/>
<feBlend mode="normal" in2="effect1_backgroundBlur_948_8728" result="effect2_dropShadow_948_8728"/>
<feBlend mode="normal" in="SourceGraphic" in2="effect2_dropShadow_948_8728" result="shape"/>
</filter>
<filter id="filter1_bdi_948_8728" x="63.7637" y="66.1575" width="134.576" height="87.2673" filterUnits="userSpaceOnUse" color-interpolation-filters="sRGB">
<feFlood flood-opacity="0" result="BackgroundImageFix"/>
<feGaussianBlur in="BackgroundImageFix" stdDeviation="6"/>
<feComposite in2="SourceAlpha" operator="in" result="effect1_backgroundBlur_948_8728"/>
<feColorMatrix in="SourceAlpha" type="matrix" values="0 0 0 0 0 0 0 0 0 0 0 0 0 0 0 0 0 0 127 0" result="hardAlpha"/>
<feOffset dy="4"/>
<feGaussianBlur stdDeviation="7.5"/>
<feComposite in2="hardAlpha" operator="out"/>
<feColorMatrix type="matrix" values="0 0 0 0 0 0 0 0 0 0 0 0 0 0 0 0 0 0 0.15 0"/>
<feBlend mode="normal" in2="effect1_backgroundBlur_948_8728" result="effect2_dropShadow_948_8728"/>
<feBlend mode="normal" in="SourceGraphic" in2="effect2_dropShadow_948_8728" result="shape"/>
<feColorMatrix in="SourceAlpha" type="matrix" values="0 0 0 0 0 0 0 0 0 0 0 0 0 0 0 0 0 0 127 0" result="hardAlpha"/>
<feOffset dy="1"/>
<feGaussianBlur stdDeviation="2"/>
<feComposite in2="hardAlpha" operator="arithmetic" k2="-1" k3="1"/>
<feColorMatrix type="matrix" values="0 0 0 0 1 0 0 0 0 1 0 0 0 0 1 0 0 0 0.25 0"/>
<feBlend mode="normal" in2="shape" result="effect3_innerShadow_948_8728"/>
</filter>
<filter id="filter2_bd_948_8728" x="-5" y="-9" width="195" height="189" filterUnits="userSpaceOnUse" color-interpolation-filters="sRGB">
<feFlood flood-opacity="0" result="BackgroundImageFix"/>
<feGaussianBlur in="BackgroundImageFix" stdDeviation="10"/>
<feComposite in2="SourceAlpha" operator="in" result="effect1_backgroundBlur_948_8728"/>
<feColorMatrix in="SourceAlpha" type="matrix" values="0 0 0 0 0 0 0 0 0 0 0 0 0 0 0 0 0 0 127 0" result="hardAlpha"/>
<feOffset dy="4"/>
<feGaussianBlur stdDeviation="7.5"/>
<feComposite in2="hardAlpha" operator="out"/>
<feColorMatrix type="matrix" values="0 0 0 0 0 0 0 0 0 0 0 0 0 0 0 0 0 0 0.15 0"/>
<feBlend mode="normal" in2="effect1_backgroundBlur_948_8728" result="effect2_dropShadow_948_8728"/>
<feBlend mode="normal" in="SourceGraphic" in2="effect2_dropShadow_948_8728" result="shape"/>
</filter>
<filter id="filter3_bdi_948_8728" x="23.9805" y="38" width="153.039" height="87.75" filterUnits="userSpaceOnUse" color-interpolation-filters="sRGB">
<feFlood flood-opacity="0" result="BackgroundImageFix"/>
<feGaussianBlur in="BackgroundImageFix" stdDeviation="6"/>
<feComposite in2="SourceAlpha" operator="in" result="effect1_backgroundBlur_948_8728"/>
<feColorMatrix in="SourceAlpha" type="matrix" values="0 0 0 0 0 0 0 0 0 0 0 0 0 0 0 0 0 0 127 0" result="hardAlpha"/>
<feOffset dy="4"/>
<feGaussianBlur stdDeviation="2"/>
<feComposite in2="hardAlpha" operator="out"/>
<feColorMatrix type="matrix" values="0 0 0 0 0 0 0 0 0 0 0 0 0 0 0 0 0 0 0.15 0"/>
<feBlend mode="normal" in2="effect1_backgroundBlur_948_8728" result="effect2_dropShadow_948_8728"/>
<feBlend mode="normal" in="SourceGraphic" in2="effect2_dropShadow_948_8728" result="shape"/>
<feColorMatrix in="SourceAlpha" type="matrix" values="0 0 0 0 0 0 0 0 0 0 0 0 0 0 0 0 0 0 127 0" result="hardAlpha"/>
<feOffset dy="3"/>
<feGaussianBlur stdDeviation="2"/>
<feComposite in2="hardAlpha" operator="arithmetic" k2="-1" k3="1"/>
<feColorMatrix type="matrix" values="0 0 0 0 1 0 0 0 0 1 0 0 0 0 1 0 0 0 0.15 0"/>
<feBlend mode="normal" in2="shape" result="effect3_innerShadow_948_8728"/>
</filter>
<linearGradient id="paint0_linear_948_8728" x1="90.2589" y1="141.813" x2="125.48" y2="223.663" gradientUnits="userSpaceOnUse">
<stop stop-color="#E037C6" stop-opacity="0.3"/>
<stop offset="0.355" stop-color="#B2219C" stop-opacity="0.716"/>
<stop offset="0.68442" stop-color="#833877" stop-opacity="0.452464"/>
<stop offset="1" stop-color="#F163DB" stop-opacity="0.2"/>
</linearGradient>
<linearGradient id="paint1_linear_948_8728" x1="125.396" y1="229.515" x2="89.5484" y2="143.682" gradientUnits="userSpaceOnUse">
<stop stop-color="#E036C8"/>
<stop offset="0.467717" stop-color="#8A267B"/>
<stop offset="0.838571" stop-color="white"/>
<stop offset="1" stop-color="#E036C6"/>
</linearGradient>
<linearGradient id="paint2_linear_948_8728" x1="93" y1="50" x2="121" y2="130.5" gradientUnits="userSpaceOnUse">
<stop stop-color="#FF6D6D" stop-opacity="0.4"/>
<stop offset="0.213582" stop-color="#E4A5A5" stop-opacity="0.4"/>
<stop offset="0.662503" stop-color="#552929" stop-opacity="0.2"/>
<stop offset="1" stop-color="#EF9E9E" stop-opacity="0.3"/>
</linearGradient>
<linearGradient id="paint3_linear_948_8728" x1="87.5" y1="57" x2="151.5" y2="119.5" gradientUnits="userSpaceOnUse">
<stop stop-color="#F36D6D"/>
<stop offset="0.364795" stop-color="#9D3F3F"/>
<stop offset="0.650214" stop-color="white"/>
<stop offset="1" stop-color="#F36D6D"/>
</linearGradient>
</defs>
</svg>
