<svg width="219" height="201" viewBox="0 0 219 201" fill="none" xmlns="http://www.w3.org/2000/svg">
<g filter="url(#filter0_bd_948_8780)">
<rect x="53.875" y="11" width="155" height="149" rx="20" transform="rotate(10 53.875 11)" fill="#746B26" fill-opacity="0.9" shape-rendering="crispEdges"/>
<rect x="54.2806" y="11.5792" width="154" height="148" rx="19.5" transform="rotate(10 54.2806 11.5792)" stroke="#F3DB0C" stroke-opacity="0.3" shape-rendering="crispEdges"/>
<circle cx="130.099" cy="131.574" r="33.502" transform="rotate(10 130.099 131.574)" fill="#F3DB0C"/>
<g filter="url(#filter1_bdi_948_8780)">
<circle cx="102.316" cy="96.2083" r="33.502" transform="rotate(10 102.316 96.2083)" fill="url(#paint0_linear_948_8780)" fill-opacity="0.8" shape-rendering="crispEdges"/>
<circle cx="102.316" cy="96.2083" r="33.6261" transform="rotate(10 102.316 96.2083)" stroke="url(#paint1_linear_948_8780)" stroke-opacity="0.2" stroke-width="0.248163" shape-rendering="crispEdges"/>
</g>
<path d="M79.1223 28.6763L76.036 46.1797L73.5547 45.7422L76.6411 28.2387L79.1223 28.6763ZM73.5491 29.5776C72.613 34.8864 69.9706 38.9621 63.1971 40.8219L62.2543 38.6328C67.1509 37.2948 69.63 34.876 70.7094 31.0602L64.7467 30.0088L65.0859 28.0853L73.5491 29.5776ZM84.4218 30.047L84.1505 31.5858L85.7854 31.8741L86.0568 30.3353L88.3264 30.7355L87.1292 37.5253L80.9165 36.4298L82.1137 29.64L84.4218 30.047ZM83.5705 34.8749L85.2055 35.1632L85.4598 33.7206L83.8249 33.4323L83.5705 34.8749ZM91.6732 31.3256L91.4019 32.8644L92.9791 33.1425L93.2505 31.6037L95.5778 32.0141L94.3806 38.8039L88.1486 37.705L89.3459 30.9153L91.6732 31.3256ZM90.822 36.1535L92.3992 36.4316L92.6536 34.989L91.0763 34.7109L90.822 36.1535ZM95.424 40.1977L95.078 42.1596L79.1134 39.3446L79.4593 37.3827L95.424 40.1977ZM92.9217 43.0288L91.9076 48.7799L79.7322 46.6331L80.7462 40.882L92.9217 43.0288ZM82.808 43.2486L82.4824 45.0951L89.8685 46.3975L90.1941 44.551L82.808 43.2486Z" fill="white"/>
<path d="M79.1223 28.6763L76.036 46.1797L73.5547 45.7422L76.6411 28.2387L79.1223 28.6763ZM73.5491 29.5776C72.613 34.8864 69.9706 38.9621 63.1971 40.8219L62.2543 38.6328C67.1509 37.2948 69.63 34.876 70.7094 31.0602L64.7467 30.0088L65.0859 28.0853L73.5491 29.5776ZM84.4218 30.047L84.1505 31.5858L85.7854 31.8741L86.0568 30.3353L88.3264 30.7355L87.1292 37.5253L80.9165 36.4298L82.1137 29.64L84.4218 30.047ZM83.5705 34.8749L85.2055 35.1632L85.4598 33.7206L83.8249 33.4323L83.5705 34.8749ZM91.6732 31.3256L91.4019 32.8644L92.9791 33.1425L93.2505 31.6037L95.5778 32.0141L94.3806 38.8039L88.1486 37.705L89.3459 30.9153L91.6732 31.3256ZM90.822 36.1535L92.3992 36.4316L92.6536 34.989L91.0763 34.7109L90.822 36.1535ZM95.424 40.1977L95.078 42.1596L79.1134 39.3446L79.4593 37.3827L95.424 40.1977ZM92.9217 43.0288L91.9076 48.7799L79.7322 46.6331L80.7462 40.882L92.9217 43.0288ZM82.808 43.2486L82.4824 45.0951L89.8685 46.3975L90.1941 44.551L82.808 43.2486Z" fill="black" fill-opacity="0.2"/>
<path d="M79.1223 28.6763L76.036 46.1797L73.5547 45.7422L76.6411 28.2387L79.1223 28.6763ZM73.5491 29.5776C72.613 34.8864 69.9706 38.9621 63.1971 40.8219L62.2543 38.6328C67.1509 37.2948 69.63 34.876 70.7094 31.0602L64.7467 30.0088L65.0859 28.0853L73.5491 29.5776ZM84.4218 30.047L84.1505 31.5858L85.7854 31.8741L86.0568 30.3353L88.3264 30.7355L87.1292 37.5253L80.9165 36.4298L82.1137 29.64L84.4218 30.047ZM83.5705 34.8749L85.2055 35.1632L85.4598 33.7206L83.8249 33.4323L83.5705 34.8749ZM91.6732 31.3256L91.4019 32.8644L92.9791 33.1425L93.2505 31.6037L95.5778 32.0141L94.3806 38.8039L88.1486 37.705L89.3459 30.9153L91.6732 31.3256ZM90.822 36.1535L92.3992 36.4316L92.6536 34.989L91.0763 34.7109L90.822 36.1535ZM95.424 40.1977L95.078 42.1596L79.1134 39.3446L79.4593 37.3827L95.424 40.1977ZM92.9217 43.0288L91.9076 48.7799L79.7322 46.6331L80.7462 40.882L92.9217 43.0288ZM82.808 43.2486L82.4824 45.0951L89.8685 46.3975L90.1941 44.551L82.808 43.2486Z" fill="black" fill-opacity="0.2"/>
<path d="M79.1223 28.6763L76.036 46.1797L73.5547 45.7422L76.6411 28.2387L79.1223 28.6763ZM73.5491 29.5776C72.613 34.8864 69.9706 38.9621 63.1971 40.8219L62.2543 38.6328C67.1509 37.2948 69.63 34.876 70.7094 31.0602L64.7467 30.0088L65.0859 28.0853L73.5491 29.5776ZM84.4218 30.047L84.1505 31.5858L85.7854 31.8741L86.0568 30.3353L88.3264 30.7355L87.1292 37.5253L80.9165 36.4298L82.1137 29.64L84.4218 30.047ZM83.5705 34.8749L85.2055 35.1632L85.4598 33.7206L83.8249 33.4323L83.5705 34.8749ZM91.6732 31.3256L91.4019 32.8644L92.9791 33.1425L93.2505 31.6037L95.5778 32.0141L94.3806 38.8039L88.1486 37.705L89.3459 30.9153L91.6732 31.3256ZM90.822 36.1535L92.3992 36.4316L92.6536 34.989L91.0763 34.7109L90.822 36.1535ZM95.424 40.1977L95.078 42.1596L79.1134 39.3446L79.4593 37.3827L95.424 40.1977ZM92.9217 43.0288L91.9076 48.7799L79.7322 46.6331L80.7462 40.882L92.9217 43.0288ZM82.808 43.2486L82.4824 45.0951L89.8685 46.3975L90.1941 44.551L82.808 43.2486Z" fill="black" fill-opacity="0.2"/>
<path d="M79.1223 28.6763L76.036 46.1797L73.5547 45.7422L76.6411 28.2387L79.1223 28.6763ZM73.5491 29.5776C72.613 34.8864 69.9706 38.9621 63.1971 40.8219L62.2543 38.6328C67.1509 37.2948 69.63 34.876 70.7094 31.0602L64.7467 30.0088L65.0859 28.0853L73.5491 29.5776ZM84.4218 30.047L84.1505 31.5858L85.7854 31.8741L86.0568 30.3353L88.3264 30.7355L87.1292 37.5253L80.9165 36.4298L82.1137 29.64L84.4218 30.047ZM83.5705 34.8749L85.2055 35.1632L85.4598 33.7206L83.8249 33.4323L83.5705 34.8749ZM91.6732 31.3256L91.4019 32.8644L92.9791 33.1425L93.2505 31.6037L95.5778 32.0141L94.3806 38.8039L88.1486 37.705L89.3459 30.9153L91.6732 31.3256ZM90.822 36.1535L92.3992 36.4316L92.6536 34.989L91.0763 34.7109L90.822 36.1535ZM95.424 40.1977L95.078 42.1596L79.1134 39.3446L79.4593 37.3827L95.424 40.1977ZM92.9217 43.0288L91.9076 48.7799L79.7322 46.6331L80.7462 40.882L92.9217 43.0288ZM82.808 43.2486L82.4824 45.0951L89.8685 46.3975L90.1941 44.551L82.808 43.2486Z" fill="black" fill-opacity="0.2"/>
<path d="M79.1223 28.6763L76.036 46.1797L73.5547 45.7422L76.6411 28.2387L79.1223 28.6763ZM73.5491 29.5776C72.613 34.8864 69.9706 38.9621 63.1971 40.8219L62.2543 38.6328C67.1509 37.2948 69.63 34.876 70.7094 31.0602L64.7467 30.0088L65.0859 28.0853L73.5491 29.5776ZM84.4218 30.047L84.1505 31.5858L85.7854 31.8741L86.0568 30.3353L88.3264 30.7355L87.1292 37.5253L80.9165 36.4298L82.1137 29.64L84.4218 30.047ZM83.5705 34.8749L85.2055 35.1632L85.4598 33.7206L83.8249 33.4323L83.5705 34.8749ZM91.6732 31.3256L91.4019 32.8644L92.9791 33.1425L93.2505 31.6037L95.5778 32.0141L94.3806 38.8039L88.1486 37.705L89.3459 30.9153L91.6732 31.3256ZM90.822 36.1535L92.3992 36.4316L92.6536 34.989L91.0763 34.7109L90.822 36.1535ZM95.424 40.1977L95.078 42.1596L79.1134 39.3446L79.4593 37.3827L95.424 40.1977ZM92.9217 43.0288L91.9076 48.7799L79.7322 46.6331L80.7462 40.882L92.9217 43.0288ZM82.808 43.2486L82.4824 45.0951L89.8685 46.3975L90.1941 44.551L82.808 43.2486Z" fill="black" fill-opacity="0.2"/>
<path d="M79.1223 28.6763L76.036 46.1797L73.5547 45.7422L76.6411 28.2387L79.1223 28.6763ZM73.5491 29.5776C72.613 34.8864 69.9706 38.9621 63.1971 40.8219L62.2543 38.6328C67.1509 37.2948 69.63 34.876 70.7094 31.0602L64.7467 30.0088L65.0859 28.0853L73.5491 29.5776ZM84.4218 30.047L84.1505 31.5858L85.7854 31.8741L86.0568 30.3353L88.3264 30.7355L87.1292 37.5253L80.9165 36.4298L82.1137 29.64L84.4218 30.047ZM83.5705 34.8749L85.2055 35.1632L85.4598 33.7206L83.8249 33.4323L83.5705 34.8749ZM91.6732 31.3256L91.4019 32.8644L92.9791 33.1425L93.2505 31.6037L95.5778 32.0141L94.3806 38.8039L88.1486 37.705L89.3459 30.9153L91.6732 31.3256ZM90.822 36.1535L92.3992 36.4316L92.6536 34.989L91.0763 34.7109L90.822 36.1535ZM95.424 40.1977L95.078 42.1596L79.1134 39.3446L79.4593 37.3827L95.424 40.1977ZM92.9217 43.0288L91.9076 48.7799L79.7322 46.6331L80.7462 40.882L92.9217 43.0288ZM82.808 43.2486L82.4824 45.0951L89.8685 46.3975L90.1941 44.551L82.808 43.2486Z" fill="black" fill-opacity="0.2"/>
</g>
<g filter="url(#filter2_bd_948_8780)">
<rect x="15" y="11" width="155" height="149" rx="20" fill="#508946" fill-opacity="0.9" shape-rendering="crispEdges"/>
<rect x="15.5" y="11.5" width="154" height="148" rx="19.5" stroke="#60F04A" stroke-opacity="0.3" shape-rendering="crispEdges"/>
<path d="M44.2031 32.0898V34.1016H37.3281V35.4102C40.4238 35.6445 42.25 36.7578 42.2695 38.5938C42.25 40.6445 39.9258 41.7969 36.0781 41.7969C32.1719 41.7969 29.8477 40.6445 29.8477 38.5938C29.8477 36.748 31.6934 35.6348 34.8477 35.4102V34.1016H27.9922V32.0898H44.2031ZM36.0781 37.2461C33.6172 37.2656 32.3672 37.6953 32.3867 38.5938C32.3672 39.4531 33.6172 39.9219 36.0781 39.9219C38.4805 39.9219 39.75 39.4531 39.7695 38.5938C39.75 37.6953 38.4805 37.2656 36.0781 37.2461ZM42.7383 24.7852V26.7383H37.9141C38.334 27.9883 40.1406 29.1895 43.5195 29.4727L42.6406 31.4258C39.291 31.1035 37.0254 29.834 36.0781 28.1055C35.1406 29.834 32.9141 31.1035 29.5352 31.4258L28.7148 29.4727C32.0059 29.1895 33.8223 27.9785 34.2812 26.7383H29.4766V24.7852H42.7383ZM59.6602 24.043V33.9453H57.1602V24.043H59.6602ZM53.9375 24.8242V30.1172H48.1562V31.582C51.125 31.5723 53.2148 31.5234 55.6172 31.1133L55.9297 33.1055C53.1953 33.5742 50.8125 33.6328 47.2773 33.6328H45.7148V28.2227H51.457V26.8164H45.6953V24.8242H53.9375ZM50.2461 34.6875V36.2109H57.1797V34.6875H59.6602V41.6016H47.7656V34.6875H50.2461ZM50.2461 39.6094H57.1797V38.1445H50.2461V39.6094Z" fill="#CFFFD3"/>
<path d="M108.26 60L154.76 125.392C118.093 143.596 99.272 143.476 61.7598 125.392L108.26 60Z" fill="#60F04A"/>
<g filter="url(#filter3_bdi_948_8780)">
<path d="M83.2598 60L129.76 125.392C93.0927 143.596 74.272 143.476 36.7598 125.392L83.2598 60Z" fill="url(#paint2_linear_948_8780)" fill-opacity="0.8" shape-rendering="crispEdges"/>
<path d="M37.1353 125.295L83.2598 60.4314L129.386 125.298C111.195 134.307 97.4306 138.765 83.577 138.75C69.722 138.735 55.7469 134.246 37.1353 125.295Z" stroke="url(#paint3_linear_948_8780)" stroke-opacity="0.2" stroke-width="0.5" shape-rendering="crispEdges"/>
</g>
</g>
<defs>
<filter id="filter0_bd_948_8780" x="8.00195" y="-9" width="218.518" height="213.652" filterUnits="userSpaceOnUse" color-interpolation-filters="sRGB">
<feFlood flood-opacity="0" result="BackgroundImageFix"/>
<feGaussianBlur in="BackgroundImageFix" stdDeviation="10"/>
<feComposite in2="SourceAlpha" operator="in" result="effect1_backgroundBlur_948_8780"/>
<feColorMatrix in="SourceAlpha" type="matrix" values="0 0 0 0 0 0 0 0 0 0 0 0 0 0 0 0 0 0 127 0" result="hardAlpha"/>
<feOffset dy="4"/>
<feGaussianBlur stdDeviation="7.5"/>
<feComposite in2="hardAlpha" operator="out"/>
<feColorMatrix type="matrix" values="0 0 0 0 0 0 0 0 0 0 0 0 0 0 0 0 0 0 0.15 0"/>
<feBlend mode="normal" in2="effect1_backgroundBlur_948_8780" result="effect2_dropShadow_948_8780"/>
<feBlend mode="normal" in="SourceGraphic" in2="effect2_dropShadow_948_8780" result="shape"/>
</filter>
<filter id="filter1_bdi_948_8780" x="56.5605" y="50.4524" width="91.5117" height="91.5117" filterUnits="userSpaceOnUse" color-interpolation-filters="sRGB">
<feFlood flood-opacity="0" result="BackgroundImageFix"/>
<feGaussianBlur in="BackgroundImageFix" stdDeviation="6"/>
<feComposite in2="SourceAlpha" operator="in" result="effect1_backgroundBlur_948_8780"/>
<feColorMatrix in="SourceAlpha" type="matrix" values="0 0 0 0 0 0 0 0 0 0 0 0 0 0 0 0 0 0 127 0" result="hardAlpha"/>
<feOffset dy="2.48163"/>
<feGaussianBlur stdDeviation="4.65306"/>
<feComposite in2="hardAlpha" operator="out"/>
<feColorMatrix type="matrix" values="0 0 0 0 0 0 0 0 0 0 0 0 0 0 0 0 0 0 0.15 0"/>
<feBlend mode="normal" in2="effect1_backgroundBlur_948_8780" result="effect2_dropShadow_948_8780"/>
<feBlend mode="normal" in="SourceGraphic" in2="effect2_dropShadow_948_8780" result="shape"/>
<feColorMatrix in="SourceAlpha" type="matrix" values="0 0 0 0 0 0 0 0 0 0 0 0 0 0 0 0 0 0 127 0" result="hardAlpha"/>
<feOffset dx="1.24082" dy="0.620408"/>
<feGaussianBlur stdDeviation="1.73714"/>
<feComposite in2="hardAlpha" operator="arithmetic" k2="-1" k3="1"/>
<feColorMatrix type="matrix" values="0 0 0 0 1 0 0 0 0 1 0 0 0 0 1 0 0 0 0.15 0"/>
<feBlend mode="normal" in2="shape" result="effect3_innerShadow_948_8780"/>
</filter>
<filter id="filter2_bd_948_8780" x="-5" y="-9" width="195" height="189" filterUnits="userSpaceOnUse" color-interpolation-filters="sRGB">
<feFlood flood-opacity="0" result="BackgroundImageFix"/>
<feGaussianBlur in="BackgroundImageFix" stdDeviation="10"/>
<feComposite in2="SourceAlpha" operator="in" result="effect1_backgroundBlur_948_8780"/>
<feColorMatrix in="SourceAlpha" type="matrix" values="0 0 0 0 0 0 0 0 0 0 0 0 0 0 0 0 0 0 127 0" result="hardAlpha"/>
<feOffset dy="4"/>
<feGaussianBlur stdDeviation="7.5"/>
<feComposite in2="hardAlpha" operator="out"/>
<feColorMatrix type="matrix" values="0 0 0 0 0 0 0 0 0 0 0 0 0 0 0 0 0 0 0.15 0"/>
<feBlend mode="normal" in2="effect1_backgroundBlur_948_8780" result="effect2_dropShadow_948_8780"/>
<feBlend mode="normal" in="SourceGraphic" in2="effect2_dropShadow_948_8780" result="shape"/>
</filter>
<filter id="filter3_bdi_948_8780" x="24.7598" y="47" width="123" height="109" filterUnits="userSpaceOnUse" color-interpolation-filters="sRGB">
<feFlood flood-opacity="0" result="BackgroundImageFix"/>
<feGaussianBlur in="BackgroundImageFix" stdDeviation="6"/>
<feComposite in2="SourceAlpha" operator="in" result="effect1_backgroundBlur_948_8780"/>
<feColorMatrix in="SourceAlpha" type="matrix" values="0 0 0 0 0 0 0 0 0 0 0 0 0 0 0 0 0 0 127 0" result="hardAlpha"/>
<feOffset dx="3" dy="2"/>
<feGaussianBlur stdDeviation="7.5"/>
<feComposite in2="hardAlpha" operator="out"/>
<feColorMatrix type="matrix" values="0 0 0 0 0 0 0 0 0 0 0 0 0 0 0 0 0 0 0.15 0"/>
<feBlend mode="normal" in2="effect1_backgroundBlur_948_8780" result="effect2_dropShadow_948_8780"/>
<feBlend mode="normal" in="SourceGraphic" in2="effect2_dropShadow_948_8780" result="shape"/>
<feColorMatrix in="SourceAlpha" type="matrix" values="0 0 0 0 0 0 0 0 0 0 0 0 0 0 0 0 0 0 127 0" result="hardAlpha"/>
<feOffset dy="1"/>
<feGaussianBlur stdDeviation="2"/>
<feComposite in2="hardAlpha" operator="arithmetic" k2="-1" k3="1"/>
<feColorMatrix type="matrix" values="0 0 0 0 1 0 0 0 0 1 0 0 0 0 1 0 0 0 0.15 0"/>
<feBlend mode="normal" in2="shape" result="effect3_innerShadow_948_8780"/>
</filter>
<linearGradient id="paint0_linear_948_8780" x1="75.9488" y1="66.739" x2="127.132" y2="119.784" gradientUnits="userSpaceOnUse">
<stop stop-color="#F3DB0C"/>
<stop offset="0.20055" stop-color="#EBD30C" stop-opacity="0.2"/>
<stop offset="0.356357" stop-color="#E5CF0B" stop-opacity="0.03"/>
<stop offset="0.553568" stop-color="#191705" stop-opacity="0.1"/>
<stop offset="0.91081" stop-color="#F3DB0C"/>
<stop offset="0.985" stop-color="#FFFBDC" stop-opacity="0.6"/>
</linearGradient>
<linearGradient id="paint1_linear_948_8780" x1="83.3937" y1="68.6002" x2="124.03" y2="122.265" gradientUnits="userSpaceOnUse">
<stop stop-color="#F3DB0C"/>
<stop offset="0.103219" stop-color="white"/>
<stop offset="0.215" stop-color="#E6D64C"/>
<stop offset="0.84" stop-color="white"/>
<stop offset="1" stop-color="#FFCF4A"/>
</linearGradient>
<linearGradient id="paint2_linear_948_8780" x1="82.7598" y1="64" x2="124.76" y2="117" gradientUnits="userSpaceOnUse">
<stop stop-color="#D7FFD1" stop-opacity="0.4"/>
<stop offset="0.422576" stop-color="#337529" stop-opacity="0.2"/>
<stop offset="0.645" stop-color="#61BF51" stop-opacity="0.3"/>
<stop offset="1" stop-color="#124908" stop-opacity="0.3"/>
</linearGradient>
<linearGradient id="paint3_linear_948_8780" x1="71.2598" y1="78.5" x2="126.26" y2="128.5" gradientUnits="userSpaceOnUse">
<stop stop-color="#DCFFE0"/>
<stop offset="1" stop-color="#06C132"/>
</linearGradient>
</defs>
</svg>
