<svg width="219" height="201" viewBox="0 0 219 201" fill="none" xmlns="http://www.w3.org/2000/svg">
<g filter="url(#filter0_bd_948_8737)">
<rect x="53.875" y="11" width="155" height="149" rx="20" transform="rotate(10 53.875 11)" fill="#774629" fill-opacity="0.9" shape-rendering="crispEdges"/>
<rect x="54.2806" y="11.5792" width="154" height="148" rx="19.5" transform="rotate(10 54.2806 11.5792)" stroke="#FD6F17" stroke-opacity="0.3" shape-rendering="crispEdges"/>
<path d="M79.9956 35.2559L79.6565 37.1794L67.558 35.0461L68.8332 27.8139L80.7586 29.9167L80.4127 31.8786L71.007 30.2201L70.4168 33.5669L79.9956 35.2559ZM81.2294 39.2813L80.8869 41.224L74.0394 40.0166L73.0491 45.6331L70.6255 45.2058L71.6158 39.5893L64.8645 38.3988L65.2071 36.4562L81.2294 39.2813ZM98.2594 32.0506L95.1663 49.5925L92.7235 49.1617L93.9682 42.1027L90.9676 41.5736L91.3237 39.554L94.3243 40.083L94.8093 37.3325L91.8664 36.8136L92.2192 34.8132L95.162 35.3321L95.8166 31.6198L98.2594 32.0506ZM91.6927 32.4L90.5057 39.132L85.12 38.1824L84.5197 41.5869C86.6853 41.9589 88.6274 42.1922 90.8874 42.2536L90.727 44.2879C88.0365 44.2498 85.7985 43.8948 83.1057 43.42L81.7208 43.1758L83.013 35.8475L88.4371 36.8039L88.9458 33.9187L83.4832 32.9555L83.8258 31.0128L91.6927 32.4ZM107.978 34.0023C111.86 34.7066 114.102 36.391 113.745 38.5294C113.359 40.6033 110.677 41.4194 106.791 40.7344C102.925 40.0526 100.626 38.3581 100.992 36.2808C101.369 34.1457 104.109 33.3398 107.978 34.0023ZM107.646 35.8873C105.203 35.4565 103.711 35.709 103.55 36.7319C103.362 37.6902 104.677 38.4379 107.12 38.8686C109.544 39.2959 111.036 39.0434 111.206 38.0817C111.385 37.0623 110.069 36.3146 107.646 35.8873ZM112.096 46.1916L111.045 52.1543L98.8308 50.0006L99.8822 44.0379L104.787 44.9028L105.055 43.3832L98.3036 42.1928L98.6495 40.2309L114.614 43.0459L114.268 45.0078L107.498 43.814L107.23 45.3335L112.096 46.1916ZM101.963 46.4079L101.6 48.466L108.986 49.7684L109.349 47.7103L101.963 46.4079Z" fill="white"/>
<path d="M79.9956 35.2559L79.6565 37.1794L67.558 35.0461L68.8332 27.8139L80.7586 29.9167L80.4127 31.8786L71.007 30.2201L70.4168 33.5669L79.9956 35.2559ZM81.2294 39.2813L80.8869 41.224L74.0394 40.0166L73.0491 45.6331L70.6255 45.2058L71.6158 39.5893L64.8645 38.3988L65.2071 36.4562L81.2294 39.2813ZM98.2594 32.0506L95.1663 49.5925L92.7235 49.1617L93.9682 42.1027L90.9676 41.5736L91.3237 39.554L94.3243 40.083L94.8093 37.3325L91.8664 36.8136L92.2192 34.8132L95.162 35.3321L95.8166 31.6198L98.2594 32.0506ZM91.6927 32.4L90.5057 39.132L85.12 38.1824L84.5197 41.5869C86.6853 41.9589 88.6274 42.1922 90.8874 42.2536L90.727 44.2879C88.0365 44.2498 85.7985 43.8948 83.1057 43.42L81.7208 43.1758L83.013 35.8475L88.4371 36.8039L88.9458 33.9187L83.4832 32.9555L83.8258 31.0128L91.6927 32.4ZM107.978 34.0023C111.86 34.7066 114.102 36.391 113.745 38.5294C113.359 40.6033 110.677 41.4194 106.791 40.7344C102.925 40.0526 100.626 38.3581 100.992 36.2808C101.369 34.1457 104.109 33.3398 107.978 34.0023ZM107.646 35.8873C105.203 35.4565 103.711 35.709 103.55 36.7319C103.362 37.6902 104.677 38.4379 107.12 38.8686C109.544 39.2959 111.036 39.0434 111.206 38.0817C111.385 37.0623 110.069 36.3146 107.646 35.8873ZM112.096 46.1916L111.045 52.1543L98.8308 50.0006L99.8822 44.0379L104.787 44.9028L105.055 43.3832L98.3036 42.1928L98.6495 40.2309L114.614 43.0459L114.268 45.0078L107.498 43.814L107.23 45.3335L112.096 46.1916ZM101.963 46.4079L101.6 48.466L108.986 49.7684L109.349 47.7103L101.963 46.4079Z" fill="black" fill-opacity="0.2"/>
<path d="M79.9956 35.2559L79.6565 37.1794L67.558 35.0461L68.8332 27.8139L80.7586 29.9167L80.4127 31.8786L71.007 30.2201L70.4168 33.5669L79.9956 35.2559ZM81.2294 39.2813L80.8869 41.224L74.0394 40.0166L73.0491 45.6331L70.6255 45.2058L71.6158 39.5893L64.8645 38.3988L65.2071 36.4562L81.2294 39.2813ZM98.2594 32.0506L95.1663 49.5925L92.7235 49.1617L93.9682 42.1027L90.9676 41.5736L91.3237 39.554L94.3243 40.083L94.8093 37.3325L91.8664 36.8136L92.2192 34.8132L95.162 35.3321L95.8166 31.6198L98.2594 32.0506ZM91.6927 32.4L90.5057 39.132L85.12 38.1824L84.5197 41.5869C86.6853 41.9589 88.6274 42.1922 90.8874 42.2536L90.727 44.2879C88.0365 44.2498 85.7985 43.8948 83.1057 43.42L81.7208 43.1758L83.013 35.8475L88.4371 36.8039L88.9458 33.9187L83.4832 32.9555L83.8258 31.0128L91.6927 32.4ZM107.978 34.0023C111.86 34.7066 114.102 36.391 113.745 38.5294C113.359 40.6033 110.677 41.4194 106.791 40.7344C102.925 40.0526 100.626 38.3581 100.992 36.2808C101.369 34.1457 104.109 33.3398 107.978 34.0023ZM107.646 35.8873C105.203 35.4565 103.711 35.709 103.55 36.7319C103.362 37.6902 104.677 38.4379 107.12 38.8686C109.544 39.2959 111.036 39.0434 111.206 38.0817C111.385 37.0623 110.069 36.3146 107.646 35.8873ZM112.096 46.1916L111.045 52.1543L98.8308 50.0006L99.8822 44.0379L104.787 44.9028L105.055 43.3832L98.3036 42.1928L98.6495 40.2309L114.614 43.0459L114.268 45.0078L107.498 43.814L107.23 45.3335L112.096 46.1916ZM101.963 46.4079L101.6 48.466L108.986 49.7684L109.349 47.7103L101.963 46.4079Z" fill="black" fill-opacity="0.2"/>
<path d="M79.9956 35.2559L79.6565 37.1794L67.558 35.0461L68.8332 27.8139L80.7586 29.9167L80.4127 31.8786L71.007 30.2201L70.4168 33.5669L79.9956 35.2559ZM81.2294 39.2813L80.8869 41.224L74.0394 40.0166L73.0491 45.6331L70.6255 45.2058L71.6158 39.5893L64.8645 38.3988L65.2071 36.4562L81.2294 39.2813ZM98.2594 32.0506L95.1663 49.5925L92.7235 49.1617L93.9682 42.1027L90.9676 41.5736L91.3237 39.554L94.3243 40.083L94.8093 37.3325L91.8664 36.8136L92.2192 34.8132L95.162 35.3321L95.8166 31.6198L98.2594 32.0506ZM91.6927 32.4L90.5057 39.132L85.12 38.1824L84.5197 41.5869C86.6853 41.9589 88.6274 42.1922 90.8874 42.2536L90.727 44.2879C88.0365 44.2498 85.7985 43.8948 83.1057 43.42L81.7208 43.1758L83.013 35.8475L88.4371 36.8039L88.9458 33.9187L83.4832 32.9555L83.8258 31.0128L91.6927 32.4ZM107.978 34.0023C111.86 34.7066 114.102 36.391 113.745 38.5294C113.359 40.6033 110.677 41.4194 106.791 40.7344C102.925 40.0526 100.626 38.3581 100.992 36.2808C101.369 34.1457 104.109 33.3398 107.978 34.0023ZM107.646 35.8873C105.203 35.4565 103.711 35.709 103.55 36.7319C103.362 37.6902 104.677 38.4379 107.12 38.8686C109.544 39.2959 111.036 39.0434 111.206 38.0817C111.385 37.0623 110.069 36.3146 107.646 35.8873ZM112.096 46.1916L111.045 52.1543L98.8308 50.0006L99.8822 44.0379L104.787 44.9028L105.055 43.3832L98.3036 42.1928L98.6495 40.2309L114.614 43.0459L114.268 45.0078L107.498 43.814L107.23 45.3335L112.096 46.1916ZM101.963 46.4079L101.6 48.466L108.986 49.7684L109.349 47.7103L101.963 46.4079Z" fill="black" fill-opacity="0.2"/>
<path d="M79.9956 35.2559L79.6565 37.1794L67.558 35.0461L68.8332 27.8139L80.7586 29.9167L80.4127 31.8786L71.007 30.2201L70.4168 33.5669L79.9956 35.2559ZM81.2294 39.2813L80.8869 41.224L74.0394 40.0166L73.0491 45.6331L70.6255 45.2058L71.6158 39.5893L64.8645 38.3988L65.2071 36.4562L81.2294 39.2813ZM98.2594 32.0506L95.1663 49.5925L92.7235 49.1617L93.9682 42.1027L90.9676 41.5736L91.3237 39.554L94.3243 40.083L94.8093 37.3325L91.8664 36.8136L92.2192 34.8132L95.162 35.3321L95.8166 31.6198L98.2594 32.0506ZM91.6927 32.4L90.5057 39.132L85.12 38.1824L84.5197 41.5869C86.6853 41.9589 88.6274 42.1922 90.8874 42.2536L90.727 44.2879C88.0365 44.2498 85.7985 43.8948 83.1057 43.42L81.7208 43.1758L83.013 35.8475L88.4371 36.8039L88.9458 33.9187L83.4832 32.9555L83.8258 31.0128L91.6927 32.4ZM107.978 34.0023C111.86 34.7066 114.102 36.391 113.745 38.5294C113.359 40.6033 110.677 41.4194 106.791 40.7344C102.925 40.0526 100.626 38.3581 100.992 36.2808C101.369 34.1457 104.109 33.3398 107.978 34.0023ZM107.646 35.8873C105.203 35.4565 103.711 35.709 103.55 36.7319C103.362 37.6902 104.677 38.4379 107.12 38.8686C109.544 39.2959 111.036 39.0434 111.206 38.0817C111.385 37.0623 110.069 36.3146 107.646 35.8873ZM112.096 46.1916L111.045 52.1543L98.8308 50.0006L99.8822 44.0379L104.787 44.9028L105.055 43.3832L98.3036 42.1928L98.6495 40.2309L114.614 43.0459L114.268 45.0078L107.498 43.814L107.23 45.3335L112.096 46.1916ZM101.963 46.4079L101.6 48.466L108.986 49.7684L109.349 47.7103L101.963 46.4079Z" fill="black" fill-opacity="0.2"/>
<path d="M79.9956 35.2559L79.6565 37.1794L67.558 35.0461L68.8332 27.8139L80.7586 29.9167L80.4127 31.8786L71.007 30.2201L70.4168 33.5669L79.9956 35.2559ZM81.2294 39.2813L80.8869 41.224L74.0394 40.0166L73.0491 45.6331L70.6255 45.2058L71.6158 39.5893L64.8645 38.3988L65.2071 36.4562L81.2294 39.2813ZM98.2594 32.0506L95.1663 49.5925L92.7235 49.1617L93.9682 42.1027L90.9676 41.5736L91.3237 39.554L94.3243 40.083L94.8093 37.3325L91.8664 36.8136L92.2192 34.8132L95.162 35.3321L95.8166 31.6198L98.2594 32.0506ZM91.6927 32.4L90.5057 39.132L85.12 38.1824L84.5197 41.5869C86.6853 41.9589 88.6274 42.1922 90.8874 42.2536L90.727 44.2879C88.0365 44.2498 85.7985 43.8948 83.1057 43.42L81.7208 43.1758L83.013 35.8475L88.4371 36.8039L88.9458 33.9187L83.4832 32.9555L83.8258 31.0128L91.6927 32.4ZM107.978 34.0023C111.86 34.7066 114.102 36.391 113.745 38.5294C113.359 40.6033 110.677 41.4194 106.791 40.7344C102.925 40.0526 100.626 38.3581 100.992 36.2808C101.369 34.1457 104.109 33.3398 107.978 34.0023ZM107.646 35.8873C105.203 35.4565 103.711 35.709 103.55 36.7319C103.362 37.6902 104.677 38.4379 107.12 38.8686C109.544 39.2959 111.036 39.0434 111.206 38.0817C111.385 37.0623 110.069 36.3146 107.646 35.8873ZM112.096 46.1916L111.045 52.1543L98.8308 50.0006L99.8822 44.0379L104.787 44.9028L105.055 43.3832L98.3036 42.1928L98.6495 40.2309L114.614 43.0459L114.268 45.0078L107.498 43.814L107.23 45.3335L112.096 46.1916ZM101.963 46.4079L101.6 48.466L108.986 49.7684L109.349 47.7103L101.963 46.4079Z" fill="black" fill-opacity="0.2"/>
<path d="M79.9956 35.2559L79.6565 37.1794L67.558 35.0461L68.8332 27.8139L80.7586 29.9167L80.4127 31.8786L71.007 30.2201L70.4168 33.5669L79.9956 35.2559ZM81.2294 39.2813L80.8869 41.224L74.0394 40.0166L73.0491 45.6331L70.6255 45.2058L71.6158 39.5893L64.8645 38.3988L65.2071 36.4562L81.2294 39.2813ZM98.2594 32.0506L95.1663 49.5925L92.7235 49.1617L93.9682 42.1027L90.9676 41.5736L91.3237 39.554L94.3243 40.083L94.8093 37.3325L91.8664 36.8136L92.2192 34.8132L95.162 35.3321L95.8166 31.6198L98.2594 32.0506ZM91.6927 32.4L90.5057 39.132L85.12 38.1824L84.5197 41.5869C86.6853 41.9589 88.6274 42.1922 90.8874 42.2536L90.727 44.2879C88.0365 44.2498 85.7985 43.8948 83.1057 43.42L81.7208 43.1758L83.013 35.8475L88.4371 36.8039L88.9458 33.9187L83.4832 32.9555L83.8258 31.0128L91.6927 32.4ZM107.978 34.0023C111.86 34.7066 114.102 36.391 113.745 38.5294C113.359 40.6033 110.677 41.4194 106.791 40.7344C102.925 40.0526 100.626 38.3581 100.992 36.2808C101.369 34.1457 104.109 33.3398 107.978 34.0023ZM107.646 35.8873C105.203 35.4565 103.711 35.709 103.55 36.7319C103.362 37.6902 104.677 38.4379 107.12 38.8686C109.544 39.2959 111.036 39.0434 111.206 38.0817C111.385 37.0623 110.069 36.3146 107.646 35.8873ZM112.096 46.1916L111.045 52.1543L98.8308 50.0006L99.8822 44.0379L104.787 44.9028L105.055 43.3832L98.3036 42.1928L98.6495 40.2309L114.614 43.0459L114.268 45.0078L107.498 43.814L107.23 45.3335L112.096 46.1916ZM101.963 46.4079L101.6 48.466L108.986 49.7684L109.349 47.7103L101.963 46.4079Z" fill="black" fill-opacity="0.2"/>
<path fill-rule="evenodd" clip-rule="evenodd" d="M106.611 155.35C133.805 160.145 159.738 141.987 164.534 114.792L66.0527 97.4275C61.2576 124.622 79.416 150.555 106.611 155.35Z" fill="#FD6F17"/>
<g filter="url(#filter1_bdi_948_8737)">
<mask id="path-5-outside-1_948_8737" maskUnits="userSpaceOnUse" x="107.112" y="47.9828" width="68.6474" height="109.379" fill="black">
<rect fill="white" x="107.112" y="47.9828" width="68.6474" height="109.379"/>
<path fill-rule="evenodd" clip-rule="evenodd" d="M157.534 156.206C130.326 151.492 112.09 125.614 116.803 98.4051C121.517 71.1962 147.395 52.9601 174.604 57.6733L157.534 156.206Z"/>
</mask>
<path fill-rule="evenodd" clip-rule="evenodd" d="M157.534 156.206C130.326 151.492 112.09 125.614 116.803 98.4051C121.517 71.1962 147.395 52.9601 174.604 57.6733L157.534 156.206Z" fill="url(#paint0_linear_948_8737)" fill-opacity="0.8" shape-rendering="crispEdges"/>
<path d="M157.534 156.206L157.449 156.698L157.942 156.784L158.027 156.291L157.534 156.206ZM174.604 57.6733L175.096 57.7587L175.182 57.266L174.689 57.1807L174.604 57.6733ZM157.62 155.713C130.683 151.047 112.629 125.427 117.296 98.4904L116.31 98.3197C111.55 125.801 129.968 151.938 157.449 156.698L157.62 155.713ZM117.296 98.4904C121.962 71.5537 147.581 53.4999 174.518 58.166L174.689 57.1807C147.208 52.4203 121.071 70.8388 116.31 98.3197L117.296 98.4904ZM174.111 57.588L157.042 156.12L158.027 156.291L175.096 57.7587L174.111 57.588Z" fill="url(#paint1_linear_948_8737)" fill-opacity="0.2" mask="url(#path-5-outside-1_948_8737)"/>
</g>
</g>
<g filter="url(#filter2_bd_948_8737)">
<rect x="15" y="11" width="155" height="149" rx="20" fill="#6B3363" fill-opacity="0.9" shape-rendering="crispEdges"/>
<rect x="15.5" y="11.5" width="154" height="148" rx="19.5" stroke="#E036C6" stroke-opacity="0.3" shape-rendering="crispEdges"/>
<path d="M44.5352 30.7617V32.793H42.0156V41.7578H39.5156V24.0234H42.0156V30.7617H44.5352ZM31.0391 25.7227V35.3516C33.3145 35.3223 35.7559 35.1074 38.3242 34.5898L38.5781 36.6602C35.6094 37.2656 32.7188 37.4219 30.1016 37.4219H28.5586V25.7227H31.0391ZM48.3906 24.4531V26.0156H50.0508V24.4531H52.3555V31.3477H46.0469V24.4531H48.3906ZM48.3906 29.3555H50.0508V27.8906H48.3906V29.3555ZM55.7539 24.4531V26.0156H57.3555V24.4531H59.7188V31.3477H53.3906V24.4531H55.7539ZM55.7539 29.3555H57.3555V27.8906H55.7539V29.3555ZM60.9883 32.5391V34.5312H44.7773V32.5391H60.9883ZM59.0156 35.7617V41.6016H46.6523V35.7617H59.0156ZM49.0938 37.7344V39.6094H56.5938V37.7344H49.0938Z" fill="#FFC9FA"/>
<rect x="25" y="111.723" width="42.8612" height="103.646" rx="21.4306" transform="rotate(-72.2826 25 111.723)" fill="#E036C6"/>
<g filter="url(#filter3_bdi_948_8737)">
<rect x="66.7207" y="129.884" width="42.8612" height="103.646" rx="21.4306" transform="rotate(-110.808 66.7207 129.884)" fill="url(#paint2_linear_948_8737)" fill-opacity="0.8" shape-rendering="crispEdges"/>
<rect x="66.4309" y="130.529" width="43.8612" height="104.646" rx="21.9306" transform="rotate(-110.808 66.4309 130.529)" stroke="url(#paint3_linear_948_8737)" stroke-opacity="0.2" shape-rendering="crispEdges"/>
</g>
</g>
<defs>
<filter id="filter0_bd_948_8737" x="8.00195" y="-9" width="218.518" height="213.652" filterUnits="userSpaceOnUse" color-interpolation-filters="sRGB">
<feFlood flood-opacity="0" result="BackgroundImageFix"/>
<feGaussianBlur in="BackgroundImageFix" stdDeviation="10"/>
<feComposite in2="SourceAlpha" operator="in" result="effect1_backgroundBlur_948_8737"/>
<feColorMatrix in="SourceAlpha" type="matrix" values="0 0 0 0 0 0 0 0 0 0 0 0 0 0 0 0 0 0 127 0" result="hardAlpha"/>
<feOffset dy="4"/>
<feGaussianBlur stdDeviation="7.5"/>
<feComposite in2="hardAlpha" operator="out"/>
<feColorMatrix type="matrix" values="0 0 0 0 0 0 0 0 0 0 0 0 0 0 0 0 0 0 0.15 0"/>
<feBlend mode="normal" in2="effect1_backgroundBlur_948_8737" result="effect2_dropShadow_948_8737"/>
<feBlend mode="normal" in="SourceGraphic" in2="effect2_dropShadow_948_8737" result="shape"/>
</filter>
<filter id="filter1_bdi_948_8737" x="98.5605" y="44.4314" width="89.6211" height="131.352" filterUnits="userSpaceOnUse" color-interpolation-filters="sRGB">
<feFlood flood-opacity="0" result="BackgroundImageFix"/>
<feGaussianBlur in="BackgroundImageFix" stdDeviation="6"/>
<feComposite in2="SourceAlpha" operator="in" result="effect1_backgroundBlur_948_8737"/>
<feColorMatrix in="SourceAlpha" type="matrix" values="0 0 0 0 0 0 0 0 0 0 0 0 0 0 0 0 0 0 127 0" result="hardAlpha"/>
<feOffset dx="-2" dy="4"/>
<feGaussianBlur stdDeviation="7.5"/>
<feComposite in2="hardAlpha" operator="out"/>
<feColorMatrix type="matrix" values="0 0 0 0 0 0 0 0 0 0 0 0 0 0 0 0 0 0 0.15 0"/>
<feBlend mode="normal" in2="effect1_backgroundBlur_948_8737" result="effect2_dropShadow_948_8737"/>
<feBlend mode="normal" in="SourceGraphic" in2="effect2_dropShadow_948_8737" result="shape"/>
<feColorMatrix in="SourceAlpha" type="matrix" values="0 0 0 0 0 0 0 0 0 0 0 0 0 0 0 0 0 0 127 0" result="hardAlpha"/>
<feOffset dx="1" dy="1"/>
<feGaussianBlur stdDeviation="2"/>
<feComposite in2="hardAlpha" operator="arithmetic" k2="-1" k3="1"/>
<feColorMatrix type="matrix" values="0 0 0 0 1 0 0 0 0 1 0 0 0 0 1 0 0 0 0.15 0"/>
<feBlend mode="normal" in2="shape" result="effect3_innerShadow_948_8737"/>
</filter>
<filter id="filter2_bd_948_8737" x="-5" y="-9" width="195" height="189" filterUnits="userSpaceOnUse" color-interpolation-filters="sRGB">
<feFlood flood-opacity="0" result="BackgroundImageFix"/>
<feGaussianBlur in="BackgroundImageFix" stdDeviation="10"/>
<feComposite in2="SourceAlpha" operator="in" result="effect1_backgroundBlur_948_8737"/>
<feColorMatrix in="SourceAlpha" type="matrix" values="0 0 0 0 0 0 0 0 0 0 0 0 0 0 0 0 0 0 127 0" result="hardAlpha"/>
<feOffset dy="4"/>
<feGaussianBlur stdDeviation="7.5"/>
<feComposite in2="hardAlpha" operator="out"/>
<feColorMatrix type="matrix" values="0 0 0 0 0 0 0 0 0 0 0 0 0 0 0 0 0 0 0.15 0"/>
<feBlend mode="normal" in2="effect1_backgroundBlur_948_8737" result="effect2_dropShadow_948_8737"/>
<feBlend mode="normal" in="SourceGraphic" in2="effect2_dropShadow_948_8737" result="shape"/>
</filter>
<filter id="filter3_bdi_948_8737" x="41.7031" y="46.209" width="131.695" height="97.4661" filterUnits="userSpaceOnUse" color-interpolation-filters="sRGB">
<feFlood flood-opacity="0" result="BackgroundImageFix"/>
<feGaussianBlur in="BackgroundImageFix" stdDeviation="6"/>
<feComposite in2="SourceAlpha" operator="in" result="effect1_backgroundBlur_948_8737"/>
<feColorMatrix in="SourceAlpha" type="matrix" values="0 0 0 0 0 0 0 0 0 0 0 0 0 0 0 0 0 0 127 0" result="hardAlpha"/>
<feOffset dy="4"/>
<feGaussianBlur stdDeviation="7.5"/>
<feComposite in2="hardAlpha" operator="out"/>
<feColorMatrix type="matrix" values="0 0 0 0 0 0 0 0 0 0 0 0 0 0 0 0 0 0 0.15 0"/>
<feBlend mode="normal" in2="effect1_backgroundBlur_948_8737" result="effect2_dropShadow_948_8737"/>
<feBlend mode="normal" in="SourceGraphic" in2="effect2_dropShadow_948_8737" result="shape"/>
<feColorMatrix in="SourceAlpha" type="matrix" values="0 0 0 0 0 0 0 0 0 0 0 0 0 0 0 0 0 0 127 0" result="hardAlpha"/>
<feOffset dy="1"/>
<feGaussianBlur stdDeviation="2"/>
<feComposite in2="hardAlpha" operator="arithmetic" k2="-1" k3="1"/>
<feColorMatrix type="matrix" values="0 0 0 0 1 0 0 0 0 1 0 0 0 0 1 0 0 0 0.25 0"/>
<feBlend mode="normal" in2="shape" result="effect3_innerShadow_948_8737"/>
</filter>
<linearGradient id="paint0_linear_948_8737" x1="174.604" y1="57.6735" x2="139.686" y2="143.412" gradientUnits="userSpaceOnUse">
<stop stop-color="#FD6F17" stop-opacity="0.4"/>
<stop offset="0.23207" stop-color="#F99E66" stop-opacity="0.2"/>
<stop offset="0.655" stop-color="#522C14" stop-opacity="0.6"/>
<stop offset="1" stop-color="#FF8337" stop-opacity="0.7"/>
</linearGradient>
<linearGradient id="paint1_linear_948_8737" x1="167.218" y1="56.3711" x2="132.901" y2="151.939" gradientUnits="userSpaceOnUse">
<stop stop-color="#FD6F17"/>
<stop offset="0.375" stop-color="#FEB88D"/>
<stop offset="1" stop-color="#BC5312"/>
</linearGradient>
<linearGradient id="paint2_linear_948_8737" x1="72.8136" y1="134.638" x2="108.035" y2="216.488" gradientUnits="userSpaceOnUse">
<stop stop-color="#E037C6" stop-opacity="0.3"/>
<stop offset="0.355" stop-color="#B2219C" stop-opacity="0.716"/>
<stop offset="0.68442" stop-color="#833877" stop-opacity="0.452464"/>
<stop offset="1" stop-color="#F163DB" stop-opacity="0.2"/>
</linearGradient>
<linearGradient id="paint3_linear_948_8737" x1="107.951" y1="222.34" x2="72.1031" y2="136.507" gradientUnits="userSpaceOnUse">
<stop stop-color="#E036C8"/>
<stop offset="0.467717" stop-color="#8A267B"/>
<stop offset="0.838571" stop-color="white"/>
<stop offset="1" stop-color="#E036C6"/>
</linearGradient>
</defs>
</svg>
