<svg width="45" height="44" viewBox="0 0 45 44" fill="none" xmlns="http://www.w3.org/2000/svg">
<path fill-rule="evenodd" clip-rule="evenodd" d="M22.503 43.9918L37.5 23.5014L22.503 3.01096L22.503 3L22.499 3.00548L22.497 3.0027L22.497 3.00827L7.5 23.4987L22.497 43.9891L22.497 44.0001L22.501 43.9946L22.503 43.9974L22.503 43.9918Z" fill="#9A21F6"/>
<path fill-rule="evenodd" clip-rule="evenodd" d="M23.9886 40.9984L26.7312 15.7547L3.49819 5.50798L3.49271 5.49849L3.49197 5.50524L3.48882 5.50385L3.4916 5.50867L0.749043 30.7524L23.982 40.9991L23.9875 41.0086L23.9882 41.0018L23.9914 41.0032L23.9886 40.9984Z" fill="#9A21F6"/>
<path fill-rule="evenodd" clip-rule="evenodd" d="M40.9837 5.50564L17.7507 15.7524L20.4932 40.9961L20.4878 41.0056L20.494 41.0028L20.4943 41.0063L20.4971 41.0014L43.7301 30.7547L40.9875 5.511L40.993 5.50151L40.9868 5.50425L40.9864 5.50082L40.9837 5.50564Z" fill="#9A21F6"/>
</svg>
