<svg width="45" height="44" viewBox="0 0 45 44" fill="none" xmlns="http://www.w3.org/2000/svg">
<path fill-rule="evenodd" clip-rule="evenodd" d="M7.50141 43.9921L14.5 22.0019L7.50141 0.0117341L7.50141 -3.05918e-07L7.49954 0.00586688L7.49859 0.00286733L7.49859 0.00886642L0.5 21.999L7.49859 43.9892L7.49859 44.001L7.50045 43.9951L7.50141 43.9981L7.50141 43.9921Z" fill="#D7A2FF"/>
<path fill-rule="evenodd" clip-rule="evenodd" d="M22.5014 43.9945L29.5 28.0015L22.5014 12.0085L22.5014 12L22.4995 12.0043L22.4986 12.0021L22.4986 12.0065L15.5 27.9994L22.4986 43.9924L22.4986 44.001L22.5005 43.9967L22.5014 43.9989L22.5014 43.9945Z" fill="#D7A2FF"/>
<path fill-rule="evenodd" clip-rule="evenodd" d="M37.5014 43.9973L44.5 35.0011L37.5014 26.0048L37.5014 26L37.4996 26.0024L37.4986 26.0012L37.4986 26.0036L30.5 34.9999L37.4986 43.9962L37.4986 44.0009L37.5004 43.9986L37.5014 43.9998L37.5014 43.9973Z" fill="#D7A2FF"/>
<path fill-rule="evenodd" clip-rule="evenodd" d="M37.5014 22.9954L44.5 11.5008L37.5014 0.0061298L37.5014 -3.05918e-07L37.4995 0.00306475L37.4986 0.00149502L37.4986 0.00463448L30.5 11.4993L37.4986 22.9939L37.4986 23L37.5005 22.997L37.5014 22.9985L37.5014 22.9954Z" fill="#D7A2FF"/>
</svg>
