<svg width="45" height="44" viewBox="0 0 45 44" fill="none" xmlns="http://www.w3.org/2000/svg">
<path fill-rule="evenodd" clip-rule="evenodd" d="M19.0918 38C29.5852 38 38.0918 29.4934 38.0918 19C38.0918 15.2897 37.0283 11.8277 35.1894 8.90238C40.5373 12.2641 44.0918 18.2169 44.0918 25C44.0918 35.4934 35.5852 44 25.0918 44C18.3087 44 12.3559 40.4455 8.99418 35.0976C11.9195 36.9365 15.3814 38 19.0918 38ZM8.99418 35.0976C3.64626 31.7359 0.0917969 25.7831 0.0917969 19C0.0917969 8.50659 8.59839 0 19.0918 0C25.8749 0 31.8277 3.55446 35.1894 8.90238C32.2641 7.06354 28.8021 6 25.0918 6C14.5984 6 6.0918 14.5066 6.0918 25C6.0918 28.7103 7.15533 32.1723 8.99418 35.0976Z" fill="#FFC800"/>
</svg>
