<svg width="44" height="44" viewBox="0 0 44 44" fill="none" xmlns="http://www.w3.org/2000/svg">
<path fill-rule="evenodd" clip-rule="evenodd" d="M27.5 44C36.6127 44 44 36.6127 44 27.5C44 18.3873 36.6127 11 27.5 11C18.3873 11 11 18.3873 11 27.5C11 36.6127 18.3873 44 27.5 44ZM26 40C32.6274 40 38 34.6274 38 28C38 21.3726 32.6274 16 26 16C19.3726 16 14 21.3726 14 28C14 34.6274 19.3726 40 26 40Z" fill="#FFC800"/>
<path fill-rule="evenodd" clip-rule="evenodd" d="M16.5 33C25.6127 33 33 25.6127 33 16.5C33 7.3873 25.6127 0 16.5 0C7.3873 0 0 7.3873 0 16.5C0 25.6127 7.3873 33 16.5 33ZM15 29C21.6274 29 27 23.6274 27 17C27 10.3726 21.6274 5 15 5C8.37258 5 3 10.3726 3 17C3 23.6274 8.37258 29 15 29Z" fill="#FFC800"/>
</svg>
