<svg width="44" height="44" viewBox="0 0 44 44" fill="none" xmlns="http://www.w3.org/2000/svg">
<path fill-rule="evenodd" clip-rule="evenodd" d="M17.907 36.6667C27.7967 36.6667 35.814 28.4586 35.814 18.3333C35.814 8.20811 27.7967 0 17.907 0C8.01723 0 0 8.20811 0 18.3333C0 23.5091 2.09493 28.184 5.46401 31.5176C5.02101 30.4737 4.77539 29.3218 4.77539 28.1111C4.77539 23.386 8.51676 19.5556 13.132 19.5556C17.7472 19.5556 21.4886 23.386 21.4886 28.1111C21.4886 32.1554 18.7477 35.5443 15.064 36.4369C15.9899 36.5881 16.9395 36.6667 17.907 36.6667Z" fill="#847711"/>
<ellipse cx="38.372" cy="38.2381" rx="5.62791" ry="5.7619" fill="#847711"/>
</svg>
