<svg width="44" height="44" viewBox="0 0 44 44" fill="none" xmlns="http://www.w3.org/2000/svg">
<path d="M42.8873 18.653C42.1442 13.8517 39.7593 9.45655 36.139 6.2165C32.5187 2.97644 27.8869 1.09192 23.0329 0.884031C18.1789 0.67614 13.403 2.15774 9.51889 5.07639C5.63481 7.99504 2.88288 12.1702 1.73202 16.8903C0.581148 21.6105 1.10254 26.5837 3.20737 30.9626C5.31219 35.3414 8.8702 38.855 13.2752 40.9046C17.6801 42.9542 22.6595 43.4131 27.3648 42.203C32.0702 40.9929 36.2104 38.1887 39.08 34.2682L24.5739 23.6504C24.1608 24.2148 23.5647 24.6185 22.8873 24.7928C22.2099 24.967 21.4931 24.9009 20.8589 24.6058C20.2248 24.3108 19.7126 23.8049 19.4095 23.1745C19.1065 22.5442 19.0315 21.8282 19.1971 21.1487C19.3628 20.4691 19.759 19.8681 20.3182 19.4479C20.8773 19.0277 21.5649 18.8144 22.2637 18.8443C22.9625 18.8743 23.6293 19.1456 24.1505 19.612C24.6717 20.0785 25.015 20.7112 25.122 21.4024L42.8873 18.653Z" fill="#FFE81D"/>
</svg>
