<svg width="44" height="44" viewBox="0 0 44 44" fill="none" xmlns="http://www.w3.org/2000/svg">
<ellipse cx="3.01961" cy="6" rx="3.01961" ry="6" fill="#C5BC15"/>
<ellipse cx="3.01961" cy="22" rx="3.01961" ry="6" fill="#C5BC15"/>
<ellipse cx="3.01961" cy="38" rx="3.01961" ry="6" fill="#C5BC15"/>
<ellipse cx="12.5098" cy="6" rx="3.01961" ry="6" fill="#C5BC15"/>
<ellipse cx="12.5098" cy="22" rx="3.01961" ry="6" fill="#C5BC15"/>
<ellipse cx="12.5098" cy="38" rx="3.01961" ry="6" fill="#C5BC15"/>
<ellipse cx="22.0001" cy="6" rx="3.01961" ry="6" fill="#C5BC15"/>
<ellipse cx="22.0001" cy="22" rx="3.01961" ry="6" fill="#C5BC15"/>
<ellipse cx="22.0001" cy="38" rx="3.01961" ry="6" fill="#C5BC15"/>
<ellipse cx="31.4903" cy="6" rx="3.01961" ry="6" fill="#C5BC15"/>
<ellipse cx="31.4903" cy="22" rx="3.01961" ry="6" fill="#C5BC15"/>
<ellipse cx="31.4903" cy="38" rx="3.01961" ry="6" fill="#C5BC15"/>
<ellipse cx="40.9805" cy="6" rx="3.01961" ry="6" fill="#C5BC15"/>
<ellipse cx="40.9805" cy="22" rx="3.01961" ry="6" fill="#C5BC15"/>
<ellipse cx="40.9805" cy="38" rx="3.01961" ry="6" fill="#C5BC15"/>
</svg>
