<svg width="264" height="565" viewBox="0 0 264 565" fill="none" xmlns="http://www.w3.org/2000/svg">
<g filter="url(#filter0_d_948_10307)">
<g clip-path="url(#clip0_948_10307)">
<rect x="11" y="15" width="226" height="527" rx="16.4843" fill="#121212"/>
<path d="M156.476 36.8154H155.109V31.5548H155.072L153.574 32.5055V31.2922L155.195 30.26H156.476V36.8154Z" fill="white"/>
<path d="M182.819 35.833L185.177 33.6645C185.41 33.4411 185.591 33.257 185.721 33.1121C185.85 32.9643 185.949 32.8164 186.015 32.6685C186.084 32.5176 186.119 32.3576 186.119 32.1886C186.119 32.0015 186.074 31.837 185.983 31.6951C185.893 31.5502 185.769 31.4401 185.612 31.3646C185.455 31.2892 185.277 31.2514 185.078 31.2514C184.876 31.2514 184.696 31.2922 184.539 31.3737C184.385 31.4552 184.266 31.5744 184.181 31.7313C184.1 31.8853 184.059 32.0648 184.059 32.2701H182.764C182.764 31.8506 182.861 31.4823 183.054 31.1654C183.25 30.8455 183.523 30.5995 183.874 30.4275C184.227 30.2555 184.633 30.1694 185.091 30.1694C185.553 30.1694 185.961 30.2509 186.314 30.4139C186.667 30.5769 186.94 30.8048 187.133 31.0975C187.329 31.3903 187.427 31.7253 187.427 32.1026C187.427 32.3591 187.378 32.6066 187.278 32.845C187.181 33.0835 187.009 33.3476 186.762 33.6373C186.517 33.927 186.169 34.2772 185.716 34.6876L184.716 35.6519V35.6972H187.523V36.8154H182.823L182.819 35.833Z" fill="white"/>
<path d="M215.473 36.906C214.996 36.906 214.569 36.8245 214.191 36.6615C213.814 36.4985 213.518 36.2691 213.304 35.9734C213.093 35.6776 212.983 35.3426 212.974 34.9683H214.345C214.354 35.1222 214.409 35.2611 214.508 35.3848C214.608 35.5086 214.742 35.6051 214.911 35.6746C215.08 35.744 215.267 35.7787 215.473 35.7787C215.687 35.7787 215.88 35.741 216.052 35.6655C216.227 35.587 216.361 35.4814 216.455 35.3486C216.549 35.2128 216.594 35.0589 216.591 34.8868C216.594 34.7088 216.546 34.5503 216.446 34.4115C216.346 34.2726 216.201 34.1655 216.011 34.09C215.824 34.0116 215.604 33.9723 215.35 33.9723H214.739V32.9673H215.35C215.565 32.9673 215.756 32.9311 215.925 32.8586C216.094 32.7832 216.224 32.679 216.315 32.5462C216.405 32.4134 216.449 32.2625 216.446 32.0935C216.449 31.9275 216.411 31.7811 216.333 31.6544C216.254 31.5246 216.141 31.425 215.993 31.3556C215.845 31.2862 215.676 31.2514 215.486 31.2514C215.293 31.2514 215.116 31.2862 214.956 31.3556C214.797 31.422 214.667 31.5186 214.567 31.6453C214.471 31.7691 214.418 31.9139 214.409 32.0799H213.105C213.117 31.7087 213.227 31.3782 213.435 31.0885C213.644 30.7987 213.926 30.5739 214.282 30.4139C214.641 30.2509 215.043 30.1694 215.486 30.1694C215.936 30.1694 216.333 30.2494 216.677 30.4094C217.021 30.5693 217.288 30.7897 217.478 31.0704C217.668 31.351 217.76 31.6649 217.754 32.012C217.76 32.2505 217.711 32.4678 217.605 32.6639C217.502 32.8601 217.356 33.0216 217.166 33.1484C216.979 33.2721 216.761 33.3566 216.514 33.4019V33.4517C216.834 33.4909 217.105 33.58 217.329 33.7188C217.555 33.8546 217.726 34.0297 217.84 34.244C217.955 34.4582 218.009 34.7027 218.003 34.9774C218.009 35.3426 217.904 35.6731 217.686 35.9688C217.469 36.2616 217.167 36.491 216.781 36.657C216.395 36.823 215.959 36.906 215.473 36.906Z" fill="white"/>
<path d="M34.8577 85.6664L37.6284 81.3474H38.552V82.8414H37.9996L36.234 85.5939V85.6483H40.1682V86.7439H34.8577V85.6664ZM38.0404 86.4134L38.0585 85.938V81.3474H39.3397V87.9028H38.0404V86.4134Z" fill="white"/>
<path d="M67.4739 87.9934C67.0272 87.9934 66.6228 87.9104 66.2606 87.7444C65.8984 87.5784 65.6132 87.3475 65.405 87.0517C65.1997 86.7559 65.0926 86.4239 65.0835 86.0557H66.401C66.4161 86.2247 66.4719 86.3741 66.5685 86.5039C66.6681 86.6337 66.7963 86.7363 66.9533 86.8118C67.1133 86.8842 67.2868 86.9204 67.4739 86.9204C67.6973 86.9204 67.8965 86.8706 68.0715 86.771C68.2496 86.6714 68.3884 86.5341 68.488 86.359C68.5876 86.181 68.6374 85.9803 68.6374 85.7569C68.6374 85.5245 68.5861 85.3208 68.4835 85.1457C68.3839 84.9677 68.2436 84.8288 68.0625 84.7292C67.8844 84.6266 67.6807 84.5753 67.4513 84.5753C67.2068 84.5723 67.0001 84.6161 66.8311 84.7066C66.662 84.7971 66.5277 84.936 66.4281 85.1231H65.1922L65.5498 81.3474H69.5836V82.4656H66.6726L66.4915 84.1181H66.5413C66.6681 83.9521 66.8492 83.8177 67.0846 83.7151C67.32 83.6125 67.578 83.5612 67.8587 83.5612C68.2541 83.5612 68.6118 83.6533 68.9317 83.8374C69.2546 84.0185 69.5051 84.2735 69.6832 84.6025C69.8643 84.9315 69.9533 85.3042 69.9503 85.7207C69.9533 86.1553 69.8492 86.5462 69.6379 86.8933C69.4297 87.2373 69.1384 87.5075 68.7642 87.7036C68.3899 87.8968 67.9598 87.9934 67.4739 87.9934Z" fill="white"/>
<path d="M97.2706 87.9934C96.7847 87.9904 96.344 87.8832 95.9487 87.6719C95.5533 87.4607 95.2334 87.1151 94.9889 86.6352C94.7444 86.1553 94.6222 85.5351 94.6222 84.7745C94.6222 84.0471 94.7323 83.4194 94.9527 82.8912C95.176 82.36 95.4899 81.9555 95.8943 81.6779C96.3018 81.3972 96.7772 81.2568 97.3204 81.2568C97.752 81.2568 98.1368 81.3398 98.4749 81.5058C98.8159 81.6718 99.0906 81.8997 99.2988 82.1895C99.5071 82.4792 99.6338 82.8052 99.6791 83.1673H98.3345C98.2983 83.0134 98.2334 82.8806 98.1399 82.7689C98.0493 82.6542 97.9346 82.5682 97.7958 82.5109C97.6569 82.4535 97.4985 82.4249 97.3204 82.4249C97.0277 82.4249 96.7802 82.5094 96.578 82.6784C96.3788 82.8444 96.2263 83.0828 96.1207 83.3937C96.0151 83.7046 95.9607 84.0773 95.9577 84.5119H96.012C96.1147 84.3188 96.2505 84.1543 96.4195 84.0185C96.5915 83.8796 96.7862 83.774 97.0035 83.7015C97.2238 83.6261 97.4532 83.5884 97.6917 83.5884C98.081 83.5884 98.4326 83.6789 98.7465 83.86C99.0604 84.0411 99.3049 84.2931 99.4799 84.6161C99.658 84.936 99.747 85.2997 99.747 85.7071C99.747 86.1478 99.6429 86.5416 99.4346 86.8887C99.2294 87.2358 98.9382 87.5075 98.5609 87.7036C98.1866 87.8968 97.7565 87.9934 97.2706 87.9934ZM97.2616 86.9204C97.4819 86.9204 97.6796 86.8691 97.8546 86.7665C98.0327 86.6609 98.1715 86.519 98.2711 86.3409C98.3738 86.1598 98.4251 85.9622 98.4251 85.7479C98.4251 85.5275 98.3753 85.3283 98.2757 85.1503C98.1761 84.9722 98.0387 84.8334 97.8637 84.7338C97.6886 84.6342 97.4909 84.5844 97.2706 84.5844C97.0533 84.5844 96.8556 84.6357 96.6776 84.7383C96.4995 84.8409 96.3591 84.9813 96.2565 85.1593C96.1539 85.3374 96.0996 85.5351 96.0935 85.7524C96.0966 85.9606 96.1479 86.1538 96.2475 86.3319C96.3501 86.51 96.4889 86.6533 96.664 86.762C96.842 86.8676 97.0412 86.9204 97.2616 86.9204Z" fill="white"/>
<path d="M127.198 82.5064V82.4656H123.984V81.3474H128.611V82.4837L125.845 87.9028H124.441L127.198 82.5064Z" fill="white"/>
<path d="M155.839 87.9934C155.35 87.9934 154.91 87.9134 154.517 87.7534C154.128 87.5935 153.823 87.3716 153.603 87.0879C153.383 86.8042 153.272 86.4873 153.272 86.1372C153.272 85.8686 153.336 85.6181 153.463 85.3857C153.589 85.1503 153.761 84.9571 153.979 84.8062C154.199 84.6553 154.444 84.5602 154.712 84.521V84.4712C154.483 84.4259 154.278 84.3354 154.096 84.1995C153.915 84.0607 153.774 83.8887 153.671 83.6834C153.568 83.4782 153.517 83.2579 153.517 83.0225C153.517 82.6874 153.618 82.3856 153.82 82.117C154.022 81.8454 154.3 81.6341 154.653 81.4832C155.006 81.3323 155.402 81.2568 155.839 81.2568C156.28 81.2568 156.677 81.3323 157.03 81.4832C157.386 81.6341 157.664 81.8454 157.863 82.117C158.065 82.3856 158.166 82.6874 158.166 83.0225C158.166 83.2579 158.114 83.4782 158.008 83.6834C157.905 83.8887 157.764 84.0607 157.582 84.1995C157.404 84.3354 157.199 84.4259 156.967 84.4712V84.521C157.235 84.5602 157.478 84.6553 157.696 84.8062C157.916 84.9571 158.091 85.1503 158.221 85.3857C158.351 85.6181 158.415 85.8686 158.415 86.1372C158.415 86.4873 158.304 86.8042 158.08 87.0879C157.86 87.3716 157.554 87.5935 157.161 87.7534C156.772 87.9134 156.331 87.9934 155.839 87.9934ZM155.839 86.9566C156.066 86.9566 156.267 86.9159 156.442 86.8344C156.617 86.7529 156.752 86.6397 156.849 86.4949C156.946 86.35 156.994 86.187 156.994 86.0059C156.994 85.8158 156.944 85.6452 156.844 85.4943C156.745 85.3434 156.608 85.2257 156.433 85.1412C156.257 85.0567 156.06 85.0145 155.839 85.0145C155.622 85.0145 155.426 85.0567 155.251 85.1412C155.076 85.2257 154.939 85.3434 154.839 85.4943C154.739 85.6452 154.691 85.8158 154.694 86.0059C154.691 86.187 154.738 86.35 154.834 86.4949C154.931 86.6397 155.067 86.7529 155.242 86.8344C155.417 86.9159 155.616 86.9566 155.839 86.9566ZM155.839 84.0501C156.03 84.0501 156.2 84.0124 156.351 83.937C156.505 83.8585 156.624 83.7529 156.709 83.6201C156.793 83.4842 156.835 83.3318 156.835 83.1628C156.835 82.9908 156.793 82.8384 156.709 82.7056C156.627 82.5728 156.509 82.4701 156.356 82.3977C156.205 82.3222 156.033 82.2845 155.839 82.2845C155.649 82.2845 155.477 82.3222 155.323 82.3977C155.172 82.4701 155.055 82.5728 154.97 82.7056C154.889 82.8384 154.848 82.9908 154.848 83.1628C154.848 83.3318 154.89 83.4842 154.975 83.6201C155.062 83.7529 155.181 83.8585 155.332 83.937C155.483 84.0124 155.652 84.0501 155.839 84.0501Z" fill="white"/>
<path d="M185.582 81.2568C186.068 81.2568 186.508 81.3625 186.904 81.5737C187.299 81.782 187.618 82.1261 187.859 82.606C188.103 83.0828 188.226 83.6985 188.226 84.4531C188.229 85.1865 188.12 85.8188 187.9 86.35C187.679 86.8812 187.366 87.2886 186.958 87.5723C186.554 87.853 186.077 87.9934 185.527 87.9934C185.099 87.9934 184.714 87.9089 184.373 87.7399C184.032 87.5708 183.757 87.3415 183.549 87.0517C183.341 86.7589 183.214 86.4285 183.169 86.0602H184.509C184.548 86.2202 184.613 86.3575 184.704 86.4722C184.797 86.5869 184.913 86.6744 185.052 86.7348C185.194 86.7952 185.352 86.8253 185.527 86.8253C185.82 86.8253 186.069 86.7408 186.274 86.5718C186.48 86.4028 186.634 86.1614 186.736 85.8475C186.842 85.5306 186.895 85.1533 186.895 84.7157H186.836C186.733 84.9028 186.597 85.0658 186.428 85.2046C186.259 85.3434 186.065 85.4506 185.844 85.526C185.627 85.5985 185.398 85.6347 185.156 85.6347C184.77 85.6347 184.42 85.5441 184.106 85.363C183.795 85.182 183.551 84.9315 183.373 84.6115C183.194 84.2886 183.104 83.9279 183.101 83.5295C183.101 83.0919 183.203 82.701 183.409 82.357C183.617 82.0099 183.91 81.7397 184.287 81.5466C184.664 81.3504 185.096 81.2538 185.582 81.2568ZM185.586 82.3253C185.369 82.3253 185.171 82.3781 184.993 82.4837C184.815 82.5863 184.676 82.7267 184.577 82.9048C184.477 83.0798 184.427 83.2745 184.427 83.4888C184.43 83.7031 184.482 83.8977 184.581 84.0728C184.681 84.2478 184.817 84.3867 184.989 84.4893C185.164 84.5919 185.358 84.6432 185.573 84.6432C185.793 84.6432 185.992 84.5904 186.17 84.4848C186.351 84.3791 186.495 84.2373 186.6 84.0592C186.706 83.8781 186.757 83.6849 186.754 83.4797C186.754 83.2715 186.703 83.0798 186.6 82.9048C186.498 82.7267 186.359 82.5863 186.184 82.4837C186.009 82.3781 185.81 82.3253 185.586 82.3253Z" fill="white"/>
<path d="M211.326 87.9028H209.958V82.6422H209.922L208.424 83.5929V82.3796L210.044 81.3474H211.326V87.9028ZM215.396 87.9934C214.849 87.9934 214.379 87.8621 213.983 87.5995C213.591 87.3369 213.289 86.9536 213.078 86.4496C212.869 85.9425 212.765 85.3344 212.765 84.6251C212.765 83.9158 212.869 83.3092 213.078 82.8052C213.289 82.3011 213.592 81.9178 213.988 81.6552C214.383 81.3896 214.852 81.2568 215.396 81.2568C215.939 81.2568 216.408 81.3896 216.804 81.6552C217.199 81.9178 217.502 82.3026 217.714 82.8097C217.925 83.3137 218.03 83.9189 218.03 84.6251C218.03 85.3374 217.925 85.9456 217.714 86.4496C217.505 86.9536 217.204 87.3369 216.808 87.5995C216.413 87.8621 215.942 87.9934 215.396 87.9934ZM215.396 86.8706C215.649 86.8706 215.869 86.7876 216.057 86.6216C216.247 86.4556 216.392 86.2051 216.491 85.8701C216.591 85.5321 216.639 85.1171 216.636 84.6251C216.636 84.1362 216.586 83.7242 216.487 83.3892C216.387 83.0511 216.244 82.7976 216.057 82.6286C215.869 82.4596 215.649 82.3751 215.396 82.3751C215.142 82.3751 214.922 82.4596 214.735 82.6286C214.551 82.7976 214.407 83.0511 214.305 83.3892C214.202 83.7242 214.151 84.1362 214.151 84.6251C214.151 85.1171 214.2 85.5321 214.3 85.8701C214.403 86.2051 214.548 86.4556 214.735 86.6216C214.922 86.7876 215.142 86.8706 215.396 86.8706Z" fill="white"/>
<path d="M33.1882 138.99H31.821V133.729H31.7848L30.2863 134.68V133.467L31.907 132.434H33.1882V138.99ZM37.5344 138.99H36.1671V133.729H36.1309L34.6324 134.68V133.467L36.2532 132.434H37.5344V138.99Z" fill="white"/>
<path d="M62.0267 138.99H60.6595V133.729H60.6232L59.1247 134.68V133.467L60.7455 132.434H62.0267V138.99ZM63.5433 138.007L65.902 135.839C66.1344 135.615 66.3155 135.431 66.4453 135.286C66.5751 135.139 66.6731 134.991 66.7395 134.843C66.809 134.692 66.8437 134.532 66.8437 134.363C66.8437 134.176 66.7984 134.011 66.7079 133.869C66.6173 133.725 66.4936 133.614 66.3366 133.539C66.1797 133.463 66.0016 133.426 65.8024 133.426C65.6002 133.426 65.4206 133.467 65.2637 133.548C65.1097 133.629 64.9905 133.749 64.906 133.906C64.8245 134.06 64.7838 134.239 64.7838 134.444H63.489C63.489 134.025 63.5856 133.657 63.7787 133.34C63.9749 133.02 64.248 132.774 64.5982 132.602C64.9513 132.43 65.3572 132.344 65.816 132.344C66.2778 132.344 66.6852 132.425 67.0383 132.588C67.3915 132.751 67.6646 132.979 67.8578 133.272C68.054 133.565 68.152 133.9 68.152 134.277C68.152 134.533 68.1022 134.781 68.0026 135.019C67.9061 135.258 67.734 135.522 67.4865 135.812C67.2421 136.101 66.8935 136.451 66.4407 136.862L65.4402 137.826V137.872H68.2471V138.99H63.5478L63.5433 138.007Z" fill="white"/>
<path d="M91.9074 138.99H90.5402V133.729H90.5039L89.0054 134.68V133.467L90.6262 132.434H91.9074V138.99ZM95.8642 139.08C95.3873 139.08 94.9603 138.999 94.583 138.836C94.2057 138.673 93.9099 138.443 93.6957 138.148C93.4844 137.852 93.3742 137.517 93.3652 137.143H94.7369C94.746 137.297 94.8003 137.435 94.8999 137.559C94.9995 137.683 95.1338 137.779 95.3028 137.849C95.4718 137.918 95.659 137.953 95.8642 137.953C96.0785 137.953 96.2717 137.915 96.4437 137.84C96.6187 137.761 96.7531 137.656 96.8466 137.523C96.9402 137.387 96.9854 137.233 96.9824 137.061C96.9854 136.883 96.9372 136.725 96.8376 136.586C96.738 136.447 96.5931 136.34 96.4029 136.264C96.2158 136.186 95.9955 136.147 95.742 136.147H95.1308V135.142H95.742C95.9563 135.142 96.1479 135.105 96.3169 135.033C96.4859 134.957 96.6157 134.853 96.7063 134.721C96.7968 134.588 96.8406 134.437 96.8376 134.268C96.8406 134.102 96.8029 133.955 96.7244 133.829C96.6459 133.699 96.5327 133.599 96.3848 133.53C96.2369 133.46 96.0679 133.426 95.8778 133.426C95.6846 133.426 95.5081 133.46 95.3481 133.53C95.1881 133.596 95.0584 133.693 94.9588 133.82C94.8622 133.943 94.8094 134.088 94.8003 134.254H93.4965C93.5085 133.883 93.6187 133.553 93.8269 133.263C94.0352 132.973 94.3174 132.748 94.6735 132.588C95.0327 132.425 95.4341 132.344 95.8778 132.344C96.3275 132.344 96.7244 132.424 97.0684 132.584C97.4125 132.744 97.6796 132.964 97.8698 133.245C98.0599 133.525 98.152 133.839 98.1459 134.186C98.152 134.425 98.1022 134.642 97.9965 134.838C97.8939 135.034 97.7475 135.196 97.5574 135.323C97.3703 135.446 97.153 135.531 96.9055 135.576V135.626C97.2254 135.665 97.497 135.754 97.7204 135.893C97.9467 136.029 98.1173 136.204 98.232 136.418C98.3466 136.633 98.401 136.877 98.3949 137.152C98.401 137.517 98.2953 137.847 98.078 138.143C97.8607 138.436 97.5589 138.665 97.1726 138.831C96.7863 138.997 96.3501 139.08 95.8642 139.08Z" fill="white"/>
<path d="M121.897 138.99H120.53V133.729H120.493L118.995 134.68V133.467L120.616 132.434H121.897V138.99ZM123.314 136.753L126.084 132.434H127.008V133.928H126.456L124.69 136.681V136.735H128.624V137.831H123.314V136.753ZM126.496 137.5L126.515 137.025V132.434H127.796V138.99H126.496V137.5Z" fill="white"/>
<path d="M152.33 138.99H150.963V133.729H150.926L149.428 134.68V133.467L151.049 132.434H152.33V138.99ZM156.264 139.08C155.817 139.08 155.413 138.997 155.051 138.831C154.688 138.665 154.403 138.434 154.195 138.139C153.99 137.843 153.883 137.511 153.874 137.143H155.191C155.206 137.312 155.262 137.461 155.359 137.591C155.458 137.721 155.586 137.823 155.743 137.899C155.903 137.971 156.077 138.007 156.264 138.007C156.487 138.007 156.687 137.958 156.862 137.858C157.04 137.758 157.178 137.621 157.278 137.446C157.378 137.268 157.427 137.067 157.427 136.844C157.427 136.611 157.376 136.408 157.274 136.233C157.174 136.055 157.034 135.916 156.853 135.816C156.674 135.714 156.471 135.662 156.241 135.662C155.997 135.659 155.79 135.703 155.621 135.794C155.452 135.884 155.318 136.023 155.218 136.21H153.982L154.34 132.434H158.374V133.553H155.463L155.282 135.205H155.331C155.458 135.039 155.639 134.905 155.875 134.802C156.11 134.699 156.368 134.648 156.649 134.648C157.044 134.648 157.402 134.74 157.722 134.924C158.045 135.105 158.295 135.36 158.473 135.689C158.654 136.018 158.743 136.391 158.74 136.808C158.743 137.242 158.639 137.633 158.428 137.98C158.22 138.324 157.928 138.594 157.554 138.791C157.18 138.984 156.75 139.08 156.264 139.08Z" fill="white"/>
<path d="M182.328 138.99H180.961V133.729H180.925L179.426 134.68V133.467L181.047 132.434H182.328V138.99ZM186.394 139.08C185.908 139.077 185.467 138.97 185.072 138.759C184.676 138.548 184.356 138.202 184.112 137.722C183.867 137.242 183.745 136.622 183.745 135.861C183.745 135.134 183.855 134.506 184.076 133.978C184.299 133.447 184.613 133.042 185.017 132.765C185.425 132.484 185.9 132.344 186.443 132.344C186.875 132.344 187.26 132.427 187.598 132.593C187.939 132.759 188.214 132.987 188.422 133.276C188.63 133.566 188.757 133.892 188.802 134.254H187.458C187.421 134.1 187.356 133.968 187.263 133.856C187.172 133.741 187.058 133.655 186.919 133.598C186.78 133.54 186.622 133.512 186.443 133.512C186.151 133.512 185.903 133.596 185.701 133.765C185.502 133.931 185.349 134.17 185.244 134.481C185.138 134.791 185.084 135.164 185.081 135.599H185.135C185.238 135.406 185.374 135.241 185.543 135.105C185.715 134.967 185.909 134.861 186.127 134.788C186.347 134.713 186.576 134.675 186.815 134.675C187.204 134.675 187.556 134.766 187.87 134.947C188.183 135.128 188.428 135.38 188.603 135.703C188.781 136.023 188.87 136.387 188.87 136.794C188.87 137.235 188.766 137.629 188.558 137.976C188.352 138.323 188.061 138.594 187.684 138.791C187.31 138.984 186.88 139.08 186.394 139.08ZM186.385 138.007C186.605 138.007 186.803 137.956 186.978 137.853C187.156 137.748 187.295 137.606 187.394 137.428C187.497 137.247 187.548 137.049 187.548 136.835C187.548 136.614 187.498 136.415 187.399 136.237C187.299 136.059 187.162 135.92 186.987 135.821C186.812 135.721 186.614 135.671 186.394 135.671C186.176 135.671 185.979 135.723 185.801 135.825C185.623 135.928 185.482 136.068 185.38 136.246C185.277 136.424 185.223 136.622 185.217 136.839C185.22 137.048 185.271 137.241 185.371 137.419C185.473 137.597 185.612 137.74 185.787 137.849C185.965 137.955 186.164 138.007 186.385 138.007Z" fill="white"/>
<path d="M212.113 138.99H210.746V133.729H210.71L209.211 134.68V133.467L210.832 132.434H212.113V138.99ZM216.654 133.593V133.553H213.44V132.434H218.067V133.571L215.301 138.99H213.897L216.654 133.593Z" fill="white"/>
<path d="M33.5765 190.077H32.2093V184.816H32.1731L30.6746 185.767V184.554L32.2953 183.522H33.5765V190.077ZM37.565 190.168C37.0761 190.168 36.6354 190.088 36.2431 189.928C35.8537 189.768 35.5489 189.546 35.3286 189.262C35.1082 188.979 34.9981 188.662 34.9981 188.312C34.9981 188.043 35.0615 187.792 35.1882 187.56C35.315 187.325 35.487 187.131 35.7043 186.981C35.9246 186.83 36.1691 186.735 36.4377 186.695V186.645C36.2084 186.6 36.0031 186.51 35.822 186.374C35.6409 186.235 35.4991 186.063 35.3965 185.858C35.2939 185.653 35.2425 185.432 35.2425 185.197C35.2425 184.862 35.3437 184.56 35.5459 184.291C35.7481 184.02 36.0258 183.808 36.3789 183.658C36.732 183.507 37.1274 183.431 37.565 183.431C38.0057 183.431 38.4026 183.507 38.7557 183.658C39.1118 183.808 39.3895 184.02 39.5887 184.291C39.7909 184.56 39.892 184.862 39.892 185.197C39.892 185.432 39.8392 185.653 39.7336 185.858C39.631 186.063 39.4891 186.235 39.308 186.374C39.1299 186.51 38.9247 186.6 38.6923 186.645V186.695C38.9609 186.735 39.2039 186.83 39.4212 186.981C39.6415 187.131 39.8166 187.325 39.9463 187.56C40.0761 187.792 40.141 188.043 40.141 188.312C40.141 188.662 40.0293 188.979 39.806 189.262C39.5857 189.546 39.2793 189.768 38.887 189.928C38.4976 190.088 38.057 190.168 37.565 190.168ZM37.565 189.131C37.7914 189.131 37.9921 189.09 38.1671 189.009C38.3422 188.927 38.478 188.814 38.5746 188.669C38.6712 188.524 38.7195 188.361 38.7195 188.18C38.7195 187.99 38.6697 187.82 38.5701 187.669C38.4705 187.518 38.3331 187.4 38.1581 187.316C37.983 187.231 37.7853 187.189 37.565 187.189C37.3477 187.189 37.1515 187.231 36.9765 187.316C36.8014 187.4 36.6641 187.518 36.5645 187.669C36.4649 187.82 36.4166 187.99 36.4196 188.18C36.4166 188.361 36.4634 188.524 36.56 188.669C36.6566 188.814 36.7924 188.927 36.9674 189.009C37.1425 189.09 37.3417 189.131 37.565 189.131ZM37.565 186.224C37.7552 186.224 37.9257 186.187 38.0766 186.111C38.2305 186.033 38.3497 185.927 38.4343 185.794C38.5188 185.659 38.561 185.506 38.561 185.337C38.561 185.165 38.5188 185.013 38.4343 184.88C38.3528 184.747 38.2351 184.644 38.0811 184.572C37.9302 184.497 37.7582 184.459 37.565 184.459C37.3749 184.459 37.2028 184.497 37.0489 184.572C36.898 184.644 36.7803 184.747 36.6958 184.88C36.6143 185.013 36.5736 185.165 36.5736 185.337C36.5736 185.506 36.6158 185.659 36.7003 185.794C36.7878 185.927 36.9071 186.033 37.058 186.111C37.2089 186.187 37.3779 186.224 37.565 186.224Z" fill="white"/>
<path d="M62.5528 190.077H61.1856V184.816H61.1494L59.6509 185.767V184.554L61.2716 183.522H62.5528V190.077ZM66.4734 183.431C66.9593 183.431 67.4 183.537 67.7954 183.748C68.1907 183.956 68.5092 184.3 68.7506 184.78C68.9951 185.257 69.1173 185.873 69.1173 186.627C69.1203 187.361 69.0117 187.993 68.7914 188.524C68.571 189.056 68.2571 189.463 67.8497 189.747C67.4453 190.027 66.9684 190.168 66.4191 190.168C65.9905 190.168 65.6057 190.083 65.2646 189.914C64.9236 189.745 64.6489 189.516 64.4407 189.226C64.2324 188.933 64.1057 188.603 64.0604 188.235H65.4005C65.4397 188.395 65.5046 188.532 65.5951 188.647C65.6887 188.761 65.8049 188.849 65.9437 188.909C66.0856 188.969 66.244 189 66.4191 189C66.7118 189 66.9608 188.915 67.1661 188.746C67.3713 188.577 67.5252 188.336 67.6279 188.022C67.7335 187.705 67.7863 187.328 67.7863 186.89H67.7275C67.6248 187.077 67.489 187.24 67.32 187.379C67.151 187.518 66.9563 187.625 66.736 187.7C66.5187 187.773 66.2893 187.809 66.0478 187.809C65.6615 187.809 65.3114 187.718 64.9975 187.537C64.6867 187.356 64.4422 187.106 64.2641 186.786C64.086 186.463 63.9955 186.102 63.9925 185.704C63.9925 185.266 64.0951 184.875 64.3003 184.531C64.5086 184.184 64.8013 183.914 65.1786 183.721C65.5559 183.525 65.9875 183.428 66.4734 183.431ZM66.4779 184.5C66.2606 184.5 66.0629 184.552 65.8849 184.658C65.7068 184.761 65.568 184.901 65.4684 185.079C65.3688 185.254 65.319 185.449 65.319 185.663C65.322 185.877 65.3733 186.072 65.4729 186.247C65.5725 186.422 65.7083 186.561 65.8803 186.664C66.0554 186.766 66.2501 186.818 66.4644 186.818C66.6847 186.818 66.8839 186.765 67.0619 186.659C67.243 186.553 67.3864 186.412 67.492 186.234C67.5977 186.052 67.649 185.859 67.646 185.654C67.646 185.446 67.5947 185.254 67.492 185.079C67.3894 184.901 67.2506 184.761 67.0755 184.658C66.9005 184.552 66.7013 184.5 66.4779 184.5Z" fill="white"/>
<path d="M88.2418 189.095L90.6005 186.926C90.8329 186.703 91.014 186.519 91.1438 186.374C91.2736 186.226 91.3716 186.078 91.438 185.93C91.5075 185.779 91.5422 185.619 91.5422 185.45C91.5422 185.263 91.4969 185.099 91.4064 184.957C91.3158 184.812 91.1921 184.702 91.0351 184.626C90.8782 184.551 90.7001 184.513 90.5009 184.513C90.2987 184.513 90.1191 184.554 89.9622 184.635C89.8082 184.717 89.689 184.836 89.6045 184.993C89.523 185.147 89.4823 185.327 89.4823 185.532H88.1875C88.1875 185.112 88.2841 184.744 88.4772 184.427C88.6734 184.107 88.9466 183.861 89.2967 183.689C89.6498 183.517 90.0557 183.431 90.5145 183.431C90.9763 183.431 91.3837 183.513 91.7368 183.676C92.09 183.839 92.3631 184.066 92.5563 184.359C92.7525 184.652 92.8505 184.987 92.8505 185.364C92.8505 185.621 92.8007 185.868 92.7011 186.107C92.6046 186.345 92.4325 186.609 92.185 186.899C91.9406 187.189 91.592 187.539 91.1392 187.949L90.1387 188.914V188.959H92.9456V190.077H88.2463L88.2418 189.095ZM96.4542 190.168C95.9079 190.168 95.4371 190.036 95.0417 189.774C94.6494 189.511 94.3476 189.128 94.1363 188.624C93.928 188.117 93.8239 187.509 93.8239 186.799C93.8239 186.09 93.928 185.484 94.1363 184.979C94.3476 184.475 94.6509 184.092 95.0463 183.83C95.4416 183.564 95.911 183.431 96.4542 183.431C96.9975 183.431 97.4668 183.564 97.8622 183.83C98.2576 184.092 98.5609 184.477 98.7722 184.984C98.9835 185.488 99.0891 186.093 99.0891 186.799C99.0891 187.512 98.9835 188.12 98.7722 188.624C98.5639 189.128 98.2621 189.511 97.8667 189.774C97.4714 190.036 97.0005 190.168 96.4542 190.168ZM96.4542 189.045C96.7078 189.045 96.9281 188.962 97.1152 188.796C97.3054 188.63 97.4502 188.379 97.5498 188.044C97.6494 187.706 97.6977 187.291 97.6947 186.799C97.6947 186.31 97.6449 185.899 97.5453 185.563C97.4457 185.225 97.3023 184.972 97.1152 184.803C96.9281 184.634 96.7078 184.549 96.4542 184.549C96.2007 184.549 95.9804 184.634 95.7933 184.803C95.6091 184.972 95.4658 185.225 95.3632 185.563C95.2605 185.899 95.2092 186.31 95.2092 186.799C95.2092 187.291 95.259 187.706 95.3586 188.044C95.4613 188.379 95.6061 188.63 95.7933 188.796C95.9804 188.962 96.2007 189.045 96.4542 189.045Z" fill="white"/>
<path d="M119.002 189.095L121.361 186.926C121.593 186.703 121.774 186.519 121.904 186.374C122.034 186.226 122.132 186.078 122.198 185.93C122.267 185.779 122.302 185.619 122.302 185.45C122.302 185.263 122.257 185.099 122.166 184.957C122.076 184.812 121.952 184.702 121.795 184.626C121.638 184.551 121.46 184.513 121.261 184.513C121.059 184.513 120.879 184.554 120.722 184.635C120.568 184.717 120.449 184.836 120.365 184.993C120.283 185.147 120.242 185.327 120.242 185.532H118.948C118.948 185.112 119.044 184.744 119.237 184.427C119.433 184.107 119.707 183.861 120.057 183.689C120.41 183.517 120.816 183.431 121.275 183.431C121.736 183.431 122.144 183.513 122.497 183.676C122.85 183.839 123.123 184.066 123.316 184.359C123.512 184.652 123.611 184.987 123.611 185.364C123.611 185.621 123.561 185.868 123.461 186.107C123.365 186.345 123.193 186.609 122.945 186.899C122.701 187.189 122.352 187.539 121.899 187.949L120.899 188.914V188.959H123.706V190.077H119.006L119.002 189.095ZM127.49 190.077H126.123V184.816H126.087L124.588 185.767V184.554L126.209 183.522H127.49V190.077Z" fill="white"/>
<path d="M147.674 189.095L150.033 186.926C150.265 186.703 150.446 186.519 150.576 186.374C150.706 186.226 150.804 186.078 150.871 185.93C150.94 185.779 150.975 185.619 150.975 185.45C150.975 185.263 150.929 185.099 150.839 184.957C150.748 184.812 150.625 184.702 150.468 184.626C150.311 184.551 150.133 184.513 149.933 184.513C149.731 184.513 149.552 184.554 149.395 184.635C149.241 184.717 149.122 184.836 149.037 184.993C148.956 185.147 148.915 185.327 148.915 185.532H147.62C147.62 185.112 147.717 184.744 147.91 184.427C148.106 184.107 148.379 183.861 148.729 183.689C149.082 183.517 149.488 183.431 149.947 183.431C150.409 183.431 150.816 183.513 151.169 183.676C151.522 183.839 151.796 184.066 151.989 184.359C152.185 184.652 152.283 184.987 152.283 185.364C152.283 185.621 152.233 185.868 152.134 186.107C152.037 186.345 151.865 186.609 151.618 186.899C151.373 187.189 151.024 187.539 150.572 187.949L149.571 188.914V188.959H152.378V190.077H147.679L147.674 189.095ZM153.333 189.095L155.692 186.926C155.924 186.703 156.106 186.519 156.235 186.374C156.365 186.226 156.463 186.078 156.53 185.93C156.599 185.779 156.634 185.619 156.634 185.45C156.634 185.263 156.588 185.099 156.498 184.957C156.407 184.812 156.284 184.702 156.127 184.626C155.97 184.551 155.792 184.513 155.592 184.513C155.39 184.513 155.211 184.554 155.054 184.635C154.9 184.717 154.781 184.836 154.696 184.993C154.615 185.147 154.574 185.327 154.574 185.532H153.279C153.279 185.112 153.376 184.744 153.569 184.427C153.765 184.107 154.038 183.861 154.388 183.689C154.741 183.517 155.147 183.431 155.606 183.431C156.068 183.431 156.475 183.513 156.828 183.676C157.182 183.839 157.455 184.066 157.648 184.359C157.844 184.652 157.942 184.987 157.942 185.364C157.942 185.621 157.892 185.868 157.793 186.107C157.696 186.345 157.524 186.609 157.277 186.899C157.032 187.189 156.684 187.539 156.231 187.949L155.23 188.914V188.959H158.037V190.077H153.338L153.333 189.095Z" fill="white"/>
<path d="M177.388 189.095L179.747 186.926C179.979 186.703 180.16 186.519 180.29 186.374C180.42 186.226 180.518 186.078 180.584 185.93C180.654 185.779 180.688 185.619 180.688 185.45C180.688 185.263 180.643 185.099 180.553 184.957C180.462 184.812 180.338 184.702 180.181 184.626C180.024 184.551 179.846 184.513 179.647 184.513C179.445 184.513 179.265 184.554 179.108 184.635C178.954 184.717 178.835 184.836 178.751 184.993C178.669 185.147 178.628 185.327 178.628 185.532H177.334C177.334 185.112 177.43 184.744 177.623 184.427C177.82 184.107 178.093 183.861 178.443 183.689C178.796 183.517 179.202 183.431 179.661 183.431C180.122 183.431 180.53 183.513 180.883 183.676C181.236 183.839 181.509 184.066 181.702 184.359C181.899 184.652 181.997 184.987 181.997 185.364C181.997 185.621 181.947 185.868 181.847 186.107C181.751 186.345 181.579 186.609 181.331 186.899C181.087 187.189 180.738 187.539 180.285 187.949L179.285 188.914V188.959H182.092V190.077H177.393L177.388 189.095ZM185.487 190.168C185.01 190.168 184.583 190.086 184.206 189.923C183.829 189.76 183.533 189.531 183.319 189.235C183.107 188.939 182.997 188.604 182.988 188.23H184.36C184.369 188.384 184.423 188.523 184.523 188.647C184.623 188.77 184.757 188.867 184.926 188.936C185.095 189.006 185.282 189.04 185.487 189.04C185.702 189.04 185.895 189.003 186.067 188.927C186.242 188.849 186.376 188.743 186.47 188.61C186.563 188.475 186.608 188.321 186.605 188.149C186.608 187.97 186.56 187.812 186.461 187.673C186.361 187.534 186.216 187.427 186.026 187.352C185.839 187.273 185.619 187.234 185.365 187.234H184.754V186.229H185.365C185.579 186.229 185.771 186.193 185.94 186.12C186.109 186.045 186.239 185.941 186.329 185.808C186.42 185.675 186.464 185.524 186.461 185.355C186.464 185.189 186.426 185.043 186.347 184.916C186.269 184.786 186.156 184.687 186.008 184.617C185.86 184.548 185.691 184.513 185.501 184.513C185.308 184.513 185.131 184.548 184.971 184.617C184.811 184.684 184.681 184.78 184.582 184.907C184.485 185.031 184.432 185.176 184.423 185.342H183.12C183.132 184.97 183.242 184.64 183.45 184.35C183.658 184.06 183.94 183.836 184.297 183.676C184.656 183.513 185.057 183.431 185.501 183.431C185.951 183.431 186.347 183.511 186.691 183.671C187.036 183.831 187.303 184.051 187.493 184.332C187.683 184.613 187.775 184.927 187.769 185.274C187.775 185.512 187.725 185.729 187.62 185.926C187.517 186.122 187.371 186.283 187.18 186.41C186.993 186.534 186.776 186.618 186.529 186.664V186.713C186.848 186.753 187.12 186.842 187.343 186.981C187.57 187.116 187.74 187.291 187.855 187.506C187.97 187.72 188.024 187.964 188.018 188.239C188.024 188.604 187.918 188.935 187.701 189.231C187.484 189.523 187.182 189.753 186.796 189.919C186.409 190.085 185.973 190.168 185.487 190.168Z" fill="white"/>
<path d="M207.355 189.095L209.714 186.926C209.946 186.703 210.127 186.519 210.257 186.374C210.387 186.226 210.485 186.078 210.551 185.93C210.621 185.779 210.656 185.619 210.656 185.45C210.656 185.263 210.61 185.099 210.52 184.957C210.429 184.812 210.306 184.702 210.149 184.626C209.992 184.551 209.814 184.513 209.614 184.513C209.412 184.513 209.233 184.554 209.076 184.635C208.922 184.717 208.802 184.836 208.718 184.993C208.636 185.147 208.596 185.327 208.596 185.532H207.301C207.301 185.112 207.398 184.744 207.591 184.427C207.787 184.107 208.06 183.861 208.41 183.689C208.763 183.517 209.169 183.431 209.628 183.431C210.09 183.431 210.497 183.513 210.85 183.676C211.203 183.839 211.477 184.066 211.67 184.359C211.866 184.652 211.964 184.987 211.964 185.364C211.964 185.621 211.914 185.868 211.815 186.107C211.718 186.345 211.546 186.609 211.298 186.899C211.054 187.189 210.705 187.539 210.253 187.949L209.252 188.914V188.959H212.059V190.077H207.36L207.355 189.095ZM212.77 187.841L215.541 183.522H216.464V185.016H215.912L214.146 187.768V187.823H218.08V188.918H212.77V187.841ZM215.952 188.588L215.971 188.112V183.522H217.252V190.077H215.952V188.588Z" fill="white"/>
<path d="M30.579 240.182L32.9377 238.013C33.1701 237.79 33.3511 237.606 33.4809 237.461C33.6107 237.313 33.7088 237.165 33.7752 237.017C33.8446 236.866 33.8793 236.706 33.8793 236.537C33.8793 236.35 33.834 236.186 33.7435 236.044C33.653 235.899 33.5292 235.789 33.3723 235.713C33.2153 235.638 33.0373 235.6 32.8381 235.6C32.6358 235.6 32.4563 235.641 32.2993 235.722C32.1454 235.804 32.0262 235.923 31.9417 236.08C31.8602 236.234 31.8194 236.413 31.8194 236.619H30.5246C30.5246 236.199 30.6212 235.831 30.8144 235.514C31.0106 235.194 31.2837 234.948 31.6338 234.776C31.9869 234.604 32.3929 234.518 32.8516 234.518C33.3134 234.518 33.7209 234.6 34.074 234.763C34.4271 234.926 34.7003 235.153 34.8934 235.446C35.0896 235.739 35.1877 236.074 35.1877 236.451C35.1877 236.708 35.1379 236.955 35.0383 237.194C34.9417 237.432 34.7697 237.696 34.5222 237.986C34.2777 238.276 33.9291 238.626 33.4764 239.036L32.4759 240.001V240.046H35.2828V241.164H30.5835L30.579 240.182ZM38.6556 241.255C38.2089 241.255 37.8044 241.172 37.4423 241.006C37.0801 240.84 36.7949 240.609 36.5866 240.313C36.3814 240.017 36.2742 239.685 36.2652 239.317H37.5826C37.5977 239.486 37.6535 239.635 37.7501 239.765C37.8497 239.895 37.978 239.998 38.1349 240.073C38.2949 240.145 38.4684 240.182 38.6556 240.182C38.8789 240.182 39.0781 240.132 39.2532 240.032C39.4312 239.933 39.5701 239.795 39.6697 239.62C39.7693 239.442 39.8191 239.241 39.8191 239.018C39.8191 238.786 39.7678 238.582 39.6651 238.407C39.5655 238.229 39.4252 238.09 39.2441 237.99C39.066 237.888 38.8623 237.837 38.6329 237.837C38.3885 237.834 38.1817 237.877 38.0127 237.968C37.8437 238.058 37.7094 238.197 37.6098 238.384H36.3738L36.7315 234.609H40.7653V235.727H37.8542L37.6732 237.379H37.723C37.8497 237.213 38.0308 237.079 38.2662 236.976C38.5016 236.874 38.7597 236.822 39.0404 236.822C39.4358 236.822 39.7934 236.914 40.1133 237.099C40.4363 237.28 40.6868 237.535 40.8649 237.864C41.0459 238.193 41.135 238.565 41.132 238.982C41.135 239.417 41.0309 239.807 40.8196 240.154C40.6113 240.499 40.3201 240.769 39.9458 240.965C39.5716 241.158 39.1415 241.255 38.6556 241.255Z" fill="white"/>
<path d="M60.0764 240.182L62.4351 238.013C62.6675 237.79 62.8486 237.606 62.9784 237.461C63.1081 237.313 63.2062 237.165 63.2726 237.017C63.3421 236.866 63.3768 236.706 63.3768 236.537C63.3768 236.35 63.3315 236.186 63.2409 236.044C63.1504 235.899 63.0267 235.789 62.8697 235.713C62.7128 235.638 62.5347 235.6 62.3355 235.6C62.1333 235.6 61.9537 235.641 61.7968 235.722C61.6428 235.804 61.5236 235.923 61.4391 236.08C61.3576 236.234 61.3169 236.413 61.3169 236.619H60.0221C60.0221 236.199 60.1187 235.831 60.3118 235.514C60.508 235.194 60.7811 234.948 61.1312 234.776C61.4844 234.604 61.8903 234.518 62.3491 234.518C62.8109 234.518 63.2183 234.6 63.5714 234.763C63.9246 234.926 64.1977 235.153 64.3909 235.446C64.587 235.739 64.6851 236.074 64.6851 236.451C64.6851 236.708 64.6353 236.955 64.5357 237.194C64.4392 237.432 64.2671 237.696 64.0196 237.986C63.7752 238.276 63.4266 238.626 62.9738 239.036L61.9733 240.001V240.046H64.7802V241.164H60.0809L60.0764 240.182ZM68.2843 241.255C67.7984 241.252 67.3577 241.144 66.9623 240.933C66.567 240.722 66.247 240.376 66.0026 239.896C65.7581 239.417 65.6359 238.796 65.6359 238.036C65.6359 237.308 65.746 236.681 65.9663 236.152C66.1897 235.621 66.5036 235.217 66.908 234.939C67.3155 234.658 67.7908 234.518 68.3341 234.518C68.7657 234.518 69.1505 234.601 69.4885 234.767C69.8296 234.933 70.1042 235.161 70.3125 235.451C70.5208 235.74 70.6475 236.066 70.6928 236.429H69.3482C69.312 236.275 69.2471 236.142 69.1535 236.03C69.063 235.915 68.9483 235.829 68.8095 235.772C68.6706 235.715 68.5122 235.686 68.3341 235.686C68.0413 235.686 67.7938 235.771 67.5916 235.94C67.3924 236.106 67.24 236.344 67.1344 236.655C67.0287 236.966 66.9744 237.339 66.9714 237.773H67.0257C67.1283 237.58 67.2642 237.416 67.4332 237.28C67.6052 237.141 67.7999 237.035 68.0172 236.963C68.2375 236.887 68.4669 236.85 68.7053 236.85C69.0947 236.85 69.4463 236.94 69.7602 237.121C70.0741 237.302 70.3185 237.554 70.4936 237.877C70.6717 238.197 70.7607 238.561 70.7607 238.968C70.7607 239.409 70.6566 239.803 70.4483 240.15C70.2431 240.497 69.9518 240.769 69.5746 240.965C69.2003 241.158 68.7702 241.255 68.2843 241.255ZM68.2752 240.182C68.4956 240.182 68.6933 240.13 68.8683 240.028C69.0464 239.922 69.1852 239.78 69.2848 239.602C69.3874 239.421 69.4387 239.223 69.4387 239.009C69.4387 238.789 69.3889 238.59 69.2893 238.411C69.1897 238.233 69.0524 238.095 68.8774 237.995C68.7023 237.895 68.5046 237.846 68.2843 237.846C68.067 237.846 67.8693 237.897 67.6912 238C67.5132 238.102 67.3728 238.242 67.2702 238.421C67.1676 238.599 67.1132 238.796 67.1072 239.014C67.1102 239.222 67.1615 239.415 67.2611 239.593C67.3638 239.771 67.5026 239.915 67.6776 240.023C67.8557 240.129 68.0549 240.182 68.2752 240.182Z" fill="white"/>
<path d="M89.3626 240.182L91.7213 238.013C91.9537 237.79 92.1347 237.606 92.2645 237.461C92.3943 237.313 92.4924 237.165 92.5588 237.017C92.6282 236.866 92.6629 236.706 92.6629 236.537C92.6629 236.35 92.6176 236.186 92.5271 236.044C92.4366 235.899 92.3128 235.789 92.1559 235.713C91.9989 235.638 91.8209 235.6 91.6217 235.6C91.4194 235.6 91.2399 235.641 91.0829 235.722C90.929 235.804 90.8098 235.923 90.7253 236.08C90.6438 236.234 90.603 236.413 90.603 236.619H89.3082C89.3082 236.199 89.4048 235.831 89.598 235.514C89.7942 235.194 90.0673 234.948 90.4174 234.776C90.7705 234.604 91.1765 234.518 91.6352 234.518C92.097 234.518 92.5045 234.6 92.8576 234.763C93.2107 234.926 93.4839 235.153 93.677 235.446C93.8732 235.739 93.9713 236.074 93.9713 236.451C93.9713 236.708 93.9215 236.955 93.8219 237.194C93.7253 237.432 93.5533 237.696 93.3058 237.986C93.0613 238.276 92.7127 238.626 92.26 239.036L91.2595 240.001V240.046H94.0664V241.164H89.3671L89.3626 240.182ZM98.0458 235.768V235.727H94.8315V234.609H99.4583V235.745L96.6922 241.164H95.2887L98.0458 235.768Z" fill="white"/>
<path d="M118.39 240.182L120.749 238.013C120.981 237.79 121.162 237.606 121.292 237.461C121.422 237.313 121.52 237.165 121.586 237.017C121.656 236.866 121.691 236.706 121.691 236.537C121.691 236.35 121.645 236.186 121.555 236.044C121.464 235.899 121.34 235.789 121.183 235.713C121.027 235.638 120.848 235.6 120.649 235.6C120.447 235.6 120.267 235.641 120.11 235.722C119.957 235.804 119.837 235.923 119.753 236.08C119.671 236.234 119.631 236.413 119.631 236.619H118.336C118.336 236.199 118.432 235.831 118.626 235.514C118.822 235.194 119.095 234.948 119.445 234.776C119.798 234.604 120.204 234.518 120.663 234.518C121.125 234.518 121.532 234.6 121.885 234.763C122.238 234.926 122.511 235.153 122.705 235.446C122.901 235.739 122.999 236.074 122.999 236.451C122.999 236.708 122.949 236.955 122.849 237.194C122.753 237.432 122.581 237.696 122.333 237.986C122.089 238.276 121.74 238.626 121.288 239.036L120.287 240.001V240.046H123.094V241.164H118.395L118.39 240.182ZM126.521 241.255C126.032 241.255 125.591 241.175 125.199 241.015C124.81 240.855 124.505 240.633 124.285 240.349C124.064 240.065 123.954 239.749 123.954 239.398C123.954 239.13 124.018 238.879 124.144 238.647C124.271 238.411 124.443 238.218 124.66 238.067C124.881 237.917 125.125 237.821 125.394 237.782V237.732C125.164 237.687 124.959 237.597 124.778 237.461C124.597 237.322 124.455 237.15 124.353 236.945C124.25 236.739 124.199 236.519 124.199 236.284C124.199 235.949 124.3 235.647 124.502 235.378C124.704 235.107 124.982 234.895 125.335 234.744C125.688 234.594 126.083 234.518 126.521 234.518C126.962 234.518 127.359 234.594 127.712 234.744C128.068 234.895 128.346 235.107 128.545 235.378C128.747 235.647 128.848 235.949 128.848 236.284C128.848 236.519 128.795 236.739 128.69 236.945C128.587 237.15 128.445 237.322 128.264 237.461C128.086 237.597 127.881 237.687 127.648 237.732V237.782C127.917 237.821 128.16 237.917 128.377 238.067C128.598 238.218 128.773 238.411 128.902 238.647C129.032 238.879 129.097 239.13 129.097 239.398C129.097 239.749 128.985 240.065 128.762 240.349C128.542 240.633 128.235 240.855 127.843 241.015C127.454 241.175 127.013 241.255 126.521 241.255ZM126.521 240.218C126.747 240.218 126.948 240.177 127.123 240.096C127.298 240.014 127.434 239.901 127.531 239.756C127.627 239.611 127.676 239.448 127.676 239.267C127.676 239.077 127.626 238.906 127.526 238.756C127.427 238.605 127.289 238.487 127.114 238.402C126.939 238.318 126.741 238.276 126.521 238.276C126.304 238.276 126.108 238.318 125.933 238.402C125.757 238.487 125.62 238.605 125.521 238.756C125.421 238.906 125.373 239.077 125.376 239.267C125.373 239.448 125.419 239.611 125.516 239.756C125.613 239.901 125.748 240.014 125.923 240.096C126.099 240.177 126.298 240.218 126.521 240.218ZM126.521 237.311C126.711 237.311 126.882 237.274 127.033 237.198C127.187 237.12 127.306 237.014 127.39 236.881C127.475 236.745 127.517 236.593 127.517 236.424C127.517 236.252 127.475 236.1 127.39 235.967C127.309 235.834 127.191 235.731 127.037 235.659C126.886 235.583 126.714 235.546 126.521 235.546C126.331 235.546 126.159 235.583 126.005 235.659C125.854 235.731 125.736 235.834 125.652 235.967C125.57 236.1 125.53 236.252 125.53 236.424C125.53 236.593 125.572 236.745 125.656 236.881C125.744 237.014 125.863 237.12 126.014 237.198C126.165 237.274 126.334 237.311 126.521 237.311Z" fill="white"/>
<path d="M148.033 240.182L150.392 238.013C150.625 237.79 150.806 237.606 150.935 237.461C151.065 237.313 151.163 237.165 151.23 237.017C151.299 236.866 151.334 236.706 151.334 236.537C151.334 236.35 151.289 236.186 151.198 236.044C151.107 235.899 150.984 235.789 150.827 235.713C150.67 235.638 150.492 235.6 150.293 235.6C150.09 235.6 149.911 235.641 149.754 235.722C149.6 235.804 149.481 235.923 149.396 236.08C149.315 236.234 149.274 236.413 149.274 236.619H147.979C147.979 236.199 148.076 235.831 148.269 235.514C148.465 235.194 148.738 234.948 149.088 234.776C149.441 234.604 149.847 234.518 150.306 234.518C150.768 234.518 151.175 234.6 151.528 234.763C151.882 234.926 152.155 235.153 152.348 235.446C152.544 235.739 152.642 236.074 152.642 236.451C152.642 236.708 152.592 236.955 152.493 237.194C152.396 237.432 152.224 237.696 151.977 237.986C151.732 238.276 151.384 238.626 150.931 239.036L149.93 240.001V240.046H152.737V241.164H148.038L148.033 240.182ZM156.096 234.518C156.582 234.518 157.023 234.624 157.418 234.835C157.814 235.043 158.132 235.387 158.374 235.867C158.618 236.344 158.74 236.96 158.74 237.714C158.743 238.448 158.635 239.08 158.414 239.611C158.194 240.142 157.88 240.55 157.473 240.834C157.068 241.114 156.591 241.255 156.042 241.255C155.614 241.255 155.229 241.17 154.888 241.001C154.547 240.832 154.272 240.603 154.064 240.313C153.855 240.02 153.729 239.69 153.683 239.321H155.023C155.063 239.481 155.128 239.619 155.218 239.733C155.312 239.848 155.428 239.936 155.567 239.996C155.709 240.056 155.867 240.087 156.042 240.087C156.335 240.087 156.584 240.002 156.789 239.833C156.994 239.664 157.148 239.423 157.251 239.109C157.357 238.792 157.409 238.415 157.409 237.977H157.351C157.248 238.164 157.112 238.327 156.943 238.466C156.774 238.605 156.579 238.712 156.359 238.787C156.142 238.86 155.912 238.896 155.671 238.896C155.285 238.896 154.934 238.805 154.621 238.624C154.31 238.443 154.065 238.193 153.887 237.873C153.709 237.55 153.619 237.189 153.616 236.791C153.616 236.353 153.718 235.962 153.923 235.618C154.132 235.271 154.424 235.001 154.802 234.808C155.179 234.612 155.611 234.515 156.096 234.518ZM156.101 235.586C155.884 235.586 155.686 235.639 155.508 235.745C155.33 235.848 155.191 235.988 155.091 236.166C154.992 236.341 154.942 236.536 154.942 236.75C154.945 236.964 154.996 237.159 155.096 237.334C155.196 237.509 155.331 237.648 155.503 237.751C155.678 237.853 155.873 237.904 156.087 237.904C156.308 237.904 156.507 237.852 156.685 237.746C156.866 237.64 157.009 237.499 157.115 237.32C157.221 237.139 157.272 236.946 157.269 236.741C157.269 236.533 157.218 236.341 157.115 236.166C157.012 235.988 156.874 235.848 156.699 235.745C156.524 235.639 156.324 235.586 156.101 235.586Z" fill="white"/>
<path d="M180.7 241.255C180.224 241.255 179.796 241.173 179.419 241.01C179.042 240.847 178.746 240.618 178.532 240.322C178.321 240.026 178.21 239.691 178.201 239.317H179.573C179.582 239.471 179.636 239.61 179.736 239.733C179.836 239.857 179.97 239.954 180.139 240.023C180.308 240.093 180.495 240.127 180.7 240.127C180.915 240.127 181.108 240.09 181.28 240.014C181.455 239.936 181.589 239.83 181.683 239.697C181.776 239.561 181.822 239.407 181.819 239.235C181.822 239.057 181.773 238.899 181.674 238.76C181.574 238.621 181.429 238.514 181.239 238.439C181.052 238.36 180.832 238.321 180.578 238.321H179.967V237.316H180.578C180.792 237.316 180.984 237.28 181.153 237.207C181.322 237.132 181.452 237.028 181.542 236.895C181.633 236.762 181.677 236.611 181.674 236.442C181.677 236.276 181.639 236.13 181.561 236.003C181.482 235.873 181.369 235.774 181.221 235.704C181.073 235.635 180.904 235.6 180.714 235.6C180.521 235.6 180.344 235.635 180.184 235.704C180.024 235.771 179.895 235.867 179.795 235.994C179.698 236.118 179.646 236.263 179.636 236.429H178.333C178.345 236.057 178.455 235.727 178.663 235.437C178.871 235.147 179.154 234.923 179.51 234.763C179.869 234.6 180.27 234.518 180.714 234.518C181.164 234.518 181.561 234.598 181.905 234.758C182.249 234.918 182.516 235.138 182.706 235.419C182.896 235.7 182.988 236.014 182.982 236.361C182.988 236.599 182.938 236.816 182.833 237.013C182.73 237.209 182.584 237.37 182.394 237.497C182.206 237.621 181.989 237.705 181.742 237.751V237.8C182.062 237.84 182.333 237.929 182.557 238.067C182.783 238.203 182.953 238.378 183.068 238.593C183.183 238.807 183.237 239.051 183.231 239.326C183.237 239.691 183.132 240.022 182.914 240.317C182.697 240.61 182.395 240.84 182.009 241.006C181.622 241.172 181.186 241.255 180.7 241.255ZM186.744 241.255C186.198 241.255 185.727 241.123 185.332 240.861C184.939 240.598 184.638 240.215 184.426 239.711C184.218 239.204 184.114 238.596 184.114 237.886C184.114 237.177 184.218 236.57 184.426 236.066C184.638 235.562 184.941 235.179 185.336 234.916C185.732 234.651 186.201 234.518 186.744 234.518C187.288 234.518 187.757 234.651 188.152 234.916C188.548 235.179 188.851 235.564 189.062 236.071C189.273 236.575 189.379 237.18 189.379 237.886C189.379 238.599 189.273 239.207 189.062 239.711C188.854 240.215 188.552 240.598 188.157 240.861C187.761 241.123 187.291 241.255 186.744 241.255ZM186.744 240.132C186.998 240.132 187.218 240.049 187.405 239.883C187.595 239.717 187.74 239.466 187.84 239.131C187.939 238.793 187.988 238.378 187.985 237.886C187.985 237.397 187.935 236.985 187.835 236.65C187.736 236.312 187.592 236.059 187.405 235.89C187.218 235.721 186.998 235.636 186.744 235.636C186.491 235.636 186.27 235.721 186.083 235.89C185.899 236.059 185.756 236.312 185.653 236.65C185.551 236.985 185.499 237.397 185.499 237.886C185.499 238.378 185.549 238.793 185.649 239.131C185.751 239.466 185.896 239.717 186.083 239.883C186.27 240.049 186.491 240.132 186.744 240.132Z" fill="white"/>
<ellipse cx="184.847" cy="100.99" rx="5.79487" ry="5.79487" fill="#FD6F17"/>
<rect x="29.543" y="198.343" width="186.595" height="11.5897" rx="5.79487" fill="url(#paint0_linear_948_10307)" fill-opacity="0.5"/>
<rect x="29.543" y="151.405" width="186.595" height="11.5897" rx="5.79487" fill="url(#paint1_linear_948_10307)" fill-opacity="0.5"/>
<rect x="150.656" y="45.3589" width="41.7231" height="11.5897" rx="5.79487" fill="url(#paint2_linear_948_10307)" fill-opacity="0.5"/>
<ellipse cx="156.451" cy="56.9487" rx="5.79487" ry="5.79487" fill="#E036C6"/>
<ellipse cx="181.948" cy="204.138" rx="5.79487" ry="5.79487" fill="#F3DB0C"/>
<ellipse cx="212.661" cy="204.138" rx="5.79487" ry="5.79487" fill="#42B0FF" fill-opacity="0.5"/>
<ellipse cx="213.241" cy="157.2" rx="5.79487" ry="5.79487" fill="#42B0FF" fill-opacity="0.5"/>
<ellipse cx="153.554" cy="157.2" rx="5.79487" ry="5.79487" fill="#FF5151"/>
<ellipse cx="215.56" cy="68.5385" rx="5.79487" ry="5.79487" fill="#B641FF"/>
<ellipse cx="215.56" cy="59.2661" rx="5.79487" ry="5.79487" fill="#FF5151"/>
<ellipse cx="215.56" cy="51.1538" rx="5.79487" ry="5.79487" fill="#42B0FF" fill-opacity="0.5"/>
<ellipse cx="186.006" cy="51.1538" rx="5.79487" ry="5.79487" fill="#F3DB0C"/>
<path d="M31.4158 295.741V308.032H29.8947V295.741H31.4158ZM24.8015 296.637C26.6486 296.637 27.9932 298.321 28.0068 300.97C27.9932 303.646 26.6486 305.316 24.8015 305.316C22.9408 305.316 21.5962 303.646 21.5962 300.97C21.5962 298.321 22.9408 296.637 24.8015 296.637ZM24.8015 297.996C23.7557 297.996 23.0495 299.096 23.0495 300.97C23.0495 302.858 23.7557 303.958 24.8015 303.958C25.8337 303.958 26.54 302.858 26.54 300.97C26.54 299.096 25.8337 297.996 24.8015 297.996ZM43.1559 295.755V304.814H41.6483V300.291H39.1764V302.817H33.4314V296.556H34.9389V298.539H37.6824V296.556H39.1764V299.068H41.6483V295.755H43.1559ZM43.4275 306.552V307.774H35.0612V303.917H36.5959V306.552H43.4275ZM34.9389 301.622H37.6824V299.707H34.9389V301.622ZM53.4753 296.406V297.615H49.4687V300.345C51.7029 300.332 53.0407 300.243 54.5618 299.938L54.7248 301.106C53.0814 301.486 51.5738 301.527 48.9662 301.527H47.9747V296.406H53.4753ZM57.1831 295.741V298.158H58.8944V299.394H57.1831V301.88H55.6755V295.741H57.1831ZM57.1831 302.41V305.669H50.6639V306.647H57.5634V307.869H49.1699V304.528H55.6755V303.618H49.1563V302.41H57.1831ZM63.1509 296.597C65.0931 296.583 66.5192 297.819 66.5328 299.557C66.5192 301.309 65.0931 302.532 63.1509 302.532C61.2223 302.532 59.7826 301.309 59.7826 299.557C59.7826 297.819 61.2223 296.583 63.1509 296.597ZM63.1509 297.9C62.078 297.9 61.2766 298.539 61.2766 299.557C61.2766 300.59 62.078 301.214 63.1509 301.214C64.2374 301.214 65.0524 300.59 65.0524 299.557C65.0524 298.539 64.2374 297.9 63.1509 297.9ZM69.3985 295.741V308.032H67.8909V295.741H69.3985ZM59.2258 304.23C61.4396 304.23 64.5091 304.202 67.1575 303.822L67.2798 304.922C64.5227 305.452 61.5754 305.465 59.4159 305.465L59.2258 304.23ZM83.48 295.741V298.539H85.1913V299.775H83.48V302.64H81.9725V295.741H83.48ZM80.071 296.488C80.0575 299.68 77.9659 301.893 74.2988 302.871L73.7012 301.663C76.5466 300.929 78.1628 299.483 78.4276 297.71H74.2852V296.488H80.071ZM83.48 303.129V307.856H75.5347V303.129H83.48ZM77.0423 304.365V306.661H81.9861V304.365H77.0423ZM95.7498 295.741V303.034H94.2422V300.033H92.1506V298.797H94.2422V295.741H95.7498ZM91.5938 303.347C94.2015 303.347 95.7905 304.202 95.7905 305.683C95.7905 307.163 94.2015 308.019 91.5938 308.019C88.9997 308.019 87.4106 307.163 87.4242 305.683C87.4106 304.202 88.9997 303.347 91.5938 303.347ZM91.5938 304.501C89.8825 304.501 88.9182 304.909 88.9182 305.683C88.9182 306.443 89.8825 306.851 91.5938 306.851C93.3051 306.851 94.283 306.443 94.283 305.683C94.283 304.909 93.3051 304.501 91.5938 304.501ZM89.9775 297.846C89.9775 299.34 90.969 300.848 92.8705 301.486L92.1099 302.681C90.7449 302.219 89.7738 301.282 89.2441 300.128C88.7009 301.438 87.6754 302.484 86.2154 303.007L85.4277 301.812C87.397 301.133 88.4428 299.476 88.4428 297.86V297.765H85.8894V296.542H92.5173V297.765H89.9775V297.846ZM102.723 295.931C105.52 295.931 107.137 296.678 107.15 298.036C107.137 299.408 105.52 300.141 102.723 300.155C99.9248 300.141 98.295 299.408 98.295 298.036C98.295 296.678 99.9248 295.931 102.723 295.931ZM102.723 297.045C100.848 297.045 99.8705 297.398 99.8841 298.036C99.8705 298.715 100.848 299.028 102.723 299.028C104.624 299.028 105.588 298.715 105.588 298.036C105.588 297.398 104.624 297.045 102.723 297.045ZM108.332 300.807V302.016H97.1406V300.807H108.332ZM106.933 302.844V305.846H99.952V306.756H107.273V307.91H98.4716V304.773H105.453V303.958H98.458V302.844H106.933ZM122.984 305.289V306.525H111.765V305.289H116.6V302.613H113.001V296.692H121.694V302.613H118.094V305.289H122.984ZM114.482 297.9V301.432H120.2V297.9H114.482ZM126.738 296.637C128.585 296.637 129.916 298.321 129.93 300.97C129.916 303.646 128.585 305.316 126.738 305.316C124.877 305.316 123.533 303.646 123.546 300.97C123.533 298.321 124.877 296.637 126.738 296.637ZM126.738 297.996C125.706 297.996 124.999 299.096 124.999 300.97C124.999 302.858 125.706 303.958 126.738 303.958C127.784 303.958 128.476 302.858 128.476 300.97C128.476 299.096 127.784 297.996 126.738 297.996ZM133.053 295.741V300.454H134.941V301.73H133.053V308.019H131.546V295.741H133.053ZM144.834 295.755V299.001H146.491V300.25H144.834V303.238H143.327V295.755H144.834ZM135.055 301.839C135.972 301.832 137.025 301.826 138.111 301.785V300.671H135.897V296.271H137.378V297.303H140.366V296.271H141.86V300.671H139.632V301.717C140.651 301.676 141.67 301.595 142.62 301.472L142.715 302.491C140.203 302.939 137.351 302.98 135.205 302.98L135.055 301.839ZM137.378 299.476H140.366V298.471H137.378V299.476ZM139.211 303.931C139.211 304.888 139.673 305.9 140.732 306.538C141.778 305.887 142.281 304.854 142.281 303.931V303.673H143.775V303.931C143.775 305.099 144.535 306.24 146.138 306.729L145.405 307.856C144.237 307.455 143.435 306.701 143.001 305.764C142.614 306.715 141.887 307.543 140.746 307.951C139.605 307.543 138.872 306.756 138.478 305.819C138.037 306.735 137.249 307.462 136.101 307.856L135.354 306.729C136.97 306.24 137.744 305.099 137.744 303.931V303.673H139.211V303.931ZM150.136 296.637C151.8 296.637 153.029 298.023 153.247 300.264H155.583V295.741H157.077V308.032H155.583V301.486H153.26C153.097 303.856 151.848 305.316 150.136 305.316C148.289 305.316 146.986 303.646 146.986 300.97C146.986 298.321 148.289 296.637 150.136 296.637ZM150.136 297.996C149.118 297.996 148.425 299.096 148.439 300.97C148.425 302.858 149.118 303.958 150.136 303.958C151.155 303.958 151.834 302.858 151.848 300.97C151.834 299.096 151.155 297.996 150.136 297.996ZM169.672 305.289V306.525H158.454V305.289H161.048V302.179C160.07 301.622 159.479 300.746 159.486 299.652C159.473 297.697 161.401 296.406 164.036 296.406C166.684 296.406 168.613 297.697 168.613 299.652C168.613 300.725 168.043 301.588 167.092 302.152V305.289H169.672ZM164.036 297.602C162.202 297.602 160.953 298.376 160.967 299.652C160.953 300.916 162.202 301.703 164.036 301.703C165.87 301.703 167.133 300.916 167.133 299.652C167.133 298.376 165.87 297.602 164.036 297.602ZM162.542 305.289H165.557V302.722C165.089 302.831 164.579 302.885 164.036 302.885C163.506 302.885 163.004 302.831 162.542 302.736V305.289Z" fill="white"/>
<circle cx="181.537" cy="376.163" r="8.66946" fill="#48ABEC" fill-opacity="0.3"/>
<circle cx="181.537" cy="376.163" r="13.5822" fill="#48ABEC" fill-opacity="0.3"/>
<circle cx="181.537" cy="376.163" r="18.4948" fill="#48ABEC" fill-opacity="0.3"/>
<ellipse cx="181.537" cy="376.163" rx="23.4075" ry="23.4075" fill="#48ABEC" fill-opacity="0.3"/>
<circle cx="181.438" cy="376.063" r="27.6242" fill="#48ABEC" fill-opacity="0.3"/>
<circle cx="181.438" cy="376.063" r="31.9405" fill="#48ABEC" fill-opacity="0.3"/>
<circle cx="132.373" cy="479.983" r="8.66946" fill="#FF5151" fill-opacity="0.3"/>
<circle cx="132.372" cy="479.983" r="13.5822" fill="#FF5151" fill-opacity="0.3"/>
<circle cx="132.373" cy="479.983" r="18.4948" fill="#FF5151" fill-opacity="0.3"/>
<ellipse cx="132.371" cy="479.983" rx="23.4075" ry="23.4075" fill="#FF5151" fill-opacity="0.3"/>
<ellipse cx="132.373" cy="479.983" rx="28.8982" ry="28.8982" fill="#FF5151" fill-opacity="0.3"/>
<circle cx="132.394" cy="480.004" r="33.667" fill="#FF5151" fill-opacity="0.3"/>
<circle cx="132.393" cy="480.004" r="38.4149" fill="#FF5151" fill-opacity="0.3"/>
<circle cx="132.393" cy="480.004" r="43.1628" fill="#FF5151" fill-opacity="0.3"/>
<circle cx="170.008" cy="427.797" r="8.66946" fill="#E036C6" fill-opacity="0.3"/>
<circle cx="170.008" cy="427.797" r="13.5822" fill="#E036C6" fill-opacity="0.3"/>
<circle cx="170.008" cy="427.797" r="18.4948" fill="#E036C6" fill-opacity="0.3"/>
<ellipse cx="170.008" cy="427.797" rx="23.4075" ry="23.4075" fill="#E036C6" fill-opacity="0.3"/>
<circle cx="213.496" cy="408.121" r="8.66946" fill="#B641FF" fill-opacity="0.3"/>
<circle cx="213.496" cy="408.121" r="13.5822" fill="#B641FF" fill-opacity="0.3"/>
<circle cx="55.2525" cy="468.923" r="8.66946" fill="#FD6F17" fill-opacity="0.3"/>
<circle cx="55.2511" cy="468.923" r="13.5822" fill="#FD6F17" fill-opacity="0.3"/>
<circle cx="55.2517" cy="468.923" r="18.4948" fill="#FD6F17" fill-opacity="0.3"/>
<circle cx="55.3167" cy="468.989" r="22.8763" fill="#FD6F17" fill-opacity="0.3"/>
<circle cx="141.06" cy="358.284" r="8.66946" fill="#60F04A" fill-opacity="0.3"/>
<circle cx="141.06" cy="358.284" r="13.5822" fill="#60F04A" fill-opacity="0.3"/>
<circle cx="79.1499" cy="392.57" r="8.66946" fill="#F3DB0C" fill-opacity="0.3"/>
<circle cx="79.1495" cy="392.57" r="13.5822" fill="#F3DB0C" fill-opacity="0.3"/>
<circle cx="79.1491" cy="392.57" r="18.4948" fill="#F3DB0C" fill-opacity="0.3"/>
<ellipse cx="79.1497" cy="392.57" rx="23.4075" ry="23.4075" fill="#F3DB0C" fill-opacity="0.3"/>
<ellipse cx="79.1482" cy="392.571" rx="28.8982" ry="28.8982" fill="#F3DB0C" fill-opacity="0.3"/>
<ellipse cx="79.1495" cy="392.57" rx="41.6134" ry="41.6134" fill="#F3DB0C" fill-opacity="0.3"/>
<ellipse cx="79.1881" cy="392.609" rx="47.6949" ry="47.6949" fill="#F3DB0C" fill-opacity="0.3"/>
<circle cx="79.187" cy="392.609" r="53.3061" fill="#F3DB0C" fill-opacity="0.3"/>
<circle cx="79.1878" cy="392.609" r="58.9173" fill="#F3DB0C" fill-opacity="0.3"/>
<ellipse cx="79.1484" cy="392.571" rx="35.2558" ry="35.2558" fill="#F3DB0C" fill-opacity="0.3"/>
</g>
<rect x="7.70314" y="11.7031" width="232.594" height="533.594" rx="19.7812" stroke="black" stroke-width="6.59372"/>
</g>
<defs>
<filter id="filter0_d_948_10307" x="0.40625" y="0.40625" width="263.188" height="564.188" filterUnits="userSpaceOnUse" color-interpolation-filters="sRGB">
<feFlood flood-opacity="0" result="BackgroundImageFix"/>
<feColorMatrix in="SourceAlpha" type="matrix" values="0 0 0 0 0 0 0 0 0 0 0 0 0 0 0 0 0 0 127 0" result="hardAlpha"/>
<feOffset dx="8" dy="4"/>
<feGaussianBlur stdDeviation="6"/>
<feComposite in2="hardAlpha" operator="out"/>
<feColorMatrix type="matrix" values="0 0 0 0 0 0 0 0 0 0 0 0 0 0 0 0 0 0 0.3 0"/>
<feBlend mode="normal" in2="BackgroundImageFix" result="effect1_dropShadow_948_10307"/>
<feBlend mode="normal" in="SourceGraphic" in2="effect1_dropShadow_948_10307" result="shape"/>
</filter>
<linearGradient id="paint0_linear_948_10307" x1="29.543" y1="204.138" x2="216.138" y2="204.138" gradientUnits="userSpaceOnUse">
<stop stop-color="#48ABEC"/>
<stop offset="1" stop-color="#121212"/>
</linearGradient>
<linearGradient id="paint1_linear_948_10307" x1="29.543" y1="157.2" x2="216.138" y2="157.2" gradientUnits="userSpaceOnUse">
<stop stop-color="#48ABEC"/>
<stop offset="1" stop-color="#121212"/>
</linearGradient>
<linearGradient id="paint2_linear_948_10307" x1="150.656" y1="51.1538" x2="192.379" y2="51.1538" gradientUnits="userSpaceOnUse">
<stop stop-color="#F3DB0C"/>
<stop offset="1" stop-color="#121212"/>
</linearGradient>
<clipPath id="clip0_948_10307">
<rect x="11" y="15" width="226" height="527" rx="16.4843" fill="white"/>
</clipPath>
</defs>
</svg>
