<svg width="264" height="527" viewBox="0 0 264 527" fill="none" xmlns="http://www.w3.org/2000/svg">
<g filter="url(#filter0_d_948_10043)">
<g clip-path="url(#clip0_948_10043)">
<rect x="11" y="15" width="226" height="489.087" rx="16.4843" fill="#121212"/>
<rect width="226" height="42.8821" transform="translate(11 461.205)" fill="#121212"/>
<path d="M52.1265 473.655L50.0777 471.607C49.8514 471.38 49.4845 471.38 49.2582 471.607L44.3403 476.524C44.2622 476.603 44.2081 476.701 44.1843 476.809L43.5842 479.519C43.5452 479.695 43.5988 479.879 43.7265 480.007C43.8541 480.134 44.038 480.188 44.2142 480.149L46.9241 479.549C47.0319 479.525 47.1306 479.471 47.2086 479.393L52.1265 474.475C52.3528 474.249 52.3528 473.882 52.1265 473.655Z" fill="#0FE597"/>
<path d="M51.3065 469.558C51.7591 469.105 52.4929 469.105 52.9455 469.558L54.1748 470.787C54.6274 471.24 54.6274 471.974 54.1748 472.426L53.3553 473.246L50.4869 470.377L51.3065 469.558Z" fill="#868686"/>
<path d="M41.3729 492.765H40.9417V486.762H41.3729V492.765ZM42.4085 489.55H41.2677V489.18H42.4085V489.55ZM37.4919 490.878C38.085 490.88 38.5943 490.865 39.0199 490.833C39.4477 490.802 39.8812 490.744 40.3203 490.66L40.3781 491.037C39.9299 491.119 39.4918 491.174 39.064 491.204C38.6362 491.233 38.1122 491.247 37.4919 491.244H37.0302V490.878H37.4919ZM39.8246 487.716H37.4546V491.037H37.0302V487.357H39.8246V487.716ZM47.6884 492.765H47.2572V486.762H47.6884V492.765ZM44.5239 487.241C44.8181 487.241 45.0796 487.327 45.3082 487.499C45.5368 487.669 45.7145 487.91 45.8413 488.222C45.9703 488.535 46.0348 488.899 46.0348 489.316C46.0348 489.728 45.9703 490.09 45.8413 490.402C45.7145 490.715 45.5368 490.956 45.3082 491.125C45.0796 491.295 44.8181 491.38 44.5239 491.38C44.2296 491.38 43.9682 491.295 43.7395 491.125C43.5109 490.956 43.3321 490.715 43.2031 490.402C43.074 490.09 43.0095 489.728 43.0095 489.316C43.0095 488.899 43.074 488.535 43.2031 488.222C43.3321 487.91 43.5109 487.669 43.7395 487.499C43.9682 487.327 44.2296 487.241 44.5239 487.241ZM44.5239 487.618C44.3111 487.618 44.1209 487.69 43.9534 487.835C43.7859 487.978 43.6558 488.177 43.563 488.433C43.4702 488.689 43.4238 488.983 43.4238 489.316C43.4238 489.642 43.4702 489.934 43.563 490.192C43.6558 490.448 43.7859 490.647 43.9534 490.789C44.1209 490.932 44.3111 491.003 44.5239 491.003C44.7367 491.003 44.9257 490.932 45.0909 490.789C45.2584 490.647 45.3886 490.448 45.4814 490.192C45.5742 489.934 45.6206 489.642 45.6206 489.316C45.6206 488.983 45.5742 488.689 45.4814 488.433C45.3886 488.177 45.2596 487.978 45.0943 487.835C44.9291 487.69 44.7389 487.618 44.5239 487.618ZM50.3776 487.241C50.6673 487.241 50.9231 487.327 51.145 487.499C51.3668 487.669 51.54 487.91 51.6645 488.222C51.7912 488.535 51.8546 488.899 51.8546 489.316C51.8546 489.728 51.7912 490.09 51.6645 490.402C51.54 490.715 51.3668 490.956 51.145 491.125C50.9231 491.295 50.6673 491.38 50.3776 491.38C50.0901 491.38 49.8332 491.295 49.6068 491.125C49.3827 490.956 49.2073 490.715 49.0805 490.402C48.956 490.09 48.8938 489.728 48.8938 489.316C48.8938 488.899 48.956 488.535 49.0805 488.222C49.2073 487.91 49.3827 487.669 49.6068 487.499C49.8332 487.327 50.0901 487.241 50.3776 487.241ZM50.3776 487.618C50.1693 487.618 49.9826 487.69 49.8174 487.835C49.6544 487.978 49.5276 488.177 49.4371 488.433C49.3465 488.689 49.3012 488.983 49.3012 489.316C49.3012 489.642 49.3465 489.934 49.4371 490.192C49.5276 490.448 49.6544 490.647 49.8174 490.789C49.9826 490.932 50.1693 491.003 50.3776 491.003C50.5859 491.003 50.7726 490.932 50.9378 490.789C51.1031 490.647 51.2299 490.448 51.3181 490.192C51.4087 489.934 51.454 489.642 51.454 489.316C51.454 488.983 51.4087 488.689 51.3181 488.433C51.2299 488.177 51.1031 487.978 50.9378 487.835C50.7749 487.69 50.5881 487.618 50.3776 487.618ZM53.7153 492.765H53.2943V486.762H53.7153V492.765ZM53.4912 489.452H51.7052V489.095H53.4912V489.452ZM59.715 492.765H59.2906V486.762H59.715V492.765ZM55.6371 490.925C56.1804 490.925 56.6886 490.909 57.1617 490.878C57.637 490.846 58.1373 490.789 58.6625 490.708L58.7066 491.071C58.1679 491.155 57.6585 491.214 57.1787 491.248C56.6988 491.279 56.1849 491.294 55.6371 491.292H55.1482V490.925H55.6371ZM57.9053 489.411H55.5828V491.068H55.1482V489.051H57.4741V487.699H55.1346V487.34H57.9053V489.411Z" fill="#0FE597"/>
<rect x="118.785" y="470.232" width="4.6359" height="4.6359" rx="1.15897" fill="#868686"/>
<rect x="118.785" y="476.027" width="4.6359" height="4.6359" rx="1.15897" fill="#868686"/>
<rect x="124.58" y="476.027" width="4.6359" height="4.6359" rx="1.15897" fill="#868686"/>
<rect x="126.898" y="469.272" width="4.6359" height="4.6359" rx="1.15897" transform="rotate(45 126.898 469.272)" fill="#868686"/>
<path d="M123.171 490.03H122.754V486.693H123.171V490.03ZM123.171 491.623H119.752V492.397H119.331V491.297H122.754V490.689H119.321V490.353H123.171V491.623ZM123.402 492.631H119.331V492.292H123.402V492.631ZM122.03 487.64H118.346V487.287H122.03V487.64ZM120.193 487.966C120.485 487.966 120.741 488.006 120.961 488.085C121.183 488.164 121.352 488.278 121.47 488.428C121.588 488.575 121.647 488.748 121.647 488.947C121.647 489.146 121.588 489.321 121.47 489.47C121.352 489.617 121.183 489.73 120.961 489.81C120.741 489.889 120.485 489.929 120.193 489.929C119.897 489.929 119.639 489.889 119.419 489.81C119.2 489.73 119.03 489.617 118.91 489.47C118.792 489.321 118.733 489.146 118.733 488.947C118.733 488.748 118.792 488.575 118.91 488.428C119.03 488.278 119.2 488.164 119.419 488.085C119.639 488.006 119.897 487.966 120.193 487.966ZM120.193 488.295C119.983 488.291 119.798 488.317 119.64 488.373C119.482 488.428 119.358 488.505 119.27 488.604C119.184 488.702 119.141 488.816 119.141 488.947C119.141 489.076 119.184 489.191 119.27 489.29C119.358 489.388 119.482 489.463 119.64 489.518C119.798 489.572 119.983 489.599 120.193 489.599C120.399 489.599 120.582 489.572 120.74 489.518C120.901 489.463 121.024 489.388 121.11 489.29C121.196 489.191 121.239 489.076 121.239 488.947C121.239 488.816 121.196 488.702 121.11 488.604C121.024 488.505 120.902 488.428 120.744 488.373C120.585 488.317 120.402 488.291 120.193 488.295ZM120.404 487.484H119.973V486.642H120.404V487.484ZM129.191 490.424H128.764V486.723H129.191V490.424ZM125.052 489.647C125.632 489.647 126.14 489.634 126.577 489.609C127.016 489.582 127.471 489.529 127.942 489.45L127.989 489.81C127.503 489.889 127.036 489.943 126.59 489.973C126.145 490 125.632 490.013 125.052 490.013H124.58V489.647H125.052ZM127.287 488.696H124.991V489.857H124.58V488.35H126.865V487.474H124.563V487.107H127.287V488.696ZM127.215 490.553C127.632 490.553 127.991 490.595 128.292 490.679C128.595 490.763 128.827 490.885 128.988 491.046C129.148 491.204 129.229 491.396 129.229 491.623C129.229 491.845 129.148 492.036 128.988 492.197C128.827 492.357 128.596 492.48 128.295 492.563C127.994 492.647 127.634 492.689 127.215 492.689C126.799 492.689 126.44 492.647 126.139 492.563C125.838 492.48 125.607 492.357 125.446 492.197C125.285 492.036 125.205 491.845 125.205 491.623C125.205 491.396 125.285 491.204 125.446 491.046C125.607 490.885 125.838 490.763 126.139 490.679C126.44 490.595 126.799 490.553 127.215 490.553ZM127.215 490.906C126.896 490.906 126.615 490.935 126.373 490.991C126.133 491.048 125.948 491.13 125.816 491.239C125.687 491.346 125.623 491.473 125.623 491.623C125.623 491.768 125.687 491.894 125.816 492.003C125.948 492.112 126.133 492.194 126.373 492.251C126.615 492.31 126.896 492.339 127.215 492.339C127.539 492.339 127.82 492.31 128.057 492.251C128.295 492.194 128.477 492.112 128.604 492.003C128.733 491.894 128.797 491.768 128.797 491.623C128.797 491.473 128.733 491.346 128.604 491.239C128.477 491.13 128.295 491.048 128.057 490.991C127.82 490.935 127.539 490.906 127.215 490.906Z" fill="#868686"/>
<path d="M197.886 471.01C197.886 470.37 198.405 469.851 199.045 469.851H200.204C200.844 469.851 201.363 470.37 201.363 471.01V480.282H197.886V471.01Z" fill="#868686"/>
<path d="M193.829 475.646C193.829 475.006 194.348 474.487 194.988 474.487H196.727V480.282H193.829V475.646Z" fill="#868686"/>
<path d="M202.521 472.749H204.26C204.9 472.749 205.419 473.267 205.419 473.908V480.282H202.521V472.749Z" fill="#868686"/>
<path d="M191.688 490.136H191.264V486.716H191.688V490.136ZM192.619 488.594H191.569V488.238H192.619V488.594ZM190.065 487.12C190.065 487.609 189.951 488.054 189.722 488.455C189.494 488.856 189.167 489.202 188.741 489.494C188.315 489.784 187.806 490.01 187.213 490.173L187.04 489.823C187.576 489.674 188.037 489.477 188.422 489.232C188.807 488.986 189.101 488.697 189.305 488.367C189.511 488.036 189.614 487.677 189.614 487.29V487.12H190.065ZM189.834 487.48H187.301V487.12H189.834V487.48ZM191.688 492.621H187.93V490.428H191.688V492.621ZM188.357 492.265H191.26V490.791H188.357V492.265ZM197.685 488.672H196.248V488.312H197.685V488.672ZM197.973 490.292H197.542V486.716H197.973V490.292ZM196.007 490.496C196.419 490.496 196.775 490.539 197.073 490.625C197.372 490.711 197.6 490.836 197.756 491.001C197.914 491.167 197.994 491.365 197.994 491.596C197.994 491.827 197.914 492.025 197.756 492.19C197.6 492.355 197.372 492.481 197.073 492.567C196.775 492.653 196.419 492.698 196.007 492.703C195.595 492.698 195.24 492.653 194.941 492.567C194.645 492.481 194.416 492.355 194.255 492.19C194.097 492.025 194.018 491.827 194.018 491.596C194.018 491.365 194.097 491.167 194.255 491.001C194.416 490.836 194.645 490.711 194.941 490.625C195.24 490.539 195.595 490.496 196.007 490.496ZM196.007 490.835C195.693 490.835 195.416 490.866 195.179 490.927C194.941 490.988 194.758 491.076 194.629 491.192C194.502 491.307 194.439 491.442 194.439 491.596C194.439 491.747 194.502 491.881 194.629 491.996C194.758 492.11 194.941 492.197 195.179 492.258C195.416 492.319 195.693 492.349 196.007 492.349C196.324 492.349 196.6 492.319 196.836 492.258C197.071 492.197 197.252 492.11 197.379 491.996C197.508 491.881 197.573 491.747 197.573 491.596C197.573 491.442 197.508 491.307 197.379 491.192C197.252 491.076 197.071 490.988 196.836 490.927C196.6 490.866 196.324 490.835 196.007 490.835ZM194.989 487.857C194.989 488.208 194.914 488.541 194.765 488.856C194.617 489.168 194.417 489.442 194.164 489.677C193.91 489.91 193.624 490.09 193.305 490.217L193.08 489.871C193.37 489.764 193.633 489.608 193.868 489.402C194.106 489.196 194.293 488.959 194.428 488.689C194.564 488.42 194.632 488.143 194.632 487.857V487.324H194.989V487.857ZM195.06 487.851C195.06 488.111 195.126 488.364 195.257 488.611C195.388 488.856 195.569 489.073 195.8 489.263C196.031 489.451 196.287 489.596 196.568 489.698L196.34 490.044C196.028 489.926 195.748 489.758 195.501 489.538C195.257 489.316 195.063 489.059 194.921 488.767C194.778 488.475 194.707 488.17 194.707 487.851V487.324H195.06V487.851ZM196.449 487.545H193.23V487.182H196.449V487.545ZM205.453 489.168H203.739V488.815H205.453V489.168ZM202.706 488.411C202.706 488.82 202.63 489.227 202.476 489.63C202.324 490.03 202.119 490.388 201.861 490.703C201.605 491.015 201.328 491.254 201.029 491.419L200.751 491.076C201.029 490.934 201.292 490.722 201.538 490.441C201.785 490.158 201.982 489.838 202.129 489.48C202.276 489.12 202.35 488.764 202.35 488.411V487.253H202.706V488.411ZM202.785 488.411C202.785 488.757 202.859 489.101 203.009 489.443C203.16 489.785 203.358 490.089 203.603 490.356C203.85 490.623 204.112 490.824 204.391 490.957L204.133 491.31C203.827 491.15 203.545 490.919 203.287 490.618C203.029 490.317 202.822 489.974 202.666 489.589C202.512 489.202 202.435 488.809 202.435 488.411V487.253H202.785V488.411ZM205.664 492.72H205.243V486.716H205.664V492.72ZM211.861 492.709H211.443V486.716H211.861V492.709ZM211.616 489.552H210.397V489.178H211.616V489.552ZM210.53 492.397H210.119V486.856H210.53V492.397ZM208.394 488.401C208.394 488.869 208.337 489.301 208.224 489.698C208.113 490.091 207.951 490.437 207.739 490.733C207.526 491.028 207.269 491.263 206.968 491.439L206.696 491.11C206.979 490.954 207.222 490.742 207.426 490.475C207.63 490.208 207.785 489.898 207.891 489.545C208 489.189 208.054 488.808 208.054 488.401V487.643H208.394V488.401ZM208.469 488.401C208.469 488.772 208.522 489.12 208.628 489.446C208.737 489.772 208.891 490.061 209.09 490.312C209.291 490.561 209.53 490.757 209.806 490.9L209.541 491.236C209.247 491.073 208.995 490.851 208.784 490.57C208.574 490.287 208.412 489.961 208.299 489.592C208.188 489.223 208.132 488.826 208.132 488.401V487.643H208.469V488.401ZM209.643 487.827H206.822V487.46H209.643V487.827Z" fill="#868686"/>
<path d="M32.4992 39.9077V39.1834L34.7719 36.8926C35.4872 36.141 35.8494 35.7245 35.8494 35.1541C35.8494 34.5112 35.3242 34.0947 34.6361 34.0947C33.9117 34.0947 33.4409 34.5565 33.4409 35.2537H32.4992C32.4902 34.0585 33.4047 33.2617 34.6542 33.2617C35.9218 33.2617 36.7911 34.0585 36.8001 35.1269C36.7911 35.8604 36.447 36.4398 35.2156 37.6531L33.8846 39.0023V39.0566H36.9088V39.9077H32.4992ZM40.0633 39.9983C38.5422 39.9983 37.6549 38.7759 37.6549 36.63C37.6549 34.5022 38.5603 33.2617 40.0633 33.2617C41.5664 33.2617 42.4718 34.5022 42.4718 36.63C42.4718 38.7759 41.5754 39.9983 40.0633 39.9983ZM40.0633 39.1381C40.9507 39.1381 41.4758 38.2689 41.4758 36.63C41.4758 35.0002 40.9416 34.1038 40.0633 34.1038C39.1851 34.1038 38.6508 35.0002 38.6508 36.63C38.6508 38.2689 39.176 39.1381 40.0633 39.1381ZM43.2723 39.9077V39.1834L45.5449 36.8926C46.2602 36.141 46.6224 35.7245 46.6224 35.1541C46.6224 34.5112 46.0973 34.0947 45.4091 34.0947C44.6848 34.0947 44.2139 34.5565 44.2139 35.2537H43.2723C43.2632 34.0585 44.1777 33.2617 45.4272 33.2617C46.6949 33.2617 47.5641 34.0585 47.5731 35.1269C47.5641 35.8604 47.22 36.4398 45.9886 37.6531L44.6576 39.0023V39.0566H47.6818V39.9077H43.2723ZM48.2649 38.631V37.8252L51.1623 33.3523H52.3937V37.789H53.2901V38.631H52.3937V39.9077H51.4521V38.631H48.2649ZM49.3152 37.789H51.4521V34.5384H51.3796L49.3152 37.7346V37.789ZM60.5464 32.5736V38.5677H59.6862V35.806H57.4588V35.1179H59.6862V34.2668H57.4588V33.5786H59.6862V32.5736H60.5464ZM60.7547 39.8081V40.5053H55.2586V38.0425H56.1278V39.8081H60.7547ZM55.1137 33.135V36.6843C56.1912 36.6843 57.2144 36.6164 58.3733 36.4036L58.4639 37.1099C57.1781 37.3543 56.0825 37.3996 54.8874 37.4087H54.2626V33.135H55.1137Z" fill="#C6C6C6"/>
<path fill-rule="evenodd" clip-rule="evenodd" d="M25.5998 54.9539L30.2714 60.2094L29.5495 60.8511L24.5928 55.2748L24.5928 54.6331L29.5495 49.0568L30.2714 49.6984L25.5998 54.9539Z" fill="white"/>
<path d="M42.2137 50.0745V59.9077H40.4345V51.7994H40.3802L38.0849 53.2662V51.65L40.516 50.0745H42.2137ZM48.2494 50.0745V59.9077H46.4702V51.7994H46.4159L44.1206 53.2662V51.65L46.5517 50.0745H48.2494ZM60.1796 48.8522V56.0098H58.6585V55.5072H56.3632V54.5837H58.6585V48.8522H60.1796ZM49.8711 53.2798C52.2479 53.2798 55.2087 53.2527 57.8436 52.9946L57.9251 53.9453C56.8046 54.1015 55.6501 54.1966 54.5161 54.2441V56.0233H53.0221V54.312C51.9695 54.3392 50.9576 54.346 50.0341 54.3392L49.8711 53.2798ZM60.1796 56.39V59.1471H53.1986V59.9349H60.5056V61.0078H51.7182V58.1557H58.6857V57.4223H51.6639V56.39H60.1796ZM53.837 49.0423C55.6569 49.0423 56.9064 49.7757 56.9064 50.8894C56.9064 52.0303 55.6569 52.723 53.837 52.723C51.9763 52.723 50.7403 52.0303 50.7403 50.8894C50.7403 49.7757 51.9763 49.0423 53.837 49.0423ZM53.837 50.0474C52.8048 50.0474 52.1664 50.3733 52.18 50.8894C52.1664 51.4056 52.8048 51.7179 53.837 51.7179C54.842 51.7179 55.4939 51.4056 55.4939 50.8894C55.4939 50.3733 54.842 50.0474 53.837 50.0474Z" fill="white"/>
<path d="M220.774 41.8442C220.036 41.8442 219.329 42.1373 218.807 42.6589C218.285 43.1806 217.992 43.8881 217.992 44.6258C217.992 45.3635 218.285 46.071 218.807 46.5926C219.329 47.1143 220.036 47.4073 220.774 47.4073C221.512 47.4073 222.219 47.1143 222.741 46.5926C223.262 46.071 223.555 45.3635 223.555 44.6258C223.555 43.8881 223.262 43.1806 222.741 42.6589C222.219 42.1373 221.512 41.8442 220.774 41.8442ZM218.688 44.6258C218.688 44.0725 218.908 43.5419 219.299 43.1506C219.69 42.7594 220.221 42.5396 220.774 42.5396C221.327 42.5396 221.858 42.7594 222.249 43.1506C222.64 43.5419 222.86 44.0725 222.86 44.6258C222.86 45.1791 222.64 45.7097 222.249 46.1009C221.858 46.4921 221.327 46.7119 220.774 46.7119C220.221 46.7119 219.69 46.4921 219.299 46.1009C218.908 45.7097 218.688 45.1791 218.688 44.6258ZM217.303 48.1027C217.12 48.1019 216.939 48.1372 216.769 48.2068C216.6 48.2763 216.446 48.3786 216.316 48.5078C216.186 48.6371 216.083 48.7907 216.013 48.9598C215.942 49.1289 215.906 49.3103 215.906 49.4935C215.906 50.6694 216.486 51.556 217.391 52.1338C218.282 52.702 219.484 52.9704 220.774 52.9704C222.064 52.9704 223.266 52.702 224.157 52.1338C225.062 51.5567 225.642 50.6687 225.642 49.4935C225.642 49.1246 225.495 48.7709 225.234 48.51C224.973 48.2492 224.62 48.1027 224.251 48.1027H217.303ZM216.602 49.4935C216.602 49.1089 216.913 48.7981 217.303 48.7981H224.251C224.435 48.7981 224.612 48.8713 224.743 49.0018C224.873 49.1322 224.946 49.309 224.946 49.4935C224.946 50.4037 224.514 51.0817 223.783 51.5469C223.039 52.0219 221.98 52.275 220.774 52.275C219.567 52.275 218.509 52.0219 217.765 51.5469C217.035 51.081 216.602 50.4044 216.602 49.4935Z" fill="white" stroke="white" stroke-width="0.231795"/>
<path d="M20.2715 163.349C20.2715 156.948 25.4604 151.759 31.8612 151.759H216.138C222.539 151.759 227.728 156.948 227.728 163.349V422.379C227.728 428.78 222.539 433.969 216.138 433.969H31.8612C25.4604 433.969 20.2715 428.78 20.2715 422.379V163.349Z" fill="url(#paint0_linear_948_10043)" fill-opacity="0.8"/>
<rect x="35.918" y="387.61" width="176.164" height="32.4513" rx="11.5897" fill="#0FE597"/>
<path d="M97.2818 399.929V401.731H98.3955V402.682H97.2818V404.538H96.1228V399.929H97.2818ZM94.9729 400.409C94.9639 402.591 93.5876 404.067 91.1157 404.719L90.6539 403.805C92.501 403.347 93.5197 402.433 93.7143 401.333H91.0614V400.409H94.9729ZM97.2818 404.846V408.069H91.8944V404.846H97.2818ZM93.0443 405.779V407.164H96.1409V405.779H93.0443ZM105.471 399.929V404.819H104.321V402.872H103.035V401.939H104.321V399.929H105.471ZM102.655 405C104.411 405.009 105.489 405.588 105.498 406.593C105.489 407.589 104.411 408.178 102.655 408.178C100.898 408.178 99.8207 407.589 99.8207 406.593C99.8207 405.588 100.898 405.009 102.655 405ZM102.655 405.887C101.559 405.887 100.971 406.114 100.971 406.593C100.971 407.064 101.559 407.3 102.655 407.3C103.75 407.3 104.348 407.064 104.348 406.593C104.348 406.114 103.75 405.887 102.655 405.887ZM103.28 400.427V401.351H101.641C101.668 402.311 102.247 403.28 103.533 403.705L102.963 404.611C102.053 404.316 101.428 403.719 101.07 402.972C100.704 403.814 100.047 404.493 99.0692 404.828L98.4716 403.913C99.8252 403.461 100.432 402.383 100.464 401.351H98.8066V400.427H103.28ZM113.841 404.158V405.063H110.735V406.394H109.594V405.063H106.298V404.158H113.841ZM113.008 407.101V408.024H107.186V405.742H108.326V407.101H113.008ZM108.408 400.192V401.052H111.713V400.192H112.863V403.578H107.267V400.192H108.408ZM108.408 402.664H111.713V401.912H108.408V402.664ZM117.176 401.215C117.167 402.238 117.747 403.234 119.051 403.651L118.435 404.565C117.548 404.266 116.945 403.673 116.597 402.926C116.23 403.741 115.592 404.38 114.659 404.71L114.034 403.787C115.411 403.343 115.999 402.265 116.008 401.143V400.355H117.176V401.215ZM121.034 405.208V408.169H119.884V406.123H115.374V405.208H121.034ZM121.034 399.929V404.837H119.884V402.41H118.335V401.46H119.884V399.929H121.034ZM128.076 400.717C128.067 403.261 127.451 405.38 124.373 406.919L123.739 406.05C125.115 405.367 125.935 404.601 126.401 403.687L123.965 403.913L123.821 402.926L126.754 402.745C126.836 402.401 126.895 402.03 126.926 401.641H124.255V400.717H128.076ZM130.276 399.929V403.089H131.444V404.04H130.276V408.151H129.117V399.929H130.276ZM138.275 403.741V404.665H132.444V400.618H138.212V401.55H133.585V403.741H138.275ZM139.099 406.213V407.164H131.557V406.213H139.099ZM147.781 399.929V401.804H148.894V402.754H147.781V404.737H146.622V399.929H147.781ZM142.638 400.409V401.46H144.322V400.409H145.481V404.33H141.488V400.409H142.638ZM142.638 403.424H144.322V402.356H142.638V403.424ZM147.826 405.109V406.023H143.543V407.155H147.98V408.06H142.393V405.109H147.826ZM155.951 399.929V408.169H154.783V399.929H155.951ZM153.479 400.79C153.479 403.289 152.601 405.362 149.658 406.756L149.052 405.833C151.18 404.828 152.117 403.524 152.302 401.695H149.495V400.79H153.479Z" fill="#121212"/>
<g filter="url(#filter1_b_948_10043)">
<path d="M43.4512 279.441C43.4512 273.04 48.6401 267.852 55.0409 267.852H111.831C118.231 267.852 123.42 273.04 123.42 279.441V342.026C123.42 348.427 118.231 353.616 111.831 353.616H55.0409C48.6401 353.616 43.4512 348.427 43.4512 342.026V279.441Z" fill="url(#paint1_linear_948_10043)"/>
<path d="M43.7409 279.441C43.7409 273.2 48.8001 268.141 55.0409 268.141H111.831C118.071 268.141 123.131 273.2 123.131 279.441V342.026C123.131 348.267 118.071 353.326 111.831 353.326H55.0409C48.8001 353.326 43.7409 348.267 43.7409 342.026V279.441Z" stroke="#695D97" stroke-opacity="0.31" stroke-width="0.579487"/>
</g>
<g filter="url(#filter2_d_948_10043)">
<path d="M76.2477 293.347C71.2897 296.991 64.4119 298.151 60.2868 302.617C55.5509 307.75 56.0744 315.711 59.1127 321.884C62.7539 329.284 69.6396 335.21 77.7867 337.949C85.9338 340.687 95.239 340.208 103.029 336.654C105.75 335.412 108.519 333.489 109.034 330.676C109.724 326.86 106.036 323.658 104.877 319.939C102.759 313.1 109.447 306.598 110.05 299.497C110.74 291.289 102.894 283.837 94.6044 282.505C85.9179 281.106 82.3402 288.873 76.2557 293.339L76.2477 293.347Z" fill="url(#paint2_linear_948_10043)"/>
<path d="M85.6027 290.366C83.8606 292.398 82.4589 294.753 80.2417 296.302C78.4204 297.574 76.2586 298.055 74.263 298.981C72.1408 299.959 70.1849 301.253 68.4586 302.788C64.0874 306.655 59.9776 313.013 61.9018 318.858C63.0817 322.432 65.7029 324.215 68.8149 326.156C72.5447 328.474 76.0447 330.814 80.2892 332.273C85.381 334.026 91.0666 334.553 96.2217 332.965C98.9379 332.13 101.662 330.475 102.438 327.864C103.388 324.674 101.123 321.409 101.123 318.083C101.123 313.517 105.241 310.011 107.165 305.82C109.201 301.388 108.583 295.956 105.605 292.037C100.862 285.784 91.035 284.031 85.6106 290.366H85.6027Z" fill="url(#paint3_linear_948_10043)"/>
<path d="M89.9235 294.898C88.2735 296.225 86.8386 297.813 85.045 298.962C81.3623 301.318 76.5236 301.624 72.793 303.92C68.4088 306.62 66.2166 312.093 67.6435 316.82C68.7117 320.37 71.5654 323.278 74.9373 325.187C78.3092 327.096 82.1753 328.087 86.0494 328.773C88.4249 329.191 90.8721 329.504 93.2396 329.064C95.6071 328.624 97.9108 327.327 98.9152 325.269C100.103 322.838 99.274 319.997 99.5848 317.342C99.9436 314.203 101.865 311.452 103.499 308.693C105.133 305.934 106.568 302.787 105.842 299.707C104.264 292.981 95.1926 290.67 89.9315 294.898H89.9235Z" fill="url(#paint4_linear_948_10043)"/>
<path d="M87.3438 301.636C85.1101 303.06 82.5014 303.899 80.2437 305.293C76.1671 307.804 73.3749 312.504 74.3641 316.986C75.0901 320.299 77.7547 323.05 80.9298 324.646C83.1077 325.748 85.7004 326.7 88.1815 326.917C89.8329 327.067 91.7475 326.805 93.2872 326.25C94.6753 325.756 95.9518 324.804 96.4464 323.492C96.8931 322.308 96.6538 321.026 96.6937 319.797C96.7336 318.47 97.316 317.293 97.7787 316.057C98.1935 314.955 98.6961 313.89 99.2864 312.864C99.8608 311.859 100.507 310.9 101.201 309.963C102.541 308.149 104.416 306.523 104.807 304.341C105.174 302.288 104.057 300.174 102.358 298.847C96.4783 294.268 92.3538 298.465 87.3598 301.636H87.3438Z" fill="url(#paint5_linear_948_10043)"/>
<path d="M84.5337 306.715C83.0683 308.022 81.7851 309.478 81.0881 311.238C80.0108 313.985 80.5732 317.178 82.2762 319.636C84.399 322.696 92.0902 327.931 93.9041 321.79C94.2764 320.535 94.213 319.198 94.4189 317.906C95.2902 312.485 101.69 310.421 101.389 304.577C101.263 302.067 100.067 298.881 97.0566 298.584C96.0348 298.48 94.9972 298.799 94.118 299.297C91.6387 300.678 89.4684 302.839 87.2347 304.547C86.3238 305.245 85.397 305.958 84.5337 306.723V306.715Z" fill="url(#paint6_linear_948_10043)"/>
<g opacity="0.7">
<path d="M90.6183 300.079C90.6183 300.079 90.6183 300.131 90.6183 300.161L90.6371 300.064C90.6183 300.153 90.5807 300.235 90.5337 300.324L90.5807 300.235C90.5243 300.339 90.4584 300.443 90.4208 300.554C90.3832 300.665 90.3832 300.769 90.402 300.888C90.449 301.14 90.6371 301.377 90.9663 301.444C91.3425 301.518 91.7469 301.348 91.9256 301.081C91.9914 300.977 92.0385 300.866 92.0667 300.747C92.1043 300.628 92.1419 300.495 92.1231 300.369C92.1043 300.19 92.0385 300.02 91.8692 299.894C91.7751 299.827 91.6717 299.775 91.5494 299.745C91.4271 299.716 91.2955 299.716 91.1732 299.745C91.0603 299.76 90.9475 299.842 90.8911 299.916C90.8346 299.998 90.8064 300.116 90.844 300.205C90.8817 300.294 90.9475 300.383 91.0603 300.428C91.1732 300.48 91.2955 300.487 91.4271 300.465H91.446C91.446 300.465 91.3613 300.465 91.3237 300.472C91.3519 300.472 91.3707 300.472 91.3895 300.472L91.2673 300.458C91.2673 300.458 91.3049 300.458 91.3143 300.465L91.2014 300.428C91.2014 300.428 91.2579 300.45 91.2767 300.465L91.1826 300.406C91.1826 300.406 91.2296 300.435 91.2484 300.458L91.1732 300.383C91.1732 300.383 91.2108 300.42 91.2202 300.443L91.1732 300.354C91.1732 300.354 91.192 300.406 91.2014 300.435L91.1826 300.339C91.1826 300.398 91.1826 300.45 91.1826 300.509L91.2014 300.413C91.1826 300.532 91.145 300.65 91.0886 300.769L91.1356 300.68C91.1168 300.717 91.0886 300.754 91.0509 300.791L91.1262 300.717C91.1262 300.717 91.0792 300.762 91.0415 300.784L91.1356 300.725C91.1356 300.725 91.0792 300.754 91.0509 300.762L91.1638 300.725C91.1638 300.725 91.1074 300.739 91.0698 300.747L91.192 300.732C91.192 300.732 91.145 300.732 91.1168 300.732L91.239 300.747C91.239 300.747 91.1826 300.739 91.1638 300.732L91.2767 300.769C91.2767 300.769 91.239 300.754 91.2296 300.747L91.3237 300.806C91.3237 300.806 91.2861 300.777 91.2673 300.762L91.3425 300.836C91.3425 300.836 91.3143 300.799 91.2955 300.777L91.3425 300.866C91.3425 300.866 91.3143 300.799 91.3049 300.762L91.3237 300.858C91.3237 300.814 91.3237 300.762 91.3237 300.717L91.3049 300.814C91.3237 300.732 91.3613 300.658 91.3989 300.584L91.3519 300.673C91.4554 300.487 91.5588 300.302 91.5494 300.094C91.5494 299.998 91.5024 299.901 91.4083 299.834C91.3237 299.768 91.192 299.723 91.0792 299.723C90.8346 299.731 90.5995 299.886 90.6089 300.094L90.6183 300.079Z" fill="#00072A"/>
</g>
<g opacity="0.7">
<path d="M91.3339 298.578C90.3993 298.699 89.806 299.489 89.5296 300.264C89.2533 301.04 88.9607 302.109 89.6922 302.756C90.3342 303.328 91.3258 303.328 92.041 302.869C92.8293 302.365 93.1707 301.514 93.2682 300.656C93.3251 300.182 93.2682 299.647 92.9675 299.241C92.6668 298.834 92.236 298.593 91.7159 298.593C91.1957 298.593 91.1957 299.354 91.7159 299.346C92.3579 299.346 92.5042 300.054 92.4717 300.52C92.4311 301.1 92.2198 301.725 91.7484 302.124C91.3664 302.447 90.7569 302.59 90.3261 302.267C90.1067 302.101 90.0417 301.875 90.0498 301.619C90.066 301.296 90.1636 300.965 90.253 300.656C90.4399 300.039 90.8056 299.399 91.5533 299.301C91.7728 299.271 91.8866 299.015 91.8378 298.834C91.7728 298.616 91.5533 298.541 91.3339 298.571V298.578Z" fill="#00072A"/>
</g>
<g opacity="0.7">
<path d="M96.4132 302.977C96.4132 302.977 96.4132 303.029 96.4132 303.058L96.432 302.962C96.4132 303.051 96.3756 303.132 96.3286 303.221L96.3756 303.132C96.3192 303.236 96.2534 303.34 96.2157 303.451C96.1781 303.563 96.1781 303.667 96.1969 303.785C96.244 304.038 96.4321 304.275 96.7612 304.342C97.1374 304.416 97.5418 304.245 97.7205 303.978C97.7864 303.874 97.8334 303.763 97.8616 303.644C97.8992 303.526 97.9368 303.392 97.918 303.266C97.8992 303.088 97.8334 302.917 97.6641 302.791C97.57 302.724 97.4666 302.673 97.3443 302.643C97.2221 302.613 97.0904 302.613 96.9681 302.643C96.8553 302.658 96.7424 302.739 96.686 302.813C96.6296 302.895 96.6013 303.014 96.639 303.103C96.6766 303.192 96.7424 303.281 96.8553 303.325C96.9681 303.377 97.0904 303.385 97.2221 303.362H97.2409C97.2409 303.362 97.1562 303.362 97.1186 303.37C97.1468 303.37 97.1656 303.37 97.1844 303.37L97.0622 303.355C97.0622 303.355 97.0998 303.355 97.1092 303.362L96.9963 303.325C96.9963 303.325 97.0528 303.348 97.0716 303.362L96.9775 303.303C96.9775 303.303 97.0246 303.333 97.0434 303.355L96.9681 303.281C96.9681 303.281 97.0057 303.318 97.0152 303.34L96.9681 303.251C96.9681 303.251 96.9869 303.303 96.9963 303.333L96.9775 303.236C96.9775 303.296 96.9775 303.348 96.9775 303.407L96.9963 303.311C96.9775 303.429 96.9399 303.548 96.8835 303.667L96.9305 303.578C96.9117 303.615 96.8835 303.652 96.8459 303.689L96.9211 303.615C96.9211 303.615 96.8741 303.659 96.8365 303.681L96.9305 303.622C96.9305 303.622 96.8741 303.652 96.8459 303.659L96.9587 303.622C96.9587 303.622 96.9023 303.637 96.8647 303.644L96.9869 303.629C96.9869 303.629 96.9399 303.629 96.9117 303.629L97.034 303.644C97.034 303.644 96.9775 303.637 96.9587 303.629L97.0716 303.667C97.0716 303.667 97.034 303.652 97.0246 303.644L97.1186 303.704C97.1186 303.704 97.081 303.674 97.0622 303.659L97.1374 303.733C97.1374 303.733 97.1092 303.696 97.0904 303.674L97.1374 303.763C97.1374 303.763 97.1092 303.696 97.0998 303.659L97.1186 303.756C97.1186 303.711 97.1186 303.659 97.1186 303.615L97.0998 303.711C97.1186 303.629 97.1562 303.555 97.1938 303.481L97.1468 303.57C97.2503 303.385 97.3537 303.199 97.3443 302.992C97.3443 302.895 97.2973 302.799 97.2033 302.732C97.1186 302.665 96.9869 302.621 96.8741 302.621C96.6296 302.628 96.3944 302.784 96.4038 302.992L96.4132 302.977Z" fill="#00072A"/>
</g>
<g opacity="0.7">
<path d="M97.1288 301.475C96.1942 301.596 95.6009 302.386 95.3246 303.161C95.0482 303.937 94.7556 305.006 95.4871 305.653C96.1292 306.225 97.1207 306.225 97.8359 305.766C98.6243 305.262 98.9656 304.411 99.0631 303.553C99.12 303.079 99.0631 302.544 98.7624 302.138C98.4617 301.731 98.031 301.49 97.5108 301.49C96.9907 301.49 96.9907 302.251 97.5108 302.243C98.1529 302.243 98.2992 302.951 98.2667 303.417C98.226 303.997 98.0147 304.622 97.5433 305.021C97.1613 305.344 96.5518 305.487 96.121 305.164C95.9016 304.998 95.8366 304.772 95.8447 304.516C95.861 304.193 95.9585 303.861 96.0479 303.553C96.2348 302.936 96.6005 302.296 97.3483 302.198C97.5677 302.168 97.6815 301.912 97.6327 301.731C97.5677 301.513 97.3483 301.438 97.1288 301.468V301.475Z" fill="#00072A"/>
</g>
<g opacity="0.7">
<path d="M93.9209 296.837C92.9412 297.053 91.9112 297.072 90.9232 296.886C90.6971 296.846 90.471 296.954 90.404 297.23C90.3454 297.466 90.471 297.79 90.6971 297.839C91.8443 298.045 92.9914 298.036 94.1386 297.79C94.3647 297.741 94.4903 297.426 94.4317 297.181C94.3647 296.905 94.1386 296.787 93.9125 296.837H93.9209Z" fill="#00072A"/>
</g>
<g opacity="0.7">
<path d="M96.8162 299.711C97.3483 300.449 98.116 301.048 99.0145 301.417C99.2239 301.502 99.4944 301.471 99.6078 301.279C99.7124 301.11 99.6688 300.841 99.4507 300.756C99.2501 300.672 99.0494 300.58 98.8662 300.472C98.779 300.418 98.683 300.364 98.5958 300.311C98.5784 300.303 98.5696 300.295 98.5609 300.288L98.5958 300.311C98.5958 300.311 98.5347 300.272 98.5173 300.257C98.4737 300.226 98.4301 300.195 98.3952 300.165C98.2294 300.042 98.0811 299.903 97.9328 299.757C97.8979 299.719 97.863 299.688 97.8281 299.65C97.8107 299.627 97.7845 299.604 97.767 299.581C97.7932 299.619 97.8019 299.619 97.767 299.581C97.6973 299.496 97.6362 299.419 97.5751 299.335C97.453 299.166 97.1826 299.081 96.9819 299.197C96.79 299.304 96.694 299.542 96.8249 299.719L96.8162 299.711Z" fill="#00072A"/>
</g>
<g opacity="0.7">
<path d="M91.6509 317.535C92.4421 316.224 92.2424 314.517 91.0979 313.447C89.9534 312.378 88.2636 312.173 86.8963 312.905C86.2127 313.272 85.6981 313.865 85.4139 314.561C85.1604 315.169 84.953 316.217 85.6366 316.649C86.3203 317.081 87.0346 316.685 87.4878 316.202C87.7413 315.931 87.9717 315.572 88.3404 315.425C88.686 315.294 88.9549 315.55 89.0854 315.836C89.2775 316.239 89.2621 316.707 89.3927 317.132C89.5079 317.499 89.7153 317.85 90.0533 318.077C90.6985 318.51 91.7277 318.173 91.7431 317.359C91.7508 316.891 90.9827 316.891 90.975 317.359C90.975 317.506 90.7522 317.565 90.6293 317.535C90.3759 317.484 90.2222 317.184 90.1531 316.971C89.9534 316.385 89.9995 315.74 89.6001 315.22C89.2007 314.7 88.6015 314.51 88.0024 314.766C87.4033 315.023 87.1652 315.594 86.6659 315.946C86.52 316.048 86.2665 316.151 86.0898 316.048C85.8671 315.916 85.9669 315.462 86.0053 315.257C86.1205 314.678 86.4432 314.151 86.9194 313.777C87.8565 313.03 89.2237 313.03 90.2146 313.682C91.3898 314.458 91.7047 315.997 90.998 317.162C90.7522 317.572 91.4128 317.938 91.6586 317.528L91.6509 317.535Z" fill="#00072A"/>
</g>
<g opacity="0.7">
<path d="M92.4029 306.921C92.173 307.316 91.926 307.705 91.7131 308.108C91.5939 308.334 91.4917 308.581 91.5854 308.835C91.662 309.047 91.8494 309.217 92.0793 309.323C92.4625 309.514 93.0502 309.69 93.4674 309.478C93.9529 309.231 93.8847 308.687 93.8251 308.284C93.7485 307.783 93.5952 307.316 93.3652 306.85C93.2801 306.68 92.9565 306.631 92.7862 306.723C92.5733 306.836 92.5392 307.027 92.6329 307.203C92.6158 307.168 92.6584 307.253 92.6584 307.26C92.6754 307.295 92.6925 307.33 92.7095 307.366C92.7436 307.443 92.7776 307.528 92.8032 307.606C92.8628 307.761 92.9054 307.917 92.9394 308.079C92.948 308.115 92.9565 308.157 92.965 308.192C92.965 308.207 92.982 308.298 92.9735 308.249C92.9905 308.334 92.9991 308.418 92.9991 308.503C92.9991 308.581 93.0076 308.659 93.0076 308.729C93.0076 308.758 93.0076 308.793 93.0076 308.821C93.0076 308.835 93.0076 308.849 93.0076 308.871C93.0076 308.835 93.0076 308.835 93.0076 308.871C93.0076 308.871 92.982 308.92 93.0076 308.885C93.0331 308.849 93.0076 308.885 92.9991 308.899C93.0076 308.892 93.0331 308.871 93.0331 308.864C93.0672 308.821 93.0161 308.885 93.0161 308.871C93.0161 308.871 93.0842 308.842 93.0331 308.864C92.9905 308.878 93.0416 308.864 93.0587 308.864C93.0416 308.864 93.0161 308.864 92.9991 308.864C92.9394 308.864 93.0501 308.878 92.9991 308.864C92.9139 308.842 92.8373 308.828 92.7521 308.8C92.718 308.786 92.684 308.779 92.6499 308.765C92.7265 308.793 92.6244 308.751 92.5988 308.743C92.5647 308.729 92.5307 308.715 92.5051 308.701C92.4881 308.694 92.4711 308.687 92.4625 308.673C92.4625 308.673 92.5136 308.708 92.4796 308.68C92.4711 308.673 92.4029 308.609 92.4285 308.645C92.454 308.68 92.4285 308.645 92.4285 308.63C92.4029 308.588 92.4285 308.616 92.4285 308.63C92.4285 308.63 92.42 308.567 92.42 308.602C92.42 308.638 92.42 308.574 92.42 308.574C92.42 308.623 92.4285 308.539 92.437 308.517C92.4625 308.44 92.4796 308.418 92.5307 308.334C92.7436 307.973 92.948 307.613 93.1609 307.253C93.2545 307.083 93.2205 306.864 93.0076 306.772C92.8202 306.687 92.5307 306.723 92.4285 306.899L92.4029 306.921Z" fill="#00072A"/>
</g>
</g>
<g filter="url(#filter3_b_948_10043)">
<path d="M131.608 270.159C133.264 263.976 139.62 260.307 145.802 261.964L200.657 276.662C206.84 278.318 210.509 284.674 208.852 290.856L192.654 351.308C190.997 357.491 184.642 361.16 178.46 359.504L123.605 344.805C117.422 343.149 113.753 336.794 115.41 330.611L131.608 270.159Z" fill="url(#paint7_linear_948_10043)"/>
<path d="M131.888 270.234C133.503 264.206 139.699 260.628 145.727 262.243L200.582 276.942C206.61 278.557 210.187 284.753 208.572 290.781L192.374 351.233C190.759 357.262 184.563 360.839 178.535 359.224L123.68 344.525C117.652 342.91 114.074 336.714 115.69 330.686L131.888 270.234Z" stroke="#C75D5F" stroke-opacity="0.31" stroke-width="0.579487"/>
</g>
<g filter="url(#filter4_d_948_10043)">
<path d="M181.999 277.725C180.505 277.611 179.054 278.46 177.787 279.313C167.308 286.361 159.184 296.398 148.045 302.569C144.734 304.403 141.121 305.399 137.416 306.069C135.18 306.472 129.519 306.096 128.167 308.219C127.434 309.373 127.497 310.894 128.001 312.164C129.193 315.2 131.24 317.682 132.832 320.486C134.709 323.792 134.504 326.484 135.338 329.981C137.069 337.268 144.38 344.373 151.474 346.273C159.37 348.389 168.152 347.791 175.471 344.039C179.32 342.068 181.648 339.091 184.871 336.399C188.127 333.681 191.848 331.134 192.533 326.612C193.555 319.914 182.629 318.91 180.324 313.801C178.106 308.885 181.521 302.537 183.174 297.896C185.058 292.6 187.093 286.88 185.617 281.216C185.202 279.616 184.027 278.1 182.409 277.779C182.273 277.752 182.135 277.731 181.999 277.725Z" fill="url(#paint8_linear_948_10043)"/>
<path d="M179.352 282.121C178.058 282.024 176.803 282.757 175.704 283.496C166.623 289.604 159.584 298.306 149.929 303.652C147.058 305.241 143.93 306.106 140.716 306.682C138.781 307.028 133.869 306.704 132.701 308.544C132.064 309.545 132.121 310.859 132.557 311.963C133.592 314.593 135.365 316.741 136.744 319.177C138.37 322.042 138.196 324.374 138.914 327.405C140.414 333.72 146.751 339.878 152.9 341.525C159.741 343.358 167.355 342.841 173.696 339.589C177.03 337.879 179.046 335.299 181.84 332.969C184.634 330.638 187.888 328.405 188.483 324.483C189.368 318.68 179.9 317.81 177.905 313.378C175.981 309.119 178.94 303.615 180.375 299.596C182.009 295.006 183.772 290.051 182.488 285.14C182.128 283.754 181.108 282.443 179.704 282.164C179.587 282.143 179.469 282.126 179.349 282.115L179.352 282.121Z" fill="url(#paint9_linear_948_10043)"/>
<path d="M177.238 285.64C176.104 285.557 175.001 286.197 174.038 286.85C166.073 292.209 159.901 299.833 151.435 304.526C148.918 305.918 146.172 306.675 143.355 307.184C141.656 307.491 137.352 307.207 136.327 308.815C135.771 309.689 135.819 310.847 136.199 311.814C137.107 314.118 138.659 316.002 139.872 318.138C141.301 320.653 141.142 322.698 141.776 325.353C143.091 330.892 148.648 336.294 154.038 337.738C160.038 339.346 166.715 338.89 172.274 336.036C175.198 334.539 176.965 332.276 179.416 330.232C181.867 328.188 184.72 326.231 185.242 322.791C186.018 317.7 177.718 316.939 175.966 313.053C174.281 309.317 176.873 304.493 178.131 300.963C179.562 296.938 181.106 292.59 179.987 288.29C179.668 287.074 178.778 285.925 177.544 285.682C177.442 285.659 177.338 285.647 177.233 285.639L177.238 285.64Z" fill="url(#paint10_linear_948_10043)"/>
<path d="M175.655 288.281C174.642 288.204 173.655 288.778 172.792 289.36C165.67 294.152 160.147 300.978 152.571 305.173C150.318 306.421 147.865 307.099 145.343 307.553C143.822 307.826 139.971 307.572 139.057 309.015C138.561 309.797 138.601 310.831 138.943 311.695C139.756 313.759 141.146 315.446 142.226 317.352C143.501 319.601 143.364 321.432 143.93 323.808C145.104 328.762 150.078 333.593 154.904 334.886C160.27 336.324 166.243 335.914 171.219 333.366C173.834 332.026 175.416 329.999 177.609 328.173C179.802 326.346 182.355 324.591 182.82 321.518C183.514 316.963 176.088 316.282 174.522 312.809C173.012 309.469 175.336 305.151 176.458 301.994C177.74 298.394 179.12 294.503 178.115 290.653C177.834 289.565 177.034 288.538 175.932 288.319C175.84 288.299 175.745 288.289 175.655 288.281Z" fill="url(#paint11_linear_948_10043)"/>
<path d="M174.306 290.911C173.408 290.844 172.54 291.354 171.778 291.866C165.487 296.098 160.607 302.125 153.919 305.831C151.93 306.935 149.765 307.531 147.539 307.932C146.196 308.171 142.796 307.95 141.99 309.223C141.549 309.913 141.59 310.829 141.888 311.589C142.606 313.413 143.831 314.897 144.79 316.586C145.916 318.571 145.796 320.186 146.296 322.289C147.334 326.664 151.723 330.929 155.986 332.072C160.726 333.342 166.001 332.98 170.395 330.731C172.704 329.544 174.102 327.76 176.04 326.141C177.978 324.523 180.229 322.978 180.644 320.265C181.256 316.245 174.699 315.644 173.316 312.573C171.983 309.623 174.034 305.809 175.026 303.022C176.159 299.842 177.376 296.409 176.492 293.006C176.243 292.044 175.539 291.139 174.563 290.944C174.481 290.927 174.402 290.916 174.317 290.909L174.306 290.911Z" fill="url(#paint12_linear_948_10043)"/>
<g clip-path="url(#clip1_948_10043)">
<path d="M159.855 308.101C160.816 308.689 161.9 309.488 162.28 310.601C162.426 311.028 162.559 311.567 162.449 312.017C162.42 312.133 162.377 312.301 162.246 312.338C162.151 312.365 162.027 312.279 161.946 312.236C161.801 312.156 161.659 312.065 161.518 311.975C160.517 311.336 159.615 310.553 158.829 309.662C158.447 309.229 158.095 308.77 157.778 308.288C157.626 308.056 157.479 307.818 157.342 307.576C157.236 307.391 157.114 307.214 157.091 306.998C157.086 306.947 157.107 306.858 157.101 306.838C157.064 306.71 157.143 306.866 157.095 306.836C157.085 306.848 157.075 306.856 157.061 306.862C157.022 306.873 157.027 306.872 157.074 306.858C157.074 306.858 157.253 306.929 157.309 306.952C157.487 307.027 157.664 307.097 157.843 307.168C158.534 307.441 159.215 307.716 159.856 308.099C160.301 308.365 160.709 307.666 160.264 307.4C159.564 306.981 158.809 306.686 158.052 306.387C157.544 306.186 156.792 305.765 156.411 306.416C156.13 306.898 156.356 307.471 156.603 307.908C156.955 308.532 157.359 309.123 157.804 309.684C158.705 310.824 159.794 311.81 161.009 312.603C161.562 312.964 162.314 313.453 162.899 312.856C163.352 312.391 163.318 311.671 163.228 311.081C162.972 309.397 161.648 308.244 160.266 307.399C159.824 307.128 159.416 307.826 159.858 308.098L159.855 308.101Z" fill="#37030A"/>
<path d="M168.926 310.046C168.642 310.127 168.35 310.153 168.063 310.229C167.753 310.312 167.454 310.424 167.161 310.555C166.645 310.787 166.093 311.104 165.722 311.54C165.351 311.977 165.177 312.55 165.514 313.04C165.811 313.473 166.352 313.607 166.847 313.633C167.906 313.689 168.989 313.427 169.946 312.98C170.42 312.759 170.862 312.478 171.273 312.155C171.685 311.832 172.19 311.438 172.238 310.894C172.3 310.155 171.529 309.9 170.941 309.818C170.608 309.771 170.274 309.756 169.938 309.792C169.582 309.83 169.266 309.945 168.926 310.048C168.431 310.198 168.638 310.98 169.138 310.827C169.578 310.692 169.964 310.567 170.431 310.579C170.654 310.585 170.872 310.612 171.089 310.665C171.179 310.687 171.414 310.725 171.441 310.829C171.471 310.944 171.183 311.168 171.119 311.23C170.975 311.363 170.826 311.493 170.669 311.612C170.35 311.851 170.008 312.057 169.651 312.231C168.956 312.57 168.182 312.775 167.412 312.82C167.078 312.839 166.689 312.869 166.372 312.73C166.018 312.574 166.154 312.255 166.371 312.026C166.702 311.679 167.167 311.425 167.605 311.239C168.104 311.025 168.623 310.976 169.137 310.829C169.651 310.682 169.426 309.908 168.925 310.05L168.926 310.046Z" fill="#37030A"/>
<path d="M154.377 313.383C152.636 313.599 151.239 314.577 150.009 315.779C149.383 316.39 148.595 317.217 149.077 318.153C149.444 318.866 150.323 319.1 151.034 319.301C152.846 319.811 154.766 320.163 156.553 319.356C157.314 319.012 158.003 318.47 158.522 317.814C159.042 317.157 159.531 316.328 159.369 315.47C159.207 314.613 158.247 314.161 157.507 313.862C156.512 313.461 155.452 313.265 154.379 313.384C154.162 313.407 153.979 313.557 153.978 313.791C153.979 313.992 154.166 314.216 154.383 314.193C155.242 314.098 156.09 314.204 156.904 314.496C157.421 314.68 158.054 314.898 158.424 315.326C158.851 315.819 158.413 316.573 158.115 317.018C157.733 317.589 157.211 318.067 156.62 318.415C155.233 319.231 153.642 319.12 152.135 318.758C151.722 318.658 151.313 318.546 150.905 318.427C150.622 318.342 150.343 318.247 150.093 318.086C149.887 317.953 149.707 317.754 149.734 317.489C149.772 317.123 150.109 316.819 150.352 316.575C151.472 315.451 152.758 314.396 154.381 314.194C154.596 314.168 154.783 314.024 154.781 313.787C154.781 313.588 154.594 313.36 154.377 313.385L154.377 313.383Z" fill="#37030A"/>
<path d="M166.49 316.263C166.062 316.42 165.67 316.74 165.336 317.046C164.967 317.385 164.645 317.784 164.382 318.212C163.864 319.057 163.57 320.056 163.579 321.048C163.596 322.719 164.467 324.294 165.79 325.279C166.441 325.765 167.247 326.123 168.067 326.157C168.967 326.193 169.704 325.7 170.121 324.913C170.53 324.14 170.768 323.226 170.916 322.366C171.063 321.505 171.096 320.551 170.898 319.658C170.461 317.689 168.692 315.637 166.49 316.263C165.992 316.404 166.201 317.184 166.702 317.042C168.296 316.588 169.56 318.057 170.003 319.437C170.469 320.894 170.174 322.476 169.685 323.888C169.471 324.509 169.149 325.197 168.437 325.327C167.789 325.444 167.102 325.155 166.562 324.824C165.436 324.135 164.641 322.938 164.433 321.631C164.288 320.732 164.468 319.782 164.88 318.975C165.091 318.561 165.357 318.176 165.679 317.842C165.954 317.555 166.325 317.181 166.704 317.042C167.187 316.864 166.98 316.082 166.492 316.263L166.49 316.263Z" fill="#37030A"/>
<path d="M166.4 319.487C166.401 319.515 166.408 319.544 166.414 319.57C166.457 319.783 166.521 320.003 166.544 320.218C166.563 320.412 166.568 320.61 166.595 320.804C166.667 321.331 166.753 321.857 166.868 322.375C166.902 322.529 166.953 322.702 167.094 322.769C167.232 322.837 167.409 322.767 167.507 322.647C167.606 322.527 167.644 322.37 167.675 322.217C167.805 321.536 167.8 320.831 167.661 320.154C167.592 319.819 167.478 319.47 167.203 319.267C167.003 319.119 166.733 319.149 166.526 319.274C166.467 319.31 166.416 319.368 166.403 319.438C166.399 319.453 166.401 319.471 166.401 319.485L166.4 319.487Z" fill="#37030A"/>
<path d="M165.997 319.49C166.034 319.827 166.134 320.144 166.16 320.482C166.187 320.849 166.244 321.212 166.303 321.575C166.36 321.915 166.406 322.271 166.507 322.601C166.615 322.951 166.884 323.232 167.27 323.197C168.092 323.124 168.143 322.022 168.165 321.398C168.186 320.774 168.133 320 167.834 319.415C167.652 319.061 167.325 318.781 166.914 318.767C166.474 318.752 166.021 319.021 165.997 319.49C165.986 319.709 166.194 319.892 166.402 319.892C166.63 319.89 166.792 319.703 166.803 319.484C166.698 319.619 166.687 319.658 166.771 319.601C166.77 319.584 166.786 319.578 166.821 319.586C166.844 319.579 166.91 319.576 166.913 319.577C166.984 319.592 167.044 319.664 167.088 319.732C167.223 319.938 167.266 320.205 167.306 320.444C167.402 321.018 167.404 321.663 167.26 322.232C167.258 322.239 167.193 322.398 167.194 322.4C167.19 322.391 167.218 322.39 167.223 322.395C167.253 322.399 167.28 322.413 167.305 322.436C167.315 322.454 167.314 322.451 167.3 322.426C167.304 322.411 167.274 322.35 167.266 322.319C167.184 321.996 167.129 321.663 167.074 321.332C167.025 321.026 166.984 320.722 166.96 320.414C166.946 320.234 166.927 320.055 166.891 319.878C166.875 319.799 166.856 319.72 166.838 319.642C166.829 319.604 166.819 319.564 166.811 319.524C166.799 319.458 166.796 319.447 166.8 319.486C166.777 319.27 166.629 319.084 166.396 319.084C166.195 319.085 165.972 319.274 165.995 319.492L165.997 319.49Z" fill="#37030A"/>
<path d="M155.075 316.206C154.533 316.178 153.988 316.143 153.445 316.118C153.043 316.101 152.546 316.137 152.381 316.505C152.257 316.78 152.409 317.116 152.654 317.29C152.898 317.464 153.208 317.508 153.508 317.521C153.971 317.544 154.436 317.51 154.89 317.418C155.108 317.374 155.33 317.314 155.504 317.177C155.728 317 155.896 316.514 155.609 316.313C155.5 316.238 155.36 316.221 155.227 316.215C155.177 316.212 155.126 316.211 155.076 316.208L155.075 316.206Z" fill="#37030A"/>
<path d="M155.073 315.801C154.676 315.781 154.279 315.756 153.882 315.735C153.56 315.718 153.238 315.69 152.917 315.738C152.596 315.786 152.289 315.922 152.097 316.197C151.887 316.496 151.9 316.883 152.059 317.2C152.417 317.915 153.335 317.958 154.031 317.927C154.387 317.911 154.748 317.868 155.095 317.785C155.442 317.702 155.753 317.555 155.958 317.263C156.133 317.012 156.221 316.653 156.119 316.36C155.958 315.896 155.505 315.823 155.071 315.801C154.853 315.79 154.67 315.999 154.67 316.208C154.671 316.437 154.857 316.597 155.075 316.61C155.163 316.614 155.267 316.607 155.352 316.632C155.416 316.649 155.396 316.662 155.351 316.612C155.385 316.651 155.341 316.643 155.353 316.607C155.346 316.632 155.358 316.65 155.354 316.601C155.356 316.618 155.356 316.635 155.355 316.651C155.354 316.711 155.373 316.587 155.356 316.647C155.347 316.682 155.338 316.716 155.329 316.751C155.309 316.81 155.36 316.696 155.329 316.751C155.321 316.765 155.312 316.782 155.303 316.798C155.295 316.815 155.285 316.827 155.275 316.843C155.257 316.872 155.321 316.82 155.267 316.849C155.267 316.849 155.228 316.885 155.252 316.864C155.282 316.839 155.217 316.886 155.219 316.887C155.18 316.908 155.145 316.93 155.108 316.945C154.987 316.992 154.855 317.017 154.728 317.042C154.486 317.088 154.242 317.113 153.998 317.123C153.754 317.133 153.492 317.14 153.25 317.094C153.139 317.072 153.029 317.045 152.93 316.987C152.851 316.941 152.824 316.917 152.779 316.836C152.754 316.789 152.733 316.752 152.744 316.674C152.739 316.698 152.759 316.655 152.759 316.657C152.784 316.617 152.76 316.653 152.752 316.659C152.752 316.659 152.826 316.591 152.798 316.613C152.764 316.637 152.899 316.56 152.835 316.589C152.873 316.572 152.913 316.562 152.953 316.552C153.036 316.532 153.094 316.525 153.214 316.521C153.833 316.503 154.462 316.579 155.081 316.611C155.299 316.621 155.482 316.413 155.482 316.204C155.48 315.975 155.294 315.814 155.077 315.802L155.073 315.801Z" fill="#37030A"/>
<path d="M160.144 321.087C159.733 321.255 159.293 321.432 158.994 321.779C158.711 322.107 158.564 322.553 158.671 322.984C158.782 323.441 159.211 323.752 159.676 323.735C160.104 323.717 160.529 323.473 160.731 323.086C161.005 322.561 160.921 321.973 160.702 321.447C160.621 321.252 160.32 321.192 160.152 321.3C159.948 321.43 159.916 321.643 160.004 321.853C159.967 321.765 160.011 321.878 160.019 321.903C160.034 321.942 160.046 321.983 160.056 322.024C160.066 322.064 160.076 322.104 160.085 322.147C160.087 322.162 160.089 322.177 160.094 322.193C160.106 322.24 160.088 322.122 160.094 322.197C160.101 322.281 160.105 322.361 160.099 322.445C160.096 322.455 160.091 322.504 160.093 322.507C160.086 322.501 160.11 322.411 160.093 322.49C160.083 322.529 160.076 322.569 160.062 322.607C160.06 322.615 160.049 322.656 160.042 322.665C160.076 322.63 160.068 322.609 160.046 322.649C160.029 322.684 160.009 322.717 159.99 322.751C159.966 322.793 159.968 322.745 160.011 322.727C160.004 322.73 159.981 322.761 159.978 322.765C159.954 322.79 159.93 322.81 159.905 322.833C159.853 322.882 159.923 322.813 159.929 322.816C159.929 322.816 159.893 322.84 159.888 322.845C159.86 322.863 159.829 322.878 159.8 322.893C159.751 322.919 159.806 322.871 159.825 322.883C159.823 322.882 159.777 322.899 159.779 322.9C159.745 322.911 159.706 322.916 159.672 322.926C159.634 322.938 159.712 322.917 159.715 322.92C159.711 322.919 159.675 322.924 159.666 322.924C159.639 322.925 159.596 322.914 159.571 322.922C159.63 322.906 159.653 322.937 159.608 322.925C159.592 322.921 159.579 322.917 159.563 322.913C159.553 322.91 159.528 322.897 159.519 322.899C159.545 322.896 159.607 322.946 159.544 322.906C159.532 322.898 159.518 322.886 159.503 322.882C159.469 322.869 159.535 322.903 159.537 322.91C159.536 322.906 159.47 322.842 159.468 322.841C159.495 322.842 159.515 322.915 159.486 322.865C159.48 322.851 159.471 322.838 159.462 322.825C159.458 322.816 159.447 322.788 159.442 322.782C159.463 322.796 159.471 322.869 159.454 322.8C159.45 322.784 159.445 322.731 159.434 322.719C159.459 322.749 159.441 322.803 159.44 322.752C159.44 322.736 159.438 322.72 159.438 322.704C159.438 322.681 159.451 322.625 159.441 322.606C159.444 322.613 159.422 322.708 159.438 322.641C159.443 322.621 159.447 322.599 159.451 322.579C159.459 322.546 159.468 322.515 159.479 322.482C159.507 322.393 159.446 322.541 159.48 322.478C159.496 322.449 159.51 322.419 159.528 322.391C159.536 322.376 159.546 322.362 159.556 322.35C159.595 322.287 159.506 322.404 159.546 322.362C159.578 322.329 159.606 322.295 159.639 322.264C159.653 322.251 159.668 322.236 159.683 322.223C159.692 322.215 159.757 322.159 159.711 322.197C159.671 322.232 159.719 322.193 159.73 322.183C159.75 322.168 159.771 322.154 159.791 322.141C159.829 322.116 159.868 322.093 159.907 322.072C159.986 322.026 160.069 321.987 160.153 321.949C160.195 321.931 160.236 321.911 160.278 321.895C160.266 321.9 160.2 321.928 160.266 321.9C160.294 321.889 160.322 321.877 160.35 321.866C160.451 321.824 160.534 321.779 160.591 321.679C160.642 321.592 160.664 321.464 160.633 321.368C160.573 321.181 160.348 321.001 160.138 321.085L160.144 321.087Z" fill="#37030A"/>
<path d="M153.68 325.996C153.928 325.194 154.91 325.058 155.622 325.045C156.448 325.03 157.298 325.18 158.03 325.58C158.683 325.934 159.223 326.483 159.478 327.194C159.717 327.857 159.732 328.587 159.384 329.216C159.133 329.672 159.826 330.08 160.079 329.624C160.793 328.336 160.434 326.697 159.453 325.655C158.348 324.48 156.548 324.077 154.991 324.28C154.078 324.399 153.194 324.849 152.903 325.786C152.749 326.283 153.526 326.491 153.68 325.994L153.68 325.996Z" fill="#37030A"/>
</g>
</g>
<path d="M58.7905 224.954V233.067H57.9665V224.954H58.7905ZM57.1607 225.108V232.669H56.3458V230.052H55.1687C54.8789 230.858 54.3402 231.324 53.6475 231.319C52.5882 231.329 51.9 230.215 51.9 228.458C51.9 226.702 52.5882 225.597 53.6475 225.606C54.3402 225.602 54.8744 226.063 55.1687 226.865H56.3458V225.108H57.1607ZM53.6475 226.412C53.0499 226.412 52.6878 227.163 52.6878 228.458C52.6878 229.753 53.0499 230.505 53.6475 230.505C54.2451 230.505 54.6254 229.753 54.6254 228.458C54.6254 227.163 54.2451 226.412 53.6475 226.412ZM55.3498 227.562C55.3905 227.838 55.4132 228.137 55.4132 228.458C55.4132 228.775 55.3905 229.074 55.3498 229.346H56.3458V227.562H55.3498ZM63.7288 225.28C63.7288 226.222 65.0145 227.028 66.5991 227.2L66.3003 227.852C64.9738 227.684 63.8103 227.118 63.2851 226.285C62.7645 227.118 61.601 227.684 60.279 227.852L59.9802 227.2C61.5648 227.028 62.8505 226.222 62.8505 225.28V225.009H63.7288V225.28ZM66.9884 228.295V229.002H59.5909V228.295H66.9884ZM66.0558 229.663V231.591H61.3294V232.325H66.2822V232.986H60.4873V230.975H65.2047V230.314H60.4782V229.663H66.0558ZM74.0908 224.954V229.536H73.2396V224.954H74.0908ZM68.7305 225.425V228.268C70.0389 228.259 71.1888 228.164 72.4066 227.906L72.5243 228.621C71.1843 228.893 69.9619 228.992 68.5404 228.992H67.8703V225.425H68.7305ZM74.0908 229.907V232.958H68.7758V229.907H74.0908ZM69.6178 230.586V232.27H73.2487V230.586H69.6178ZM77.7977 225.534C79.0834 225.525 79.9979 226.321 80.007 227.462C79.9979 228.603 79.0834 229.4 77.7977 229.4C76.521 229.4 75.5793 228.603 75.5884 227.462C75.5793 226.321 76.521 225.525 77.7977 225.534ZM77.7977 226.276C77.0099 226.276 76.4304 226.747 76.4395 227.462C76.4304 228.178 77.0099 228.648 77.7977 228.648C78.5854 228.648 79.1649 228.178 79.1649 227.462C79.1649 226.747 78.5854 226.276 77.7977 226.276ZM81.8631 224.954V233.085H81.003V224.954H81.8631ZM75.199 230.622C76.6749 230.622 78.7212 230.604 80.4959 230.351L80.5593 230.975C78.7212 231.329 76.7564 231.338 75.3077 231.338L75.199 230.622ZM91.3414 224.954V226.865H92.5184V227.58H91.3414V229.536H90.4812V224.954H91.3414ZM89.1049 225.461C89.0959 227.544 87.6924 229.002 85.2749 229.653L84.9308 228.965C86.8684 228.454 88.0138 227.435 88.1723 226.167H85.3111V225.461H89.1049ZM91.3414 229.88V232.958H86.1441V229.88H91.3414ZM87.0043 230.595V232.27H90.4902V230.595H87.0043ZM99.5121 224.954V229.78H98.652V227.725H97.1399V227.019H98.652V224.954H99.5121ZM96.7958 230.007C98.498 230.007 99.5393 230.568 99.5393 231.537C99.5393 232.506 98.498 233.058 96.7958 233.067C95.0935 233.058 94.0432 232.506 94.0523 231.537C94.0432 230.568 95.0935 230.007 96.7958 230.007ZM96.7958 230.677C95.6097 230.677 94.9034 230.984 94.9034 231.537C94.9034 232.08 95.6097 232.397 96.7958 232.388C97.9819 232.397 98.6882 232.08 98.6882 231.537C98.6882 230.984 97.9819 230.677 96.7958 230.677ZM95.6549 226.385C95.6549 227.417 96.3883 228.413 97.6107 228.829L97.167 229.509C96.257 229.192 95.587 228.544 95.2384 227.743C94.8808 228.653 94.17 229.382 93.2012 229.735L92.7484 229.047C94.007 228.612 94.7766 227.517 94.7766 226.394V226.213H93.0201V225.516H97.3934V226.213H95.6549V226.385ZM109.289 224.963V230.858H108.429V224.963H109.289ZM109.534 232.198V232.895H103.983V230.26H104.852V232.198H109.534ZM104.889 225.506C106.111 225.506 107.044 226.34 107.044 227.517C107.044 228.712 106.111 229.536 104.889 229.536C103.666 229.536 102.725 228.712 102.725 227.517C102.725 226.34 103.666 225.506 104.889 225.506ZM104.889 226.258C104.128 226.258 103.567 226.774 103.567 227.517C103.567 228.277 104.128 228.784 104.889 228.784C105.631 228.784 106.202 228.277 106.202 227.517C106.202 226.774 105.631 226.258 104.889 226.258ZM113.331 227.345C113.331 228.703 114.218 230.106 115.468 230.64L114.997 231.31C114.042 230.889 113.281 229.998 112.906 228.911C112.53 230.07 111.765 231.057 110.823 231.519L110.325 230.84C111.547 230.269 112.453 228.739 112.462 227.345V226.484H110.606V225.769H115.178V226.484H113.331V227.345ZM117.062 224.954V233.067H116.201V224.954H117.062ZM125.106 224.954V233.067H124.282V224.954H125.106ZM123.458 225.108V232.669H122.634V228.757H121.719C121.647 230.342 120.968 231.329 119.963 231.319C118.903 231.329 118.215 230.215 118.215 228.458C118.215 226.702 118.903 225.597 119.963 225.606C120.95 225.597 121.62 226.534 121.719 228.06H122.634V225.108H123.458ZM119.963 226.412C119.374 226.412 119.012 227.163 119.012 228.458C119.012 229.753 119.374 230.505 119.963 230.505C120.56 230.505 120.931 229.753 120.931 228.458C120.931 227.163 120.56 226.412 119.963 226.412ZM134.511 228.694V229.382H132.058V231.365H135.362V232.071H127.938V231.365H131.206V229.382H128.861V225.579H134.439V226.276H129.722V228.694H134.511ZM139.413 225.09C141.197 225.09 142.311 225.66 142.311 226.638C142.311 227.589 141.197 228.159 139.413 228.159C137.639 228.159 136.516 227.589 136.516 226.638C136.516 225.66 137.639 225.09 139.413 225.09ZM139.413 225.76C138.164 225.76 137.394 226.077 137.403 226.638C137.394 227.182 138.164 227.489 139.413 227.489C140.654 227.489 141.424 227.182 141.424 226.638C141.424 226.077 140.654 225.76 139.413 225.76ZM142.211 230.26V232.967H136.607V230.26H138.988V229.409H135.719V228.712H143.117V229.409H139.839V230.26H142.211ZM137.458 230.948V232.27H141.378V230.948H137.458ZM150.219 224.954V233.085H149.359V224.954H150.219ZM145.882 225.561C147.086 225.561 147.974 226.665 147.974 228.404C147.974 230.151 147.086 231.256 145.882 231.256C144.66 231.256 143.781 230.151 143.781 228.404C143.781 226.665 144.66 225.561 145.882 225.561ZM145.882 226.33C145.13 226.33 144.614 227.127 144.614 228.404C144.614 229.69 145.13 230.486 145.882 230.486C146.624 230.486 147.141 229.69 147.141 228.404C147.141 227.127 146.624 226.33 145.882 226.33ZM158.149 228.386V229.092H156.438V230.595C157.189 230.559 157.945 230.509 158.656 230.432L158.719 231.066C156.936 231.338 155.007 231.356 153.468 231.365L153.359 230.649C154.043 230.649 154.799 230.645 155.578 230.622V229.092H153.948V225.706H158.113V226.403H154.799V228.386H158.149ZM160.023 224.954V233.085H159.163V224.954H160.023ZM167.823 224.954V229.083H166.963V224.954H167.823ZM165.387 225.316C165.378 227.444 163.993 228.703 161.539 229.246L161.222 228.549C163.255 228.123 164.314 227.213 164.445 226.023H161.648V225.316H165.387ZM167.823 229.445V231.482H163.368V232.306H168.094V232.986H162.517V230.84H166.963V230.124H162.49V229.445H167.823ZM177.229 224.954V228.096H178.532V228.82H177.229V233.067H176.368V224.954H177.229ZM172.068 225.633V227.716H174.213V225.633H175.065V231.138H171.216V225.633H172.068ZM172.068 230.432H174.213V228.395H172.068V230.432ZM182.004 225.805V228.739H179.777V230.45C180.659 230.446 181.492 230.405 182.466 230.251L182.538 230.939C181.406 231.138 180.51 231.166 179.496 231.175H178.944V228.033H181.171V226.512H178.934V225.805H182.004ZM185.653 224.954V233.067H184.829V228.811H183.779V232.65H182.991V225.117H183.779V228.114H184.829V224.954H185.653ZM193.896 231.338V232.053H186.471V231.338H188.246V229.219C187.581 228.852 187.178 228.268 187.178 227.544C187.178 226.267 188.427 225.425 190.166 225.425C191.913 225.425 193.163 226.267 193.163 227.544C193.163 228.259 192.773 228.834 192.121 229.201V231.338H193.896ZM190.166 226.113C188.889 226.113 188.011 226.665 188.011 227.544C188.011 228.413 188.889 228.983 190.166 228.983C191.433 228.983 192.33 228.413 192.33 227.544C192.33 226.665 191.433 226.113 190.166 226.113ZM189.097 231.338H191.252V229.527C190.922 229.613 190.555 229.653 190.166 229.653C189.785 229.653 189.423 229.613 189.097 229.536V231.338ZM195.747 225.742L195.665 230.405H194.769L194.687 225.742H195.747ZM195.222 232.361C194.869 232.361 194.57 232.071 194.579 231.718C194.57 231.365 194.869 231.075 195.222 231.075C195.566 231.075 195.865 231.365 195.865 231.718C195.865 232.071 195.566 232.361 195.222 232.361Z" fill="#C6C6C6"/>
<path d="M64.4856 175.947C67.1204 175.947 69.0626 177.264 69.0626 179.261C69.0626 181.101 67.4804 182.33 65.2326 182.548V184.802H70.122V186.038H58.9035V184.802H63.7386V182.548C61.5044 182.33 59.9221 181.101 59.9357 179.261C59.9221 177.264 61.8643 175.947 64.4856 175.947ZM64.4856 177.169C62.6928 177.156 61.4025 177.97 61.4161 179.261C61.4025 180.592 62.6928 181.379 64.4856 181.379C66.3055 181.379 67.5822 180.592 67.5822 179.261C67.5822 177.97 66.3055 177.156 64.4856 177.169ZM80.4903 177.903V179.111H72.0153V175.417H73.4957V177.903H80.4903ZM81.7806 180.048V181.257H70.5621V180.048H81.7806ZM80.4088 182.113V185.25H73.4278V186.201H80.8163V187.383H71.9067V184.15H78.9148V183.281H71.8931V182.113H80.4088ZM93.4391 181.597V182.806H82.2478V181.597H93.4391ZM92.176 186.065V187.288H83.6331V183.716H85.1407V186.065H92.176ZM87.8299 175.648C90.5055 175.648 92.2439 176.585 92.2575 178.133C92.2439 179.695 90.5055 180.646 87.8299 180.646C85.1543 180.646 83.4022 179.695 83.4022 178.133C83.4022 176.585 85.1543 175.648 87.8299 175.648ZM87.8299 176.857C86.0507 176.857 84.9641 177.319 84.9777 178.133C84.9641 178.962 86.0507 179.424 87.8299 179.41C89.6227 179.424 90.6956 178.962 90.6956 178.133C90.6956 177.319 89.6227 176.857 87.8299 176.857ZM120.556 176.11C122.499 176.096 123.925 177.332 123.938 179.071C123.925 180.823 122.499 182.045 120.556 182.045C118.628 182.045 117.188 180.823 117.188 179.071C117.188 177.332 118.628 176.096 120.556 176.11ZM120.556 177.414C119.483 177.414 118.682 178.052 118.682 179.071C118.682 180.103 119.483 180.728 120.556 180.728C121.643 180.728 122.458 180.103 122.458 179.071C122.458 178.052 121.643 177.414 120.556 177.414ZM126.804 175.254V187.546H125.296V175.254H126.804ZM116.631 183.743C118.845 183.743 121.915 183.716 124.563 183.335L124.685 184.435C121.928 184.965 118.981 184.979 116.821 184.979L116.631 183.743ZM140.886 175.254V178.052H142.597V179.288H140.886V182.154H139.378V175.254H140.886ZM137.477 176.001C137.463 179.193 135.371 181.407 131.704 182.385L131.107 181.176C133.952 180.442 135.568 178.996 135.833 177.223H131.691V176.001H137.477ZM140.886 182.643V187.369H132.94V182.643H140.886ZM134.448 183.879V186.174H139.392V183.879H134.448ZM153.155 175.254V182.548H151.648V179.546H149.556V178.31H151.648V175.254H153.155ZM148.999 182.86C151.607 182.86 153.196 183.716 153.196 185.196C153.196 186.676 151.607 187.532 148.999 187.532C146.405 187.532 144.816 186.676 144.83 185.196C144.816 183.716 146.405 182.86 148.999 182.86ZM148.999 184.014C147.288 184.014 146.324 184.422 146.324 185.196C146.324 185.957 147.288 186.364 148.999 186.364C150.711 186.364 151.688 185.957 151.688 185.196C151.688 184.422 150.711 184.014 148.999 184.014ZM147.383 177.359C147.383 178.853 148.375 180.361 150.276 180.999L149.515 182.194C148.15 181.733 147.179 180.795 146.65 179.641C146.106 180.952 145.081 181.997 143.621 182.52L142.833 181.325C144.803 180.646 145.848 178.989 145.848 177.373V177.278H143.295V176.055H149.923V177.278H147.383V177.359ZM160.929 176.463C160.929 180.171 159.911 183.349 155.388 185.603L154.56 184.463C156.685 183.41 157.948 182.188 158.661 180.728L154.845 181.094L154.655 179.79L159.123 179.505C159.279 178.935 159.374 178.33 159.422 177.685H155.293V176.463H160.929ZM164.162 175.254V180.062H165.982V181.298H164.162V187.505H162.654V175.254H164.162ZM176.187 181.013V182.222H167.576V176.327H176.092V177.549H169.07V181.013H176.187ZM177.437 184.721V185.97H166.218V184.721H177.437ZM187.506 175.254V180.048H189.326V181.312H187.506V187.505H185.999V175.254H187.506ZM184.26 176.531C184.26 180.144 182.766 183.308 178.678 185.318L177.822 184.15C180.81 182.663 182.427 180.571 182.739 177.78H178.488V176.531H184.26ZM105.022 202.836V204.031H101.382V206.843H106.271V208.079H95.0526V206.843H99.8877V204.031H96.4108V198.164H104.927V199.373H97.9184V202.836H105.022ZM111.139 199.916C111.139 201.261 112.13 202.605 114.072 203.135L113.366 204.344C111.961 203.936 110.955 203.081 110.405 202.008C109.862 203.189 108.844 204.113 107.404 204.548L106.67 203.366C108.599 202.809 109.631 201.383 109.631 199.916V199.821H107.064V198.626H109.631V197.213H111.152V198.626H113.706V199.821H111.139V199.916ZM116.409 197.254V200.364H118.12V201.641H116.409V204.765H114.901V197.254H116.409ZM116.409 205.322V209.546H114.901V206.53H108.232V205.322H116.409ZM128.896 197.268V204.833H127.456V201.723H126.288V204.683H124.875V197.444H126.288V200.487H127.456V197.268H128.896ZM124.441 198.517V199.712H118.329V198.517H120.651V197.322H122.145V198.517H124.441ZM121.398 200.174C122.96 200.188 124.061 201.03 124.074 202.307C124.061 203.57 122.96 204.439 121.398 204.439C119.864 204.439 118.75 203.57 118.764 202.307C118.75 201.03 119.864 200.188 121.398 200.174ZM121.398 201.274C120.638 201.274 120.108 201.641 120.108 202.307C120.108 202.945 120.624 203.339 121.398 203.339C122.173 203.339 122.702 202.945 122.702 202.307C122.702 201.641 122.173 201.274 121.398 201.274ZM122.974 205.512C122.974 206.463 123.429 207.44 124.454 208.052C125.493 207.4 125.976 206.367 125.989 205.512V205.213H127.483V205.512C127.483 206.68 128.257 207.807 129.86 208.242L129.154 209.383C127.952 209.002 127.15 208.242 126.723 207.291C126.335 208.228 125.616 209.063 124.482 209.491C123.327 209.084 122.6 208.296 122.213 207.359C121.765 208.255 120.964 208.996 119.823 209.383L119.117 208.242C120.692 207.766 121.48 206.612 121.48 205.512V205.213H122.974V205.512ZM133.424 198.151C135.088 198.151 136.317 199.536 136.534 201.777H138.87V197.254H140.364V209.546H138.87V202.999H136.548C136.385 205.369 135.135 206.829 133.424 206.829C131.577 206.829 130.273 205.159 130.273 202.483C130.273 199.835 131.577 198.151 133.424 198.151ZM133.424 199.509C132.405 199.509 131.712 200.609 131.726 202.483C131.712 204.371 132.405 205.471 133.424 205.471C134.442 205.471 135.121 204.371 135.135 202.483C135.121 200.609 134.442 199.509 133.424 199.509ZM152.96 206.802V208.038H141.741V206.802H144.335V203.692C143.357 203.135 142.767 202.259 142.773 201.166C142.76 199.21 144.688 197.92 147.323 197.92C149.972 197.92 151.9 199.21 151.9 201.166C151.9 202.239 151.33 203.101 150.379 203.665V206.802H152.96ZM147.323 199.115C145.49 199.115 144.24 199.889 144.254 201.166C144.24 202.429 145.49 203.217 147.323 203.217C149.157 203.217 150.42 202.429 150.42 201.166C150.42 199.889 149.157 199.115 147.323 199.115ZM145.829 206.802H148.844V204.235C148.376 204.344 147.867 204.398 147.323 204.398C146.794 204.398 146.291 204.344 145.829 204.249V206.802Z" fill="white"/>
<path d="M97.28 186.323V185.047L100.757 181.692C101.748 180.7 102.265 180.116 102.265 179.288C102.265 178.378 101.545 177.794 100.58 177.794C99.5618 177.794 98.9098 178.432 98.9234 179.424H97.2393C97.2257 177.563 98.6246 176.354 100.594 176.354C102.604 176.354 103.962 177.549 103.962 179.206C103.962 180.32 103.419 181.217 101.49 183.036L99.7383 184.775V184.843H104.112V186.323H97.28ZM115.444 175.254V187.532H113.991V181.23H112.674V186.962H111.261V175.58H112.674V180.008H113.991V175.254H115.444ZM110.215 176.802C110.215 180.116 109.169 182.969 105.679 184.965L104.81 183.919C107.424 182.405 108.531 180.463 108.748 178.011H105.38V176.802H110.215Z" fill="#0FE597"/>
<rect width="226" height="69.0872" transform="translate(11 70.6309)" fill="#121212"/>
<rect x="139.356" y="74.9772" width="29.5538" height="57.3692" rx="14.7769" fill="#232323" stroke="#0FE597" stroke-width="0.579487"/>
<path d="M36.6249 82.5092V86.6607H35.999V86.2725H34.5729V85.8605H35.999V82.5092H36.6249ZM30.7938 85.1633C32.1565 85.1713 33.8995 85.1554 35.4207 84.989L35.4603 85.3931C34.771 85.4921 34.054 85.5515 33.3528 85.5832V86.6845H32.7428V85.607C32.0773 85.6308 31.4395 85.6347 30.8651 85.6308L30.7938 85.1633ZM36.6249 86.9142V88.372H32.513V89.0058H36.8547V89.4653H31.903V87.9363H36.0069V87.3658H31.8713V86.9142H36.6249ZM33.0914 82.6439C34.1372 82.6439 34.8344 83.0559 34.8423 83.7056C34.8344 84.3631 34.1372 84.7593 33.0914 84.7593C32.0298 84.7593 31.3405 84.3631 31.3405 83.7056C31.3405 83.0559 32.0298 82.6439 33.0914 82.6439ZM33.0914 83.0797C32.3784 83.0797 31.9188 83.3253 31.9268 83.7056C31.9188 84.0779 32.3784 84.3314 33.0914 84.3314C33.7965 84.3314 34.256 84.0779 34.256 83.7056C34.256 83.3253 33.7965 83.0797 33.0914 83.0797Z" fill="white"/>
<path d="M66.4356 82.5013V85.504H67.5606V86.0269H66.4356V89.5446H65.8097V82.5013H66.4356ZM60.8818 87.6669C61.4562 87.6669 62.1257 87.6669 62.8229 87.6431V86.8588C62.0029 86.7677 61.4681 86.2883 61.476 85.5912C61.4681 84.7989 62.1415 84.2839 63.1398 84.2839C64.1222 84.2839 64.8035 84.7989 64.8115 85.5912C64.8035 86.2883 64.2608 86.7677 63.4488 86.8667V87.6194C64.1063 87.5877 64.7679 87.5362 65.3819 87.4451L65.4215 87.9204C63.8845 88.1819 62.2207 88.1977 60.9848 88.1977L60.8818 87.6669ZM65.2551 83.3649V83.8719H61.0086V83.3649H62.8229V82.5172H63.4488V83.3649H65.2551ZM63.1398 84.7672C62.4901 84.7672 62.0544 85.0999 62.0544 85.5912C62.0544 86.0824 62.4901 86.3993 63.1398 86.3913C63.7815 86.3993 64.2173 86.0824 64.2173 85.5912C64.2173 85.0999 63.7815 84.7672 63.1398 84.7672Z" fill="white"/>
<path d="M94.6548 83.1589C94.6548 84.1492 95.9541 85.0128 97.2218 85.1871L96.9682 85.6941C95.8749 85.5119 94.7935 84.9058 94.3379 84.0383C93.8863 84.9098 92.8009 85.5119 91.7076 85.6941L91.4541 85.1871C92.7217 85.0128 94.0131 84.1651 94.0131 83.1589V82.7548H94.6548V83.1589ZM97.5387 86.4706V86.9935H94.6231V89.5446H94.0131V86.9935H91.1213V86.4706H97.5387Z" fill="white"/>
<path d="M126.875 82.8024V85.1792H124.791V86.0824H127.691V86.5894H121.274V86.0824H124.173V85.1792H122.106V82.8024H126.875ZM122.716 83.3015V84.68H126.257V83.3015H122.716ZM126.899 87.3262V89.5446H126.273V87.8253H121.987V87.3262H126.899Z" fill="white"/>
<path d="M157.027 82.8816V83.4045C157.027 83.9512 157.027 84.5929 156.845 85.4723H157.875V85.9873H151.426V85.4723H156.219C156.409 84.5889 156.409 83.9512 156.409 83.4045V83.3966H152.242V82.8816H157.027ZM157.059 86.9618V89.4495H152.218V86.9618H157.059ZM152.836 87.453V88.9424H156.441V87.453H152.836Z" fill="#05B475"/>
<path d="M187.283 86.1695V86.6766H185.096V88.1502H188.027V88.6652H181.578V88.1502H184.478V86.6766H182.41V83.0797H187.203V83.5946H183.044V84.6008H187.053V85.1079H183.044V86.1695H187.283Z" fill="white"/>
<path d="M213.726 82.7628C214.78 82.7707 215.548 83.4045 215.548 84.3235C215.548 85.2426 214.78 85.8764 213.726 85.8764C212.657 85.8764 211.896 85.2426 211.896 84.3235C211.896 83.4045 212.657 82.7707 213.726 82.7628ZM213.726 83.2857C213.021 83.2857 212.498 83.7135 212.506 84.3235C212.498 84.9415 213.021 85.3693 213.726 85.3693C214.423 85.3693 214.946 84.9415 214.946 84.3235C214.946 83.7135 214.423 83.2857 213.726 83.2857ZM217.545 82.5013V86.122H216.927V82.5013H217.545ZM217.545 86.4626V88.1581H213.592V88.9504H217.798V89.4495H212.981V87.6907H216.927V86.9618H212.966V86.4626H217.545Z" fill="white"/>
<path d="M32.5785 117.89V124.446H31.7545V118.741H31.7183L30.1247 119.801V118.977L31.7545 117.89H32.5785ZM36.4121 117.89V124.446H35.5882V118.741H35.552L33.9584 119.801V118.977L35.5882 117.89H36.4121Z" fill="#C6C6C6"/>
<path d="M61.5205 117.891V124.446H60.6966V118.742H60.6604L59.0668 119.801V118.977L60.6966 117.891H61.5205ZM63.0363 124.446L63.0272 123.849L65.2637 121.495C66.0424 120.671 66.4136 120.227 66.4136 119.62C66.4136 118.95 65.8432 118.507 65.1097 118.507C64.3311 118.507 63.8331 119.005 63.8331 119.738H63.0634C63.0544 118.579 63.9508 117.8 65.1369 117.8C66.323 117.8 67.1742 118.597 67.1742 119.62C67.1742 120.354 66.8301 120.924 65.6711 122.119L64.1681 123.668V123.722H67.2919V124.446H63.0363Z" fill="#C6C6C6"/>
<path d="M91.5592 117.891V124.446H90.7352V118.742H90.699L89.1054 119.801V118.977L90.7352 117.891H91.5592ZM95.3385 124.537C94.0347 124.537 93.1021 123.84 93.0568 122.798H93.8808C93.926 123.423 94.5508 123.812 95.3295 123.812C96.1897 123.812 96.8235 123.342 96.8235 122.663C96.8235 121.947 96.253 121.44 95.2299 121.44H94.6957V120.725H95.2299C96.0267 120.725 96.579 120.281 96.579 119.602C96.579 118.95 96.0991 118.507 95.3566 118.507C94.6594 118.507 94.0166 118.896 93.9804 119.539H93.1926C93.2379 118.497 94.1977 117.8 95.3657 117.8C96.6152 117.8 97.3758 118.615 97.3667 119.557C97.3758 120.299 96.9412 120.852 96.253 121.042V121.087C97.1042 121.223 97.6293 121.83 97.6203 122.663C97.6293 123.74 96.6424 124.537 95.3385 124.537Z" fill="#C6C6C6"/>
<path d="M121.814 117.891V124.446H120.99V118.742H120.954L119.36 119.801V118.977L120.99 117.891H121.814ZM123.167 123.106V122.436L126.119 117.891H127.124V122.391H128.038V123.106H127.124V124.446H126.345V123.106H123.167ZM124.045 122.391H126.345V118.923H126.264L124.045 122.337V122.391Z" fill="#C6C6C6"/>
<path d="M152.386 117.891V124.446H151.562V118.742H151.526L149.932 119.801V118.977L151.562 117.891H152.386ZM156.039 124.537C154.852 124.537 153.956 123.803 153.911 122.798H154.699C154.762 123.387 155.332 123.822 156.039 123.822C156.89 123.822 157.505 123.197 157.505 122.373C157.505 121.522 156.863 120.897 155.984 120.888C155.432 120.879 155.006 121.051 154.762 121.476H153.974L154.436 117.891H157.985V118.615H155.115L154.871 120.535H154.934C155.224 120.308 155.667 120.154 156.129 120.154C157.379 120.154 158.302 121.078 158.302 122.355C158.302 123.622 157.342 124.537 156.039 124.537Z" fill="#05B475"/>
<path d="M182.551 117.891V124.446H181.728V118.742H181.691L180.098 119.801V118.977L181.728 117.891H182.551ZM186.349 124.537C185.208 124.519 183.959 123.849 183.959 121.422C183.959 119.104 184.909 117.8 186.449 117.8C187.598 117.8 188.404 118.507 188.576 119.539H187.77C187.617 118.959 187.182 118.525 186.449 118.525C185.371 118.525 184.728 119.448 184.728 121.024H184.81C185.19 120.48 185.788 120.154 186.494 120.154C187.662 120.154 188.631 121.06 188.631 122.328C188.631 123.559 187.725 124.546 186.349 124.537ZM186.349 123.822C187.2 123.822 187.834 123.151 187.843 122.337C187.834 121.531 187.227 120.87 186.367 120.87C185.507 120.87 184.846 121.567 184.837 122.346C184.837 123.115 185.471 123.822 186.349 123.822Z" fill="#C6C6C6"/>
<path d="M212.44 117.891V124.446H211.616V118.742H211.58L209.986 119.801V118.977L211.616 117.891H212.44ZM214.164 124.446L217.17 118.66V118.615H213.702V117.891H218.012V118.651L215.015 124.446H214.164Z" fill="#C6C6C6"/>
<circle cx="33.6004" cy="112.605" r="1.15897" fill="#0C6F4C"/>
<circle cx="93.2869" cy="112.605" r="1.15897" fill="#0C6F4C"/>
<circle cx="153.554" cy="112.605" r="1.15897" fill="#0C6F4C"/>
</g>
<rect x="7.70314" y="11.7031" width="232.594" height="495.681" rx="19.7812" stroke="black" stroke-width="6.59372"/>
</g>
<defs>
<filter id="filter0_d_948_10043" x="0.40625" y="0.40625" width="263.188" height="526.274" filterUnits="userSpaceOnUse" color-interpolation-filters="sRGB">
<feFlood flood-opacity="0" result="BackgroundImageFix"/>
<feColorMatrix in="SourceAlpha" type="matrix" values="0 0 0 0 0 0 0 0 0 0 0 0 0 0 0 0 0 0 127 0" result="hardAlpha"/>
<feOffset dx="8" dy="4"/>
<feGaussianBlur stdDeviation="6"/>
<feComposite in2="hardAlpha" operator="out"/>
<feColorMatrix type="matrix" values="0 0 0 0 0 0 0 0 0 0 0 0 0 0 0 0 0 0 0.3 0"/>
<feBlend mode="normal" in2="BackgroundImageFix" result="effect1_dropShadow_948_10043"/>
<feBlend mode="normal" in="SourceGraphic" in2="effect1_dropShadow_948_10043" result="shape"/>
</filter>
<filter id="filter1_b_948_10043" x="-14.4975" y="209.903" width="195.866" height="201.662" filterUnits="userSpaceOnUse" color-interpolation-filters="sRGB">
<feFlood flood-opacity="0" result="BackgroundImageFix"/>
<feGaussianBlur in="BackgroundImageFix" stdDeviation="28.9744"/>
<feComposite in2="SourceAlpha" operator="in" result="effect1_backgroundBlur_948_10043"/>
<feBlend mode="normal" in="SourceGraphic" in2="effect1_backgroundBlur_948_10043" result="shape"/>
</filter>
<filter id="filter2_d_948_10043" x="39.3947" y="267.272" width="88.0817" height="92.1384" filterUnits="userSpaceOnUse" color-interpolation-filters="sRGB">
<feFlood flood-opacity="0" result="BackgroundImageFix"/>
<feColorMatrix in="SourceAlpha" type="matrix" values="0 0 0 0 0 0 0 0 0 0 0 0 0 0 0 0 0 0 127 0" result="hardAlpha"/>
<feOffset dy="2.31795"/>
<feGaussianBlur stdDeviation="8.69231"/>
<feComposite in2="hardAlpha" operator="out"/>
<feColorMatrix type="matrix" values="0 0 0 0 0.273889 0 0 0 0 0.440785 0 0 0 0 0.659033 0 0 0 0.25 0"/>
<feBlend mode="normal" in2="BackgroundImageFix" result="effect1_dropShadow_948_10043"/>
<feBlend mode="normal" in="SourceGraphic" in2="effect1_dropShadow_948_10043" result="shape"/>
</filter>
<filter id="filter3_b_948_10043" x="57.063" y="203.617" width="210.136" height="214.233" filterUnits="userSpaceOnUse" color-interpolation-filters="sRGB">
<feFlood flood-opacity="0" result="BackgroundImageFix"/>
<feGaussianBlur in="BackgroundImageFix" stdDeviation="28.9744"/>
<feComposite in2="SourceAlpha" operator="in" result="effect1_backgroundBlur_948_10043"/>
<feBlend mode="normal" in="SourceGraphic" in2="effect1_backgroundBlur_948_10043" result="shape"/>
</filter>
<filter id="filter4_d_948_10043" x="107.917" y="262.648" width="99.7507" height="104.54" filterUnits="userSpaceOnUse" color-interpolation-filters="sRGB">
<feFlood flood-opacity="0" result="BackgroundImageFix"/>
<feColorMatrix in="SourceAlpha" type="matrix" values="0 0 0 0 0 0 0 0 0 0 0 0 0 0 0 0 0 0 127 0" result="hardAlpha"/>
<feOffset dx="-2.31795" dy="2.31795"/>
<feGaussianBlur stdDeviation="8.69231"/>
<feComposite in2="hardAlpha" operator="out"/>
<feColorMatrix type="matrix" values="0 0 0 0 0.988932 0 0 0 0 0.293525 0 0 0 0 0.305115 0 0 0 0.15 0"/>
<feBlend mode="normal" in2="BackgroundImageFix" result="effect1_dropShadow_948_10043"/>
<feBlend mode="normal" in="SourceGraphic" in2="effect1_dropShadow_948_10043" result="shape"/>
</filter>
<linearGradient id="paint0_linear_948_10043" x1="29.2535" y1="151.759" x2="216.138" y2="433.969" gradientUnits="userSpaceOnUse">
<stop stop-color="#082413" stop-opacity="0.2"/>
<stop offset="1" stop-color="#103614" stop-opacity="0.6"/>
</linearGradient>
<linearGradient id="paint1_linear_948_10043" x1="46.9135" y1="267.852" x2="97.5288" y2="364.801" gradientUnits="userSpaceOnUse">
<stop stop-color="#13152E" stop-opacity="0.2"/>
<stop offset="1" stop-color="#2D2D3D" stop-opacity="0.6"/>
</linearGradient>
<linearGradient id="paint2_linear_948_10043" x1="45.6586" y1="281.787" x2="114.882" y2="335.739" gradientUnits="userSpaceOnUse">
<stop stop-color="#3464C0" stop-opacity="0.05"/>
<stop offset="1" stop-color="#52B3AF" stop-opacity="0.02"/>
</linearGradient>
<linearGradient id="paint3_linear_948_10043" x1="61.403" y1="310.146" x2="108.337" y2="310.146" gradientUnits="userSpaceOnUse">
<stop stop-color="#3464C0" stop-opacity="0.1"/>
<stop offset="1" stop-color="#52B3AF" stop-opacity="0.1"/>
</linearGradient>
<linearGradient id="paint4_linear_948_10043" x1="76.2765" y1="299.931" x2="104.711" y2="326.63" gradientUnits="userSpaceOnUse">
<stop stop-color="#3464C0" stop-opacity="0.15"/>
<stop offset="1" stop-color="#52B3AF" stop-opacity="0.15"/>
</linearGradient>
<linearGradient id="paint5_linear_948_10043" x1="82.2142" y1="302.288" x2="97.0153" y2="320.158" gradientUnits="userSpaceOnUse">
<stop stop-color="#3464C0" stop-opacity="0.2"/>
<stop offset="1" stop-color="#52B3AF" stop-opacity="0.2"/>
</linearGradient>
<linearGradient id="paint6_linear_948_10043" x1="86.6644" y1="305.453" x2="96.1503" y2="316.46" gradientUnits="userSpaceOnUse">
<stop stop-color="#3464C0" stop-opacity="0.3"/>
<stop offset="1" stop-color="#52B3AF" stop-opacity="0.3"/>
</linearGradient>
<linearGradient id="paint7_linear_948_10043" x1="137.952" y1="259.86" x2="161.75" y2="366.606" gradientUnits="userSpaceOnUse">
<stop stop-color="#833233" stop-opacity="0.2"/>
<stop offset="1" stop-color="#1D0909" stop-opacity="0.6"/>
</linearGradient>
<linearGradient id="paint8_linear_948_10043" x1="144.535" y1="287.348" x2="182.388" y2="333.342" gradientUnits="userSpaceOnUse">
<stop stop-color="#CE2E71" stop-opacity="0.05"/>
<stop offset="1" stop-color="#C32937" stop-opacity="0.05"/>
</linearGradient>
<linearGradient id="paint9_linear_948_10043" x1="146.888" y1="290.464" x2="179.694" y2="330.321" gradientUnits="userSpaceOnUse">
<stop stop-color="#CE2E71" stop-opacity="0.1"/>
<stop offset="0.99" stop-color="#C32936" stop-opacity="0.1"/>
</linearGradient>
<linearGradient id="paint10_linear_948_10043" x1="148.774" y1="292.954" x2="177.534" y2="327.904" gradientUnits="userSpaceOnUse">
<stop stop-color="#CE2E71" stop-opacity="0.15"/>
<stop offset="0.99" stop-color="#C32936" stop-opacity="0.15"/>
</linearGradient>
<linearGradient id="paint11_linear_948_10043" x1="150.186" y1="294.826" x2="175.922" y2="326.095" gradientUnits="userSpaceOnUse">
<stop stop-color="#CE2E71" stop-opacity="0.2"/>
<stop offset="0.99" stop-color="#C32936" stop-opacity="0.2"/>
</linearGradient>
<linearGradient id="paint12_linear_948_10043" x1="151.815" y1="296.69" x2="174.541" y2="324.302" gradientUnits="userSpaceOnUse">
<stop stop-color="#CE2E71" stop-opacity="0.3"/>
<stop offset="0.99" stop-color="#C32936" stop-opacity="0.3"/>
</linearGradient>
<clipPath id="clip0_948_10043">
<rect x="11" y="15" width="226" height="489.087" rx="16.4843" fill="white"/>
</clipPath>
<clipPath id="clip1_948_10043">
<rect width="22.5795" height="22.2825" fill="white" transform="translate(152.309 304.771) rotate(15)"/>
</clipPath>
</defs>
</svg>
