<svg width="221" height="201" viewBox="0 0 221 201" fill="none" xmlns="http://www.w3.org/2000/svg">
<g filter="url(#filter0_bd_948_8709)">
<rect x="55.873" y="11" width="155" height="149" rx="20" transform="rotate(10 55.873 11)" fill="#395B72" fill-opacity="0.9" shape-rendering="crispEdges"/>
<rect x="56.2786" y="11.5792" width="154" height="148" rx="19.5" transform="rotate(10 56.2786 11.5792)" stroke="#48ABEC" stroke-opacity="0.3" shape-rendering="crispEdges"/>
<path d="M75.5696 28.2131C75.2643 29.9443 76.9527 32.0666 80.8246 33.1657L79.6526 34.863C76.6939 33.9843 74.6758 32.4385 73.8354 30.6244C72.4157 32.04 70.0003 32.8041 66.9194 32.6178L66.4179 30.6255C70.3937 30.91 72.7254 29.4966 73.0498 27.7688L73.1143 27.4034L75.634 27.8477L75.5696 28.2131ZM81.1496 35.8211L80.8037 37.7831L64.839 34.9681L65.185 33.0061L81.1496 35.8211ZM78.6745 38.4984L77.8775 43.0185L68.1256 41.299L67.9356 42.3761L78.1492 44.177L77.8236 46.0236L65.2057 43.7987L66.0231 39.1632L75.7558 40.8793L75.9287 39.8983L66.1768 38.1788L66.499 36.3515L78.6745 38.4984ZM97.4254 40.1784L97.0795 42.1404L81.1148 39.3254L81.4608 37.3634L97.4254 40.1784ZM97.379 32.1182L97.0297 34.0994L94.7408 33.6958L94.266 36.3886L96.4395 36.7719L96.0935 38.7338L83.1872 36.4581L83.5331 34.4961L85.6874 34.876L86.1622 32.1832L83.8925 31.783L84.2419 29.8018L97.379 32.1182ZM94.948 43.0933L93.9441 48.7867L81.7302 46.6331L82.7341 40.9397L94.948 43.0933ZM84.8185 43.2904L84.4997 45.0985L91.8857 46.4009L92.2046 44.5928L84.8185 43.2904ZM88.1494 35.3101L91.804 35.9545L92.2788 33.2617L88.6242 32.6173L88.1494 35.3101Z" fill="white"/>
<path d="M75.5696 28.2131C75.2643 29.9443 76.9527 32.0666 80.8246 33.1657L79.6526 34.863C76.6939 33.9843 74.6758 32.4385 73.8354 30.6244C72.4157 32.04 70.0003 32.8041 66.9194 32.6178L66.4179 30.6255C70.3937 30.91 72.7254 29.4966 73.0498 27.7688L73.1143 27.4034L75.634 27.8477L75.5696 28.2131ZM81.1496 35.8211L80.8037 37.7831L64.839 34.9681L65.185 33.0061L81.1496 35.8211ZM78.6745 38.4984L77.8775 43.0185L68.1256 41.299L67.9356 42.3761L78.1492 44.177L77.8236 46.0236L65.2057 43.7987L66.0231 39.1632L75.7558 40.8793L75.9287 39.8983L66.1768 38.1788L66.499 36.3515L78.6745 38.4984ZM97.4254 40.1784L97.0795 42.1404L81.1148 39.3254L81.4608 37.3634L97.4254 40.1784ZM97.379 32.1182L97.0297 34.0994L94.7408 33.6958L94.266 36.3886L96.4395 36.7719L96.0935 38.7338L83.1872 36.4581L83.5331 34.4961L85.6874 34.876L86.1622 32.1832L83.8925 31.783L84.2419 29.8018L97.379 32.1182ZM94.948 43.0933L93.9441 48.7867L81.7302 46.6331L82.7341 40.9397L94.948 43.0933ZM84.8185 43.2904L84.4997 45.0985L91.8857 46.4009L92.2046 44.5928L84.8185 43.2904ZM88.1494 35.3101L91.804 35.9545L92.2788 33.2617L88.6242 32.6173L88.1494 35.3101Z" fill="black" fill-opacity="0.2"/>
<path d="M75.5696 28.2131C75.2643 29.9443 76.9527 32.0666 80.8246 33.1657L79.6526 34.863C76.6939 33.9843 74.6758 32.4385 73.8354 30.6244C72.4157 32.04 70.0003 32.8041 66.9194 32.6178L66.4179 30.6255C70.3937 30.91 72.7254 29.4966 73.0498 27.7688L73.1143 27.4034L75.634 27.8477L75.5696 28.2131ZM81.1496 35.8211L80.8037 37.7831L64.839 34.9681L65.185 33.0061L81.1496 35.8211ZM78.6745 38.4984L77.8775 43.0185L68.1256 41.299L67.9356 42.3761L78.1492 44.177L77.8236 46.0236L65.2057 43.7987L66.0231 39.1632L75.7558 40.8793L75.9287 39.8983L66.1768 38.1788L66.499 36.3515L78.6745 38.4984ZM97.4254 40.1784L97.0795 42.1404L81.1148 39.3254L81.4608 37.3634L97.4254 40.1784ZM97.379 32.1182L97.0297 34.0994L94.7408 33.6958L94.266 36.3886L96.4395 36.7719L96.0935 38.7338L83.1872 36.4581L83.5331 34.4961L85.6874 34.876L86.1622 32.1832L83.8925 31.783L84.2419 29.8018L97.379 32.1182ZM94.948 43.0933L93.9441 48.7867L81.7302 46.6331L82.7341 40.9397L94.948 43.0933ZM84.8185 43.2904L84.4997 45.0985L91.8857 46.4009L92.2046 44.5928L84.8185 43.2904ZM88.1494 35.3101L91.804 35.9545L92.2788 33.2617L88.6242 32.6173L88.1494 35.3101Z" fill="black" fill-opacity="0.2"/>
<path d="M75.5696 28.2131C75.2643 29.9443 76.9527 32.0666 80.8246 33.1657L79.6526 34.863C76.6939 33.9843 74.6758 32.4385 73.8354 30.6244C72.4157 32.04 70.0003 32.8041 66.9194 32.6178L66.4179 30.6255C70.3937 30.91 72.7254 29.4966 73.0498 27.7688L73.1143 27.4034L75.634 27.8477L75.5696 28.2131ZM81.1496 35.8211L80.8037 37.7831L64.839 34.9681L65.185 33.0061L81.1496 35.8211ZM78.6745 38.4984L77.8775 43.0185L68.1256 41.299L67.9356 42.3761L78.1492 44.177L77.8236 46.0236L65.2057 43.7987L66.0231 39.1632L75.7558 40.8793L75.9287 39.8983L66.1768 38.1788L66.499 36.3515L78.6745 38.4984ZM97.4254 40.1784L97.0795 42.1404L81.1148 39.3254L81.4608 37.3634L97.4254 40.1784ZM97.379 32.1182L97.0297 34.0994L94.7408 33.6958L94.266 36.3886L96.4395 36.7719L96.0935 38.7338L83.1872 36.4581L83.5331 34.4961L85.6874 34.876L86.1622 32.1832L83.8925 31.783L84.2419 29.8018L97.379 32.1182ZM94.948 43.0933L93.9441 48.7867L81.7302 46.6331L82.7341 40.9397L94.948 43.0933ZM84.8185 43.2904L84.4997 45.0985L91.8857 46.4009L92.2046 44.5928L84.8185 43.2904ZM88.1494 35.3101L91.804 35.9545L92.2788 33.2617L88.6242 32.6173L88.1494 35.3101Z" fill="black" fill-opacity="0.2"/>
<path d="M75.5696 28.2131C75.2643 29.9443 76.9527 32.0666 80.8246 33.1657L79.6526 34.863C76.6939 33.9843 74.6758 32.4385 73.8354 30.6244C72.4157 32.04 70.0003 32.8041 66.9194 32.6178L66.4179 30.6255C70.3937 30.91 72.7254 29.4966 73.0498 27.7688L73.1143 27.4034L75.634 27.8477L75.5696 28.2131ZM81.1496 35.8211L80.8037 37.7831L64.839 34.9681L65.185 33.0061L81.1496 35.8211ZM78.6745 38.4984L77.8775 43.0185L68.1256 41.299L67.9356 42.3761L78.1492 44.177L77.8236 46.0236L65.2057 43.7987L66.0231 39.1632L75.7558 40.8793L75.9287 39.8983L66.1768 38.1788L66.499 36.3515L78.6745 38.4984ZM97.4254 40.1784L97.0795 42.1404L81.1148 39.3254L81.4608 37.3634L97.4254 40.1784ZM97.379 32.1182L97.0297 34.0994L94.7408 33.6958L94.266 36.3886L96.4395 36.7719L96.0935 38.7338L83.1872 36.4581L83.5331 34.4961L85.6874 34.876L86.1622 32.1832L83.8925 31.783L84.2419 29.8018L97.379 32.1182ZM94.948 43.0933L93.9441 48.7867L81.7302 46.6331L82.7341 40.9397L94.948 43.0933ZM84.8185 43.2904L84.4997 45.0985L91.8857 46.4009L92.2046 44.5928L84.8185 43.2904ZM88.1494 35.3101L91.804 35.9545L92.2788 33.2617L88.6242 32.6173L88.1494 35.3101Z" fill="black" fill-opacity="0.2"/>
<path d="M75.5696 28.2131C75.2643 29.9443 76.9527 32.0666 80.8246 33.1657L79.6526 34.863C76.6939 33.9843 74.6758 32.4385 73.8354 30.6244C72.4157 32.04 70.0003 32.8041 66.9194 32.6178L66.4179 30.6255C70.3937 30.91 72.7254 29.4966 73.0498 27.7688L73.1143 27.4034L75.634 27.8477L75.5696 28.2131ZM81.1496 35.8211L80.8037 37.7831L64.839 34.9681L65.185 33.0061L81.1496 35.8211ZM78.6745 38.4984L77.8775 43.0185L68.1256 41.299L67.9356 42.3761L78.1492 44.177L77.8236 46.0236L65.2057 43.7987L66.0231 39.1632L75.7558 40.8793L75.9287 39.8983L66.1768 38.1788L66.499 36.3515L78.6745 38.4984ZM97.4254 40.1784L97.0795 42.1404L81.1148 39.3254L81.4608 37.3634L97.4254 40.1784ZM97.379 32.1182L97.0297 34.0994L94.7408 33.6958L94.266 36.3886L96.4395 36.7719L96.0935 38.7338L83.1872 36.4581L83.5331 34.4961L85.6874 34.876L86.1622 32.1832L83.8925 31.783L84.2419 29.8018L97.379 32.1182ZM94.948 43.0933L93.9441 48.7867L81.7302 46.6331L82.7341 40.9397L94.948 43.0933ZM84.8185 43.2904L84.4997 45.0985L91.8857 46.4009L92.2046 44.5928L84.8185 43.2904ZM88.1494 35.3101L91.804 35.9545L92.2788 33.2617L88.6242 32.6173L88.1494 35.3101Z" fill="black" fill-opacity="0.2"/>
<path d="M75.5696 28.2131C75.2643 29.9443 76.9527 32.0666 80.8246 33.1657L79.6526 34.863C76.6939 33.9843 74.6758 32.4385 73.8354 30.6244C72.4157 32.04 70.0003 32.8041 66.9194 32.6178L66.4179 30.6255C70.3937 30.91 72.7254 29.4966 73.0498 27.7688L73.1143 27.4034L75.634 27.8477L75.5696 28.2131ZM81.1496 35.8211L80.8037 37.7831L64.839 34.9681L65.185 33.0061L81.1496 35.8211ZM78.6745 38.4984L77.8775 43.0185L68.1256 41.299L67.9356 42.3761L78.1492 44.177L77.8236 46.0236L65.2057 43.7987L66.0231 39.1632L75.7558 40.8793L75.9287 39.8983L66.1768 38.1788L66.499 36.3515L78.6745 38.4984ZM97.4254 40.1784L97.0795 42.1404L81.1148 39.3254L81.4608 37.3634L97.4254 40.1784ZM97.379 32.1182L97.0297 34.0994L94.7408 33.6958L94.266 36.3886L96.4395 36.7719L96.0935 38.7338L83.1872 36.4581L83.5331 34.4961L85.6874 34.876L86.1622 32.1832L83.8925 31.783L84.2419 29.8018L97.379 32.1182ZM94.948 43.0933L93.9441 48.7867L81.7302 46.6331L82.7341 40.9397L94.948 43.0933ZM84.8185 43.2904L84.4997 45.0985L91.8857 46.4009L92.2046 44.5928L84.8185 43.2904ZM88.1494 35.3101L91.804 35.9545L92.2788 33.2617L88.6242 32.6173L88.1494 35.3101Z" fill="black" fill-opacity="0.2"/>
<rect x="122.381" y="54.2053" width="65" height="97" rx="4" transform="rotate(10 122.381 54.2053)" fill="#48ABEC"/>
<g filter="url(#filter1_bdi_948_8709)">
<rect x="48.1855" y="129.465" width="48" height="97" rx="4" transform="rotate(-80 48.1855 129.465)" fill="url(#paint0_linear_948_8709)" fill-opacity="0.8" shape-rendering="crispEdges"/>
<rect x="48.4752" y="129.262" width="47.5" height="96.5" rx="3.75" transform="rotate(-80 48.4752 129.262)" stroke="url(#paint1_linear_948_8709)" stroke-opacity="0.2" stroke-width="0.5" shape-rendering="crispEdges"/>
</g>
</g>
<g filter="url(#filter2_bd_948_8709)">
<rect x="15" y="11" width="155" height="149" rx="20" fill="#746B26" fill-opacity="0.9" shape-rendering="crispEdges"/>
<rect x="15.5" y="11.5" width="154" height="148" rx="19.5" stroke="#F3DB0C" stroke-opacity="0.3" shape-rendering="crispEdges"/>
<circle cx="111.006" cy="116.506" r="33.502" fill="#F3DB0C"/>
<g filter="url(#filter3_bdi_948_8709)">
<circle cx="77.502" cy="86.502" r="33.502" fill="url(#paint2_linear_948_8709)" fill-opacity="0.8" shape-rendering="crispEdges"/>
<circle cx="77.502" cy="86.502" r="33.6261" stroke="url(#paint3_linear_948_8709)" stroke-opacity="0.6" stroke-width="0.248163" shape-rendering="crispEdges"/>
</g>
<path d="M42.9336 24.0234V41.7969H40.4141V24.0234H42.9336ZM37.6016 25.8789C37.6016 31.2695 35.707 35.7422 29.3594 38.75L28.0508 36.7578C32.6406 34.5898 34.6621 31.7773 35.0625 27.832H29.0078V25.8789H37.6016ZM48.3906 24.4531V26.0156H50.0508V24.4531H52.3555V31.3477H46.0469V24.4531H48.3906ZM48.3906 29.3555H50.0508V27.8906H48.3906V29.3555ZM55.7539 24.4531V26.0156H57.3555V24.4531H59.7188V31.3477H53.3906V24.4531H55.7539ZM55.7539 29.3555H57.3555V27.8906H55.7539V29.3555ZM60.9883 32.5391V34.5312H44.7773V32.5391H60.9883ZM59.0156 35.7617V41.6016H46.6523V35.7617H59.0156ZM49.0938 37.7344V39.6094H56.5938V37.7344H49.0938Z" fill="#FFF9C5"/>
</g>
<defs>
<filter id="filter0_bd_948_8709" x="10" y="-9" width="218.518" height="213.652" filterUnits="userSpaceOnUse" color-interpolation-filters="sRGB">
<feFlood flood-opacity="0" result="BackgroundImageFix"/>
<feGaussianBlur in="BackgroundImageFix" stdDeviation="10"/>
<feComposite in2="SourceAlpha" operator="in" result="effect1_backgroundBlur_948_8709"/>
<feColorMatrix in="SourceAlpha" type="matrix" values="0 0 0 0 0 0 0 0 0 0 0 0 0 0 0 0 0 0 127 0" result="hardAlpha"/>
<feOffset dy="4"/>
<feGaussianBlur stdDeviation="7.5"/>
<feComposite in2="hardAlpha" operator="out"/>
<feColorMatrix type="matrix" values="0 0 0 0 0 0 0 0 0 0 0 0 0 0 0 0 0 0 0.15 0"/>
<feBlend mode="normal" in2="effect1_backgroundBlur_948_8709" result="effect2_dropShadow_948_8709"/>
<feBlend mode="normal" in="SourceGraphic" in2="effect2_dropShadow_948_8709" result="shape"/>
</filter>
<filter id="filter1_bdi_948_8709" x="33.8184" y="70.8271" width="132.596" height="93.8483" filterUnits="userSpaceOnUse" color-interpolation-filters="sRGB">
<feFlood flood-opacity="0" result="BackgroundImageFix"/>
<feGaussianBlur in="BackgroundImageFix" stdDeviation="6"/>
<feComposite in2="SourceAlpha" operator="in" result="effect1_backgroundBlur_948_8709"/>
<feColorMatrix in="SourceAlpha" type="matrix" values="0 0 0 0 0 0 0 0 0 0 0 0 0 0 0 0 0 0 127 0" result="hardAlpha"/>
<feOffset dy="4"/>
<feGaussianBlur stdDeviation="7.5"/>
<feComposite in2="hardAlpha" operator="out"/>
<feColorMatrix type="matrix" values="0 0 0 0 0 0 0 0 0 0 0 0 0 0 0 0 0 0 0.15 0"/>
<feBlend mode="normal" in2="effect1_backgroundBlur_948_8709" result="effect2_dropShadow_948_8709"/>
<feBlend mode="normal" in="SourceGraphic" in2="effect2_dropShadow_948_8709" result="shape"/>
<feColorMatrix in="SourceAlpha" type="matrix" values="0 0 0 0 0 0 0 0 0 0 0 0 0 0 0 0 0 0 127 0" result="hardAlpha"/>
<feOffset dx="2" dy="1"/>
<feGaussianBlur stdDeviation="2"/>
<feComposite in2="hardAlpha" operator="arithmetic" k2="-1" k3="1"/>
<feColorMatrix type="matrix" values="0 0 0 0 1 0 0 0 0 1 0 0 0 0 1 0 0 0 0.15 0"/>
<feBlend mode="normal" in2="shape" result="effect3_innerShadow_948_8709"/>
</filter>
<filter id="filter2_bd_948_8709" x="-5" y="-9" width="195" height="189" filterUnits="userSpaceOnUse" color-interpolation-filters="sRGB">
<feFlood flood-opacity="0" result="BackgroundImageFix"/>
<feGaussianBlur in="BackgroundImageFix" stdDeviation="10"/>
<feComposite in2="SourceAlpha" operator="in" result="effect1_backgroundBlur_948_8709"/>
<feColorMatrix in="SourceAlpha" type="matrix" values="0 0 0 0 0 0 0 0 0 0 0 0 0 0 0 0 0 0 127 0" result="hardAlpha"/>
<feOffset dy="4"/>
<feGaussianBlur stdDeviation="7.5"/>
<feComposite in2="hardAlpha" operator="out"/>
<feColorMatrix type="matrix" values="0 0 0 0 0 0 0 0 0 0 0 0 0 0 0 0 0 0 0.15 0"/>
<feBlend mode="normal" in2="effect1_backgroundBlur_948_8709" result="effect2_dropShadow_948_8709"/>
<feBlend mode="normal" in="SourceGraphic" in2="effect2_dropShadow_948_8709" result="shape"/>
</filter>
<filter id="filter3_bdi_948_8709" x="31.752" y="40.7518" width="91.5" height="91.5004" filterUnits="userSpaceOnUse" color-interpolation-filters="sRGB">
<feFlood flood-opacity="0" result="BackgroundImageFix"/>
<feGaussianBlur in="BackgroundImageFix" stdDeviation="6"/>
<feComposite in2="SourceAlpha" operator="in" result="effect1_backgroundBlur_948_8709"/>
<feColorMatrix in="SourceAlpha" type="matrix" values="0 0 0 0 0 0 0 0 0 0 0 0 0 0 0 0 0 0 127 0" result="hardAlpha"/>
<feOffset dy="2.48163"/>
<feGaussianBlur stdDeviation="4.65306"/>
<feComposite in2="hardAlpha" operator="out"/>
<feColorMatrix type="matrix" values="0 0 0 0 0 0 0 0 0 0 0 0 0 0 0 0 0 0 0.15 0"/>
<feBlend mode="normal" in2="effect1_backgroundBlur_948_8709" result="effect2_dropShadow_948_8709"/>
<feBlend mode="normal" in="SourceGraphic" in2="effect2_dropShadow_948_8709" result="shape"/>
<feColorMatrix in="SourceAlpha" type="matrix" values="0 0 0 0 0 0 0 0 0 0 0 0 0 0 0 0 0 0 127 0" result="hardAlpha"/>
<feOffset dx="1.24082" dy="4"/>
<feGaussianBlur stdDeviation="5.6"/>
<feComposite in2="hardAlpha" operator="arithmetic" k2="-1" k3="1"/>
<feColorMatrix type="matrix" values="0 0 0 0 1 0 0 0 0 1 0 0 0 0 1 0 0 0 0.15 0"/>
<feBlend mode="normal" in2="shape" result="effect3_innerShadow_948_8709"/>
</filter>
<linearGradient id="paint0_linear_948_8709" x1="112.686" y1="160.465" x2="34.1856" y2="211.965" gradientUnits="userSpaceOnUse">
<stop stop-color="#48ABEC"/>
<stop offset="0.210645" stop-color="#439FDC" stop-opacity="0.4"/>
<stop offset="0.365" stop-color="#2C73A2" stop-opacity="0.416966"/>
<stop offset="0.633074" stop-color="#205172" stop-opacity="0.446432"/>
<stop offset="0.875" stop-color="#48ABEC" stop-opacity="0.883745"/>
<stop offset="1" stop-color="#A0DAFF"/>
</linearGradient>
<linearGradient id="paint1_linear_948_8709" x1="106.186" y1="139.965" x2="37.6855" y2="226.465" gradientUnits="userSpaceOnUse">
<stop stop-color="#48ABEC"/>
<stop offset="0.395122" stop-color="#32556D"/>
<stop offset="0.75" stop-color="white"/>
<stop offset="1" stop-color="#2CA0ED"/>
</linearGradient>
<linearGradient id="paint2_linear_948_8709" x1="51.1347" y1="57.0327" x2="102.318" y2="110.078" gradientUnits="userSpaceOnUse">
<stop stop-color="#F3DB0C"/>
<stop offset="0.20055" stop-color="#EBD30C" stop-opacity="0.2"/>
<stop offset="0.356357" stop-color="#E5CF0B" stop-opacity="0.03"/>
<stop offset="0.553568" stop-color="#191705" stop-opacity="0.1"/>
<stop offset="0.91081" stop-color="#F3DB0C"/>
<stop offset="0.985" stop-color="#FFFBDC" stop-opacity="0.6"/>
</linearGradient>
<linearGradient id="paint3_linear_948_8709" x1="71.7598" y1="55" x2="80.2598" y2="118.5" gradientUnits="userSpaceOnUse">
<stop offset="0.005" stop-color="white"/>
<stop offset="0.389379" stop-color="#E6D64C"/>
<stop offset="1" stop-color="#FFCF4A"/>
</linearGradient>
</defs>
</svg>
