<svg width="219" height="201" viewBox="0 0 219 201" fill="none" xmlns="http://www.w3.org/2000/svg">
<g filter="url(#filter0_bd_948_8750)">
<rect x="53.875" y="11" width="155" height="149" rx="20" transform="rotate(10 53.875 11)" fill="#58336F" fill-opacity="0.9" shape-rendering="crispEdges"/>
<rect x="54.2806" y="11.5792" width="154" height="148" rx="19.5" transform="rotate(10 54.2806 11.5792)" stroke="#B641FF" stroke-opacity="0.3" shape-rendering="crispEdges"/>
<path d="M77.954 32.0401L77.6115 33.9828L72.6874 33.1146L72.4365 34.5379L79.207 35.7317L78.8645 37.6744L62.8421 34.8493L63.1847 32.9066L69.9744 34.1038L70.2254 32.6804L65.436 31.8359L66.3517 26.6426L68.7945 27.0733L68.2214 30.324L77.954 32.0401ZM76.7714 38.297L75.9642 42.8748L66.1931 41.1519L65.9964 42.2675L76.3061 44.0854L75.9737 45.9704L63.202 43.7184L64.0329 39.0059L73.8233 40.7322L73.9963 39.7513L64.1674 38.0182L64.4998 36.1332L76.7714 38.297ZM94.822 31.4644L94.0928 35.5998L96.4586 36.0169L96.0991 38.0558L93.7333 37.6386L92.9905 41.851L90.5285 41.4169L92.36 31.0302L94.822 31.4644ZM92.8617 42.5819L91.773 48.7562L80.3092 46.7348L81.3979 40.5605L92.8617 42.5819ZM83.463 42.9079L83.0594 45.1969L89.7146 46.3703L90.1182 44.0814L83.463 42.9079ZM89.441 31.3882L88.5015 36.7161L82.9235 35.7326L82.6454 37.3098C85.5436 37.801 87.5224 38.0508 89.8119 38.0578L89.742 40.0287C87.1341 40.0846 84.8701 39.7647 81.3309 39.1406L79.8499 38.8795L80.8063 33.4553L86.442 34.4491L86.7099 32.9295L81.055 31.9324L81.4009 29.9705L89.441 31.3882Z" fill="white"/>
<path d="M77.954 32.0401L77.6115 33.9828L72.6874 33.1146L72.4365 34.5379L79.207 35.7317L78.8645 37.6744L62.8421 34.8493L63.1847 32.9066L69.9744 34.1038L70.2254 32.6804L65.436 31.8359L66.3517 26.6426L68.7945 27.0733L68.2214 30.324L77.954 32.0401ZM76.7714 38.297L75.9642 42.8748L66.1931 41.1519L65.9964 42.2675L76.3061 44.0854L75.9737 45.9704L63.202 43.7184L64.0329 39.0059L73.8233 40.7322L73.9963 39.7513L64.1674 38.0182L64.4998 36.1332L76.7714 38.297ZM94.822 31.4644L94.0928 35.5998L96.4586 36.0169L96.0991 38.0558L93.7333 37.6386L92.9905 41.851L90.5285 41.4169L92.36 31.0302L94.822 31.4644ZM92.8617 42.5819L91.773 48.7562L80.3092 46.7348L81.3979 40.5605L92.8617 42.5819ZM83.463 42.9079L83.0594 45.1969L89.7146 46.3703L90.1182 44.0814L83.463 42.9079ZM89.441 31.3882L88.5015 36.7161L82.9235 35.7326L82.6454 37.3098C85.5436 37.801 87.5224 38.0508 89.8119 38.0578L89.742 40.0287C87.1341 40.0846 84.8701 39.7647 81.3309 39.1406L79.8499 38.8795L80.8063 33.4553L86.442 34.4491L86.7099 32.9295L81.055 31.9324L81.4009 29.9705L89.441 31.3882Z" fill="black" fill-opacity="0.2"/>
<path d="M77.954 32.0401L77.6115 33.9828L72.6874 33.1146L72.4365 34.5379L79.207 35.7317L78.8645 37.6744L62.8421 34.8493L63.1847 32.9066L69.9744 34.1038L70.2254 32.6804L65.436 31.8359L66.3517 26.6426L68.7945 27.0733L68.2214 30.324L77.954 32.0401ZM76.7714 38.297L75.9642 42.8748L66.1931 41.1519L65.9964 42.2675L76.3061 44.0854L75.9737 45.9704L63.202 43.7184L64.0329 39.0059L73.8233 40.7322L73.9963 39.7513L64.1674 38.0182L64.4998 36.1332L76.7714 38.297ZM94.822 31.4644L94.0928 35.5998L96.4586 36.0169L96.0991 38.0558L93.7333 37.6386L92.9905 41.851L90.5285 41.4169L92.36 31.0302L94.822 31.4644ZM92.8617 42.5819L91.773 48.7562L80.3092 46.7348L81.3979 40.5605L92.8617 42.5819ZM83.463 42.9079L83.0594 45.1969L89.7146 46.3703L90.1182 44.0814L83.463 42.9079ZM89.441 31.3882L88.5015 36.7161L82.9235 35.7326L82.6454 37.3098C85.5436 37.801 87.5224 38.0508 89.8119 38.0578L89.742 40.0287C87.1341 40.0846 84.8701 39.7647 81.3309 39.1406L79.8499 38.8795L80.8063 33.4553L86.442 34.4491L86.7099 32.9295L81.055 31.9324L81.4009 29.9705L89.441 31.3882Z" fill="black" fill-opacity="0.2"/>
<path d="M77.954 32.0401L77.6115 33.9828L72.6874 33.1146L72.4365 34.5379L79.207 35.7317L78.8645 37.6744L62.8421 34.8493L63.1847 32.9066L69.9744 34.1038L70.2254 32.6804L65.436 31.8359L66.3517 26.6426L68.7945 27.0733L68.2214 30.324L77.954 32.0401ZM76.7714 38.297L75.9642 42.8748L66.1931 41.1519L65.9964 42.2675L76.3061 44.0854L75.9737 45.9704L63.202 43.7184L64.0329 39.0059L73.8233 40.7322L73.9963 39.7513L64.1674 38.0182L64.4998 36.1332L76.7714 38.297ZM94.822 31.4644L94.0928 35.5998L96.4586 36.0169L96.0991 38.0558L93.7333 37.6386L92.9905 41.851L90.5285 41.4169L92.36 31.0302L94.822 31.4644ZM92.8617 42.5819L91.773 48.7562L80.3092 46.7348L81.3979 40.5605L92.8617 42.5819ZM83.463 42.9079L83.0594 45.1969L89.7146 46.3703L90.1182 44.0814L83.463 42.9079ZM89.441 31.3882L88.5015 36.7161L82.9235 35.7326L82.6454 37.3098C85.5436 37.801 87.5224 38.0508 89.8119 38.0578L89.742 40.0287C87.1341 40.0846 84.8701 39.7647 81.3309 39.1406L79.8499 38.8795L80.8063 33.4553L86.442 34.4491L86.7099 32.9295L81.055 31.9324L81.4009 29.9705L89.441 31.3882Z" fill="black" fill-opacity="0.2"/>
<path d="M77.954 32.0401L77.6115 33.9828L72.6874 33.1146L72.4365 34.5379L79.207 35.7317L78.8645 37.6744L62.8421 34.8493L63.1847 32.9066L69.9744 34.1038L70.2254 32.6804L65.436 31.8359L66.3517 26.6426L68.7945 27.0733L68.2214 30.324L77.954 32.0401ZM76.7714 38.297L75.9642 42.8748L66.1931 41.1519L65.9964 42.2675L76.3061 44.0854L75.9737 45.9704L63.202 43.7184L64.0329 39.0059L73.8233 40.7322L73.9963 39.7513L64.1674 38.0182L64.4998 36.1332L76.7714 38.297ZM94.822 31.4644L94.0928 35.5998L96.4586 36.0169L96.0991 38.0558L93.7333 37.6386L92.9905 41.851L90.5285 41.4169L92.36 31.0302L94.822 31.4644ZM92.8617 42.5819L91.773 48.7562L80.3092 46.7348L81.3979 40.5605L92.8617 42.5819ZM83.463 42.9079L83.0594 45.1969L89.7146 46.3703L90.1182 44.0814L83.463 42.9079ZM89.441 31.3882L88.5015 36.7161L82.9235 35.7326L82.6454 37.3098C85.5436 37.801 87.5224 38.0508 89.8119 38.0578L89.742 40.0287C87.1341 40.0846 84.8701 39.7647 81.3309 39.1406L79.8499 38.8795L80.8063 33.4553L86.442 34.4491L86.7099 32.9295L81.055 31.9324L81.4009 29.9705L89.441 31.3882Z" fill="black" fill-opacity="0.2"/>
<path d="M77.954 32.0401L77.6115 33.9828L72.6874 33.1146L72.4365 34.5379L79.207 35.7317L78.8645 37.6744L62.8421 34.8493L63.1847 32.9066L69.9744 34.1038L70.2254 32.6804L65.436 31.8359L66.3517 26.6426L68.7945 27.0733L68.2214 30.324L77.954 32.0401ZM76.7714 38.297L75.9642 42.8748L66.1931 41.1519L65.9964 42.2675L76.3061 44.0854L75.9737 45.9704L63.202 43.7184L64.0329 39.0059L73.8233 40.7322L73.9963 39.7513L64.1674 38.0182L64.4998 36.1332L76.7714 38.297ZM94.822 31.4644L94.0928 35.5998L96.4586 36.0169L96.0991 38.0558L93.7333 37.6386L92.9905 41.851L90.5285 41.4169L92.36 31.0302L94.822 31.4644ZM92.8617 42.5819L91.773 48.7562L80.3092 46.7348L81.3979 40.5605L92.8617 42.5819ZM83.463 42.9079L83.0594 45.1969L89.7146 46.3703L90.1182 44.0814L83.463 42.9079ZM89.441 31.3882L88.5015 36.7161L82.9235 35.7326L82.6454 37.3098C85.5436 37.801 87.5224 38.0508 89.8119 38.0578L89.742 40.0287C87.1341 40.0846 84.8701 39.7647 81.3309 39.1406L79.8499 38.8795L80.8063 33.4553L86.442 34.4491L86.7099 32.9295L81.055 31.9324L81.4009 29.9705L89.441 31.3882Z" fill="black" fill-opacity="0.2"/>
<path d="M77.954 32.0401L77.6115 33.9828L72.6874 33.1146L72.4365 34.5379L79.207 35.7317L78.8645 37.6744L62.8421 34.8493L63.1847 32.9066L69.9744 34.1038L70.2254 32.6804L65.436 31.8359L66.3517 26.6426L68.7945 27.0733L68.2214 30.324L77.954 32.0401ZM76.7714 38.297L75.9642 42.8748L66.1931 41.1519L65.9964 42.2675L76.3061 44.0854L75.9737 45.9704L63.202 43.7184L64.0329 39.0059L73.8233 40.7322L73.9963 39.7513L64.1674 38.0182L64.4998 36.1332L76.7714 38.297ZM94.822 31.4644L94.0928 35.5998L96.4586 36.0169L96.0991 38.0558L93.7333 37.6386L92.9905 41.851L90.5285 41.4169L92.36 31.0302L94.822 31.4644ZM92.8617 42.5819L91.773 48.7562L80.3092 46.7348L81.3979 40.5605L92.8617 42.5819ZM83.463 42.9079L83.0594 45.1969L89.7146 46.3703L90.1182 44.0814L83.463 42.9079ZM89.441 31.3882L88.5015 36.7161L82.9235 35.7326L82.6454 37.3098C85.5436 37.801 87.5224 38.0508 89.8119 38.0578L89.742 40.0287C87.1341 40.0846 84.8701 39.7647 81.3309 39.1406L79.8499 38.8795L80.8063 33.4553L86.442 34.4491L86.7099 32.9295L81.055 31.9324L81.4009 29.9705L89.441 31.3882Z" fill="black" fill-opacity="0.2"/>
<path fill-rule="evenodd" clip-rule="evenodd" d="M169.078 120.302L148.887 64.8275L110.941 110.051L110.941 110.051L131.132 165.525L169.079 120.302L169.078 120.302Z" fill="#B641FF"/>
<g filter="url(#filter1_bdi_948_8750)">
<mask id="path-5-outside-1_948_8750" maskUnits="userSpaceOnUse" x="66.4714" y="52.4949" width="78.3063" height="113.997" fill="black">
<rect fill="white" x="66.4714" y="52.4949" width="78.3063" height="113.997"/>
<path fill-rule="evenodd" clip-rule="evenodd" d="M134.775 114.253L114.584 58.7789L76.6378 104.002L76.6385 104.002L96.8295 159.477L134.776 114.253L134.775 114.253Z"/>
</mask>
<path fill-rule="evenodd" clip-rule="evenodd" d="M134.775 114.253L114.584 58.7789L76.6378 104.002L76.6385 104.002L96.8295 159.477L134.776 114.253L134.775 114.253Z" fill="url(#paint0_linear_948_8750)" fill-opacity="0.8"/>
<path d="M114.584 58.7789L115.054 58.6079L114.758 57.7941L114.201 58.4575L114.584 58.7789ZM134.775 114.253L134.306 114.424L134.404 114.696L134.689 114.746L134.775 114.253ZM76.6378 104.002L76.2548 103.681L75.6981 104.344L76.551 104.494L76.6378 104.002ZM76.6385 104.002L77.1084 103.831L77.0096 103.56L76.7253 103.51L76.6385 104.002ZM96.8295 159.477L96.3597 159.648L96.6559 160.461L97.2125 159.798L96.8295 159.477ZM134.776 114.253L135.159 114.575L135.716 113.911L134.863 113.761L134.776 114.253ZM114.115 58.95L134.306 114.424L135.245 114.082L115.054 58.6079L114.115 58.95ZM77.0208 104.323L114.968 59.1003L114.201 58.4575L76.2548 103.681L77.0208 104.323ZM76.7253 103.51L76.7246 103.51L76.551 104.494L76.5517 104.495L76.7253 103.51ZM97.2994 159.305L77.1084 103.831L76.1687 104.173L96.3597 159.648L97.2994 159.305ZM134.393 113.932L96.4465 159.155L97.2125 159.798L135.159 114.575L134.393 113.932ZM134.689 114.746L134.689 114.746L134.863 113.761L134.862 113.761L134.689 114.746Z" fill="url(#paint1_linear_948_8750)" fill-opacity="0.2" mask="url(#path-5-outside-1_948_8750)"/>
</g>
</g>
<g filter="url(#filter2_bd_948_8750)">
<rect x="15" y="11" width="155" height="149" rx="20" fill="#774629" fill-opacity="0.9" shape-rendering="crispEdges"/>
<rect x="15.5" y="11.5" width="154" height="148" rx="19.5" stroke="#FD6F17" stroke-opacity="0.3" shape-rendering="crispEdges"/>
<path d="M44.9355 30.3516V32.3047H32.6504V24.9609H44.7598V26.9531H35.209V30.3516H44.9355ZM46.8496 34.1016V36.0742H39.8965V41.7773H37.4355V36.0742H30.5801V34.1016H46.8496ZM62.3652 24.0234V41.8359H59.8848V34.668H56.8379V32.6172H59.8848V29.8242H56.8965V27.793H59.8848V24.0234H62.3652ZM55.959 25.5078V32.3438H50.4902V35.8008C52.6875 35.791 54.6406 35.6836 56.877 35.3516L57.0723 37.3828C54.416 37.8125 52.1504 37.8516 49.416 37.8516H48.0098V30.4102H53.5176V27.4805H47.9707V25.5078H55.959ZM72.2754 24.2578C76.2207 24.2773 78.7207 25.5469 78.7402 27.7148C78.7207 29.8242 76.2207 31.0938 72.2754 31.0938C68.3496 31.0938 65.791 29.8242 65.791 27.7148C65.791 25.5469 68.3496 24.2773 72.2754 24.2578ZM72.2754 26.1719C69.7949 26.1719 68.3691 26.6797 68.3887 27.7148C68.3691 28.6914 69.7949 29.1992 72.2754 29.1992C74.7363 29.1992 76.1621 28.6914 76.1621 27.7148C76.1621 26.6797 74.7363 26.1719 72.2754 26.1719ZM78.4473 35.5469V41.6016H66.0449V35.5469H71.0254V34.0039H64.1699V32.0117H80.3809V34.0039H73.5059V35.5469H78.4473ZM68.5059 37.5195V39.6094H76.0059V37.5195H68.5059Z" fill="#FFD4BD"/>
<path fill-rule="evenodd" clip-rule="evenodd" d="M92 144C119.614 144 142 121.614 142 94H42C42 121.614 64.3858 144 92 144Z" fill="#FD6F17"/>
<g filter="url(#filter3_bdi_948_8750)">
<mask id="path-11-outside-2_948_8750" maskUnits="userSpaceOnUse" x="90.9953" y="34.997" width="52.3059" height="102.156" fill="black">
<rect fill="white" x="90.9953" y="34.997" width="52.3059" height="102.156"/>
<path fill-rule="evenodd" clip-rule="evenodd" d="M142.298 136C114.685 136.081 92.2331 113.763 92.1502 86.1499C92.0673 58.5364 114.385 36.0839 141.998 36L142.298 136Z"/>
</mask>
<path fill-rule="evenodd" clip-rule="evenodd" d="M142.298 136C114.685 136.081 92.2331 113.763 92.1502 86.1499C92.0673 58.5364 114.385 36.0839 141.998 36L142.298 136Z" fill="url(#paint2_linear_948_8750)" fill-opacity="0.8" shape-rendering="crispEdges"/>
<path d="M142.298 136L142.3 136.5L142.8 136.498L142.798 135.998L142.298 136ZM141.998 36L142.498 35.9985L142.497 35.4985L141.997 35.5L141.998 36ZM142.297 135.5C114.96 135.581 92.7323 113.486 92.6502 86.1484L91.6502 86.1514C91.7339 114.041 114.41 136.582 142.3 136.5L142.297 135.5ZM92.6502 86.1484C92.5682 58.811 114.662 36.5831 142 36.5L141.997 35.5C114.107 35.5847 91.5665 58.2617 91.6502 86.1514L92.6502 86.1484ZM141.498 36.0015L141.798 136.001L142.798 135.998L142.498 35.9985L141.498 36.0015Z" fill="url(#paint3_linear_948_8750)" fill-opacity="0.2" mask="url(#path-11-outside-2_948_8750)"/>
</g>
</g>
<defs>
<filter id="filter0_bd_948_8750" x="8.00195" y="-9" width="218.518" height="213.652" filterUnits="userSpaceOnUse" color-interpolation-filters="sRGB">
<feFlood flood-opacity="0" result="BackgroundImageFix"/>
<feGaussianBlur in="BackgroundImageFix" stdDeviation="10"/>
<feComposite in2="SourceAlpha" operator="in" result="effect1_backgroundBlur_948_8750"/>
<feColorMatrix in="SourceAlpha" type="matrix" values="0 0 0 0 0 0 0 0 0 0 0 0 0 0 0 0 0 0 127 0" result="hardAlpha"/>
<feOffset dy="4"/>
<feGaussianBlur stdDeviation="7.5"/>
<feComposite in2="hardAlpha" operator="out"/>
<feColorMatrix type="matrix" values="0 0 0 0 0 0 0 0 0 0 0 0 0 0 0 0 0 0 0.15 0"/>
<feBlend mode="normal" in2="effect1_backgroundBlur_948_8750" result="effect2_dropShadow_948_8750"/>
<feBlend mode="normal" in="SourceGraphic" in2="effect2_dropShadow_948_8750" result="shape"/>
</filter>
<filter id="filter1_bdi_948_8750" x="63.6973" y="44.7942" width="90.0195" height="132.667" filterUnits="userSpaceOnUse" color-interpolation-filters="sRGB">
<feFlood flood-opacity="0" result="BackgroundImageFix"/>
<feGaussianBlur in="BackgroundImageFix" stdDeviation="6"/>
<feComposite in2="SourceAlpha" operator="in" result="effect1_backgroundBlur_948_8750"/>
<feColorMatrix in="SourceAlpha" type="matrix" values="0 0 0 0 0 0 0 0 0 0 0 0 0 0 0 0 0 0 127 0" result="hardAlpha"/>
<feOffset dx="3" dy="2"/>
<feGaussianBlur stdDeviation="7.5"/>
<feComposite in2="hardAlpha" operator="out"/>
<feColorMatrix type="matrix" values="0 0 0 0 0 0 0 0 0 0 0 0 0 0 0 0 0 0 0.15 0"/>
<feBlend mode="normal" in2="effect1_backgroundBlur_948_8750" result="effect2_dropShadow_948_8750"/>
<feBlend mode="normal" in="SourceGraphic" in2="effect2_dropShadow_948_8750" result="shape"/>
<feColorMatrix in="SourceAlpha" type="matrix" values="0 0 0 0 0 0 0 0 0 0 0 0 0 0 0 0 0 0 127 0" result="hardAlpha"/>
<feOffset dy="1"/>
<feGaussianBlur stdDeviation="2"/>
<feComposite in2="hardAlpha" operator="arithmetic" k2="-1" k3="1"/>
<feColorMatrix type="matrix" values="0 0 0 0 1 0 0 0 0 1 0 0 0 0 1 0 0 0 0.15 0"/>
<feBlend mode="normal" in2="shape" result="effect3_innerShadow_948_8750"/>
</filter>
<filter id="filter2_bd_948_8750" x="-5" y="-9" width="195" height="189" filterUnits="userSpaceOnUse" color-interpolation-filters="sRGB">
<feFlood flood-opacity="0" result="BackgroundImageFix"/>
<feGaussianBlur in="BackgroundImageFix" stdDeviation="10"/>
<feComposite in2="SourceAlpha" operator="in" result="effect1_backgroundBlur_948_8750"/>
<feColorMatrix in="SourceAlpha" type="matrix" values="0 0 0 0 0 0 0 0 0 0 0 0 0 0 0 0 0 0 127 0" result="hardAlpha"/>
<feOffset dy="4"/>
<feGaussianBlur stdDeviation="7.5"/>
<feComposite in2="hardAlpha" operator="out"/>
<feColorMatrix type="matrix" values="0 0 0 0 0 0 0 0 0 0 0 0 0 0 0 0 0 0 0.15 0"/>
<feBlend mode="normal" in2="effect1_backgroundBlur_948_8750" result="effect2_dropShadow_948_8750"/>
<feBlend mode="normal" in="SourceGraphic" in2="effect2_dropShadow_948_8750" result="shape"/>
</filter>
<filter id="filter3_bdi_948_8750" x="74.6504" y="23.4985" width="81.1484" height="132.001" filterUnits="userSpaceOnUse" color-interpolation-filters="sRGB">
<feFlood flood-opacity="0" result="BackgroundImageFix"/>
<feGaussianBlur in="BackgroundImageFix" stdDeviation="6"/>
<feComposite in2="SourceAlpha" operator="in" result="effect1_backgroundBlur_948_8750"/>
<feColorMatrix in="SourceAlpha" type="matrix" values="0 0 0 0 0 0 0 0 0 0 0 0 0 0 0 0 0 0 127 0" result="hardAlpha"/>
<feOffset dx="-2" dy="4"/>
<feGaussianBlur stdDeviation="7.5"/>
<feComposite in2="hardAlpha" operator="out"/>
<feColorMatrix type="matrix" values="0 0 0 0 0 0 0 0 0 0 0 0 0 0 0 0 0 0 0.15 0"/>
<feBlend mode="normal" in2="effect1_backgroundBlur_948_8750" result="effect2_dropShadow_948_8750"/>
<feBlend mode="normal" in="SourceGraphic" in2="effect2_dropShadow_948_8750" result="shape"/>
<feColorMatrix in="SourceAlpha" type="matrix" values="0 0 0 0 0 0 0 0 0 0 0 0 0 0 0 0 0 0 127 0" result="hardAlpha"/>
<feOffset dx="1" dy="1"/>
<feGaussianBlur stdDeviation="2"/>
<feComposite in2="hardAlpha" operator="arithmetic" k2="-1" k3="1"/>
<feColorMatrix type="matrix" values="0 0 0 0 1 0 0 0 0 1 0 0 0 0 1 0 0 0 0.15 0"/>
<feBlend mode="normal" in2="shape" result="effect3_innerShadow_948_8750"/>
</filter>
<linearGradient id="paint0_linear_948_8750" x1="106.019" y1="69.4426" x2="125.578" y2="131.279" gradientUnits="userSpaceOnUse">
<stop stop-color="#B641FF" stop-opacity="0.4"/>
<stop offset="0.205862" stop-color="#D48FFF" stop-opacity="0.2"/>
<stop offset="0.675" stop-color="#532173" stop-opacity="0.4"/>
<stop offset="1" stop-color="#8E56B1" stop-opacity="0.4"/>
</linearGradient>
<linearGradient id="paint1_linear_948_8750" x1="114.585" y1="58.779" x2="96.8292" y2="159.476" gradientUnits="userSpaceOnUse">
<stop stop-color="#AC49ED"/>
<stop offset="0.495" stop-color="#D7B1F0"/>
<stop offset="1" stop-color="#8030BD"/>
</linearGradient>
<linearGradient id="paint2_linear_948_8750" x1="141.999" y1="35.9999" x2="122.499" y2="126.5" gradientUnits="userSpaceOnUse">
<stop stop-color="#FD6F17" stop-opacity="0.4"/>
<stop offset="0.23207" stop-color="#F99E66" stop-opacity="0.2"/>
<stop offset="0.655" stop-color="#522C14" stop-opacity="0.6"/>
<stop offset="1" stop-color="#FF8337" stop-opacity="0.7"/>
</linearGradient>
<linearGradient id="paint3_linear_948_8750" x1="134.499" y1="35.9999" x2="117.299" y2="136.074" gradientUnits="userSpaceOnUse">
<stop stop-color="#FD6F17"/>
<stop offset="0.375" stop-color="#FEB88D"/>
<stop offset="1" stop-color="#BC5312"/>
</linearGradient>
</defs>
</svg>
