<svg width="207" height="202" viewBox="0 0 207 202" fill="none" xmlns="http://www.w3.org/2000/svg">
<g filter="url(#filter0_bd_948_8719)">
<rect x="41.873" y="12" width="155" height="149" rx="20" transform="rotate(10 41.873 12)" fill="#774545" fill-opacity="0.9" shape-rendering="crispEdges"/>
<rect x="42.2786" y="12.5792" width="154" height="148" rx="19.5" transform="rotate(10 42.2786 12.5792)" stroke="#FF6D6D" stroke-opacity="0.3" shape-rendering="crispEdges"/>
<path d="M74.1818 30.9213L72.9269 38.038L75.2158 38.4416L74.8563 40.4805L72.5674 40.0769L71.0955 48.4247L68.6142 47.9872L71.7005 30.4838L74.1818 30.9213ZM57.7528 40.975C59.0319 41.2006 60.5226 41.4634 62.0873 41.6997L62.3519 40.1994C60.5506 39.505 59.5474 38.1084 59.8532 36.4864C60.1799 34.5211 62.1835 33.506 64.7417 33.957C67.2422 34.3979 68.797 36.0405 68.4703 38.0059C68.1644 39.6278 66.7232 40.6033 64.8139 40.6335L64.5663 42.0376C65.9631 42.2145 67.3779 42.345 68.7085 42.3912L68.5469 44.2071C64.6933 44.2416 60.6892 43.5554 57.7271 43.0331L57.7528 40.975ZM70.3578 32.2501L70.0186 34.1735L59.632 32.3421L59.9712 30.4186L63.9527 31.1207L64.2783 29.2742L66.7403 29.7083L66.4147 31.5548L70.3578 32.2501ZM64.4127 35.8228C63.2202 35.6125 62.3207 35.9894 62.1806 36.8968C61.9985 37.8167 62.7182 38.4592 63.9108 38.6695C65.0648 38.873 65.9416 38.5119 66.1044 37.5887C66.2638 36.6847 65.5668 36.0263 64.4127 35.8228Z" fill="white"/>
<path d="M74.1818 30.9213L72.9269 38.038L75.2158 38.4416L74.8563 40.4805L72.5674 40.0769L71.0955 48.4247L68.6142 47.9872L71.7005 30.4838L74.1818 30.9213ZM57.7528 40.975C59.0319 41.2006 60.5226 41.4634 62.0873 41.6997L62.3519 40.1994C60.5506 39.505 59.5474 38.1084 59.8532 36.4864C60.1799 34.5211 62.1835 33.506 64.7417 33.957C67.2422 34.3979 68.797 36.0405 68.4703 38.0059C68.1644 39.6278 66.7232 40.6033 64.8139 40.6335L64.5663 42.0376C65.9631 42.2145 67.3779 42.345 68.7085 42.3912L68.5469 44.2071C64.6933 44.2416 60.6892 43.5554 57.7271 43.0331L57.7528 40.975ZM70.3578 32.2501L70.0186 34.1735L59.632 32.3421L59.9712 30.4186L63.9527 31.1207L64.2783 29.2742L66.7403 29.7083L66.4147 31.5548L70.3578 32.2501ZM64.4127 35.8228C63.2202 35.6125 62.3207 35.9894 62.1806 36.8968C61.9985 37.8167 62.7182 38.4592 63.9108 38.6695C65.0648 38.873 65.9416 38.5119 66.1044 37.5887C66.2638 36.6847 65.5668 36.0263 64.4127 35.8228Z" fill="black" fill-opacity="0.2"/>
<path d="M74.1818 30.9213L72.9269 38.038L75.2158 38.4416L74.8563 40.4805L72.5674 40.0769L71.0955 48.4247L68.6142 47.9872L71.7005 30.4838L74.1818 30.9213ZM57.7528 40.975C59.0319 41.2006 60.5226 41.4634 62.0873 41.6997L62.3519 40.1994C60.5506 39.505 59.5474 38.1084 59.8532 36.4864C60.1799 34.5211 62.1835 33.506 64.7417 33.957C67.2422 34.3979 68.797 36.0405 68.4703 38.0059C68.1644 39.6278 66.7232 40.6033 64.8139 40.6335L64.5663 42.0376C65.9631 42.2145 67.3779 42.345 68.7085 42.3912L68.5469 44.2071C64.6933 44.2416 60.6892 43.5554 57.7271 43.0331L57.7528 40.975ZM70.3578 32.2501L70.0186 34.1735L59.632 32.3421L59.9712 30.4186L63.9527 31.1207L64.2783 29.2742L66.7403 29.7083L66.4147 31.5548L70.3578 32.2501ZM64.4127 35.8228C63.2202 35.6125 62.3207 35.9894 62.1806 36.8968C61.9985 37.8167 62.7182 38.4592 63.9108 38.6695C65.0648 38.873 65.9416 38.5119 66.1044 37.5887C66.2638 36.6847 65.5668 36.0263 64.4127 35.8228Z" fill="black" fill-opacity="0.2"/>
<path d="M74.1818 30.9213L72.9269 38.038L75.2158 38.4416L74.8563 40.4805L72.5674 40.0769L71.0955 48.4247L68.6142 47.9872L71.7005 30.4838L74.1818 30.9213ZM57.7528 40.975C59.0319 41.2006 60.5226 41.4634 62.0873 41.6997L62.3519 40.1994C60.5506 39.505 59.5474 38.1084 59.8532 36.4864C60.1799 34.5211 62.1835 33.506 64.7417 33.957C67.2422 34.3979 68.797 36.0405 68.4703 38.0059C68.1644 39.6278 66.7232 40.6033 64.8139 40.6335L64.5663 42.0376C65.9631 42.2145 67.3779 42.345 68.7085 42.3912L68.5469 44.2071C64.6933 44.2416 60.6892 43.5554 57.7271 43.0331L57.7528 40.975ZM70.3578 32.2501L70.0186 34.1735L59.632 32.3421L59.9712 30.4186L63.9527 31.1207L64.2783 29.2742L66.7403 29.7083L66.4147 31.5548L70.3578 32.2501ZM64.4127 35.8228C63.2202 35.6125 62.3207 35.9894 62.1806 36.8968C61.9985 37.8167 62.7182 38.4592 63.9108 38.6695C65.0648 38.873 65.9416 38.5119 66.1044 37.5887C66.2638 36.6847 65.5668 36.0263 64.4127 35.8228Z" fill="black" fill-opacity="0.2"/>
<path d="M74.1818 30.9213L72.9269 38.038L75.2158 38.4416L74.8563 40.4805L72.5674 40.0769L71.0955 48.4247L68.6142 47.9872L71.7005 30.4838L74.1818 30.9213ZM57.7528 40.975C59.0319 41.2006 60.5226 41.4634 62.0873 41.6997L62.3519 40.1994C60.5506 39.505 59.5474 38.1084 59.8532 36.4864C60.1799 34.5211 62.1835 33.506 64.7417 33.957C67.2422 34.3979 68.797 36.0405 68.4703 38.0059C68.1644 39.6278 66.7232 40.6033 64.8139 40.6335L64.5663 42.0376C65.9631 42.2145 67.3779 42.345 68.7085 42.3912L68.5469 44.2071C64.6933 44.2416 60.6892 43.5554 57.7271 43.0331L57.7528 40.975ZM70.3578 32.2501L70.0186 34.1735L59.632 32.3421L59.9712 30.4186L63.9527 31.1207L64.2783 29.2742L66.7403 29.7083L66.4147 31.5548L70.3578 32.2501ZM64.4127 35.8228C63.2202 35.6125 62.3207 35.9894 62.1806 36.8968C61.9985 37.8167 62.7182 38.4592 63.9108 38.6695C65.0648 38.873 65.9416 38.5119 66.1044 37.5887C66.2638 36.6847 65.5668 36.0263 64.4127 35.8228Z" fill="black" fill-opacity="0.2"/>
<path d="M74.1818 30.9213L72.9269 38.038L75.2158 38.4416L74.8563 40.4805L72.5674 40.0769L71.0955 48.4247L68.6142 47.9872L71.7005 30.4838L74.1818 30.9213ZM57.7528 40.975C59.0319 41.2006 60.5226 41.4634 62.0873 41.6997L62.3519 40.1994C60.5506 39.505 59.5474 38.1084 59.8532 36.4864C60.1799 34.5211 62.1835 33.506 64.7417 33.957C67.2422 34.3979 68.797 36.0405 68.4703 38.0059C68.1644 39.6278 66.7232 40.6033 64.8139 40.6335L64.5663 42.0376C65.9631 42.2145 67.3779 42.345 68.7085 42.3912L68.5469 44.2071C64.6933 44.2416 60.6892 43.5554 57.7271 43.0331L57.7528 40.975ZM70.3578 32.2501L70.0186 34.1735L59.632 32.3421L59.9712 30.4186L63.9527 31.1207L64.2783 29.2742L66.7403 29.7083L66.4147 31.5548L70.3578 32.2501ZM64.4127 35.8228C63.2202 35.6125 62.3207 35.9894 62.1806 36.8968C61.9985 37.8167 62.7182 38.4592 63.9108 38.6695C65.0648 38.873 65.9416 38.5119 66.1044 37.5887C66.2638 36.6847 65.5668 36.0263 64.4127 35.8228Z" fill="black" fill-opacity="0.2"/>
<path d="M74.1818 30.9213L72.9269 38.038L75.2158 38.4416L74.8563 40.4805L72.5674 40.0769L71.0955 48.4247L68.6142 47.9872L71.7005 30.4838L74.1818 30.9213ZM57.7528 40.975C59.0319 41.2006 60.5226 41.4634 62.0873 41.6997L62.3519 40.1994C60.5506 39.505 59.5474 38.1084 59.8532 36.4864C60.1799 34.5211 62.1835 33.506 64.7417 33.957C67.2422 34.3979 68.797 36.0405 68.4703 38.0059C68.1644 39.6278 66.7232 40.6033 64.8139 40.6335L64.5663 42.0376C65.9631 42.2145 67.3779 42.345 68.7085 42.3912L68.5469 44.2071C64.6933 44.2416 60.6892 43.5554 57.7271 43.0331L57.7528 40.975ZM70.3578 32.2501L70.0186 34.1735L59.632 32.3421L59.9712 30.4186L63.9527 31.1207L64.2783 29.2742L66.7403 29.7083L66.4147 31.5548L70.3578 32.2501ZM64.4127 35.8228C63.2202 35.6125 62.3207 35.9894 62.1806 36.8968C61.9985 37.8167 62.7182 38.4592 63.9108 38.6695C65.0648 38.873 65.9416 38.5119 66.1044 37.5887C66.2638 36.6847 65.5668 36.0263 64.4127 35.8228Z" fill="black" fill-opacity="0.2"/>
<path d="M107.429 86.5158L159.897 160.501L32.8199 138.094L107.429 86.5158Z" fill="#FF6D6D"/>
<g filter="url(#filter1_bdi_948_8719)">
<path d="M119.302 65.2544L171.77 139.239L44.693 116.832L119.302 65.2544Z" fill="url(#paint0_linear_948_8719)" fill-opacity="0.8" shape-rendering="crispEdges"/>
<path d="M45.3359 116.692L119.241 65.6005L171.214 138.888L45.3359 116.692Z" stroke="url(#paint1_linear_948_8719)" stroke-opacity="0.2" stroke-width="0.5" shape-rendering="crispEdges"/>
</g>
</g>
<g filter="url(#filter2_bd_948_8719)">
<rect x="15" y="11" width="155" height="149" rx="20" fill="#395B72" fill-opacity="0.9" shape-rendering="crispEdges"/>
<rect x="15.5" y="11.5" width="154" height="148" rx="19.5" stroke="#48ABEC" stroke-opacity="0.3" shape-rendering="crispEdges"/>
<path d="M37.3867 24.5312C37.3867 26.2891 39.418 28.0859 43.4219 28.4961L42.5625 30.3711C39.4961 30.0195 37.2402 28.8477 36.0977 27.207C34.9453 28.8477 32.6992 30.0195 29.6328 30.3711L28.793 28.4961C32.7578 28.0859 34.8086 26.2891 34.8281 24.5312V24.1602H37.3867V24.5312ZM44.2031 31.0547V33.0469H27.9922V31.0547H44.2031ZM42.2305 34.1211V38.7109H32.3281V39.8047H42.6992V41.6797H29.8867V36.9727H39.7695V35.9766H29.8672V34.1211H42.2305ZM60.9883 32.5195V34.5117H44.7773V32.5195H60.9883ZM59.543 24.5898V26.6016H57.2188V29.3359H59.4258V31.3281H46.3203V29.3359H48.5078V26.6016H46.2031V24.5898H59.543ZM59.0547 35.8203V41.6016H46.6523V35.8203H59.0547ZM49.1133 37.7734V39.6094H56.6133V37.7734H49.1133ZM51.0078 29.3359H54.7188V26.6016H51.0078V29.3359Z" fill="#B3F5FF"/>
<rect x="88" y="42" width="65" height="97" rx="4" fill="#48ABEC"/>
<g filter="url(#filter3_bdi_948_8719)">
<rect x="28" y="129" width="48" height="97" rx="4" transform="rotate(-90 28 129)" fill="url(#paint2_linear_948_8719)" fill-opacity="0.8" shape-rendering="crispEdges"/>
<rect x="28.25" y="128.75" width="47.5" height="96.5" rx="3.75" transform="rotate(-90 28.25 128.75)" stroke="url(#paint3_linear_948_8719)" stroke-opacity="0.2" stroke-width="0.5" shape-rendering="crispEdges"/>
</g>
</g>
<defs>
<filter id="filter0_bd_948_8719" x="-4" y="-8" width="218.518" height="213.652" filterUnits="userSpaceOnUse" color-interpolation-filters="sRGB">
<feFlood flood-opacity="0" result="BackgroundImageFix"/>
<feGaussianBlur in="BackgroundImageFix" stdDeviation="10"/>
<feComposite in2="SourceAlpha" operator="in" result="effect1_backgroundBlur_948_8719"/>
<feColorMatrix in="SourceAlpha" type="matrix" values="0 0 0 0 0 0 0 0 0 0 0 0 0 0 0 0 0 0 127 0" result="hardAlpha"/>
<feOffset dy="4"/>
<feGaussianBlur stdDeviation="7.5"/>
<feComposite in2="hardAlpha" operator="out"/>
<feColorMatrix type="matrix" values="0 0 0 0 0 0 0 0 0 0 0 0 0 0 0 0 0 0 0.15 0"/>
<feBlend mode="normal" in2="effect1_backgroundBlur_948_8719" result="effect2_dropShadow_948_8719"/>
<feBlend mode="normal" in="SourceGraphic" in2="effect2_dropShadow_948_8719" result="shape"/>
</filter>
<filter id="filter1_bdi_948_8719" x="32.6934" y="53.2544" width="151.076" height="97.9851" filterUnits="userSpaceOnUse" color-interpolation-filters="sRGB">
<feFlood flood-opacity="0" result="BackgroundImageFix"/>
<feGaussianBlur in="BackgroundImageFix" stdDeviation="6"/>
<feComposite in2="SourceAlpha" operator="in" result="effect1_backgroundBlur_948_8719"/>
<feColorMatrix in="SourceAlpha" type="matrix" values="0 0 0 0 0 0 0 0 0 0 0 0 0 0 0 0 0 0 127 0" result="hardAlpha"/>
<feOffset dy="4"/>
<feGaussianBlur stdDeviation="2"/>
<feComposite in2="hardAlpha" operator="out"/>
<feColorMatrix type="matrix" values="0 0 0 0 0 0 0 0 0 0 0 0 0 0 0 0 0 0 0.15 0"/>
<feBlend mode="normal" in2="effect1_backgroundBlur_948_8719" result="effect2_dropShadow_948_8719"/>
<feBlend mode="normal" in="SourceGraphic" in2="effect2_dropShadow_948_8719" result="shape"/>
<feColorMatrix in="SourceAlpha" type="matrix" values="0 0 0 0 0 0 0 0 0 0 0 0 0 0 0 0 0 0 127 0" result="hardAlpha"/>
<feOffset dy="3"/>
<feGaussianBlur stdDeviation="2"/>
<feComposite in2="hardAlpha" operator="arithmetic" k2="-1" k3="1"/>
<feColorMatrix type="matrix" values="0 0 0 0 1 0 0 0 0 1 0 0 0 0 1 0 0 0 0.15 0"/>
<feBlend mode="normal" in2="shape" result="effect3_innerShadow_948_8719"/>
</filter>
<filter id="filter2_bd_948_8719" x="-5" y="-9" width="195" height="189" filterUnits="userSpaceOnUse" color-interpolation-filters="sRGB">
<feFlood flood-opacity="0" result="BackgroundImageFix"/>
<feGaussianBlur in="BackgroundImageFix" stdDeviation="10"/>
<feComposite in2="SourceAlpha" operator="in" result="effect1_backgroundBlur_948_8719"/>
<feColorMatrix in="SourceAlpha" type="matrix" values="0 0 0 0 0 0 0 0 0 0 0 0 0 0 0 0 0 0 127 0" result="hardAlpha"/>
<feOffset dy="4"/>
<feGaussianBlur stdDeviation="7.5"/>
<feComposite in2="hardAlpha" operator="out"/>
<feColorMatrix type="matrix" values="0 0 0 0 0 0 0 0 0 0 0 0 0 0 0 0 0 0 0.15 0"/>
<feBlend mode="normal" in2="effect1_backgroundBlur_948_8719" result="effect2_dropShadow_948_8719"/>
<feBlend mode="normal" in="SourceGraphic" in2="effect2_dropShadow_948_8719" result="shape"/>
</filter>
<filter id="filter3_bdi_948_8719" x="13" y="69" width="127" height="79" filterUnits="userSpaceOnUse" color-interpolation-filters="sRGB">
<feFlood flood-opacity="0" result="BackgroundImageFix"/>
<feGaussianBlur in="BackgroundImageFix" stdDeviation="6"/>
<feComposite in2="SourceAlpha" operator="in" result="effect1_backgroundBlur_948_8719"/>
<feColorMatrix in="SourceAlpha" type="matrix" values="0 0 0 0 0 0 0 0 0 0 0 0 0 0 0 0 0 0 127 0" result="hardAlpha"/>
<feOffset dy="4"/>
<feGaussianBlur stdDeviation="7.5"/>
<feComposite in2="hardAlpha" operator="out"/>
<feColorMatrix type="matrix" values="0 0 0 0 0 0 0 0 0 0 0 0 0 0 0 0 0 0 0.15 0"/>
<feBlend mode="normal" in2="effect1_backgroundBlur_948_8719" result="effect2_dropShadow_948_8719"/>
<feBlend mode="normal" in="SourceGraphic" in2="effect2_dropShadow_948_8719" result="shape"/>
<feColorMatrix in="SourceAlpha" type="matrix" values="0 0 0 0 0 0 0 0 0 0 0 0 0 0 0 0 0 0 127 0" result="hardAlpha"/>
<feOffset dx="2" dy="1"/>
<feGaussianBlur stdDeviation="2"/>
<feComposite in2="hardAlpha" operator="arithmetic" k2="-1" k3="1"/>
<feColorMatrix type="matrix" values="0 0 0 0 1 0 0 0 0 1 0 0 0 0 1 0 0 0 0.15 0"/>
<feBlend mode="normal" in2="shape" result="effect3_innerShadow_948_8719"/>
</filter>
<linearGradient id="paint0_linear_948_8719" x1="111.916" y1="63.9521" x2="125.512" y2="148.091" gradientUnits="userSpaceOnUse">
<stop stop-color="#FF6D6D" stop-opacity="0.4"/>
<stop offset="0.213582" stop-color="#E4A5A5" stop-opacity="0.4"/>
<stop offset="0.662503" stop-color="#552929" stop-opacity="0.2"/>
<stop offset="1" stop-color="#EF9E9E" stop-opacity="0.3"/>
</linearGradient>
<linearGradient id="paint1_linear_948_8719" x1="105.284" y1="69.8906" x2="157.458" y2="142.555" gradientUnits="userSpaceOnUse">
<stop stop-color="#F36D6D"/>
<stop offset="0.364795" stop-color="#9D3F3F"/>
<stop offset="0.650214" stop-color="white"/>
<stop offset="1" stop-color="#F36D6D"/>
</linearGradient>
<linearGradient id="paint2_linear_948_8719" x1="92.5" y1="160" x2="14" y2="211.5" gradientUnits="userSpaceOnUse">
<stop stop-color="#48ABEC"/>
<stop offset="0.210645" stop-color="#439FDC" stop-opacity="0.4"/>
<stop offset="0.365" stop-color="#2C73A2" stop-opacity="0.416966"/>
<stop offset="0.633074" stop-color="#205172" stop-opacity="0.446432"/>
<stop offset="0.875" stop-color="#48ABEC" stop-opacity="0.883745"/>
<stop offset="1" stop-color="#A0DAFF"/>
</linearGradient>
<linearGradient id="paint3_linear_948_8719" x1="86" y1="139.5" x2="17.5" y2="226" gradientUnits="userSpaceOnUse">
<stop stop-color="#48ABEC"/>
<stop offset="0.395122" stop-color="#32556D"/>
<stop offset="0.75" stop-color="white"/>
<stop offset="1" stop-color="#2CA0ED"/>
</linearGradient>
</defs>
</svg>
