<svg width="282" height="306" viewBox="0 0 282 306" fill="none" xmlns="http://www.w3.org/2000/svg">
<g filter="url(#filter0_d_1011_6779)">
<path d="M180.331 26.203C175.461 27.1178 171.556 31.0708 168.239 34.8769C140.803 66.3542 123.449 105.362 93.1537 134.601C84.15 143.292 73.4633 149.564 62.2046 154.873C55.407 158.075 37.0075 161.717 34.5074 169.656C33.1511 173.969 34.6544 178.771 37.3506 182.397C43.7561 191.071 52.4166 197.246 59.9006 204.842C68.7245 213.793 70.3749 222.565 76.0288 233.019C87.794 254.81 117.223 271.243 141.505 271.243C168.533 271.243 196.067 261.818 216.231 243.572C226.836 233.983 231.722 222.483 239.712 211.131C247.785 199.663 257.491 188.343 255.808 173.315C253.34 151.051 217.587 157.193 205.855 142.851C194.563 129.048 200.037 105.852 201.345 89.6151C202.832 71.0914 204.433 51.0811 194.874 34.2561C192.178 29.5027 187.128 25.664 181.687 26.0233C181.229 26.056 180.772 26.105 180.331 26.203Z" fill="url(#paint0_linear_1011_6779)"/>
<path d="M175.641 42.5052C171.425 43.3056 168.043 46.7196 165.167 50.0192C141.391 77.2985 126.358 111.112 100.098 136.447C92.2876 143.978 83.0389 149.417 73.2672 154.007C67.3846 156.768 51.4198 159.937 49.2629 166.814C48.0864 170.555 49.3936 174.704 51.7303 177.856C57.2861 185.37 64.7864 190.712 71.2736 197.311C78.921 205.07 80.359 212.666 85.2448 221.732C95.4414 240.615 120.949 254.859 141.996 254.859C165.412 254.859 189.285 246.692 206.753 230.879C215.937 222.565 220.169 212.601 227.097 202.767C234.026 192.933 242.507 183.018 241.052 169.983C238.912 150.691 207.93 156.016 197.766 143.569C187.978 131.612 192.717 111.504 193.861 97.4395C195.152 81.3822 196.541 64.0509 188.24 49.4638C185.903 45.3474 181.524 42.0314 176.801 42.3418C176.409 42.3745 176.017 42.4235 175.625 42.4888L175.641 42.5052Z" fill="url(#paint1_linear_1011_6779)"/>
<path d="M171.899 55.5568C168.206 56.2592 165.232 59.2484 162.716 62.1561C141.865 86.0867 128.678 115.718 105.654 137.95C98.8075 144.549 90.6862 149.319 82.1238 153.354C76.9601 155.788 62.9726 158.565 61.0771 164.576C60.0476 167.843 61.1915 171.502 63.2341 174.263C68.1036 180.846 74.6725 185.534 80.3753 191.316C87.0913 198.128 88.3332 204.792 92.6308 212.731C101.569 229.295 123.939 241.791 142.388 241.791C162.928 241.791 183.86 234.62 199.171 220.752C207.227 213.466 210.937 204.727 217.015 196.102C223.094 187.477 230.529 178.787 229.254 167.353C227.375 150.43 200.217 155.102 191.295 144.19C182.716 133.703 186.867 116.078 187.864 103.728C188.991 89.6477 190.2 74.4399 182.945 61.666C180.886 58.056 177.063 55.1484 172.912 55.4261C172.569 55.4424 172.226 55.4914 171.883 55.5568H171.899Z" fill="url(#paint2_linear_1011_6779)"/>
<path d="M169.105 65.3414C165.804 65.9621 163.14 68.641 160.885 71.2383C142.241 92.637 130.443 119.165 109.837 139.044C103.71 144.958 96.4544 149.221 88.7907 152.831C84.1663 155.004 71.6494 157.487 69.9663 162.877C69.0513 165.801 70.0644 169.068 71.8945 171.535C76.2575 177.432 82.1401 181.63 87.222 186.791C93.219 192.884 94.3465 198.847 98.1865 205.952C106.177 220.768 126.194 231.941 142.715 231.941C161.081 231.941 179.808 225.521 193.517 213.123C200.724 206.606 204.041 198.781 209.482 191.071C214.924 183.361 221.574 175.569 220.43 165.36C218.747 150.218 194.449 154.399 186.475 144.647C178.795 135.271 182.52 119.492 183.403 108.449C184.416 95.855 185.494 82.248 178.991 70.8136C177.161 67.5792 173.729 64.982 170.02 65.227C169.709 65.2434 169.399 65.2924 169.105 65.3414Z" fill="url(#paint3_linear_1011_6779)"/>
<path d="M167.046 74.8973C164.121 75.4526 161.784 77.8212 159.79 80.1081C143.319 99.0076 132.894 122.432 114.707 139.992C109.298 145.219 102.892 148.976 96.1274 152.161C92.0423 154.073 80.9961 156.278 79.5091 161.031C78.692 163.612 79.6071 166.503 81.2085 168.676C85.0649 173.887 90.2448 177.578 94.7548 182.152C100.049 187.526 101.046 192.786 104.445 199.075C111.504 212.159 129.168 222.026 143.76 222.026C159.986 222.026 176.523 216.358 188.631 205.413C194.988 199.647 197.929 192.754 202.733 185.926C207.538 179.098 213.404 172.237 212.407 163.22C210.92 149.858 189.465 153.55 182.422 144.925C175.641 136.643 178.925 122.71 179.71 112.958C180.608 101.834 181.556 89.8274 175.82 79.7161C174.203 76.8574 171.18 74.5706 167.895 74.7829C167.617 74.7992 167.356 74.8319 167.078 74.8809L167.046 74.8973Z" fill="url(#paint4_linear_1011_6779)"/>
<g clip-path="url(#clip0_1011_6779)">
<path d="M135.608 142.16C139.18 143.216 143.325 144.841 145.493 148.07C146.325 149.306 147.209 150.917 147.243 152.448C147.249 152.842 147.256 153.417 146.87 153.645C146.591 153.812 146.118 153.645 145.826 153.578C145.294 153.444 144.761 153.277 144.236 153.11C140.491 151.927 136.939 150.195 133.666 148.023C132.076 146.967 130.559 145.803 129.136 144.533C128.451 143.925 127.779 143.29 127.134 142.635C126.635 142.134 126.096 141.672 125.837 141.004C125.777 140.843 125.77 140.543 125.73 140.482C125.504 140.108 125.89 140.536 125.71 140.482C125.69 140.529 125.664 140.563 125.624 140.596C125.511 140.663 125.524 140.656 125.664 140.569C125.664 140.569 126.296 140.643 126.495 140.67C127.127 140.756 127.752 140.83 128.384 140.904C130.826 141.184 133.234 141.478 135.608 142.154C137.258 142.622 137.963 140.041 136.313 139.573C133.719 138.831 131.058 138.537 128.384 138.23C126.588 138.022 123.828 137.321 123.169 139.727C122.684 141.505 123.894 143.143 125.058 144.326C126.715 146.017 128.511 147.562 130.413 148.972C134.265 151.84 138.588 154.059 143.145 155.55C145.22 156.232 148.041 157.147 149.398 154.741C150.449 152.869 149.724 150.596 148.932 148.792C146.67 143.631 141.455 141.084 136.32 139.567C134.677 139.079 133.972 141.659 135.615 142.147L135.608 142.16Z" fill="#37030A"/>
<path d="M166.241 140.609C165.402 141.111 164.491 141.445 163.64 141.933C162.722 142.461 161.864 143.076 161.039 143.745C159.589 144.928 158.099 146.412 157.287 148.123C156.476 149.834 156.409 151.813 157.906 153.09C159.223 154.22 161.065 154.186 162.669 153.845C166.101 153.117 169.334 151.352 172.008 149.106C173.332 147.996 174.502 146.719 175.54 145.336C176.578 143.952 177.855 142.261 177.542 140.482C177.11 138.069 174.429 137.915 172.48 138.156C171.376 138.29 170.298 138.53 169.254 138.932C168.15 139.359 167.238 139.994 166.241 140.616C164.79 141.519 166.121 143.838 167.584 142.922C168.875 142.113 169.999 141.385 171.502 141.024C172.221 140.85 172.939 140.75 173.678 140.736C173.983 140.73 174.768 140.65 174.941 140.957C175.134 141.298 174.409 142.261 174.256 142.515C173.91 143.063 173.544 143.604 173.145 144.119C172.334 145.155 171.416 146.104 170.425 146.967C168.496 148.644 166.201 149.961 163.779 150.764C162.728 151.111 161.511 151.539 160.38 151.365C159.116 151.171 159.276 150.035 159.775 149.119C160.533 147.729 161.804 146.519 163.041 145.549C164.451 144.44 166.068 143.838 167.584 142.929C169.101 142.02 167.717 139.74 166.241 140.623V140.609Z" fill="#37030A"/>
<path d="M122.631 163.719C117.256 165.898 113.63 170.216 110.73 175.109C109.253 177.596 107.444 180.912 109.786 183.485C111.568 185.451 114.575 185.444 117.016 185.477C123.242 185.558 129.675 185.036 134.69 180.932C136.826 179.18 138.562 176.861 139.66 174.321C140.757 171.78 141.609 168.712 140.358 166.112C139.107 163.511 135.655 162.89 133.034 162.569C129.515 162.141 125.963 162.422 122.637 163.719C121.965 163.979 121.506 164.614 121.706 165.363C121.879 166.005 122.67 166.56 123.342 166.299C126.003 165.263 128.804 164.875 131.651 165.109C133.46 165.256 135.668 165.41 137.218 166.459C139.001 167.669 138.249 170.45 137.677 172.128C136.946 174.28 135.688 176.252 134.098 177.87C130.367 181.66 125.192 182.67 120.07 182.804C118.666 182.837 117.262 182.83 115.859 182.797C114.881 182.77 113.91 182.703 112.972 182.402C112.2 182.155 111.455 181.674 111.316 180.805C111.123 179.602 111.941 178.345 112.506 177.355C115.12 172.81 118.327 168.338 123.336 166.306C124.001 166.038 124.473 165.417 124.267 164.661C124.094 164.026 123.302 163.458 122.631 163.725V163.719Z" fill="#37030A"/>
<path d="M163.779 162.549C162.549 163.418 161.571 164.775 160.766 166.038C159.875 167.435 159.19 168.986 158.717 170.577C157.786 173.719 157.7 177.162 158.578 180.323C160.061 185.645 164.192 189.929 169.261 191.942C171.755 192.938 174.635 193.392 177.283 192.797C180.19 192.142 182.119 189.936 182.777 187.068C183.423 184.247 183.403 181.126 183.137 178.251C182.871 175.377 182.159 172.302 180.762 169.621C177.682 163.705 170.278 158.665 163.779 162.549C162.309 163.424 163.646 165.737 165.123 164.855C169.826 162.041 175.121 165.65 177.715 169.681C180.449 173.933 180.862 179.241 180.509 184.167C180.356 186.333 179.917 188.806 177.755 189.829C175.786 190.758 173.345 190.424 171.336 189.829C167.152 188.592 163.587 185.451 161.804 181.453C160.573 178.706 160.334 175.517 160.959 172.589C161.278 171.085 161.797 169.628 162.542 168.284C163.174 167.134 164.039 165.624 165.13 164.855C166.52 163.872 165.19 161.553 163.786 162.549H163.779Z" fill="#37030A"/>
<path d="M166.254 172.923C166.28 173.01 166.327 173.097 166.367 173.177C166.686 173.819 167.079 174.468 167.338 175.136C167.564 175.738 167.75 176.366 168.003 176.961C168.682 178.585 169.407 180.19 170.218 181.747C170.458 182.209 170.77 182.717 171.276 182.81C171.775 182.91 172.28 182.536 172.493 182.068C172.706 181.6 172.693 181.065 172.66 180.551C172.493 178.265 171.875 176.018 170.85 173.973C170.345 172.964 169.68 171.947 168.629 171.533C167.864 171.232 167.025 171.56 166.473 172.135C166.314 172.302 166.201 172.529 166.221 172.763C166.221 172.816 166.24 172.87 166.254 172.917V172.923Z" fill="#37030A"/>
<path d="M164.97 173.278C165.376 174.321 165.968 175.25 166.34 176.306C166.74 177.456 167.232 178.565 167.731 179.675C168.203 180.711 168.655 181.807 169.261 182.777C169.906 183.8 171.003 184.468 172.207 184.027C174.768 183.091 173.99 179.528 173.525 177.516C173.059 175.504 172.227 173.077 170.771 171.466C169.886 170.49 168.602 169.875 167.278 170.183C165.861 170.51 164.644 171.76 164.97 173.278C165.123 173.986 165.941 174.394 166.607 174.214C167.332 174.013 167.691 173.278 167.538 172.569C167.318 173.091 167.318 173.224 167.538 172.97C167.518 172.917 167.564 172.883 167.684 172.877C167.751 172.837 167.957 172.77 167.97 172.77C168.21 172.756 168.462 172.937 168.662 173.117C169.267 173.659 169.633 174.474 169.966 175.203C170.764 176.954 171.323 179.013 171.349 180.952C171.349 180.979 171.276 181.54 171.283 181.547C171.263 181.52 171.349 181.493 171.369 181.507C171.469 181.493 171.569 181.513 171.669 181.567C171.715 181.614 171.709 181.607 171.642 181.54C171.642 181.487 171.496 181.32 171.442 181.226C170.904 180.263 170.445 179.247 169.986 178.238C169.567 177.302 169.174 176.366 168.835 175.404C168.635 174.842 168.422 174.287 168.156 173.752C168.037 173.512 167.91 173.278 167.784 173.044C167.724 172.93 167.658 172.81 167.598 172.69C167.505 172.489 167.485 172.456 167.531 172.576C167.272 171.907 166.64 171.439 165.895 171.64C165.256 171.814 164.704 172.609 164.963 173.284L164.97 173.278Z" fill="#37030A"/>
<path d="M127.274 172.135C125.517 172.509 123.748 172.863 121.992 173.251C120.695 173.538 119.138 174.08 118.925 175.397C118.766 176.379 119.537 177.322 120.469 177.67C121.4 178.017 122.424 177.89 123.395 177.676C124.892 177.355 126.349 176.847 127.719 176.166C128.378 175.838 129.036 175.457 129.475 174.869C130.041 174.113 130.16 172.415 129.07 172.021C128.657 171.874 128.198 171.941 127.766 172.034C127.606 172.068 127.44 172.108 127.28 172.141L127.274 172.135Z" fill="#37030A"/>
<path d="M126.921 170.845C125.637 171.119 124.347 171.379 123.063 171.653C122.019 171.874 120.968 172.061 119.983 172.489C118.999 172.917 118.134 173.612 117.755 174.655C117.342 175.791 117.715 177.015 118.493 177.89C120.249 179.869 123.216 179.22 125.411 178.525C126.535 178.171 127.653 177.723 128.69 177.162C129.728 176.6 130.593 175.865 130.999 174.755C131.345 173.806 131.318 172.583 130.739 171.734C129.828 170.39 128.318 170.544 126.914 170.845C126.209 170.998 125.803 171.82 125.983 172.489C126.183 173.218 126.914 173.572 127.619 173.425C127.906 173.365 128.231 173.251 128.524 173.258C128.744 173.258 128.69 173.318 128.504 173.198C128.644 173.291 128.498 173.304 128.504 173.177C128.504 173.264 128.557 173.311 128.504 173.157C128.524 173.211 128.537 173.264 128.551 173.318C128.597 173.512 128.551 173.097 128.551 173.304C128.551 173.425 128.551 173.538 128.551 173.659C128.604 173.458 128.537 173.866 128.551 173.659C128.537 173.712 128.524 173.772 128.511 173.833C128.498 173.893 128.478 173.94 128.458 174C128.424 174.107 128.584 173.886 128.438 174.026C128.438 174.026 128.345 174.174 128.404 174.087C128.478 173.98 128.311 174.187 128.318 174.187C128.211 174.287 128.118 174.387 128.012 174.468C127.666 174.722 127.267 174.916 126.881 175.103C126.149 175.457 125.391 175.744 124.619 175.985C123.848 176.226 123.016 176.473 122.205 176.533C121.832 176.56 121.46 176.567 121.094 176.466C120.801 176.386 120.695 176.333 120.482 176.112C120.362 175.985 120.262 175.885 120.229 175.624C120.236 175.704 120.262 175.551 120.262 175.557C120.309 175.41 120.262 175.544 120.242 175.571C120.242 175.571 120.422 175.29 120.349 175.383C120.262 175.49 120.628 175.129 120.449 175.276C120.555 175.19 120.675 175.123 120.795 175.056C121.041 174.922 121.22 174.849 121.599 174.735C123.562 174.147 125.637 173.853 127.639 173.425C128.345 173.271 128.75 172.449 128.571 171.78C128.371 171.052 127.639 170.697 126.934 170.845H126.921Z" fill="#37030A"/>
<path d="M147.642 183.385C146.471 184.274 145.221 185.217 144.562 186.58C143.937 187.871 143.85 189.421 144.562 190.705C145.307 192.069 146.943 192.697 148.413 192.242C149.764 191.821 150.915 190.678 151.227 189.268C151.653 187.356 150.881 185.551 149.731 184.06C149.305 183.505 148.294 183.572 147.848 184.06C147.309 184.648 147.389 185.357 147.848 185.952C147.655 185.705 147.895 186.026 147.941 186.099C148.021 186.213 148.094 186.333 148.161 186.453C148.227 186.574 148.294 186.694 148.36 186.821C148.38 186.868 148.4 186.915 148.427 186.961C148.507 187.102 148.347 186.741 148.433 186.975C148.527 187.235 148.606 187.49 148.66 187.764C148.66 187.797 148.686 187.957 148.693 187.964C148.666 187.951 148.666 187.643 148.68 187.911C148.68 188.044 148.693 188.178 148.68 188.312C148.68 188.338 148.68 188.479 148.666 188.512C148.746 188.372 148.699 188.312 148.666 188.459C148.64 188.586 148.606 188.706 148.573 188.833C148.533 188.987 148.5 188.833 148.62 188.74C148.6 188.753 148.553 188.873 148.546 188.887C148.493 188.987 148.433 189.074 148.374 189.167C148.247 189.368 148.413 189.087 148.433 189.094C148.433 189.094 148.34 189.201 148.327 189.221C148.254 189.301 148.167 189.375 148.088 189.448C147.954 189.575 148.088 189.375 148.161 189.395C148.154 189.395 148.021 189.488 148.028 189.488C147.928 189.555 147.808 189.602 147.708 189.662C147.595 189.736 147.828 189.602 147.841 189.609C147.828 189.609 147.715 189.655 147.688 189.662C147.602 189.689 147.456 189.689 147.382 189.736C147.555 189.635 147.655 189.716 147.502 189.716C147.449 189.716 147.402 189.716 147.349 189.716C147.316 189.716 147.223 189.695 147.196 189.709C147.276 189.675 147.515 189.782 147.283 189.709C147.236 189.695 147.183 189.669 147.13 189.669C147.01 189.655 147.249 189.709 147.263 189.729C147.256 189.716 146.99 189.568 146.983 189.568C147.07 189.548 147.196 189.762 147.063 189.629C147.03 189.589 146.99 189.555 146.95 189.522C146.93 189.495 146.87 189.415 146.85 189.401C146.93 189.428 147.017 189.655 146.903 189.448C146.877 189.401 146.817 189.234 146.77 189.207C146.877 189.281 146.864 189.468 146.817 189.308C146.804 189.254 146.784 189.207 146.77 189.154C146.75 189.08 146.744 188.893 146.697 188.84C146.711 188.86 146.724 189.181 146.717 188.953C146.717 188.887 146.711 188.813 146.704 188.746C146.704 188.633 146.704 188.526 146.711 188.412C146.724 188.105 146.657 188.626 146.711 188.399C146.737 188.292 146.757 188.185 146.79 188.078C146.804 188.024 146.824 187.971 146.844 187.924C146.917 187.69 146.731 188.138 146.824 187.971C146.897 187.837 146.957 187.703 147.036 187.576C147.07 187.523 147.103 187.463 147.143 187.409C147.163 187.376 147.323 187.142 147.209 187.302C147.11 187.449 147.229 187.282 147.256 187.242C147.309 187.175 147.362 187.115 147.416 187.055C147.515 186.941 147.622 186.834 147.728 186.734C147.941 186.52 148.174 186.326 148.407 186.133C148.527 186.039 148.64 185.939 148.759 185.852C148.726 185.878 148.54 186.026 148.726 185.878C148.806 185.818 148.886 185.758 148.966 185.698C149.252 185.477 149.478 185.263 149.578 184.896C149.664 184.575 149.624 184.147 149.445 183.866C149.092 183.318 148.221 182.937 147.622 183.385H147.642Z" fill="#37030A"/>
<path d="M131.198 204.596C131.305 201.822 134.325 200.545 136.586 199.896C139.214 199.141 142.054 198.894 144.735 199.542C147.123 200.117 149.318 201.407 150.742 203.459C152.072 205.371 152.744 207.691 152.172 209.997C151.759 211.668 154.32 212.377 154.739 210.706C155.917 205.98 153.369 201.053 149.345 198.566C144.808 195.759 138.715 196.013 133.919 197.991C131.105 199.154 128.664 201.347 128.537 204.589C128.471 206.307 131.132 206.307 131.198 204.589V204.596Z" fill="#37030A"/>
</g>
</g>
<defs>
<filter id="filter0_d_1011_6779" x="0" y="0" width="282" height="305.243" filterUnits="userSpaceOnUse" color-interpolation-filters="sRGB">
<feFlood flood-opacity="0" result="BackgroundImageFix"/>
<feColorMatrix in="SourceAlpha" type="matrix" values="0 0 0 0 0 0 0 0 0 0 0 0 0 0 0 0 0 0 127 0" result="hardAlpha"/>
<feOffset dx="-4" dy="4"/>
<feGaussianBlur stdDeviation="15"/>
<feComposite in2="hardAlpha" operator="out"/>
<feColorMatrix type="matrix" values="0 0 0 0 0.988932 0 0 0 0 0.293525 0 0 0 0 0.305115 0 0 0 0.15 0"/>
<feBlend mode="normal" in2="BackgroundImageFix" result="effect1_dropShadow_1011_6779"/>
<feBlend mode="normal" in="SourceGraphic" in2="effect1_dropShadow_1011_6779" result="shape"/>
</filter>
<linearGradient id="paint0_linear_1011_6779" x1="68.9206" y1="88.9944" x2="229.168" y2="203.489" gradientUnits="userSpaceOnUse">
<stop stop-color="#CE2E71" stop-opacity="0.05"/>
<stop offset="1" stop-color="#C32937" stop-opacity="0.05"/>
</linearGradient>
<linearGradient id="paint1_linear_1011_6779" x1="79.1008" y1="96.9331" x2="217.979" y2="196.148" gradientUnits="userSpaceOnUse">
<stop stop-color="#CE2E71" stop-opacity="0.1"/>
<stop offset="0.99" stop-color="#C32936" stop-opacity="0.1"/>
</linearGradient>
<linearGradient id="paint2_linear_1011_6779" x1="87.2547" y1="103.271" x2="209.012" y2="190.278" gradientUnits="userSpaceOnUse">
<stop stop-color="#CE2E71" stop-opacity="0.15"/>
<stop offset="0.99" stop-color="#C32936" stop-opacity="0.15"/>
</linearGradient>
<linearGradient id="paint3_linear_1011_6779" x1="93.3661" y1="108.041" x2="202.316" y2="185.88" gradientUnits="userSpaceOnUse">
<stop stop-color="#CE2E71" stop-opacity="0.2"/>
<stop offset="0.99" stop-color="#C32936" stop-opacity="0.2"/>
</linearGradient>
<linearGradient id="paint4_linear_1011_6779" x1="100.164" y1="112.598" x2="196.371" y2="181.334" gradientUnits="userSpaceOnUse">
<stop stop-color="#CE2E71" stop-opacity="0.3"/>
<stop offset="0.99" stop-color="#C32936" stop-opacity="0.3"/>
</linearGradient>
<clipPath id="clip0_1011_6779">
<rect width="74.6549" height="73.6726" fill="white" transform="translate(108.655 137.982)"/>
</clipPath>
</defs>
</svg>
