<svg width="282" height="265" viewBox="0 0 282 265" fill="none" xmlns="http://www.w3.org/2000/svg">
<g filter="url(#filter0_d_1011_6734)">
<path d="M87.8208 28.0016C75.5238 25.502 61.354 23.9829 51.7012 31.9961C44.5722 37.9196 41.8716 47.6045 40.6339 56.7911C37.1216 82.7837 42.1529 109.419 38.1182 135.34C36.1812 147.749 32.1787 160.368 34.9435 172.617C38.1262 186.698 49.5231 197.211 60.3413 206.775C69.0698 214.491 78.0234 222.351 88.8094 226.74C111.314 235.886 137.298 228.154 158.292 215.938C181.198 202.604 200.769 184.214 218.555 164.563C232.179 149.517 245.135 133.186 251.653 113.96C258.163 94.7352 257.255 71.9736 244.861 55.891C233.85 41.6087 215.429 34.6002 197.433 33.3865C179.205 32.1568 163.315 39.0287 145.77 40.1539C126.665 41.3756 106.499 31.7871 87.8208 28.0016Z" fill="url(#paint0_linear_1011_6734)"/>
<path d="M97.2567 30.3724C86.334 28.1541 73.7476 26.8038 65.1718 33.9249C58.8385 39.1893 56.4433 47.7892 55.3342 55.9551C52.2157 79.0462 56.6845 102.716 53.0998 125.735C51.3799 136.762 47.8193 147.966 50.2787 158.857C53.1079 171.371 63.2349 180.71 72.8394 189.205C80.5954 196.061 88.5443 203.037 98.1328 206.936C118.122 215.061 141.213 208.197 159.859 197.339C180.21 185.492 197.594 169.152 213.396 151.703C225.5 138.337 237.009 123.83 242.796 106.751C248.583 89.6715 247.771 69.4497 236.76 55.1594C226.979 42.4685 210.615 36.2396 194.628 35.1626C178.433 34.0695 164.32 40.1779 148.728 41.1745C131.753 42.2595 113.846 33.74 97.2406 30.3724H97.2567Z" fill="url(#paint1_linear_1011_6734)"/>
<path d="M100.825 36.4487C91.3971 34.5359 80.5387 33.3705 73.1364 39.519C67.671 44.0601 65.6054 51.4865 64.649 58.5272C61.9565 78.4516 65.8144 98.8744 62.7201 118.735C61.2332 128.251 58.1629 137.92 60.2928 147.315C62.7361 158.109 71.4727 166.171 79.7591 173.501C86.4461 179.416 93.31 185.436 101.58 188.804C118.828 195.82 138.753 189.889 154.843 180.517C172.397 170.294 187.403 156.196 201.034 141.134C211.474 129.601 221.408 117.087 226.399 102.346C231.391 87.6061 230.691 70.1571 221.191 57.836C212.752 46.8892 198.631 41.5122 184.839 40.5799C170.862 39.6395 158.685 44.904 145.239 45.764C130.595 46.7043 115.139 39.3502 100.817 36.4487H100.825Z" fill="url(#paint2_linear_1011_6734)"/>
<path d="M100.833 43.192C92.6993 41.5444 83.3359 40.5397 76.9462 45.8363C72.2283 49.7504 70.4441 56.1561 69.6243 62.2323C67.3015 79.4241 70.6289 97.0338 67.9605 114.177C66.6826 122.383 64.0303 130.726 65.8628 138.828C67.9686 148.143 75.5075 155.095 82.6607 161.413C88.4315 166.516 94.355 171.708 101.484 174.61C116.361 180.662 133.553 175.55 147.433 167.465C162.576 158.648 175.524 146.487 187.282 133.491C196.292 123.541 204.86 112.747 209.168 100.032C213.476 87.3167 212.873 72.2629 204.675 61.6295C197.393 52.1857 185.217 47.5482 173.313 46.7445C161.257 45.9327 150.753 50.4818 139.147 51.2212C126.512 52.033 113.178 45.6916 100.825 43.184L100.833 43.192Z" fill="url(#paint3_linear_1011_6734)"/>
<path d="M100.994 48.9147C94.4431 47.5886 86.8881 46.7768 81.7442 51.0446C77.9426 54.2033 76.5039 59.3632 75.8448 64.2579C73.9721 78.1062 76.6566 92.3081 74.5026 106.116C73.4738 112.731 71.3359 119.45 72.8148 125.984C74.5106 133.491 80.5868 139.093 86.3496 144.189C91.0032 148.304 95.7693 152.491 101.524 154.822C113.516 159.701 127.364 155.578 138.552 149.067C150.76 141.962 161.185 132.157 170.669 121.692C177.926 113.671 184.83 104.975 188.303 94.7273C191.775 84.4797 191.292 72.3515 184.686 63.7837C178.819 56.1724 169.005 52.4351 159.417 51.7921C149.699 51.133 141.236 54.798 131.889 55.4008C121.706 56.0518 110.96 50.9401 101.01 48.9228L100.994 48.9147Z" fill="url(#paint4_linear_1011_6734)"/>
<g clip-path="url(#clip0_1011_6734)">
<path d="M97.2507 78.6016C104.271 78.7926 111.291 78.721 118.311 78.3868C119.674 78.3271 119.685 75.9403 118.311 76C111.291 76.3222 104.271 76.3938 97.2507 76.2148C95.8871 76.179 95.8871 78.5658 97.2507 78.6016Z" fill="#55092B"/>
<path d="M96.0256 77.9094C96.8884 82.5995 96.3771 87.4447 96.963 92.1706C97.4637 96.264 98.8485 100.393 101.927 102.887C104.686 105.119 108.606 105.68 111.418 103.281C112.867 102.04 113.879 100.298 114.635 98.4479C115.456 96.4549 116.116 94.3903 116.67 92.2899C117.959 87.4328 118.694 82.3728 118.939 77.3127C119.014 75.7733 116.883 75.7852 116.809 77.3127C116.617 81.3942 116.063 85.4398 115.168 89.4019C114.721 91.3829 114.177 93.3521 113.528 95.2615C112.952 96.9561 112.303 98.7104 111.269 100.131C110.342 101.408 109.075 102.35 107.573 102.446C106.177 102.541 104.825 102.076 103.642 101.276C100.755 99.331 99.5622 95.5479 99.0828 91.9916C98.4117 87.0986 98.9763 82.1102 98.0815 77.2411C97.8046 75.7613 95.7486 76.4058 96.0256 77.9094Z" fill="#55092B"/>
<path d="M110.652 78.5777C109.118 81.0958 108.532 83.8406 108.947 86.5258C109.054 87.206 109.437 88.0414 110.481 88.1727C111.557 88.3159 112.409 87.5879 112.835 86.9315C114.241 84.7834 114.433 82.4085 114.582 80.0814C114.625 79.4608 114.657 78.8045 114.263 78.2316C113.869 77.6588 112.91 77.1934 111.962 77.3366C110.641 77.5275 110.279 78.6135 110.193 79.4966" fill="#55092B"/>
<path d="M109.735 77.9691C108.447 80.1172 107.669 82.6591 107.765 85.2608C107.807 86.3706 107.925 87.5282 108.617 88.3875C109.363 89.3183 110.63 89.557 111.674 89.2228C113.815 88.5426 114.881 85.7501 115.285 83.5303C115.498 82.3369 115.605 81.1077 115.669 79.8905C115.733 78.5538 115.296 77.3008 114.199 76.6444C113.102 75.988 111.632 75.8687 110.556 76.6205C109.64 77.265 109.256 78.3271 109.139 79.4847C109.075 80.1291 109.682 80.6781 110.204 80.6781C110.833 80.6781 111.206 80.1291 111.269 79.4847C111.248 79.7353 111.28 79.4131 111.301 79.3296C111.333 79.2102 111.355 79.0789 111.408 78.9596C111.312 79.2102 111.568 78.6971 111.44 78.8999C111.472 78.8522 111.514 78.8045 111.546 78.7687C111.61 78.6971 111.504 78.7806 111.632 78.6851C112.026 78.3868 112.782 78.4464 113.251 78.7925C113.72 79.1386 113.538 80.0098 113.496 80.5946C113.443 81.3941 113.368 82.1937 113.219 82.9933C113.059 83.8406 112.825 84.6641 112.441 85.4278C112.122 86.0723 111.866 86.5974 111.248 86.8838C111.024 86.9912 110.779 87.0151 110.545 86.9793C110.407 86.9554 110.353 86.9315 110.247 86.8599C110.332 86.9196 110.066 86.6212 110.151 86.7644C110.108 86.7048 110.076 86.6332 110.044 86.5616C110.066 86.6093 110.098 86.7406 110.044 86.5258C110.012 86.3945 109.98 86.2632 109.959 86.12C109.895 85.7262 109.885 85.3085 109.874 84.9147C109.863 82.8262 110.534 80.8929 111.557 79.1863C111.877 78.6493 111.653 77.8617 111.174 77.5514C110.652 77.2053 110.034 77.444 109.714 77.981L109.735 77.9691Z" fill="#55092B"/>
<path d="M131.251 78.6016C138.271 78.7926 145.291 78.721 152.311 78.3868C153.674 78.3271 153.685 75.9403 152.311 76C145.291 76.3222 138.271 76.3938 131.251 76.2148C129.887 76.179 129.887 78.5658 131.251 78.6016Z" fill="#55092B"/>
<path d="M130.026 77.9094C130.888 82.5995 130.377 87.4447 130.963 92.1706C131.464 96.264 132.848 100.393 135.927 102.887C138.686 105.119 142.606 105.68 145.418 103.281C146.867 102.04 147.879 100.298 148.635 98.4479C149.456 96.4549 150.116 94.3903 150.67 92.2899C151.959 87.4328 152.694 82.3728 152.939 77.3127C153.014 75.7733 150.883 75.7852 150.809 77.3127C150.617 81.3942 150.063 85.4398 149.168 89.4019C148.721 91.3829 148.177 93.3521 147.528 95.2615C146.952 96.9561 146.303 98.7104 145.269 100.131C144.342 101.408 143.075 102.35 141.573 102.446C140.177 102.541 138.825 102.076 137.642 101.276C134.755 99.331 133.562 95.5479 133.083 91.9916C132.412 87.0986 132.976 82.1102 132.082 77.2411C131.805 75.7613 129.749 76.4058 130.026 77.9094Z" fill="#55092B"/>
<path d="M144.652 78.5777C143.118 81.0958 142.532 83.8406 142.947 86.5258C143.054 87.206 143.437 88.0414 144.481 88.1727C145.557 88.3159 146.409 87.5879 146.835 86.9315C148.241 84.7834 148.433 82.4085 148.582 80.0814C148.625 79.4608 148.657 78.8045 148.263 78.2316C147.869 77.6588 146.91 77.1934 145.962 77.3366C144.641 77.5275 144.279 78.6135 144.193 79.4966" fill="#55092B"/>
<path d="M143.735 77.9691C142.447 80.1172 141.669 82.6591 141.765 85.2608C141.807 86.3706 141.925 87.5282 142.617 88.3875C143.363 89.3183 144.63 89.557 145.674 89.2228C147.815 88.5426 148.881 85.7501 149.285 83.5303C149.498 82.3369 149.605 81.1077 149.669 79.8905C149.733 78.5538 149.296 77.3008 148.199 76.6444C147.102 75.988 145.632 75.8687 144.556 76.6205C143.64 77.265 143.256 78.3271 143.139 79.4847C143.075 80.1291 143.682 80.6781 144.204 80.6781C144.833 80.6781 145.206 80.1291 145.269 79.4847C145.248 79.7353 145.28 79.4131 145.301 79.3296C145.333 79.2102 145.355 79.0789 145.408 78.9596C145.312 79.2102 145.568 78.6971 145.44 78.8999C145.472 78.8522 145.514 78.8045 145.546 78.7687C145.61 78.6971 145.504 78.7806 145.632 78.6851C146.026 78.3868 146.782 78.4464 147.251 78.7925C147.72 79.1386 147.538 80.0098 147.496 80.5946C147.443 81.3941 147.368 82.1937 147.219 82.9933C147.059 83.8406 146.825 84.6641 146.441 85.4278C146.122 86.0723 145.866 86.5974 145.248 86.8838C145.024 86.9912 144.779 87.0151 144.545 86.9793C144.407 86.9554 144.353 86.9315 144.247 86.8599C144.332 86.9196 144.066 86.6212 144.151 86.7644C144.108 86.7048 144.076 86.6332 144.044 86.5616C144.066 86.6093 144.098 86.7406 144.044 86.5258C144.012 86.3945 143.98 86.2632 143.959 86.12C143.895 85.7262 143.885 85.3085 143.874 84.9147C143.863 82.8262 144.534 80.8929 145.557 79.1863C145.877 78.6493 145.653 77.8617 145.174 77.5514C144.652 77.2053 144.034 77.444 143.714 77.981L143.735 77.9691Z" fill="#55092B"/>
<path d="M120.944 103.21L118.263 107.983C117.974 108.508 118.094 109.344 118.695 109.618C120.078 110.251 121.557 110.442 123.06 110.119C123.553 110.012 123.974 109.463 123.938 108.974C123.854 107.434 123.77 105.883 123.685 104.343C123.649 103.723 123.156 103.114 122.483 103.15C121.858 103.174 121.245 103.675 121.281 104.343C121.365 105.883 121.449 107.434 121.533 108.974L122.411 107.828C122.411 107.828 122.291 107.852 122.23 107.864C122.23 107.864 121.93 107.912 122.122 107.888C122.291 107.864 122.086 107.888 122.062 107.888C121.99 107.888 121.918 107.888 121.834 107.9C121.557 107.912 121.293 107.9 121.028 107.876C120.836 107.864 121.064 107.852 121.076 107.876C121.076 107.864 120.92 107.852 120.896 107.84C120.764 107.816 120.631 107.78 120.499 107.744C120.367 107.709 120.234 107.673 120.114 107.625C120.042 107.601 119.97 107.577 119.898 107.542C120.162 107.661 119.741 107.482 119.898 107.542L120.331 109.177L123.012 104.403C123.325 103.854 123.168 103.078 122.579 102.768C121.99 102.458 121.257 102.613 120.932 103.198L120.944 103.21Z" fill="#55092B"/>
<path d="M118.01 120.335C116.302 119.941 115.004 119.094 113.645 118.055C112.118 116.898 110.543 115.836 108.763 115.084C106.984 114.332 104.892 113.89 102.884 114.284C101.068 114.642 99.4928 115.752 98.3746 117.172C95.8015 120.43 95.7654 124.619 96.2223 128.557C96.6191 131.947 97.076 135.419 98.6031 138.51C99.2764 139.859 100.214 141.112 101.405 142.043C102.92 143.224 104.699 143.761 106.599 143.928C108.848 144.119 111.156 143.893 113.405 143.809C115.653 143.725 117.998 143.642 120.282 143.558C122.567 143.475 124.767 143.403 127.004 143.308C128.795 143.224 130.671 143.093 132.379 142.496C135.793 141.303 137.886 138.272 137.525 134.656C137.092 130.395 133.93 127.364 130.238 125.514C128.242 124.512 126.114 123.796 124.01 123.044C122.94 122.662 121.858 122.268 120.824 121.791C119.946 121.385 119.128 120.896 118.262 120.466C116.88 119.786 115.665 121.839 117.048 122.531C118.431 123.223 119.862 124.011 121.365 124.607C123.144 125.311 124.972 125.896 126.751 126.588C129.697 127.734 132.872 129.393 134.375 132.305C135.673 134.811 135.433 138.188 132.799 139.716C131.525 140.456 130.01 140.718 128.555 140.837C126.691 141.005 124.815 141.016 122.952 141.088C118.767 141.243 114.571 141.398 110.387 141.554C107.164 141.673 103.822 141.768 101.657 139C99.9377 136.78 99.3365 133.808 98.9157 131.099C98.3866 127.71 97.7373 123.808 99.1081 120.538C99.7454 119.034 100.876 117.578 102.427 116.934C104.146 116.206 106.082 116.588 107.741 117.28C111.192 118.724 113.609 121.815 117.325 122.662C118.828 123.008 119.477 120.705 117.962 120.359L118.01 120.335Z" fill="#55092B"/>
<path d="M97.016 119.869C96.511 123.45 98.9879 127.125 102.619 127.865C106.25 128.605 108.872 126.135 110.327 123.187C111.144 121.54 111.661 119.738 111.673 117.9C111.685 116.361 109.281 116.361 109.268 117.9C109.256 119.44 108.812 120.92 108.09 122.28C107.417 123.557 106.455 124.87 105.084 125.431C104.591 125.634 103.99 125.693 103.341 125.586C102.547 125.455 101.79 125.085 101.164 124.571C99.9979 123.617 99.1082 122.041 99.3246 120.502C99.4088 119.869 99.1683 119.225 98.4829 119.034C97.9178 118.879 97.0881 119.225 97.004 119.869H97.016Z" fill="#55092B"/>
<path d="M110.122 118.151C108.186 121.612 107.886 126.206 110.832 129.214C112.118 130.526 113.922 131.398 115.786 131.386C117.541 131.374 118.864 130.467 119.886 129.106C120.908 127.746 121.545 126.027 122.327 124.476C122.615 123.903 122.483 123.187 121.894 122.841C121.365 122.531 120.535 122.686 120.246 123.271C119.669 124.44 119.176 125.657 118.527 126.791C118.226 127.316 117.926 127.794 117.541 128.199C117.445 128.295 117.349 128.39 117.253 128.486C117.144 128.581 117.192 128.557 117.024 128.653C116.735 128.832 116.687 128.856 116.435 128.927C115.353 129.214 114.006 128.736 113.092 128.032C111.95 127.149 111.253 125.836 111.072 124.428C110.844 122.674 111.349 120.884 112.202 119.356C112.948 118.008 110.88 116.802 110.122 118.151Z" fill="#55092B"/>
<path d="M121.665 123.426C119.765 125.216 117.745 127.209 117.108 129.822C116.591 131.959 117.276 134.489 119.032 135.897C120.607 137.162 122.783 137.21 124.443 136.064C125.91 135.049 126.86 133.51 127.845 132.078C128.363 131.326 128.747 130.765 129.421 130.133C129.733 129.834 129.841 129.751 130.286 129.5C130.491 129.381 130.972 129.261 131.164 129.25C132.703 129.154 132.715 126.767 131.164 126.863C127.737 127.089 126.222 130.467 124.467 132.71C124.262 132.973 124.034 133.235 123.793 133.474C123.673 133.593 123.565 133.701 123.445 133.808C123.228 134.011 123.373 133.904 123.12 134.059C122.988 134.142 122.856 134.226 122.723 134.298C122.699 134.31 122.519 134.393 122.699 134.321C122.627 134.345 122.555 134.381 122.483 134.393C122.338 134.441 122.182 134.477 122.026 134.5C122.218 134.465 122.026 134.5 121.99 134.5C121.858 134.5 121.713 134.512 121.581 134.5C120.066 134.345 119.296 132.472 119.332 131.111C119.393 128.653 121.701 126.648 123.349 125.096C124.479 124.034 122.771 122.352 121.653 123.414L121.665 123.426Z" fill="#55092B"/>
<path d="M122.555 135.24C122.351 137.412 122.711 139.596 122.495 141.768C122.435 142.389 123.096 142.986 123.697 142.962C124.395 142.926 124.84 142.437 124.9 141.768C125.104 139.596 124.743 137.412 124.96 135.24C125.02 134.62 124.359 134.023 123.757 134.047C123.06 134.083 122.615 134.572 122.555 135.24Z" fill="#55092B"/>
<path d="M118.298 130.001C115.677 128.223 112.142 129.452 109.689 130.932C108.487 131.66 107.429 132.496 106.671 133.689C105.914 134.882 105.505 136.231 105.312 137.591C105.108 139.095 105.168 140.658 105.697 142.091C105.926 142.699 106.515 143.105 107.176 142.926C107.765 142.771 108.246 142.067 108.018 141.458C107.164 139.143 107.585 135.897 109.352 134.131C110.302 133.176 111.817 132.364 113.164 131.911C114.511 131.457 115.906 131.266 117.072 132.066C117.613 132.436 118.407 132.161 118.719 131.636C119.068 131.052 118.827 130.371 118.286 130.001H118.298Z" fill="#55092B"/>
</g>
</g>
<defs>
<filter id="filter0_d_1011_6734" x="0" y="0" width="281.645" height="264.75" filterUnits="userSpaceOnUse" color-interpolation-filters="sRGB">
<feFlood flood-opacity="0" result="BackgroundImageFix"/>
<feColorMatrix in="SourceAlpha" type="matrix" values="0 0 0 0 0 0 0 0 0 0 0 0 0 0 0 0 0 0 127 0" result="hardAlpha"/>
<feOffset dx="-4" dy="4"/>
<feGaussianBlur stdDeviation="15"/>
<feComposite in2="hardAlpha" operator="out"/>
<feColorMatrix type="matrix" values="0 0 0 0 0.988932 0 0 0 0 0.293525 0 0 0 0 0.78031 0 0 0 0.15 0"/>
<feBlend mode="normal" in2="BackgroundImageFix" result="effect1_dropShadow_1011_6734"/>
<feBlend mode="normal" in="SourceGraphic" in2="effect1_dropShadow_1011_6734" result="shape"/>
</filter>
<linearGradient id="paint0_linear_1011_6734" x1="47.4495" y1="36.3684" x2="199.917" y2="173.308" gradientUnits="userSpaceOnUse">
<stop stop-color="#FF3FF5" stop-opacity="0.05"/>
<stop offset="1" stop-color="#FF7F83" stop-opacity="0.05"/>
</linearGradient>
<linearGradient id="paint1_linear_1011_6734" x1="61.3943" y1="37.8149" x2="196.847" y2="159.467" gradientUnits="userSpaceOnUse">
<stop stop-color="#FF3FF5" stop-opacity="0.1"/>
<stop offset="1" stop-color="#FF7F83" stop-opacity="0.1"/>
</linearGradient>
<linearGradient id="paint2_linear_1011_6734" x1="69.8813" y1="42.8625" x2="186.76" y2="147.83" gradientUnits="userSpaceOnUse">
<stop stop-color="#FF3FF5" stop-opacity="0.15"/>
<stop offset="1" stop-color="#FF7F83" stop-opacity="0.15"/>
</linearGradient>
<linearGradient id="paint3_linear_1011_6734" x1="74.1332" y1="48.7297" x2="174.961" y2="139.286" gradientUnits="userSpaceOnUse">
<stop stop-color="#FF3FF5" stop-opacity="0.2"/>
<stop offset="1" stop-color="#FF7F83" stop-opacity="0.2"/>
</linearGradient>
<linearGradient id="paint4_linear_1011_6734" x1="79.4777" y1="53.3754" x2="160.727" y2="126.354" gradientUnits="userSpaceOnUse">
<stop stop-color="#FF3FF5" stop-opacity="0.3"/>
<stop offset="1" stop-color="#FF7F83" stop-opacity="0.3"/>
</linearGradient>
<clipPath id="clip0_1011_6734">
<rect width="60" height="68" fill="white" transform="translate(93 76)"/>
</clipPath>
</defs>
</svg>
