<svg width="276" height="286" viewBox="0 0 276 286" fill="none" xmlns="http://www.w3.org/2000/svg">
<g filter="url(#filter0_d_1011_6799)">
<path d="M99.3746 26.7311C92.9262 28.0245 88.6274 31.84 89.2507 40.0963C90.9488 62.2567 113.883 72.4747 99.611 96.4028C84.436 121.861 52.0869 132.942 39.0614 159.801C17.4595 204.316 69.2824 252 113.69 252C143.545 252 172.455 236.91 196.164 220.419C218.625 204.791 247.127 186.963 249.814 157.516C251.555 138.525 240.764 122.293 231.393 106.534C221.312 89.5692 208.158 74.3501 192.66 61.8471C175.4 47.943 155.238 37.6604 133.83 31.3442C125.297 28.8221 111.97 24.2089 99.3746 26.7311Z" fill="url(#paint0_linear_1011_6799)"/>
<path d="M106.382 35.0736C100.858 36.173 97.182 39.4496 97.7194 46.5203C99.1595 65.4687 118.805 74.2208 106.575 94.6998C93.5924 116.494 65.9077 125.979 54.7521 148.958C36.267 187.049 80.6099 227.856 118.633 227.856C144.19 227.856 168.93 214.944 189.199 200.824C208.415 187.459 232.811 172.197 235.111 146.997C236.594 130.743 227.373 116.86 219.356 103.366C210.737 88.8579 199.474 75.816 186.212 65.1238C171.445 53.2244 154.185 44.4293 135.85 39.0185C128.542 36.8628 117.15 32.9179 106.36 35.0736H106.382Z" fill="url(#paint1_linear_1011_6799)"/>
<path d="M108.381 39.1479C103.974 40.0532 101.029 42.7478 101.459 48.5682C102.62 64.1969 123.448 73.1861 113.69 90.0867C103.308 108.044 81.2117 115.869 72.2915 134.817C57.5249 166.225 92.9476 199.876 123.319 199.876C143.739 199.876 163.492 189.227 179.699 177.586C195.046 166.57 214.541 153.981 216.368 133.2C217.55 119.792 210.199 108.345 203.773 97.222C196.873 85.2579 187.888 74.5011 177.291 65.7059C165.491 55.8975 151.713 48.6544 137.076 44.1706C131.229 42.3814 116.978 37.3586 108.359 39.1479H108.381Z" fill="url(#paint2_linear_1011_6799)"/>
<path d="M110.315 38.9538C100.987 38.3287 100.32 52.0604 107.07 58.5921C115.474 66.7406 129.467 70.1034 123.513 82.0459C117.064 94.98 105.071 105.564 97.0532 114.381C91.0348 121.021 83.4258 129.837 81.5773 138.934C79.8362 147.492 86.65 156.719 91.9161 162.884C99.7615 172.089 111.154 176.896 123.147 176.896C140.644 176.896 157.581 167.777 171.488 157.797C184.643 148.355 201.365 137.555 202.934 119.749C203.945 108.259 197.647 98.4507 192.144 88.901C186.233 78.6399 178.538 69.4352 169.446 61.8687C152.681 47.9215 131.917 40.3981 110.315 38.9323V38.9538Z" fill="url(#paint3_linear_1011_6799)"/>
<path d="M113.153 40.1394C105.63 39.6436 101.632 48.9346 107.07 54.1945C114.808 61.6747 131.982 71.6124 127.812 82.0459C119.214 103.603 104.168 112.031 99.8691 119.663C95.5702 127.294 95.5702 151.028 123.513 151.028C137.635 151.028 151.305 143.698 162.504 135.679C173.122 128.091 186.599 119.404 187.867 105.09C188.684 95.8423 183.59 87.9525 179.162 80.2998C174.39 72.0651 168.178 64.6496 160.849 58.5705C147.307 47.361 130.563 41.3035 113.153 40.1394Z" fill="url(#paint4_linear_1011_6799)"/>
<g clip-path="url(#clip0_1011_6799)">
<path d="M126.578 74.4121C124.631 75.1377 123.609 77.1827 122.569 78.8318C121.118 81.1406 120.013 83.6968 119.27 86.3189C118.066 90.5077 117.06 96.4447 119.551 100.386C120.689 102.2 122.619 103.239 124.78 103.008C127.254 102.761 129.151 101.095 130.537 99.1493C133.49 94.9934 134.958 89.6337 134.843 84.5543C134.793 81.9487 134.43 78.9967 132.748 76.9023C131.345 75.1542 128.838 73.8679 126.594 74.4121C125.044 74.7749 125.704 77.1662 127.254 76.8034C128.673 76.4735 130.389 77.7104 131.098 78.8648C132.137 80.5304 132.319 82.6578 132.352 84.5708C132.434 88.4958 131.494 92.4372 129.613 95.9004C128.739 97.5166 127.65 99.3142 125.935 100.155C124.219 100.996 122.322 100.485 121.431 98.7205C119.831 95.5706 120.59 91.1509 121.415 87.8856C121.992 85.5933 122.833 83.3669 123.988 81.289C124.45 80.4645 124.961 79.6729 125.473 78.8813C125.885 78.2216 126.446 77.1002 127.238 76.8034C128.723 76.2591 128.079 73.8679 126.578 74.4121Z" fill="#220341"/>
<path d="M151.553 86.6487C151.933 89.7656 152.395 92.8825 153.302 95.9004C153.962 98.0773 154.902 100.403 156.634 101.986C160.478 105.498 165.806 102.843 167.39 98.4071C168.396 95.5706 167.967 92.4867 167.522 89.6007C167.142 87.1435 166.647 84.6698 165.806 82.3115C164.305 78.1886 161.303 73.8184 156.585 73.2412C154.094 72.9443 151.636 74.1812 151.125 76.7868C150.844 78.1886 151.059 79.7058 151.125 81.1241C151.207 82.9711 151.372 84.8347 151.586 86.6652C151.768 88.2319 154.242 88.2484 154.061 86.6652C153.797 84.3399 153.665 82.0146 153.549 79.6728C153.467 77.8588 153.368 75.6984 155.743 75.6489C159.406 75.5665 162.029 79.409 163.216 82.4104C164.635 85.9726 165.46 90.2109 165.542 94.0369C165.592 96.2797 165.13 98.605 163.348 100.122C161.864 101.392 159.901 101.541 158.416 100.221C156.931 98.9019 156.205 96.8404 155.661 94.9934C154.853 92.2723 154.407 89.4523 154.077 86.6322C153.896 85.0655 151.421 85.0491 151.603 86.6322L151.553 86.6487Z" fill="#220341"/>
<path d="M127.947 84.7357C127.436 83.7132 126.199 83.8616 125.803 84.9501C125.044 86.9785 124.368 89.5842 125.275 90.953C125.984 92.0249 127.403 91.4642 128.046 90.6396C129.333 89.007 128.888 86.6157 127.947 84.7357Z" fill="#220341"/>
<path d="M129.02 84.109C128.607 83.3175 127.749 82.7567 126.842 82.8227C125.935 82.8887 125.143 83.4329 124.764 84.2575C124.401 85.0326 124.153 85.8736 123.955 86.6982C123.757 87.5228 123.609 88.3473 123.609 89.1884C123.609 90.854 124.45 92.833 126.397 92.7835C128.145 92.7341 129.449 91.2663 129.877 89.6667C130.389 87.8031 129.844 85.8077 129.02 84.1255C128.739 83.5483 127.865 83.3339 127.321 83.6803C126.727 84.0596 126.578 84.7522 126.875 85.3789C126.941 85.5108 127.024 85.6592 127.073 85.8077C127.073 85.7747 126.974 85.5603 127.073 85.7747C127.09 85.8406 127.123 85.8901 127.139 85.9561C127.255 86.2529 127.354 86.5663 127.436 86.8796C127.469 87.028 127.502 87.16 127.535 87.3084C127.535 87.3743 127.584 87.4733 127.584 87.5393C127.584 87.5063 127.551 87.2589 127.584 87.4898C127.617 87.7866 127.634 88.0835 127.617 88.3803C127.617 88.4628 127.617 88.5287 127.617 88.6112C127.617 88.7761 127.551 88.6442 127.617 88.5617C127.568 88.6277 127.551 88.8751 127.535 88.9575C127.502 89.0895 127.453 89.2214 127.42 89.3533C127.337 89.5842 127.436 89.3368 127.436 89.3038C127.436 89.3698 127.354 89.4853 127.321 89.5512C127.255 89.6667 127.172 89.8646 127.073 89.947C127.073 89.947 127.255 89.7491 127.123 89.881C127.09 89.914 127.057 89.947 127.024 89.9965C126.974 90.046 126.925 90.0789 126.875 90.1284C126.776 90.2439 127.123 89.9635 126.908 90.0954C126.875 90.1119 126.578 90.2604 126.578 90.2933C126.578 90.2274 126.826 90.2109 126.661 90.2604C126.595 90.2768 126.545 90.2933 126.479 90.3098C126.314 90.3758 126.347 90.2439 126.545 90.3098C126.512 90.3098 126.43 90.3098 126.397 90.3098C126.364 90.3098 126.281 90.3098 126.248 90.3098C126.446 90.2604 126.496 90.3593 126.331 90.3098C126.182 90.2604 126.611 90.4747 126.397 90.3428C126.562 90.5407 126.199 90.2109 126.397 90.3428C126.38 90.3263 126.281 90.2439 126.281 90.2274C126.281 90.2274 126.43 90.4747 126.331 90.2768C126.314 90.2439 126.281 90.1944 126.265 90.1449C126.133 89.9305 126.314 90.3593 126.281 90.1944C126.248 90.0789 126.199 89.98 126.182 89.8646C126.182 89.8151 126.166 89.7656 126.149 89.7161C126.116 89.7161 126.083 89.4193 126.149 89.7161C126.083 89.6996 126.133 88.9905 126.133 88.9245C126.133 88.7596 126.149 88.6112 126.166 88.4628C126.166 88.3309 126.116 88.3473 126.166 88.5123C126.166 88.4463 126.199 88.2814 126.215 88.2154C126.331 87.5887 126.496 86.9621 126.694 86.3519C126.793 86.0385 126.908 85.7252 127.024 85.4119C127.106 85.148 127.007 85.4613 127.007 85.4613C126.991 85.4448 127.139 85.2799 127.123 85.247C127.123 85.2634 126.925 85.4778 127.09 85.2964C127.271 85.0985 126.974 85.3789 127.057 85.3129C127.205 85.214 127.172 85.3294 126.974 85.3294C127.024 85.3294 127.123 85.2964 127.156 85.2799C127.156 85.2799 126.826 85.3294 127.024 85.3129C127.255 85.3129 126.727 85.247 126.941 85.3129C127.123 85.3624 126.842 85.2799 126.826 85.2634C126.859 85.2799 126.908 85.3129 126.941 85.3294L126.809 85.214L126.859 85.2634C126.793 85.181 126.793 85.181 126.859 85.2634C126.892 85.3129 126.908 85.3624 126.941 85.4119C127.238 85.9891 128.096 86.2035 128.64 85.8571C129.218 85.4778 129.416 84.7852 129.086 84.1585L129.02 84.109Z" fill="#220341"/>
<path d="M158.218 84.8512C158.251 86.7477 158.63 88.6442 159.356 90.4088C159.554 90.92 159.9 91.4807 160.445 91.4972C161.204 91.5137 161.501 90.5077 161.517 89.7491C161.534 88.1989 161.451 86.6322 161.237 85.0985C161.105 84.175 160.775 83.0701 159.867 82.8722C159.373 82.7568 158.812 83.0206 158.564 83.4494C158.317 83.8782 158.399 84.4884 158.746 84.8677" fill="#220341"/>
<path d="M156.981 84.8512C157.03 86.7477 157.36 88.6607 158.053 90.4418C158.399 91.3323 158.845 92.3218 159.851 92.6351C160.857 92.9485 161.748 92.5197 162.259 91.6786C162.672 91.0025 162.754 90.1944 162.754 89.4193C162.754 88.4133 162.721 87.4238 162.622 86.4179C162.474 84.8347 162.358 82.7238 160.742 81.8827C159.752 81.3715 158.465 81.6024 157.756 82.4764C156.948 83.4659 157.063 84.8017 157.888 85.7417C158.333 86.2529 159.191 86.187 159.636 85.7417C160.131 85.247 160.082 84.5048 159.636 83.9936C159.702 84.0926 159.702 84.0761 159.636 83.9606C159.686 84.0101 159.686 84.0761 159.686 84.142C159.686 83.9936 159.686 83.9936 159.653 84.1255C159.686 83.9936 159.686 83.9771 159.653 84.0926C159.571 84.175 159.571 84.175 159.669 84.0761C159.571 84.142 159.587 84.142 159.702 84.0761C159.587 84.1255 159.603 84.1255 159.735 84.0761C159.669 84.1091 159.603 84.1091 159.538 84.0761C159.686 84.1091 159.669 84.1255 159.538 84.0761C159.653 84.1585 159.653 84.142 159.538 84.0596C159.587 84.1091 159.636 84.1585 159.686 84.208C159.603 84.1091 159.603 84.0926 159.686 84.208C159.719 84.274 159.752 84.3399 159.785 84.4059C159.735 84.2905 159.735 84.2905 159.785 84.4224C159.818 84.5378 159.851 84.6533 159.884 84.7522C160.065 85.4284 160.098 86.121 160.164 86.9291C160.23 87.7866 160.263 88.6442 160.247 89.5182C160.247 89.6667 160.247 89.8151 160.247 89.98C160.247 90.1284 160.247 90.1119 160.247 89.98C160.247 90.046 160.214 90.1284 160.197 90.1944C160.181 90.2604 160.164 90.3263 160.131 90.3923C160.197 90.2604 160.197 90.2604 160.131 90.3923C160.049 90.5077 160.065 90.5077 160.164 90.3923C160.065 90.4912 160.082 90.4912 160.214 90.3923C160.379 90.3428 160.395 90.3263 160.263 90.3758C160.346 90.3428 160.428 90.3428 160.511 90.3593C160.577 90.3593 160.643 90.3923 160.692 90.4418C160.593 90.3428 160.593 90.3263 160.659 90.4253C160.445 90.1119 160.428 89.9965 160.313 89.6667C159.752 88.1165 159.455 86.5663 159.422 84.9501C159.422 84.274 158.861 83.7133 158.185 83.7133C157.508 83.7133 156.931 84.274 156.948 84.9501L156.981 84.8512Z" fill="#220341"/>
<path d="M131.544 64.2204C128.921 63.6432 126.199 63.6596 123.592 64.3193C122.487 64.5997 121.316 65.0449 120.739 66.1004C120.062 67.3207 120.739 68.6895 121.893 69.2832C123.048 69.8769 124.401 70.1408 125.638 70.4211C126.875 70.7015 128.228 70.9489 129.514 71.0478C131.626 71.1962 134.232 70.4541 134.612 68.0464C134.777 66.9909 134.529 65.8365 133.721 65.0779C133.49 64.8635 133.243 64.7151 132.962 64.5997C132.847 64.5502 132.731 64.5007 132.599 64.4842C132.434 64.4512 131.873 64.3358 132.352 64.4512C132.088 64.3853 131.807 64.3028 131.544 64.2368C130.009 63.8246 129.35 66.2158 130.884 66.6281L131.395 66.76C131.478 66.7765 131.577 66.8095 131.676 66.826H131.708L132.038 66.8755C131.923 66.8425 131.906 66.8425 131.989 66.8755C132.121 66.9085 131.972 66.859 131.939 66.8425C131.989 66.8755 132.104 66.9744 131.939 66.826C132.005 66.892 132.137 67.0569 132.022 66.892C132.055 66.9414 132.104 67.0239 132.121 67.0899C132.121 67.0734 132.055 66.9249 132.104 67.0569C132.121 67.1228 132.137 67.2053 132.154 67.2878C132.187 67.4692 132.154 67.1064 132.154 67.3043C132.154 67.3702 132.154 67.7165 132.154 67.5021C132.154 67.5846 132.071 67.865 132.088 67.8155C132.022 67.9969 131.972 68.0464 131.758 68.2113C131.197 68.5906 130.471 68.6236 129.811 68.6071C127.931 68.5411 126.001 68.0629 124.186 67.5351C123.823 67.4362 123.411 67.3372 123.097 67.1888C123.048 67.1558 122.834 67.0404 122.85 67.0404C122.9 67.0074 122.85 67.4197 122.85 67.4032C122.784 67.3372 123.229 67.0899 123.378 67.0239C123.675 66.892 124.153 66.793 124.533 66.6941C126.611 66.2158 128.789 66.2158 130.867 66.6611C131.527 66.8095 132.203 66.4632 132.385 65.8035C132.55 65.1933 132.17 64.4182 131.527 64.2863L131.544 64.2204Z" fill="#220341"/>
<path d="M156.816 63.2474C154.803 63.6926 152.576 63.4453 150.811 64.6821C149.937 65.2923 149.194 66.2323 149.194 67.3537C149.194 68.4751 149.887 69.5306 150.893 70.0418C151.9 70.5531 153.038 70.6025 154.11 70.6355C155.281 70.6685 156.469 70.5366 157.624 70.2727C159.438 69.8604 161.814 68.9534 162.243 66.8755C162.507 65.5891 161.913 64.3853 160.857 63.6431C159.636 62.7691 158.185 62.934 156.799 63.2474C156.139 63.3958 155.76 64.1544 155.941 64.7646C156.123 65.4407 156.816 65.7705 157.459 65.6221C158.102 65.4737 158.878 65.3088 159.422 65.6386C159.587 65.7376 159.702 65.853 159.818 66.0674C159.851 66.1334 159.867 66.1993 159.801 66.3642C159.801 66.3642 159.768 66.4467 159.669 66.5951C159.735 66.4962 159.554 66.7271 159.521 66.76C159.323 66.9579 159.142 67.0734 158.845 67.2383C158.284 67.5516 157.574 67.733 156.865 67.8815C155.446 68.1948 153.698 68.2937 152.395 67.9474C152.164 67.8815 151.982 67.832 151.85 67.7165C151.801 67.6671 151.768 67.6671 151.718 67.5516C151.669 67.4362 151.652 67.4032 151.652 67.3537C151.652 67.3537 151.652 67.2713 151.685 67.2383C151.735 67.1064 151.768 67.0899 151.817 67.0404C152.015 66.793 152.23 66.6611 152.527 66.5127C153.17 66.1663 153.962 66.0839 154.671 66.0014C155.611 65.9025 156.535 65.82 157.459 65.6056C158.119 65.4572 158.498 64.6986 158.317 64.0884C158.135 63.4123 157.442 63.0824 156.799 63.2309L156.816 63.2474Z" fill="#220341"/>
<path d="M140.402 100.65C140.138 102.596 139.89 104.542 139.627 106.504L139.231 109.423C139.198 109.72 139.115 110.017 139.198 110.297C139.297 110.66 139.561 110.891 139.857 111.106C140.187 111.336 140.567 111.501 140.946 111.6C142.447 111.98 144.18 111.419 145.186 110.231C146.357 108.846 146.571 106.95 146.159 105.235C145.681 103.256 144.344 101.639 143.058 100.122C142.629 99.611 141.755 99.6769 141.309 100.122C140.798 100.633 140.88 101.359 141.309 101.87C142.629 103.437 144.081 105.235 143.866 107.296C143.833 107.576 143.701 108.038 143.503 108.351C143.503 108.351 143.256 108.698 143.388 108.533C143.322 108.615 143.256 108.681 143.173 108.747C143.124 108.797 142.959 108.929 143.091 108.83C142.992 108.896 142.893 108.962 142.777 109.028C142.513 109.176 142.167 109.258 141.903 109.258C141.87 109.258 141.557 109.242 141.722 109.258C141.887 109.275 141.573 109.225 141.54 109.209C141.276 109.16 141.623 109.291 141.408 109.16C141.375 109.143 141.095 108.962 141.26 109.094L141.623 109.968C142.035 106.867 142.447 103.75 142.86 100.65C142.942 99.9903 142.233 99.4131 141.623 99.4131C140.88 99.4131 140.468 99.9903 140.385 100.65H140.402Z" fill="#220341"/>
<path d="M139.511 119.483C135.569 119.186 132.022 118.922 128.31 120.605C125.292 121.973 122.735 124.299 121.036 127.135C117.984 132.215 117.703 139.933 124.615 141.714C128.442 142.703 132.665 142.819 136.591 142.951C140.518 143.082 144.675 143.082 148.617 142.39C151.586 141.862 154.622 140.724 156.552 138.283C158.366 136.008 158.746 133.006 158.02 130.236C157.146 126.855 154.836 124.266 151.966 122.386C148.056 119.83 144.048 119.698 139.511 119.483C137.911 119.417 137.928 121.891 139.511 121.957C142.761 122.105 145.945 121.99 148.931 123.474C151.356 124.694 153.599 126.426 154.853 128.883C155.958 131.044 156.354 133.748 155.133 135.958C153.83 138.283 151.191 139.322 148.716 139.85C142.613 141.136 135.849 140.642 129.696 139.982C127.057 139.702 123.213 139.652 121.877 136.882C120.772 134.589 121.514 131.67 122.553 129.51C123.873 126.789 126.067 124.497 128.756 123.128C132.269 121.33 135.717 121.677 139.511 121.957C141.095 122.072 141.095 119.599 139.511 119.483Z" fill="#220341"/>
<path d="M125.094 123.309C124.863 124.53 124.764 125.783 124.83 127.02C124.896 128.257 125.044 129.79 126.446 130.285C127.733 130.73 128.871 129.708 129.597 128.784C130.257 127.943 130.818 127.053 131.247 126.063C131.758 124.859 132.071 123.639 132.203 122.353C132.269 121.71 131.593 121.083 130.966 121.116C130.24 121.149 129.795 121.66 129.729 122.353C129.729 122.419 129.729 122.501 129.713 122.567C129.724 122.468 129.724 122.468 129.713 122.567C129.696 122.699 129.663 122.814 129.647 122.946C129.597 123.194 129.548 123.458 129.482 123.705C129.416 123.969 129.333 124.233 129.234 124.497C129.201 124.596 129.152 124.711 129.119 124.81C129.086 124.876 129.069 124.942 129.036 125.008C129.086 124.892 129.086 124.876 129.036 125.008C128.822 125.47 128.591 125.931 128.31 126.377C128.178 126.591 128.03 126.805 127.881 127.02C127.716 127.251 127.964 126.921 127.799 127.119C127.7 127.234 127.617 127.35 127.519 127.465C127.436 127.564 127.354 127.646 127.271 127.729C127.238 127.762 127.189 127.795 127.156 127.844C127.271 127.762 127.271 127.762 127.156 127.844C127.09 127.877 127.04 127.91 126.974 127.943C127.106 127.894 127.123 127.877 127.04 127.91C126.941 127.927 126.974 127.927 127.139 127.91C126.991 127.91 127.007 127.91 127.189 127.91C127.271 127.927 127.354 127.96 127.42 128.026C127.519 128.158 127.535 128.174 127.453 128.059C127.535 128.24 127.486 128.141 127.453 128.009C127.453 127.96 127.37 127.564 127.42 127.844C127.42 127.712 127.387 127.597 127.37 127.465C127.321 126.871 127.304 126.261 127.321 125.668C127.321 125.371 127.354 125.074 127.387 124.777C127.387 124.695 127.403 124.612 127.42 124.53C127.42 124.645 127.42 124.629 127.42 124.48C127.453 124.315 127.469 124.15 127.502 123.969C127.617 123.342 127.321 122.6 126.644 122.452C126.034 122.32 125.242 122.633 125.127 123.309H125.094Z" fill="#220341"/>
<path d="M130.207 122.336C130.24 122.501 130.273 122.65 130.306 122.814C130.306 122.847 130.322 123.062 130.306 122.847C130.306 122.93 130.322 123.012 130.322 123.095C130.355 123.425 130.355 123.754 130.355 124.084C130.355 124.826 130.388 125.552 130.504 126.278C130.685 127.416 131.263 128.553 132.187 129.263C133.242 130.071 134.661 130.219 135.816 129.526C136.888 128.9 137.614 127.745 137.944 126.574C138.158 125.832 138.224 125.057 138.307 124.299C138.307 124.299 138.34 124.101 138.307 124.233C138.29 124.381 138.323 124.068 138.34 124.051C138.373 123.87 138.406 123.705 138.439 123.524C138.472 123.342 138.521 123.177 138.571 123.012C138.587 122.93 138.62 122.864 138.637 122.781C138.637 122.732 138.785 122.435 138.686 122.633C138.95 122.039 138.884 121.281 138.241 120.934C137.696 120.654 136.822 120.753 136.542 121.38C136.278 121.957 136.096 122.518 135.981 123.144C135.915 123.491 135.882 123.837 135.832 124.183C135.816 124.315 135.799 124.464 135.783 124.596C135.783 124.661 135.783 124.711 135.766 124.777C135.766 124.876 135.75 124.942 135.766 124.81C135.684 125.338 135.585 125.832 135.403 126.344C135.354 126.476 135.42 126.278 135.436 126.278C135.403 126.327 135.387 126.393 135.354 126.459C135.304 126.542 135.255 126.624 135.205 126.723C135.139 126.822 135.073 126.904 135.024 127.003C134.958 127.119 135.057 126.954 135.073 126.937C135.024 127.003 134.974 127.053 134.908 127.119C134.826 127.201 134.743 127.267 134.677 127.35C134.677 127.35 134.859 127.218 134.743 127.3C134.71 127.317 134.661 127.35 134.628 127.383C134.595 127.399 134.298 127.564 134.463 127.482C134.628 127.399 134.463 127.482 134.397 127.482C134.348 127.482 134.282 127.498 134.232 127.531C134.084 127.597 134.463 127.531 134.298 127.531C134.249 127.531 134.199 127.531 134.166 127.531C134.133 127.531 134.067 127.531 134.034 127.531C133.869 127.531 134.232 127.613 134.1 127.531C134.067 127.531 134.001 127.498 133.968 127.498C133.853 127.482 133.853 127.531 134.018 127.531C133.935 127.531 133.82 127.416 133.754 127.383C133.704 127.35 133.589 127.234 133.704 127.35C133.82 127.465 133.704 127.35 133.704 127.333C133.638 127.251 133.556 127.185 133.49 127.102C133.391 127.003 133.523 127.168 133.539 127.168C133.506 127.119 133.473 127.069 133.424 127.02C133.358 126.921 133.292 126.805 133.226 126.69C133.176 126.607 133.143 126.525 133.094 126.426C133.226 126.69 133.094 126.393 133.061 126.327C132.995 126.096 132.929 125.865 132.896 125.634C132.896 125.667 132.896 125.799 132.896 125.651C132.896 125.552 132.879 125.437 132.863 125.338C132.863 125.173 132.846 125.008 132.846 124.843C132.846 124.53 132.846 124.216 132.83 123.903C132.813 123.161 132.747 122.402 132.566 121.677C132.401 121.05 131.675 120.605 131.048 120.819C130.421 121.033 130.009 121.66 130.191 122.336H130.207Z" fill="#220341"/>
<path d="M136.855 122.468C136.921 122.6 136.987 122.732 137.053 122.864C136.954 122.65 137.086 122.963 137.102 123.029C137.201 123.326 137.267 123.623 137.333 123.936C137.432 124.48 137.498 125.041 137.597 125.585C137.812 126.706 138.241 127.927 139.148 128.685C140.055 129.444 141.358 129.856 142.513 129.395C143.173 129.131 143.717 128.669 144.031 128.009C144.295 127.465 144.427 126.904 144.542 126.311C144.839 124.859 145.136 123.425 145.433 121.973C145.565 121.347 145.251 120.605 144.575 120.456C143.965 120.308 143.189 120.638 143.058 121.314C142.827 122.452 142.596 123.59 142.348 124.727C142.233 125.255 142.134 125.799 142.018 126.327C142.002 126.426 141.969 126.509 141.952 126.608C141.936 126.673 141.919 126.723 141.886 126.789C141.886 126.822 141.804 126.954 141.886 126.822C141.952 126.673 141.804 126.97 141.771 127.003C141.738 127.053 141.655 127.119 141.771 127.02C141.886 126.921 141.738 127.02 141.705 127.069C141.589 127.201 141.886 126.921 141.754 127.02L141.655 127.086C141.655 127.086 141.903 127.02 141.771 127.036C141.721 127.036 141.672 127.069 141.606 127.086L141.49 127.119C141.49 127.086 141.754 127.119 141.606 127.102C141.556 127.102 141.193 127.069 141.391 127.102C141.589 127.135 141.276 127.069 141.226 127.053C141.177 127.053 141.144 127.02 141.094 127.02C140.929 126.97 141.292 127.135 141.144 127.036C141.061 126.987 140.995 126.954 140.913 126.904C140.88 126.888 140.715 126.772 140.864 126.871C141.012 126.97 140.864 126.871 140.831 126.822C140.748 126.739 140.682 126.657 140.6 126.591C140.748 126.739 140.616 126.608 140.567 126.525C140.501 126.426 140.451 126.327 140.402 126.228C140.385 126.179 140.352 126.146 140.336 126.096C140.204 125.816 140.385 126.245 140.336 126.08C140.204 125.635 140.072 125.189 139.989 124.727C139.775 123.507 139.643 122.32 139.032 121.231C138.719 120.671 137.894 120.423 137.333 120.786C136.772 121.149 136.558 121.874 136.888 122.485L136.855 122.468Z" fill="#220341"/>
<path d="M143.454 122.353C143.503 122.485 143.536 122.617 143.569 122.765C143.569 122.831 143.635 123.194 143.602 122.979C143.635 123.276 143.635 123.59 143.635 123.886C143.635 124.464 143.569 125.041 143.569 125.602C143.569 126.624 143.75 127.729 144.311 128.603C144.955 129.609 146.076 130.302 147.314 130.219C148.551 130.137 149.64 129.51 150.365 128.57C151.19 127.498 151.553 126.212 151.85 124.909C151.999 124.282 151.652 123.54 150.992 123.392C150.365 123.243 149.623 123.573 149.475 124.249C149.343 124.843 149.211 125.437 148.996 126.014C148.996 126.063 148.798 126.476 148.914 126.245C148.848 126.377 148.782 126.509 148.716 126.64C148.65 126.772 148.567 126.888 148.468 127.02C148.386 127.135 148.386 127.135 148.468 127.02C148.419 127.069 148.386 127.119 148.336 127.168C148.237 127.267 148.155 127.35 148.039 127.432C148.27 127.234 147.941 127.498 147.891 127.515C147.842 127.547 147.446 127.712 147.743 127.613C147.627 127.663 147.495 127.696 147.38 127.729C147.314 127.729 147.248 127.762 147.198 127.762C147.363 127.745 147.38 127.729 147.248 127.745C147.182 127.745 147.116 127.745 147.066 127.745C146.918 127.745 146.934 127.745 147.116 127.745C147.05 127.778 146.654 127.58 146.951 127.729C146.868 127.679 146.769 127.597 146.67 127.58C146.588 127.531 146.621 127.547 146.753 127.646C146.703 127.613 146.67 127.564 146.621 127.531C146.571 127.482 146.538 127.449 146.505 127.399C146.604 127.531 146.621 127.547 146.538 127.432C146.472 127.333 146.406 127.234 146.357 127.119C146.324 127.069 146.307 127.003 146.274 126.954C146.34 127.102 146.34 127.119 146.291 126.987C146.225 126.739 146.159 126.509 146.109 126.261C146.093 126.113 146.093 126.129 146.109 126.311C146.109 126.245 146.109 126.179 146.093 126.129C146.093 125.997 146.093 125.882 146.076 125.75C146.06 124.381 146.307 123.029 145.878 121.693C145.681 121.083 145.021 120.621 144.361 120.835C143.75 121.033 143.289 121.693 143.503 122.353H143.454Z" fill="#220341"/>
<path d="M127.155 140.345C127.155 140.147 127.155 139.933 127.155 139.735C127.155 139.57 127.221 139.355 127.205 139.19C127.172 139.388 127.172 139.421 127.205 139.289C127.205 139.24 127.221 139.19 127.238 139.141C127.254 139.042 127.287 138.943 127.304 138.844C127.32 138.762 127.353 138.679 127.386 138.597C127.485 138.316 127.271 138.795 127.386 138.597C127.436 138.514 127.485 138.432 127.535 138.349C127.617 138.25 127.584 138.267 127.469 138.432C127.502 138.399 127.535 138.366 127.568 138.333C127.617 138.283 127.683 138.234 127.733 138.185C127.584 138.3 127.551 138.316 127.667 138.25C127.716 138.217 127.749 138.201 127.799 138.185C127.914 138.135 127.881 138.135 127.7 138.217C127.749 138.201 127.799 138.185 127.832 138.168C127.881 138.168 128.178 138.069 127.947 138.135C127.733 138.185 128.013 138.135 128.079 138.135C128.129 138.135 128.178 138.135 128.228 138.135C128.03 138.102 127.98 138.102 128.112 138.135C128.211 138.152 128.31 138.185 128.409 138.201C128.459 138.201 128.574 138.283 128.623 138.283C128.442 138.201 128.409 138.201 128.541 138.25C128.59 138.267 128.64 138.3 128.673 138.316C128.755 138.366 128.854 138.432 128.937 138.481C129.036 138.564 129.019 138.547 128.871 138.432C128.904 138.465 128.953 138.498 128.986 138.531C129.036 138.58 129.102 138.63 129.151 138.696C129.184 138.729 129.217 138.778 129.25 138.828C129.151 138.696 129.135 138.679 129.217 138.795C129.283 138.894 129.349 138.993 129.415 139.092C129.514 139.256 129.63 139.454 129.696 139.636C129.58 139.306 129.696 139.685 129.729 139.751C129.762 139.867 129.811 139.982 129.844 140.098C129.976 140.526 130.075 140.955 130.174 141.4C130.323 142.027 131.081 142.456 131.692 142.258C132.352 142.044 132.715 141.417 132.55 140.741C132.154 139.009 131.576 137.096 129.894 136.189C129.069 135.744 128.096 135.546 127.172 135.793C126.248 136.041 125.506 136.766 125.143 137.64C124.78 138.514 124.714 139.421 124.714 140.345C124.714 140.988 125.291 141.615 125.951 141.582C126.611 141.549 127.188 141.038 127.188 140.345H127.155Z" fill="#220341"/>
<path d="M133.243 141.384C133.177 140.741 133.127 140.081 133.226 139.421L133.177 139.751C133.226 139.471 133.292 139.19 133.391 138.91L133.259 139.207C133.309 139.075 133.375 138.943 133.457 138.828C133.49 138.778 133.523 138.729 133.556 138.679C133.342 138.993 133.474 138.795 133.54 138.712C133.589 138.663 133.639 138.613 133.688 138.564L133.738 138.531C133.836 138.448 133.803 138.481 133.622 138.613C133.738 138.547 133.853 138.465 133.985 138.415L133.688 138.547C133.836 138.481 133.985 138.448 134.133 138.415L133.803 138.465C133.935 138.465 134.084 138.465 134.216 138.465L133.886 138.415C134.018 138.432 134.15 138.481 134.282 138.531L133.985 138.399C134.1 138.448 134.216 138.514 134.315 138.58C134.397 138.63 134.348 138.597 134.183 138.481C134.216 138.514 134.249 138.531 134.265 138.564C134.315 138.597 134.348 138.646 134.397 138.696C134.48 138.795 134.513 138.91 134.364 138.63C134.397 138.679 134.43 138.729 134.463 138.778C134.546 138.894 134.595 139.026 134.661 139.157L134.529 138.861C134.645 139.125 134.694 139.405 134.744 139.685L134.694 139.355C134.76 139.916 134.744 140.46 134.694 141.021C134.661 141.664 135.288 142.291 135.932 142.258C136.641 142.225 137.136 141.714 137.169 141.021C137.218 140.147 137.251 139.223 136.971 138.366C136.69 137.508 136.146 136.733 135.354 136.321C134.463 135.843 133.441 135.859 132.55 136.354C131.741 136.799 131.181 137.591 130.884 138.448C130.57 139.388 130.62 140.411 130.702 141.384C130.735 141.714 130.818 142.011 131.065 142.258C131.28 142.472 131.626 142.637 131.939 142.621C132.566 142.588 133.243 142.076 133.177 141.384H133.243Z" fill="#220341"/>
<path d="M137.696 141.994L139.263 139.933L140.022 138.927C140.088 138.828 140.171 138.729 140.237 138.646C140.154 138.745 140.138 138.778 140.237 138.646C140.27 138.613 140.352 138.498 140.402 138.481C140.286 138.564 140.253 138.597 140.336 138.547C140.418 138.498 140.385 138.514 140.237 138.58C140.171 138.597 139.857 138.564 139.973 138.58C140.105 138.613 139.791 138.465 139.973 138.58C139.742 138.399 139.973 138.58 140.022 138.63C140.072 138.679 140.138 138.745 140.187 138.811C140.253 138.894 140.319 138.976 140.22 138.844C140.286 138.927 140.352 139.009 140.402 139.092C140.501 139.24 140.6 139.372 140.682 139.52C140.88 139.85 141.062 140.18 141.227 140.526C141.326 140.741 141.194 140.427 141.243 140.559C141.276 140.642 141.309 140.724 141.342 140.807C141.408 141.005 141.474 141.202 141.54 141.4C141.721 142.027 142.414 142.472 143.058 142.258C143.701 142.044 144.113 141.4 143.915 140.741C143.635 139.817 143.239 138.91 142.711 138.102C142.117 137.195 141.309 136.074 140.088 136.107C138.785 136.14 138.125 137.327 137.432 138.234L135.535 140.724C135.139 141.235 135.436 142.126 135.981 142.423C136.641 142.769 137.251 142.538 137.68 141.978L137.696 141.994Z" fill="#220341"/>
<path d="M144.774 141.417C144.757 141.235 144.741 141.054 144.757 140.873C144.757 140.807 144.757 140.757 144.757 140.691V140.84C144.757 140.84 144.774 140.642 144.79 140.576C144.807 140.493 144.84 140.394 144.873 140.312C144.889 140.246 144.906 140.196 144.939 140.13L144.889 140.262C144.922 140.098 145.071 139.916 145.153 139.768C145.202 139.702 145.252 139.603 145.318 139.537C145.104 139.751 145.318 139.553 145.367 139.504C145.483 139.388 145.615 139.207 145.763 139.125C145.499 139.256 145.747 139.141 145.813 139.108C145.895 139.059 145.961 139.009 146.044 138.976C146.093 138.943 146.159 138.927 146.209 138.894L146.077 138.943C146.077 138.943 146.291 138.861 146.374 138.844C146.456 138.828 146.555 138.811 146.638 138.778C146.737 138.762 146.704 138.778 146.539 138.778C146.588 138.778 146.621 138.778 146.671 138.778C146.852 138.778 147.034 138.778 147.215 138.778C147.314 138.778 147.281 138.778 147.116 138.762C147.166 138.762 147.199 138.762 147.248 138.778C147.33 138.795 147.429 138.811 147.512 138.844C147.594 138.877 147.693 138.894 147.776 138.927C147.825 138.927 147.858 138.96 147.908 138.976C147.759 138.91 147.743 138.894 147.825 138.943C147.99 139.026 148.155 139.108 148.304 139.207C148.337 139.223 148.584 139.405 148.436 139.289C148.287 139.174 148.518 139.372 148.551 139.388C148.617 139.454 148.683 139.52 148.749 139.586C148.782 139.619 148.964 139.85 148.848 139.702C148.733 139.553 148.914 139.801 148.931 139.834C148.98 139.916 149.03 140.015 149.079 140.114C149.376 140.691 150.234 140.906 150.778 140.559C151.372 140.18 151.537 139.487 151.224 138.861C150.25 136.931 147.825 135.876 145.747 136.469C143.668 137.063 142.085 139.256 142.332 141.45C142.398 142.093 142.844 142.72 143.569 142.687C144.18 142.654 144.889 142.142 144.807 141.45L144.774 141.417Z" fill="#220341"/>
</g>
</g>
<defs>
<filter id="filter0_d_1011_6799" x="0" y="0" width="276" height="286" filterUnits="userSpaceOnUse" color-interpolation-filters="sRGB">
<feFlood flood-opacity="0" result="BackgroundImageFix"/>
<feColorMatrix in="SourceAlpha" type="matrix" values="0 0 0 0 0 0 0 0 0 0 0 0 0 0 0 0 0 0 127 0" result="hardAlpha"/>
<feOffset dx="-4" dy="4"/>
<feGaussianBlur stdDeviation="15"/>
<feComposite in2="hardAlpha" operator="out"/>
<feColorMatrix type="matrix" values="0 0 0 0 0.890086 0 0 0 0 0.717625 0 0 0 0 0.958268 0 0 0 0.15 0"/>
<feBlend mode="normal" in2="BackgroundImageFix" result="effect1_dropShadow_1011_6799"/>
<feBlend mode="normal" in="SourceGraphic" in2="effect1_dropShadow_1011_6799" result="shape"/>
</filter>
<linearGradient id="paint0_linear_1011_6799" x1="32.5056" y1="79.0926" x2="206.714" y2="203.148" gradientUnits="userSpaceOnUse">
<stop stop-color="#DF7EF2" stop-opacity="0.05"/>
<stop offset="0.99" stop-color="#581D8F" stop-opacity="0.05"/>
</linearGradient>
<linearGradient id="paint1_linear_1011_6799" x1="49.1421" y1="79.8903" x2="198.218" y2="186.058" gradientUnits="userSpaceOnUse">
<stop stop-color="#DF7EF2" stop-opacity="0.1"/>
<stop offset="0.99" stop-color="#581D8F" stop-opacity="0.1"/>
</linearGradient>
<linearGradient id="paint2_linear_1011_6799" x1="61.8238" y1="75.04" x2="186.886" y2="164.114" gradientUnits="userSpaceOnUse">
<stop stop-color="#DF7EF2" stop-opacity="0.15"/>
<stop offset="0.99" stop-color="#581D8F" stop-opacity="0.15"/>
</linearGradient>
<linearGradient id="paint3_linear_1011_6799" x1="69.3685" y1="69.0256" x2="177.611" y2="146.117" gradientUnits="userSpaceOnUse">
<stop stop-color="#DF7EF2" stop-opacity="0.2"/>
<stop offset="0.99" stop-color="#581D8F" stop-opacity="0.2"/>
</linearGradient>
<linearGradient id="paint4_linear_1011_6799" x1="79.3205" y1="63.5286" x2="167.383" y2="126.276" gradientUnits="userSpaceOnUse">
<stop stop-color="#DF7EF2" stop-opacity="0.3"/>
<stop offset="0.99" stop-color="#581D8F" stop-opacity="0.3"/>
</linearGradient>
<clipPath id="clip0_1011_6799">
<rect width="50" height="80" fill="white" transform="translate(118 63)"/>
</clipPath>
</defs>
</svg>
