<svg width="288" height="245" viewBox="0 0 288 245" fill="none" xmlns="http://www.w3.org/2000/svg">
<g filter="url(#filter0_d_1011_6720)">
<path d="M92.8626 70.9368C77.1315 71.4049 59.5498 70.2401 47.7052 80.6149C40.7923 86.6678 37.2215 95.7254 35.447 104.75C30.1017 131.825 39.8343 161.382 60.203 179.987C111.195 226.571 218.939 220.017 253.014 155.22C260.831 140.349 262.017 122.931 261.854 106.122C261.658 85.8514 259.416 64.6117 248.094 47.7812C240.527 36.5354 227.496 27.4451 213.779 26.1387C199.322 24.767 193.389 33.8355 182.35 41.4779C156.244 59.5822 124.597 69.9788 92.8517 70.9259L92.8626 70.9368Z" fill="url(#paint0_linear_1011_6720)"/>
<path d="M104.958 82.0844C90.936 82.509 75.2702 81.4639 64.7212 90.7066C58.5594 96.1063 55.3806 104.173 53.802 112.207C49.0446 136.332 57.7103 162.667 75.869 179.247C121.309 220.757 217.307 214.911 247.669 157.18C254.637 143.931 255.693 128.407 255.551 113.438C255.377 95.3769 253.374 76.4452 243.293 61.4545C236.554 51.428 224.938 43.3284 212.713 42.1635C199.823 40.9334 194.543 49.0221 184.713 55.837C161.448 71.96 133.252 81.2244 104.969 82.0736L104.958 82.0844Z" fill="url(#paint1_linear_1011_6720)"/>
<path d="M117.075 88.7145C104.207 89.0955 89.8366 88.1375 80.1584 96.629C74.5083 101.582 71.5907 108.985 70.1319 116.355C65.7664 138.488 73.7136 162.656 90.37 177.875C132.065 215.956 220.148 210.6 248.007 157.626C254.397 145.466 255.366 131.226 255.236 117.488C255.072 100.907 253.243 83.5434 243.99 69.7937C237.806 60.5946 227.148 53.1591 215.935 52.0922C204.112 50.9709 199.268 58.3846 190.243 64.6335C168.895 79.4283 143.028 87.9307 117.075 88.7036V88.7145Z" fill="url(#paint2_linear_1011_6720)"/>
<path d="M124.684 95.6928C112.894 96.0412 99.7214 95.1702 90.8597 102.943C85.6777 107.483 83.0105 114.265 81.6715 121.026C77.6652 141.307 84.9592 163.451 100.222 177.396C138.434 212.298 219.157 207.389 244.686 158.846C250.543 147.698 251.425 134.656 251.305 122.06C251.164 106.873 249.476 90.9572 240.996 78.3506C235.324 69.9244 225.559 63.1094 215.282 62.1296C204.45 61.0954 200.008 67.8886 191.734 73.6258C172.171 87.1904 148.46 94.9743 124.684 95.6928Z" fill="url(#paint3_linear_1011_6720)"/>
<path d="M132.076 100.908C121.265 101.234 109.181 100.428 101.049 107.559C96.3027 111.718 93.8423 117.945 92.623 124.139C88.9543 142.744 95.6386 163.059 109.639 175.85C144.682 207.868 218.733 203.361 242.15 158.835C247.527 148.612 248.333 136.648 248.224 125.097C248.094 111.163 246.548 96.5638 238.775 85.0023C233.571 77.2728 224.622 71.024 215.194 70.1313C205.255 69.1841 201.184 75.4221 193.596 80.6803C175.655 93.1236 153.903 100.265 132.087 100.918L132.076 100.908Z" fill="url(#paint4_linear_1011_6720)"/>
</g>
<g clip-path="url(#clip0_1011_6720)">
<path d="M161.103 108C157.372 108.1 153.64 108.5 149.942 109C147.555 109.334 144.933 109.667 143.017 111.302C140.866 113.136 140.53 116.07 141.673 118.538C142.815 121.006 145.303 122.507 147.791 123.507C153.808 125.875 160.935 127.009 167.389 126.008C172.6 125.208 177.979 121.539 177.575 115.703C177.004 107.933 166.818 107.933 161.103 108C158.951 108.033 158.951 111.368 161.103 111.335C163.725 111.302 166.414 111.335 169.003 111.768C170.919 112.069 173.104 112.769 173.911 114.67C175.76 118.938 170.616 121.973 167.221 122.607C162.448 123.507 157.136 122.773 152.497 121.473C150.278 120.872 147.757 120.172 145.975 118.705C144.564 117.538 143.521 115.203 145.202 113.803C146.883 112.402 149.606 112.369 151.623 112.102C154.783 111.702 157.909 111.402 161.103 111.302C163.254 111.302 163.288 107.967 161.103 108Z" fill="#0D301A"/>
<path d="M157.371 110.935C155.993 113.436 155.59 116.47 156.43 119.205C156.867 120.606 157.674 121.94 159.019 122.607C160.498 123.34 162.279 123.207 163.49 121.973C164.464 120.973 164.868 119.572 165.137 118.238C165.439 116.804 165.574 115.27 165.473 113.803C165.372 112.435 165.002 110.968 163.893 110.068C162.784 109.167 161.002 108.8 159.724 109.701C158.111 110.835 158.313 112.769 158.447 114.47C158.582 116.17 158.682 117.871 158.817 119.605C158.85 120.272 159.187 120.872 159.859 121.139C160.531 121.406 161.204 121.273 161.708 120.806C163.557 118.972 164.263 116.237 163.557 113.736C163.321 112.902 162.347 112.302 161.473 112.569C160.599 112.836 160.027 113.736 160.296 114.636C160.363 114.836 160.397 115.07 160.464 115.27C160.531 115.503 160.464 115.003 160.464 115.27C160.464 115.403 160.464 115.503 160.464 115.637C160.464 115.87 160.464 116.07 160.464 116.304C160.531 116.07 160.464 116.537 160.464 116.304C160.43 116.404 160.43 116.537 160.397 116.671C160.363 116.871 160.296 117.037 160.229 117.237C160.094 117.638 160.33 117.104 160.195 117.304C160.128 117.371 160.094 117.471 160.061 117.571C159.96 117.771 159.825 117.938 159.691 118.138C159.825 117.938 159.691 118.138 159.624 118.205C159.556 118.271 159.456 118.371 159.355 118.471L162.212 119.639C162.145 118.471 162.044 117.271 161.977 116.104C161.91 115.003 161.741 113.869 161.741 112.735C161.741 112.635 161.741 112.535 161.741 112.435C161.741 112.735 161.741 112.535 161.741 112.435C161.775 112.435 161.775 112.068 161.741 112.435L161.809 112.302C161.809 112.302 161.708 112.435 161.641 112.469C161.473 112.669 161.842 112.335 161.573 112.469C161.304 112.635 161.809 112.335 161.506 112.469C161.304 112.569 161.573 112.469 161.641 112.469C161.506 112.369 161.372 112.469 161.641 112.469C161.809 112.635 161.338 112.235 161.641 112.469C161.708 112.535 161.842 112.635 161.641 112.435C161.708 112.502 161.775 112.535 161.809 112.602C161.641 112.402 161.809 112.602 161.809 112.635C161.842 112.735 161.91 112.802 161.943 112.902C161.809 112.635 161.943 112.902 161.943 113.002C161.943 113.102 162.01 113.202 162.01 113.302C162.01 113.369 162.01 113.469 162.044 113.536C162.044 113.369 162.044 113.369 162.044 113.469C162.145 114.503 162.145 115.57 161.977 116.604C161.977 116.37 161.977 116.737 161.943 116.804C161.943 116.937 161.91 117.037 161.876 117.171C161.809 117.438 161.775 117.704 161.708 117.971C161.641 118.205 161.573 118.405 161.506 118.638C161.506 118.738 161.439 118.805 161.405 118.905C161.271 119.338 161.573 118.638 161.372 119.038C161.271 119.205 161.204 119.372 161.103 119.539C161.304 119.238 161.103 119.505 161.069 119.539C161.271 119.438 160.935 119.705 161.069 119.539H161.002C161.002 119.539 160.834 119.672 161.002 119.572C161.002 119.639 160.599 119.572 161.002 119.572C160.901 119.572 160.8 119.572 160.699 119.572C161.036 119.572 160.666 119.539 160.565 119.505C160.834 119.672 160.632 119.505 160.565 119.505C160.464 119.438 160.397 119.405 160.296 119.338C160.296 119.338 159.993 118.972 160.128 119.138C160.229 119.272 160.061 119.005 160.027 118.972C159.96 118.872 159.926 118.805 159.859 118.705C159.825 118.638 159.691 118.338 159.792 118.605C159.758 118.471 159.691 118.371 159.657 118.238C159.59 117.971 159.523 117.704 159.456 117.438C159.456 117.304 159.388 117.171 159.388 117.037C159.422 117.271 159.388 117.004 159.388 116.904C159.321 116.337 159.321 115.77 159.388 115.237C159.388 115.17 159.456 114.803 159.388 115.103C159.388 114.97 159.422 114.836 159.456 114.703C159.523 114.436 159.59 114.169 159.657 113.903C159.691 113.769 159.758 113.636 159.792 113.502C159.792 113.469 159.96 113.069 159.893 113.236C159.825 113.436 160.027 112.936 160.027 112.969C160.094 112.802 160.195 112.669 160.262 112.535C160.699 111.768 160.464 110.668 159.657 110.268C158.85 109.868 157.808 110.034 157.371 110.868V110.935Z" fill="#0D301A"/>
<path d="M211.528 108C207.796 108.1 204.065 108.5 200.367 109C197.98 109.334 195.358 109.667 193.442 111.301C191.324 113.102 190.954 116.037 192.131 118.505C193.308 120.972 195.762 122.473 198.249 123.474C204.267 125.841 211.393 126.975 217.848 125.975C223.058 125.174 228.437 121.506 228.034 115.67C227.428 107.933 217.243 107.933 211.528 108C209.376 108.033 209.376 111.368 211.528 111.335C214.15 111.301 216.839 111.335 219.428 111.768C221.344 112.068 223.529 112.769 224.336 114.67C226.185 118.938 221.041 121.973 217.646 122.607C212.872 123.507 207.561 122.773 202.922 121.473C200.703 120.872 198.182 120.172 196.4 118.705C194.988 117.538 193.946 115.203 195.627 113.803C197.308 112.402 200.031 112.369 202.048 112.102C205.208 111.702 208.334 111.402 211.528 111.301C213.679 111.235 213.679 107.9 211.528 107.967V108Z" fill="#0D301A"/>
<path d="M207.797 110.935C206.418 113.436 206.015 116.47 206.855 119.205C207.292 120.606 208.099 121.94 209.444 122.607C210.923 123.34 212.705 123.207 213.915 121.973C214.89 120.973 215.293 119.572 215.562 118.238C215.865 116.804 215.999 115.27 215.898 113.803C215.797 112.435 215.428 110.968 214.318 110.068C213.209 109.167 211.427 108.8 210.15 109.701C208.536 110.835 208.738 112.769 208.872 114.47C209.007 116.17 209.108 117.871 209.242 119.605C209.276 120.272 209.612 120.872 210.284 121.139C210.957 121.406 211.629 121.273 212.133 120.806C213.982 118.972 214.688 116.237 213.982 113.736C213.747 112.902 212.772 112.302 211.898 112.569C211.024 112.836 210.452 113.736 210.721 114.636C210.788 114.836 210.822 115.07 210.889 115.27C210.957 115.503 210.889 115.003 210.889 115.27C210.889 115.403 210.889 115.503 210.889 115.637C210.889 115.87 210.889 116.07 210.889 116.304C210.957 116.07 210.889 116.537 210.889 116.304C210.856 116.404 210.856 116.537 210.822 116.671C210.788 116.871 210.721 117.037 210.654 117.237C210.52 117.638 210.755 117.104 210.62 117.304C210.553 117.371 210.52 117.471 210.486 117.571C210.385 117.771 210.251 117.938 210.116 118.138C210.251 117.938 210.116 118.138 210.049 118.205C209.982 118.271 209.881 118.371 209.78 118.471L212.637 119.639C212.57 118.471 212.469 117.271 212.402 116.104C212.335 115.003 212.167 113.869 212.167 112.735C212.167 112.635 212.167 112.535 212.167 112.435C212.167 112.735 212.167 112.535 212.167 112.435C212.2 112.435 212.2 112.068 212.167 112.435L212.234 112.302C212.234 112.302 212.133 112.435 212.066 112.469C211.898 112.669 212.268 112.335 211.999 112.469C211.73 112.635 212.234 112.335 211.931 112.469C211.73 112.569 211.999 112.469 212.066 112.469C211.931 112.369 211.797 112.469 212.066 112.469C212.234 112.635 211.763 112.235 212.066 112.469C212.133 112.535 212.268 112.635 212.066 112.435C212.133 112.502 212.2 112.535 212.234 112.602C212.066 112.402 212.234 112.602 212.234 112.635C212.268 112.735 212.335 112.802 212.368 112.902C212.234 112.635 212.368 112.902 212.368 113.002C212.368 113.102 212.436 113.202 212.436 113.302C212.436 113.369 212.436 113.469 212.469 113.536C212.469 113.369 212.469 113.369 212.469 113.469C212.57 114.503 212.57 115.57 212.402 116.604C212.402 116.37 212.402 116.737 212.368 116.804C212.368 116.937 212.335 117.037 212.301 117.171C212.234 117.438 212.2 117.704 212.133 117.971C212.066 118.205 211.999 118.405 211.931 118.638C211.931 118.738 211.864 118.805 211.831 118.905C211.696 119.338 211.999 118.638 211.797 119.038C211.696 119.205 211.629 119.372 211.528 119.539C211.73 119.238 211.528 119.505 211.494 119.539C211.696 119.438 211.36 119.705 211.494 119.539H211.427C211.427 119.539 211.259 119.672 211.427 119.572C211.427 119.639 211.024 119.572 211.427 119.572C211.326 119.572 211.225 119.572 211.125 119.572C211.461 119.572 211.091 119.539 210.99 119.505C211.259 119.672 211.057 119.505 210.99 119.505C210.889 119.438 210.822 119.405 210.721 119.338C210.721 119.338 210.419 118.972 210.553 119.138C210.654 119.272 210.486 119.005 210.452 118.972C210.385 118.872 210.351 118.805 210.284 118.705C210.251 118.638 210.116 118.338 210.217 118.605C210.183 118.471 210.116 118.371 210.083 118.238C210.015 117.971 209.948 117.704 209.881 117.438C209.881 117.304 209.814 117.171 209.814 117.037C209.847 117.271 209.814 117.004 209.814 116.904C209.746 116.337 209.746 115.77 209.814 115.237C209.814 115.17 209.881 114.803 209.814 115.103C209.814 114.97 209.847 114.836 209.881 114.703C209.948 114.436 210.015 114.169 210.083 113.903C210.116 113.769 210.183 113.636 210.217 113.502C210.217 113.469 210.385 113.069 210.318 113.236C210.251 113.436 210.452 112.936 210.452 112.969C210.52 112.802 210.62 112.669 210.688 112.535C211.125 111.768 210.889 110.668 210.083 110.268C209.276 109.868 208.234 110.034 207.797 110.868V110.935Z" fill="#0D301A"/>
<path d="M181.407 128.009L180.802 131.744L180.533 133.411C180.432 134.045 180.264 134.679 180.298 135.312C180.331 136.013 180.6 136.713 181.138 137.213C181.71 137.747 182.449 137.913 183.222 137.947C184.5 138.047 185.811 138.08 187.088 138.147C188.265 138.214 189.475 138.38 190.652 138.347C191.459 138.347 192.165 138.014 192.635 137.347C193.173 136.58 193.005 135.546 192.534 134.812C191.257 132.778 189.677 130.877 188.164 129.009C187.357 128.009 186.551 126.909 185.576 126.041C184.903 125.441 183.962 125.074 183.088 125.375C182.214 125.675 181.474 126.475 181.508 127.475C181.542 128.343 182.248 129.176 183.189 129.143C184.063 129.11 184.903 128.409 184.87 127.475L184.567 127.976C184.466 128.409 184.197 128.609 183.76 128.609C183.626 128.609 183.357 128.443 183.256 128.443H183.189C183.189 128.443 183.29 128.509 183.357 128.543C183.424 128.609 183.458 128.643 183.491 128.709C183.794 129.043 184.097 129.41 184.399 129.743C184.971 130.41 185.542 131.077 186.114 131.777C186.685 132.511 187.055 132.945 187.593 133.678C188.131 134.412 188.635 135.112 189.139 135.813C189.273 135.979 189.374 136.146 189.509 136.346C189.509 136.379 189.61 136.513 189.643 136.546C189.509 136.48 190.316 135.079 190.416 135.046C190.517 135.012 190.786 135.046 190.484 135.046C190.416 135.046 190.349 135.046 190.248 135.046C189.979 135.046 189.711 135.046 189.475 135.012C188.534 134.945 187.593 134.912 186.618 134.845C185.643 134.779 184.735 134.745 183.76 134.679C183.559 134.679 183.357 134.679 183.122 134.645C183.021 134.645 182.853 134.579 183.155 134.645C183.021 134.612 183.054 134.579 183.122 134.645C183.189 134.779 183.424 134.879 183.525 135.012C183.525 135.012 183.66 135.312 183.592 135.346C183.592 135.346 183.66 134.645 183.592 135.079C183.895 133.011 184.265 130.977 184.567 128.909C184.702 128.042 184.332 127.075 183.391 126.842C182.584 126.675 181.474 127.075 181.306 128.009H181.407Z" fill="#0D301A"/>
<path d="M148.967 170.562C158.077 181.433 173.339 181.733 186.416 181.967C198.585 182.167 213.646 180.766 219.73 168.494C220.672 166.56 217.781 164.892 216.839 166.827C211.158 178.265 196.837 178.832 185.643 178.632C173.642 178.398 159.725 178.198 151.354 168.227C149.976 166.56 147.589 168.961 148.967 170.595V170.562Z" fill="#0D301A"/>
</g>
<defs>
<filter id="filter0_d_1011_6720" x="0" y="0" width="287.868" height="244.199" filterUnits="userSpaceOnUse" color-interpolation-filters="sRGB">
<feFlood flood-opacity="0" result="BackgroundImageFix"/>
<feColorMatrix in="SourceAlpha" type="matrix" values="0 0 0 0 0 0 0 0 0 0 0 0 0 0 0 0 0 0 127 0" result="hardAlpha"/>
<feOffset dx="-4" dy="4"/>
<feGaussianBlur stdDeviation="15"/>
<feComposite in2="hardAlpha" operator="out"/>
<feColorMatrix type="matrix" values="0 0 0 0 0.536918 0 0 0 0 0.988932 0 0 0 0 0.293525 0 0 0 0.15 0"/>
<feBlend mode="normal" in2="BackgroundImageFix" result="effect1_dropShadow_1011_6720"/>
<feBlend mode="normal" in="SourceGraphic" in2="effect1_dropShadow_1011_6720" result="shape"/>
</filter>
<linearGradient id="paint0_linear_1011_6720" x1="79.0584" y1="45.4079" x2="231.938" y2="182.709" gradientUnits="userSpaceOnUse">
<stop stop-color="#1EE900" stop-opacity="0.05"/>
<stop offset="1" stop-color="#4DA96F" stop-opacity="0.05"/>
</linearGradient>
<linearGradient id="paint1_linear_1011_6720" x1="92.656" y1="59.3316" x2="228.868" y2="181.674" gradientUnits="userSpaceOnUse">
<stop stop-color="#1EE900" stop-opacity="0.1"/>
<stop offset="1" stop-color="#4DA96F" stop-opacity="0.1"/>
</linearGradient>
<linearGradient id="paint2_linear_1011_6720" x1="105.785" y1="67.8341" x2="230.774" y2="180.096" gradientUnits="userSpaceOnUse">
<stop stop-color="#1EE900" stop-opacity="0.15"/>
<stop offset="1" stop-color="#4DA96F" stop-opacity="0.15"/>
</linearGradient>
<linearGradient id="paint3_linear_1011_6720" x1="114.342" y1="76.5652" x2="228.879" y2="179.443" gradientUnits="userSpaceOnUse">
<stop stop-color="#1EE900" stop-opacity="0.2"/>
<stop offset="1" stop-color="#4DA96F" stop-opacity="0.2"/>
</linearGradient>
<linearGradient id="paint4_linear_1011_6720" x1="122.583" y1="83.3584" x2="227.649" y2="177.723" gradientUnits="userSpaceOnUse">
<stop stop-color="#1EE900" stop-opacity="0.3"/>
<stop offset="1" stop-color="#4DA96F" stop-opacity="0.3"/>
</linearGradient>
<clipPath id="clip0_1011_6720">
<rect width="87" height="74" fill="white" transform="translate(141 108)"/>
</clipPath>
</defs>
</svg>
