<svg width="274" height="295" viewBox="0 0 274 295" fill="none" xmlns="http://www.w3.org/2000/svg">
<g filter="url(#filter0_d_1011_6762)">
<path d="M247.171 147.726C247.171 122.44 237.487 97.7167 224.135 76.5881C206.601 48.8079 182.929 24.109 147.69 26.1142C132.284 26.9946 116.266 28.0461 102.865 35.6759C92.2033 41.7406 84.1333 51.4734 76.9193 61.4019C67.1864 74.8029 58.5296 88.9865 51.0221 103.757C41.7539 122.049 34.1486 141.808 34.0018 162.325C33.7817 194.385 53.492 225.735 82.4704 239.43C96.3361 245.984 112.941 256.181 128.053 258.773C143.435 261.39 164.148 261.879 178.821 257.11C191.928 252.855 204.767 240.286 213.473 230.088C233.281 206.93 247.146 177.585 247.146 147.75L247.171 147.726Z" fill="url(#paint0_linear_1011_6762)"/>
<path d="M241.4 154.353C241.4 132.907 233.183 111.949 221.885 94.0485C207.017 70.4989 186.964 49.5415 157.057 51.2533C143.998 51.987 130.426 52.8918 119.055 59.3477C110.006 64.4832 103.184 72.7487 97.07 81.161C88.8289 92.5323 81.4681 104.539 75.11 117.06C67.2356 132.589 60.8041 149.34 60.6819 166.751C60.4862 193.92 77.213 220.527 101.79 232.118C113.552 237.669 127.614 246.326 140.428 248.502C153.462 250.728 171.02 251.144 183.467 247.084C194.57 243.489 205.476 232.803 212.862 224.17C229.637 204.533 241.4 179.663 241.4 154.353Z" fill="url(#paint1_linear_1011_6762)"/>
<path d="M98.831 141.955C94.5026 148.802 92.0082 156.652 90.541 164.599C89.0982 172.303 88.5846 180.299 90.3209 187.929C92.5951 198.053 98.6354 206.93 105.507 214.682C123.212 234.661 151.408 249.285 176.425 239.943C191.318 234.392 202.102 221.554 212.153 209.229C217.948 202.137 223.817 194.923 227.339 186.462C230.445 179.028 231.594 170.884 231.521 162.839C231.325 139.949 220.516 116.889 201.686 103.879C186.133 93.1193 159.356 87.8371 142.36 98.7682C128.69 107.572 107.635 128.016 98.831 141.93V141.955Z" fill="url(#paint2_linear_1011_6762)"/>
<path d="M109.15 156.651C105.506 162.423 103.403 169.05 102.156 175.75C100.958 182.231 100.518 188.98 101.96 195.412C103.892 203.946 108.979 211.429 114.775 217.983C129.692 234.832 153.486 247.157 174.565 239.283C187.135 234.588 196.208 223.779 204.693 213.386C209.584 207.394 214.524 201.305 217.507 194.189C220.124 187.929 221.102 181.057 221.029 174.283C220.858 154.989 211.761 135.547 195.865 124.567C182.758 115.495 160.162 111.044 145.832 120.263C134.314 127.697 116.56 144.938 109.126 156.651H109.15Z" fill="url(#paint3_linear_1011_6762)"/>
<path d="M126.83 167.876C123.994 172.376 122.331 177.536 121.377 182.769C120.423 187.831 120.105 193.089 121.23 198.126C122.722 204.778 126.708 210.623 131.232 215.734C142.897 228.89 161.458 238.501 177.916 232.363C187.722 228.694 194.814 220.258 201.441 212.163C205.256 207.492 209.119 202.748 211.443 197.173C213.472 192.282 214.23 186.926 214.206 181.62C214.084 166.556 206.967 151.37 194.569 142.811C184.323 135.743 166.691 132.246 155.515 139.46C146.516 145.256 132.651 158.706 126.855 167.876H126.83Z" fill="url(#paint4_linear_1011_6762)"/>
</g>
<path d="M154.911 139.281C148.838 140.39 142.065 143.397 140.255 149.849C138.678 155.513 141.364 161.702 146.123 164.943C150.882 168.183 157.48 167.453 161.976 163.833C166.472 160.213 167.552 155.046 166.851 149.732C166.472 146.959 165.596 144.156 163.786 141.967C161.509 139.222 158.268 138.726 154.911 139.251C153.071 139.543 153.86 142.346 155.699 142.054C158.064 141.704 160.224 142.083 161.742 144.01C162.939 145.557 163.552 147.514 163.903 149.411C164.603 153.323 164.136 157.527 161.304 160.505C158.151 163.804 152.925 165.264 148.751 163.045C144.839 160.972 142.211 156.389 142.795 151.922C143.612 145.645 150.24 143.047 155.699 142.025C157.538 141.675 156.75 138.872 154.911 139.222V139.281Z" fill="#500F00"/>
<path d="M192.864 153.878C186.791 154.987 180.018 157.994 178.208 164.446C176.632 170.11 179.318 176.299 184.076 179.54C188.835 182.781 195.433 182.051 199.929 178.431C204.425 174.811 205.505 169.643 204.804 164.33C204.425 161.556 203.549 158.753 201.739 156.564C199.462 153.82 196.221 153.323 192.864 153.849C191.025 154.141 191.813 156.943 193.652 156.651C196.017 156.301 198.177 156.681 199.695 158.608C200.892 160.155 201.505 162.111 201.856 164.009C202.556 167.921 202.089 172.125 199.257 175.103C196.104 178.402 190.879 179.861 186.704 177.642C182.792 175.57 180.164 170.986 180.748 166.519C181.566 160.242 188.193 157.644 193.652 156.622C195.491 156.272 194.703 153.469 192.864 153.82V153.878Z" fill="#500F00"/>
<path d="M158.706 155.425C157.48 155.162 156.167 155.542 155.32 156.505C154.473 157.469 154.123 158.783 154.561 159.98C154.999 161.177 155.875 162.111 157.101 162.432C158.327 162.753 159.67 162.403 160.663 161.585C161.071 161.264 161.422 160.826 161.626 160.359C161.889 159.746 162.093 159.104 162.005 158.432C161.918 157.644 161.684 156.973 161.188 156.33C160.809 155.834 160.254 155.542 159.699 155.308C158.561 154.871 157.101 155.162 156.283 156.097C155.407 157.089 155.116 158.52 155.787 159.717C156.137 160.359 156.809 160.855 157.539 161.031C158.473 161.235 159.524 160.914 160.049 160.096C160.487 159.396 160.458 158.549 160.108 157.819C159.787 157.148 159.028 156.622 158.239 156.681C157.86 156.71 157.48 156.827 157.218 157.119C156.955 157.381 156.78 157.79 156.78 158.14C156.809 158.87 157.422 159.658 158.239 159.6C158.298 159.6 158.327 159.6 158.356 159.6L157.977 159.542C157.977 159.542 158.064 159.542 158.093 159.571L157.743 159.425C157.743 159.425 157.831 159.483 157.889 159.512L157.597 159.279C157.597 159.279 157.685 159.367 157.714 159.396L157.48 159.104C157.48 159.104 157.568 159.221 157.597 159.279L157.451 158.929C157.451 158.929 157.51 159.075 157.51 159.133L157.451 158.753C157.451 158.753 157.451 158.929 157.451 159.016L157.51 158.637C157.51 158.637 157.48 158.783 157.451 158.841L157.597 158.491C157.597 158.491 157.568 158.578 157.539 158.607L157.772 158.316C157.772 158.316 157.685 158.403 157.655 158.432L157.947 158.199C157.947 158.199 157.831 158.286 157.743 158.316L158.093 158.17C158.093 158.17 157.947 158.199 157.889 158.228L158.269 158.17C158.269 158.17 158.093 158.17 158.006 158.17L158.385 158.228C158.385 158.228 158.181 158.17 158.064 158.14L158.415 158.286C158.415 158.286 158.21 158.17 158.123 158.111L158.415 158.345C158.415 158.345 158.269 158.228 158.21 158.14L158.444 158.432C158.444 158.432 158.327 158.257 158.269 158.14L158.415 158.491C158.415 158.491 158.327 158.257 158.327 158.111L158.385 158.491C158.385 158.345 158.385 158.199 158.385 158.053L158.327 158.432C158.327 158.286 158.385 158.14 158.444 157.994L158.298 158.345C158.298 158.345 158.444 158.082 158.531 157.965L158.298 158.257C158.298 158.257 158.502 158.024 158.619 157.936L158.327 158.17C158.327 158.17 158.561 158.024 158.677 157.965L158.327 158.111C158.327 158.111 158.59 158.024 158.736 157.994L158.356 158.053C158.531 158.053 158.706 158.053 158.882 158.053L158.502 157.994C158.677 158.024 158.852 158.082 159.028 158.14L158.677 157.994C158.823 158.053 158.969 158.14 159.086 158.228L158.794 157.994C158.794 157.994 159.057 158.228 159.174 158.374L158.94 158.082C158.94 158.082 159.115 158.345 159.174 158.461L159.028 158.111C159.115 158.286 159.144 158.491 159.174 158.666L159.115 158.286C159.115 158.52 159.115 158.724 159.115 158.958L159.174 158.578C159.144 158.812 159.086 159.016 158.998 159.221L159.144 158.87C159.057 159.045 158.969 159.221 158.852 159.367L159.086 159.075C158.969 159.25 158.823 159.367 158.648 159.512L158.94 159.279C158.765 159.425 158.561 159.542 158.356 159.629L158.706 159.483C158.502 159.571 158.269 159.629 158.064 159.658L158.444 159.6C158.239 159.6 158.035 159.6 157.831 159.6L158.21 159.658C158.006 159.658 157.801 159.571 157.626 159.512L157.977 159.658C157.801 159.571 157.655 159.483 157.51 159.396L157.801 159.629C157.655 159.512 157.51 159.367 157.364 159.191L157.597 159.483C157.48 159.308 157.364 159.133 157.305 158.958L157.451 159.308C157.364 159.133 157.305 158.929 157.276 158.724L157.334 159.104C157.334 158.929 157.334 158.753 157.334 158.578L157.276 158.958C157.276 158.783 157.334 158.607 157.422 158.432L157.276 158.783C157.276 158.783 157.422 158.491 157.51 158.374L157.276 158.666C157.393 158.52 157.539 158.374 157.685 158.257L157.393 158.491C157.539 158.374 157.714 158.286 157.918 158.199L157.568 158.345C157.743 158.286 157.889 158.228 158.064 158.199L157.685 158.257C157.831 158.257 158.006 158.257 158.152 158.257L157.772 158.199C157.772 158.199 157.889 158.199 157.947 158.228C158.327 158.315 158.736 158.286 159.086 158.082C159.378 157.907 159.67 157.556 159.757 157.206C159.933 156.476 159.524 155.571 158.736 155.396L158.706 155.425Z" fill="#500F00"/>
<path d="M199.258 175.599C199.491 174.635 199.345 173.555 198.761 172.709C198.44 172.241 198.09 171.862 197.593 171.57C197.097 171.278 196.572 171.132 196.017 171.074C194.995 170.957 194.032 171.395 193.273 172.037C192.514 172.679 192.076 173.701 192.105 174.694C192.134 175.686 192.543 176.679 193.302 177.35C193.711 177.73 194.178 177.993 194.703 178.168C195.229 178.343 195.813 178.314 196.367 178.226C197.302 178.08 198.265 177.38 198.674 176.504C198.966 175.891 199.024 175.278 198.907 174.606C198.849 174.197 198.674 173.789 198.411 173.438C198.002 172.884 197.506 172.475 196.834 172.3C196.163 172.125 195.433 172.241 194.849 172.563C194.265 172.884 193.827 173.468 193.565 174.139C193.302 174.811 193.419 175.511 193.74 176.153C193.886 176.475 194.294 176.737 194.616 176.825C194.966 176.913 195.433 176.883 195.754 176.679C196.075 176.475 196.338 176.183 196.426 175.803C196.513 175.394 196.455 175.044 196.28 174.665V174.606C196.28 174.606 196.367 174.84 196.397 174.956C196.367 174.869 196.338 174.781 196.338 174.694L196.397 175.073C196.397 175.073 196.397 174.869 196.397 174.781L196.338 175.161C196.338 175.161 196.396 174.956 196.426 174.869L196.28 175.219C196.28 175.219 196.367 175.044 196.426 174.956L196.192 175.248C196.192 175.248 196.367 175.044 196.484 174.956L196.192 175.19C196.192 175.19 196.367 175.073 196.455 175.044L196.105 175.19C196.105 175.19 196.309 175.132 196.397 175.102L196.017 175.161C196.017 175.161 196.192 175.161 196.28 175.161L195.9 175.102C195.9 175.102 196.105 175.132 196.192 175.19L195.842 175.044C195.842 175.044 196.046 175.161 196.134 175.219L195.842 174.986C195.842 174.986 196.017 175.132 196.105 175.248L195.871 174.956C195.871 174.956 196.017 175.19 196.075 175.307L195.929 174.956C195.929 174.956 196.046 175.248 196.046 175.394L195.988 175.015C195.988 175.015 195.988 175.278 195.988 175.424L196.046 175.044C196.046 175.044 195.988 175.278 195.959 175.394L196.105 175.044C196.105 175.044 195.988 175.278 195.9 175.365L196.134 175.073C196.134 175.073 195.929 175.307 195.813 175.394L196.105 175.161C196.105 175.161 195.813 175.336 195.667 175.424L196.017 175.278C195.842 175.336 195.667 175.394 195.462 175.424L195.842 175.365C195.667 175.365 195.462 175.365 195.287 175.365L195.667 175.424C195.521 175.424 195.375 175.365 195.229 175.307L195.579 175.453C195.404 175.365 195.258 175.278 195.112 175.161L195.404 175.394C195.258 175.278 195.141 175.132 195.024 174.986L195.258 175.278C195.141 175.102 195.024 174.927 194.937 174.752L195.083 175.102C194.995 174.898 194.937 174.723 194.908 174.519L194.966 174.898C194.966 174.723 194.966 174.519 194.966 174.343L194.908 174.723C194.908 174.548 194.966 174.402 195.054 174.227L194.908 174.577C194.966 174.431 195.054 174.285 195.17 174.139L194.937 174.431C195.054 174.256 195.2 174.11 195.375 173.993L195.083 174.227C195.258 174.11 195.433 173.993 195.608 173.905L195.258 174.051C195.462 173.964 195.637 173.935 195.842 173.905L195.462 173.964C195.637 173.964 195.842 173.964 196.017 173.964L195.637 173.905C195.813 173.905 195.959 173.993 196.134 174.051L195.783 173.905C195.929 173.964 196.075 174.051 196.221 174.168L195.929 173.935C196.105 174.051 196.221 174.197 196.367 174.373L196.134 174.081C196.251 174.256 196.367 174.431 196.426 174.606L196.28 174.256C196.338 174.431 196.396 174.606 196.426 174.781L196.367 174.402C196.367 174.577 196.367 174.781 196.367 174.956L196.426 174.577C196.426 174.577 196.426 174.723 196.397 174.811C196.221 175.54 196.63 176.416 197.418 176.621C198.207 176.825 199.024 176.387 199.228 175.599H199.258Z" fill="#500F00"/>
<path d="M192.893 138.989C193.273 143.601 196.542 147.689 201.009 148.944C201.739 149.148 202.644 148.681 202.819 147.922C202.994 147.163 202.586 146.346 201.797 146.112C201.564 146.054 201.33 145.966 201.097 145.879C200.98 145.849 200.863 145.791 200.746 145.733C200.951 145.82 200.834 145.762 200.717 145.733C200.279 145.528 199.871 145.295 199.491 145.032C199.403 144.974 199.316 144.915 199.228 144.857C199.199 144.857 198.907 144.594 199.024 144.711C199.17 144.828 198.907 144.623 198.878 144.594C198.79 144.506 198.703 144.448 198.615 144.36C198.265 144.039 197.944 143.718 197.652 143.339C197.593 143.251 197.535 143.193 197.447 143.105C197.652 143.368 197.389 143.047 197.389 143.017C197.272 142.842 197.126 142.638 197.01 142.463C196.776 142.054 196.542 141.645 196.367 141.207C196.484 141.441 196.367 141.207 196.338 141.091C196.309 141.003 196.28 140.886 196.221 140.799C196.163 140.594 196.075 140.361 196.017 140.156C195.959 139.923 195.9 139.689 195.871 139.427C195.871 139.339 195.813 138.989 195.871 139.339C195.871 139.222 195.871 139.105 195.842 138.959C195.783 138.2 195.229 137.47 194.382 137.5C193.652 137.529 192.864 138.142 192.922 138.959L192.893 138.989Z" fill="#500F00"/>
<path d="M176.282 131.894C172.224 133.529 167.611 133.325 163.787 131.194C162.152 130.289 160.663 132.799 162.327 133.704C166.794 136.186 172.311 136.595 177.07 134.697C177.8 134.405 178.325 133.734 178.092 132.887C177.888 132.186 177.041 131.573 176.282 131.865V131.894Z" fill="#500F00"/>
<path d="M199.52 181.846C198.878 182.314 198.206 182.722 197.506 183.043C197.418 183.073 197.33 183.131 197.243 183.16C197.36 183.102 197.33 183.102 197.184 183.16C197.038 183.219 196.922 183.277 196.776 183.306C196.396 183.423 196.017 183.54 195.637 183.627C194.82 183.832 194.557 183.861 193.681 183.89C193.302 183.89 192.893 183.89 192.513 183.89C192.455 183.89 191.9 183.832 192.163 183.89C191.959 183.89 191.783 183.832 191.579 183.803C190.82 183.657 189.973 184.007 189.769 184.824C189.594 185.554 189.973 186.459 190.791 186.634C194.323 187.306 198.089 186.576 200.98 184.416C201.593 183.978 201.972 183.131 201.505 182.43C201.126 181.817 200.162 181.409 199.52 181.905V181.846Z" fill="#500F00"/>
<path d="M135 154.929C135.029 159.075 137.102 162.899 140.401 165.351C141.014 165.819 142.065 165.468 142.386 164.826C142.795 164.067 142.532 163.308 141.861 162.841C141.656 162.695 141.861 162.841 141.773 162.782C141.686 162.724 141.627 162.666 141.569 162.607C141.394 162.461 141.248 162.344 141.102 162.198C140.81 161.907 140.518 161.615 140.226 161.293C140.167 161.235 140.109 161.147 140.051 161.089C139.905 160.885 140.051 161.089 139.992 161.001C139.876 160.826 139.759 160.651 139.642 160.476C139.408 160.126 139.204 159.746 139 159.396C138.912 159.221 138.825 159.045 138.766 158.899C138.591 158.491 138.825 159.045 138.708 158.783C138.679 158.695 138.649 158.608 138.62 158.52C138.474 158.14 138.357 157.732 138.241 157.323C138.182 157.119 138.153 156.914 138.095 156.71C138.095 156.593 138.065 156.476 138.036 156.36C138.036 156.36 137.978 156.068 138.036 156.214C138.036 156.389 138.036 155.98 138.036 155.98C138.036 155.892 138.036 155.805 138.036 155.688C138.036 155.454 138.036 155.221 138.036 154.987C138.036 154.228 137.365 153.498 136.577 153.528C135.788 153.557 135.117 154.17 135.117 154.987L135 154.929Z" fill="#500F00"/>
<path d="M140.372 191.86C142.094 190.459 144.634 189.583 146.853 189.437C148.809 189.32 150.911 189.758 152.312 191.218C155.582 194.575 153.1 199.684 150.502 202.575L152.954 203.217C151.903 195.802 144.868 190.517 137.481 191.422L137.861 194.283C139.029 193.816 139.496 192.619 140.372 191.86C141.802 190.634 139.729 188.561 138.299 189.787C137.89 190.138 137.627 190.488 137.306 190.897C137.219 191.043 137.102 191.16 137.014 191.276C136.751 191.598 136.401 191.714 137.102 191.452C136.43 191.714 135.934 192.298 136.051 193.057C136.138 193.7 136.751 194.4 137.481 194.313C140.518 193.933 143.612 194.634 146.035 196.561C148.459 198.487 149.743 201.086 150.152 203.976C150.298 205.056 151.903 205.377 152.604 204.618C154.589 202.429 156.253 199.83 156.662 196.853C157.042 194.108 156.37 191.16 154.414 189.145C150.181 184.795 142.59 186.313 138.357 189.787C137.744 190.284 137.832 191.335 138.357 191.86C138.97 192.473 139.817 192.357 140.43 191.86H140.372Z" fill="#500F00"/>
<defs>
<filter id="filter0_d_1011_6762" x="0" y="0" width="273.171" height="294.729" filterUnits="userSpaceOnUse" color-interpolation-filters="sRGB">
<feFlood flood-opacity="0" result="BackgroundImageFix"/>
<feColorMatrix in="SourceAlpha" type="matrix" values="0 0 0 0 0 0 0 0 0 0 0 0 0 0 0 0 0 0 127 0" result="hardAlpha"/>
<feOffset dx="-4" dy="4"/>
<feGaussianBlur stdDeviation="15"/>
<feComposite in2="hardAlpha" operator="out"/>
<feColorMatrix type="matrix" values="0 0 0 0 0.988932 0 0 0 0 0.502147 0 0 0 0 0.293525 0 0 0 0.15 0"/>
<feBlend mode="normal" in2="BackgroundImageFix" result="effect1_dropShadow_1011_6762"/>
<feBlend mode="normal" in="SourceGraphic" in2="effect1_dropShadow_1011_6762" result="shape"/>
</filter>
<linearGradient id="paint0_linear_1011_6762" x1="63.2982" y1="75.1697" x2="223.474" y2="219.035" gradientUnits="userSpaceOnUse">
<stop stop-color="#EA4926" stop-opacity="0.05"/>
<stop offset="1" stop-color="#EE9035" stop-opacity="0.05"/>
</linearGradient>
<linearGradient id="paint1_linear_1011_6762" x1="85.5031" y1="92.8502" x2="221.323" y2="214.804" gradientUnits="userSpaceOnUse">
<stop stop-color="#EA4926" stop-opacity="0.1"/>
<stop offset="1" stop-color="#EE9035" stop-opacity="0.1"/>
</linearGradient>
<linearGradient id="paint2_linear_1011_6762" x1="123.75" y1="132.54" x2="202.077" y2="202.895" gradientUnits="userSpaceOnUse">
<stop stop-color="#EA4926" stop-opacity="0.15"/>
<stop offset="1" stop-color="#EE9035" stop-opacity="0.15"/>
</linearGradient>
<linearGradient id="paint3_linear_1011_6762" x1="130.156" y1="148.728" x2="196.208" y2="208.03" gradientUnits="userSpaceOnUse">
<stop stop-color="#EA4926" stop-opacity="0.2"/>
<stop offset="1" stop-color="#EE9035" stop-opacity="0.2"/>
</linearGradient>
<linearGradient id="paint4_linear_1011_6762" x1="143.239" y1="161.689" x2="194.789" y2="207.982" gradientUnits="userSpaceOnUse">
<stop stop-color="#EA4926" stop-opacity="0.3"/>
<stop offset="1" stop-color="#EE9035" stop-opacity="0.3"/>
</linearGradient>
</defs>
</svg>
