<svg width="256" height="270" viewBox="0 0 256 270" fill="none" xmlns="http://www.w3.org/2000/svg">
<g filter="url(#filter0_d_1011_6854)">
<path d="M101.574 66.2949C83.3462 79.6333 58.0605 83.8786 42.895 100.23C25.4838 119.019 27.4086 148.16 38.5786 170.756C51.9652 197.844 77.28 219.536 107.232 229.56C137.184 239.584 171.394 237.832 200.033 224.822C210.037 220.275 220.215 213.236 222.111 202.938C224.648 188.97 211.087 177.247 206.829 163.635C199.042 138.602 223.628 114.801 225.844 88.8086C228.381 58.763 199.538 31.4837 169.061 26.6084C137.126 21.4867 123.972 49.9164 101.603 66.2675L101.574 66.2949Z" fill="url(#paint0_linear_1011_6854)"/>
<path d="M136.148 54.4582C129.727 61.8539 124.561 70.4275 116.389 76.0702C109.676 80.6994 101.708 82.4525 94.3535 85.8216C86.5317 89.3826 79.3228 94.0939 72.9602 99.6818C56.8496 113.761 41.702 136.907 48.7942 158.19C53.1429 171.202 62.8035 177.693 74.2736 184.76C88.0202 193.197 100.92 201.716 116.564 207.03C135.331 213.412 156.286 215.33 175.286 209.55C185.297 206.509 195.337 200.483 198.197 190.978C201.7 179.364 193.352 167.476 193.352 155.369C193.352 138.742 208.529 125.978 215.621 110.721C223.122 94.587 220.846 74.8102 209.872 60.5391C192.389 37.7766 156.169 31.3944 136.177 54.4582H136.148Z" fill="url(#paint1_linear_1011_6854)"/>
<path d="M151.072 71.8115C145.037 76.6832 139.789 82.5129 133.23 86.7278C119.76 95.3765 102.064 96.4987 88.4194 104.928C72.3845 114.836 64.3671 134.925 69.5857 152.277C73.4924 165.305 83.9296 175.979 96.2619 182.986C108.594 189.992 122.734 193.633 136.903 196.151C145.591 197.683 154.541 198.833 163.2 197.218C171.859 195.603 180.285 190.841 183.958 183.287C188.302 174.365 185.27 163.937 186.407 154.193C187.719 142.671 194.745 132.571 200.722 122.445C206.699 112.318 211.946 100.768 209.293 89.4647C203.521 64.7776 170.343 56.2931 151.101 71.8115H151.072Z" fill="url(#paint2_linear_1011_6854)"/>
<path d="M142.063 95.5581C133.917 100.757 124.404 103.821 116.171 108.91C101.304 118.076 91.1222 135.232 94.7296 151.594C97.377 163.688 107.094 173.73 118.672 179.557C126.615 183.58 136.07 187.055 145.117 187.848C151.139 188.395 158.121 187.438 163.736 185.413C168.798 183.607 173.453 180.132 175.257 175.344C176.886 171.021 176.013 166.342 176.158 161.855C176.304 157.012 178.428 152.716 180.115 148.201C181.628 144.179 183.461 140.294 185.613 136.545C187.708 132.879 190.065 129.377 192.596 125.957C197.483 119.335 204.32 113.398 205.745 105.436C207.083 97.9385 203.011 90.2226 196.814 85.3796C175.373 68.6618 160.332 83.9842 142.121 95.5581H142.063Z" fill="url(#paint3_linear_1011_6854)"/>
<path d="M131.748 115.007C126.339 119.819 121.603 125.177 119.03 131.656C115.054 141.771 117.13 153.526 123.415 162.575C131.251 173.838 159.639 193.111 166.334 170.503C167.708 165.883 167.474 160.962 168.234 156.205C171.45 136.249 195.073 128.649 193.962 107.134C193.494 97.8937 189.08 86.1658 177.97 85.0723C174.198 84.6895 170.369 85.8651 167.123 87.6967C157.972 92.7815 149.962 100.737 141.717 107.024C138.355 109.594 134.934 112.219 131.748 115.034V115.007Z" fill="url(#paint4_linear_1011_6854)"/>
<g opacity="0.7">
<path d="M155.658 91.2289C155.658 91.2289 155.658 91.4082 155.658 91.5106L155.712 91.1777C155.658 91.485 155.549 91.7666 155.414 92.0738L155.549 91.7666C155.387 92.125 155.198 92.4835 155.09 92.8675C154.981 93.2516 154.981 93.61 155.036 94.0197C155.171 94.8902 155.712 95.7095 156.659 95.9399C157.74 96.1959 158.904 95.6071 159.418 94.6853C159.607 94.3269 159.742 93.9429 159.823 93.5332C159.932 93.1236 160.04 92.6627 159.986 92.2275C159.932 91.613 159.742 91.0241 159.255 90.5889C158.985 90.3584 158.687 90.1792 158.336 90.0768C157.984 89.9744 157.605 89.9744 157.254 90.0768C156.929 90.128 156.604 90.4096 156.442 90.6657C156.28 90.9473 156.199 91.357 156.307 91.6642C156.415 91.9714 156.604 92.2787 156.929 92.4323C157.254 92.6115 157.605 92.6371 157.984 92.5603H158.038C158.038 92.5603 157.795 92.5603 157.686 92.5859C157.768 92.5859 157.822 92.5859 157.876 92.5859L157.524 92.5347C157.524 92.5347 157.632 92.5347 157.659 92.5603L157.335 92.4323C157.335 92.4323 157.497 92.5091 157.551 92.5603L157.281 92.3555C157.281 92.3555 157.416 92.4579 157.47 92.5347L157.254 92.2787C157.254 92.2787 157.362 92.4067 157.389 92.4835L157.254 92.1763C157.254 92.1763 157.308 92.3555 157.335 92.4579L157.281 92.1251C157.281 92.3299 157.281 92.5091 157.281 92.7139L157.335 92.3811C157.281 92.7907 157.172 93.2004 157.01 93.61L157.145 93.3028C157.091 93.4308 157.01 93.5588 156.902 93.6868L157.118 93.4308C157.118 93.4308 156.983 93.5844 156.875 93.6612L157.145 93.4564C157.145 93.4564 156.983 93.5588 156.902 93.5844L157.227 93.4564C157.227 93.4564 157.064 93.5076 156.956 93.5332L157.308 93.482C157.308 93.482 157.172 93.482 157.091 93.482L157.443 93.5332C157.443 93.5332 157.281 93.5076 157.227 93.482L157.551 93.61C157.551 93.61 157.443 93.5588 157.416 93.5332L157.686 93.738C157.686 93.738 157.578 93.6356 157.524 93.5844L157.74 93.8405C157.74 93.8405 157.659 93.7124 157.605 93.6356L157.74 93.9429C157.74 93.9429 157.659 93.7124 157.632 93.5844L157.686 93.9173C157.686 93.7636 157.686 93.5844 157.686 93.4308L157.632 93.7636C157.686 93.482 157.795 93.226 157.903 92.9699L157.768 93.2772C158.065 92.6371 158.363 91.997 158.336 91.2802C158.336 90.9473 158.2 90.6145 157.93 90.384C157.686 90.1536 157.308 90 156.983 90C156.28 90.0256 155.604 90.5633 155.631 91.2802L155.658 91.2289Z" fill="#00072A"/>
</g>
<g opacity="0.7">
<path d="M157.775 84.0509C154.318 84.4925 152.124 87.3909 151.103 90.234C150.081 93.0771 148.999 96.9967 151.704 99.3706C154.078 101.468 157.745 101.468 160.389 99.7847C163.304 97.9352 164.567 94.8161 164.927 91.6693C165.138 89.9303 164.927 87.9705 163.815 86.4799C162.703 84.9894 161.111 84.1061 159.187 84.1061C157.264 84.1061 157.264 86.894 159.187 86.8664C161.561 86.8664 162.102 89.4611 161.982 91.1725C161.832 93.2979 161.05 95.589 159.307 97.0519C157.895 98.2389 155.641 98.7633 154.048 97.5764C153.236 96.9691 152.996 96.141 153.026 95.2025C153.086 94.0156 153.447 92.8011 153.777 91.6693C154.469 89.4059 155.821 87.0596 158.586 86.7008C159.397 86.5904 159.818 85.6519 159.638 84.9894C159.397 84.1889 158.586 83.9129 157.775 84.0233V84.0509Z" fill="#00072A"/>
</g>
<g opacity="0.7">
<path d="M175.658 102.229C175.658 102.229 175.658 102.408 175.658 102.511L175.712 102.178C175.658 102.485 175.549 102.767 175.414 103.074L175.549 102.767C175.387 103.125 175.198 103.483 175.09 103.868C174.981 104.252 174.981 104.61 175.036 105.02C175.171 105.89 175.712 106.709 176.659 106.94C177.74 107.196 178.904 106.607 179.418 105.685C179.607 105.327 179.742 104.943 179.823 104.533C179.932 104.124 180.04 103.663 179.986 103.227C179.932 102.613 179.742 102.024 179.255 101.589C178.985 101.358 178.687 101.179 178.336 101.077C177.984 100.974 177.605 100.974 177.254 101.077C176.929 101.128 176.604 101.41 176.442 101.666C176.28 101.947 176.199 102.357 176.307 102.664C176.415 102.971 176.604 103.279 176.929 103.432C177.254 103.612 177.605 103.637 177.984 103.56H178.038C178.038 103.56 177.795 103.56 177.686 103.586C177.768 103.586 177.822 103.586 177.876 103.586L177.524 103.535C177.524 103.535 177.632 103.535 177.659 103.56L177.335 103.432C177.335 103.432 177.497 103.509 177.551 103.56L177.281 103.355C177.281 103.355 177.416 103.458 177.47 103.535L177.254 103.279C177.254 103.279 177.362 103.407 177.389 103.483L177.254 103.176C177.254 103.176 177.308 103.355 177.335 103.458L177.281 103.125C177.281 103.33 177.281 103.509 177.281 103.714L177.335 103.381C177.281 103.791 177.172 104.2 177.01 104.61L177.145 104.303C177.091 104.431 177.01 104.559 176.902 104.687L177.118 104.431C177.118 104.431 176.983 104.584 176.875 104.661L177.145 104.456C177.145 104.456 176.983 104.559 176.902 104.584L177.227 104.456C177.227 104.456 177.064 104.508 176.956 104.533L177.308 104.482C177.308 104.482 177.172 104.482 177.091 104.482L177.443 104.533C177.443 104.533 177.281 104.508 177.227 104.482L177.551 104.61C177.551 104.61 177.443 104.559 177.416 104.533L177.686 104.738C177.686 104.738 177.578 104.636 177.524 104.584L177.74 104.84C177.74 104.84 177.659 104.712 177.605 104.636L177.74 104.943C177.74 104.943 177.659 104.712 177.632 104.584L177.686 104.917C177.686 104.764 177.686 104.584 177.686 104.431L177.632 104.764C177.686 104.482 177.795 104.226 177.903 103.97L177.768 104.277C178.065 103.637 178.363 102.997 178.336 102.28C178.336 101.947 178.2 101.614 177.93 101.384C177.686 101.154 177.308 101 176.983 101C176.28 101.026 175.604 101.563 175.631 102.28L175.658 102.229Z" fill="#00072A"/>
</g>
<g opacity="0.7">
<path d="M177.775 95.0509C174.318 95.4925 172.124 98.3909 171.103 101.234C170.081 104.077 168.999 107.997 171.704 110.371C174.078 112.468 177.745 112.468 180.389 110.785C183.304 108.935 184.567 105.816 184.927 102.669C185.138 100.93 184.927 98.9705 183.815 97.4799C182.703 95.9894 181.111 95.1061 179.187 95.1061C177.264 95.1061 177.264 97.894 179.187 97.8664C181.561 97.8664 182.102 100.461 181.982 102.172C181.832 104.298 181.05 106.589 179.307 108.052C177.895 109.239 175.641 109.763 174.048 108.576C173.236 107.969 172.996 107.141 173.026 106.203C173.086 105.016 173.447 103.801 173.777 102.669C174.469 100.406 175.821 98.0596 178.586 97.7008C179.397 97.5904 179.818 96.6519 179.638 95.9894C179.397 95.1889 178.586 94.9129 177.775 95.0233V95.0509Z" fill="#00072A"/>
</g>
<g opacity="0.7">
<path d="M166.188 80.0281C162.806 80.5878 159.252 80.6387 155.841 80.1553C155.061 80.0536 154.281 80.3334 154.05 81.0457C153.847 81.6562 154.281 82.4957 155.061 82.6229C159.02 83.1571 162.98 83.1317 166.939 82.4957C167.719 82.3685 168.153 81.5545 167.95 80.9185C167.719 80.2062 166.939 79.9009 166.159 80.0281H166.188Z" fill="#00072A"/>
</g>
<g opacity="0.7">
<path d="M178.178 88.9598C180.014 91.5055 182.664 93.5738 185.765 94.8467C186.488 95.1384 187.421 95.0323 187.813 94.3693C188.174 93.786 188.023 92.8578 187.271 92.5661C186.578 92.2745 185.886 91.9562 185.253 91.585C184.952 91.3994 184.621 91.2138 184.32 91.0281C184.26 91.0016 184.23 90.9751 184.199 90.9486L184.32 91.0281C184.32 91.0281 184.109 90.8955 184.049 90.8425C183.898 90.7364 183.748 90.6304 183.627 90.5243C183.055 90.1 182.544 89.6227 182.032 89.1189C181.911 88.9863 181.791 88.8802 181.67 88.7476C181.61 88.6681 181.52 88.5885 181.46 88.509C181.58 88.6416 181.55 88.6416 181.46 88.509C181.219 88.2173 181.008 87.9521 180.797 87.6604C180.376 87.077 179.442 86.7853 178.75 87.1831C178.087 87.5543 177.756 88.3764 178.208 88.9863L178.178 88.9598Z" fill="#00072A"/>
</g>
<g opacity="0.7">
<path d="M158.217 155.224C161.176 150.245 160.429 143.765 156.15 139.705C151.871 135.644 145.552 134.865 140.44 137.647C137.884 139.037 135.96 141.29 134.898 143.932C133.95 146.24 133.174 150.217 135.73 151.858C138.286 153.499 140.957 151.997 142.652 150.162C143.599 149.133 144.461 147.77 145.84 147.214C147.132 146.713 148.137 147.687 148.625 148.771C149.343 150.301 149.286 152.081 149.774 153.694C150.205 155.084 150.98 156.419 152.244 157.282C154.656 158.922 158.505 157.643 158.562 154.556C158.591 152.776 155.719 152.776 155.69 154.556C155.69 155.112 154.857 155.335 154.398 155.224C153.45 155.029 152.876 153.889 152.617 153.082C151.871 150.857 152.043 148.41 150.549 146.435C149.056 144.46 146.816 143.737 144.576 144.711C142.336 145.684 141.446 147.853 139.579 149.188C139.033 149.578 138.085 149.967 137.425 149.578C136.592 149.077 136.965 147.353 137.109 146.574C137.54 144.377 138.746 142.375 140.527 140.956C144.03 138.119 149.142 138.119 152.847 140.595C157.241 143.543 158.419 149.383 155.776 153.805C154.857 155.363 157.327 156.753 158.246 155.196L158.217 155.224Z" fill="#00072A"/>
</g>
<g opacity="0.7">
<path d="M160.948 116.924C160.154 118.426 159.302 119.901 158.567 121.43C158.156 122.289 157.803 123.227 158.126 124.193C158.391 124.998 159.037 125.642 159.831 126.044C161.154 126.768 163.182 127.439 164.622 126.634C166.297 125.695 166.062 123.63 165.856 122.101C165.592 120.196 165.063 118.426 164.269 116.656C163.975 116.012 162.858 115.824 162.27 116.173C161.536 116.602 161.418 117.326 161.741 117.997C161.683 117.863 161.83 118.185 161.83 118.211C161.888 118.346 161.947 118.48 162.006 118.614C162.123 118.909 162.241 119.231 162.329 119.526C162.535 120.116 162.682 120.706 162.799 121.323C162.829 121.457 162.858 121.618 162.888 121.752C162.888 121.806 162.946 122.155 162.917 121.967C162.976 122.289 163.005 122.611 163.005 122.932C163.005 123.227 163.035 123.523 163.035 123.791C163.035 123.898 163.035 124.032 163.035 124.139C163.035 124.193 163.035 124.247 163.035 124.327C163.035 124.193 163.035 124.193 163.035 124.327C163.035 124.327 162.946 124.515 163.035 124.381C163.123 124.247 163.035 124.381 163.005 124.435C163.035 124.408 163.123 124.327 163.123 124.3C163.24 124.139 163.064 124.381 163.064 124.327C163.064 124.327 163.299 124.22 163.123 124.3C162.976 124.354 163.152 124.3 163.211 124.3C163.152 124.3 163.064 124.3 163.005 124.3C163.182 124.354 162.799 124.3 163.005 124.3C162.711 124.22 162.447 124.166 162.153 124.059C162.035 124.005 161.918 123.979 161.8 123.925C162.065 124.032 161.712 123.871 161.624 123.844C161.506 123.791 161.389 123.737 161.3 123.683C161.242 123.657 161.183 123.63 161.154 123.576C161.154 123.576 161.33 123.71 161.212 123.603C161.183 123.576 160.948 123.335 161.036 123.469C161.124 123.603 161.036 123.469 161.036 123.415C161.036 123.362 160.948 123.254 161.036 123.415C161.036 123.415 161.007 123.174 161.007 123.308C161.007 123.442 161.007 123.201 161.007 123.201C161.007 123.388 161.036 123.067 161.065 122.986C161.154 122.691 161.212 122.611 161.389 122.289C162.123 120.921 162.829 119.553 163.564 118.185C163.887 117.541 163.769 116.709 163.035 116.361C162.388 116.039 161.389 116.173 161.036 116.843L160.948 116.924Z" fill="#00072A"/>
</g>
</g>
<defs>
<filter id="filter0_d_1011_6854" x="0" y="0" width="256" height="270" filterUnits="userSpaceOnUse" color-interpolation-filters="sRGB">
<feFlood flood-opacity="0" result="BackgroundImageFix"/>
<feColorMatrix in="SourceAlpha" type="matrix" values="0 0 0 0 0 0 0 0 0 0 0 0 0 0 0 0 0 0 127 0" result="hardAlpha"/>
<feOffset dy="4"/>
<feGaussianBlur stdDeviation="15"/>
<feComposite in2="hardAlpha" operator="out"/>
<feColorMatrix type="matrix" values="0 0 0 0 0.273889 0 0 0 0 0.440785 0 0 0 0 0.659033 0 0 0 0.25 0"/>
<feBlend mode="normal" in2="BackgroundImageFix" result="effect1_dropShadow_1011_6854"/>
<feBlend mode="normal" in="SourceGraphic" in2="effect1_dropShadow_1011_6854" result="shape"/>
</filter>
<linearGradient id="paint0_linear_1011_6854" x1="-10.8844" y1="23.9791" x2="242.775" y2="222.538" gradientUnits="userSpaceOnUse">
<stop stop-color="#3464C0" stop-opacity="0.05"/>
<stop offset="1" stop-color="#52B3AF" stop-opacity="0.02"/>
</linearGradient>
<linearGradient id="paint1_linear_1011_6854" x1="46.9555" y1="126.471" x2="219.941" y2="126.471" gradientUnits="userSpaceOnUse">
<stop stop-color="#3464C0" stop-opacity="0.1"/>
<stop offset="1" stop-color="#52B3AF" stop-opacity="0.1"/>
</linearGradient>
<linearGradient id="paint2_linear_1011_6854" x1="101.16" y1="90.2858" x2="205.505" y2="187.913" gradientUnits="userSpaceOnUse">
<stop stop-color="#3464C0" stop-opacity="0.15"/>
<stop offset="1" stop-color="#52B3AF" stop-opacity="0.15"/>
</linearGradient>
<linearGradient id="paint3_linear_1011_6854" x1="123.356" y1="97.9385" x2="177.397" y2="163.12" gradientUnits="userSpaceOnUse">
<stop stop-color="#3464C0" stop-opacity="0.2"/>
<stop offset="1" stop-color="#52B3AF" stop-opacity="0.2"/>
</linearGradient>
<linearGradient id="paint4_linear_1011_6854" x1="139.612" y1="110.36" x2="174.52" y2="150.97" gradientUnits="userSpaceOnUse">
<stop stop-color="#3464C0" stop-opacity="0.3"/>
<stop offset="1" stop-color="#52B3AF" stop-opacity="0.3"/>
</linearGradient>
</defs>
</svg>
