<svg width="295" height="224" viewBox="0 0 295 224" fill="none" xmlns="http://www.w3.org/2000/svg">
<g filter="url(#filter0_d_1011_6827)">
<path d="M122.19 26.9395C109.976 28.8271 98.3605 33.4411 87.2661 38.4484C70.1818 46.156 53.1235 56.5901 42.8104 71.5857C30.6743 89.3079 32.9922 113.505 38.3831 133.037C41.0655 142.71 44.6855 151.991 52.785 159.069C62.1605 167.249 75.6509 170.735 88.386 169.267C102.293 167.642 115.575 161.14 129.873 163.5C141.801 165.466 154.015 172.256 164.901 176.922C178.469 182.742 192.559 188.195 207.716 188.956C231.936 190.188 250.713 174.878 260.427 155.792C272.068 132.879 271.704 107.528 256 86.1882C239.176 63.3014 210.945 44.0063 182.74 34.5684C165.734 28.8795 147.322 25.052 129.091 26.2055C126.748 26.3628 124.43 26.5987 122.112 26.9657L122.19 26.9395Z" fill="url(#paint0_linear_1011_6827)"/>
<path d="M123.128 30.8982C106.669 32.0517 90.6259 37.0328 76.7189 46.6541C58.8533 59.0282 49.1392 78.5593 49.1392 100.555C49.1392 115.524 51.2226 133.587 62.9681 144.152C71.0936 151.44 81.9275 152.489 92.2666 150.89C104.898 148.924 115.862 147.324 128.649 149.972C150.681 154.534 171.36 166.279 194.512 160.38C225.113 152.568 255.714 131.778 248.057 100.581C243.656 82.6228 230.582 67.7058 216.18 57.1144C194.147 40.9128 167.011 33.2314 140.212 31.0555C134.509 30.5836 128.805 30.5574 123.154 30.9506L123.128 30.8982Z" fill="url(#paint1_linear_1011_6827)"/>
<path d="M120.758 33.6509C106.486 34.6734 92.5791 38.9728 80.495 47.3096C64.9993 58.032 56.5874 74.9939 56.5874 94.0531C56.5874 107.03 58.4104 122.707 68.5673 131.857C75.5989 138.175 85.0265 139.093 93.9593 137.703C104.897 135.999 114.429 134.61 125.524 136.917C144.639 140.875 162.557 151.047 182.636 145.935C209.174 139.171 235.712 121.134 229.071 94.0793C225.243 78.5069 213.914 65.5561 201.439 56.3804C182.35 42.3285 158.807 35.6696 135.55 33.782C130.602 33.3888 125.654 33.3363 120.758 33.6772V33.6509Z" fill="url(#paint2_linear_1011_6827)"/>
<path d="M108.127 37.6619C96.173 38.999 85.2088 44.7665 77.1355 53.7063C71.3539 60.103 70.7809 61.1779 67.812 69.2263C65.3639 75.9376 63.7493 85.0609 62.8638 92.2179C62.1086 98.3001 62.8117 104.802 66.015 110.019C72.5258 120.558 84.9484 124.228 96.6939 124.175C100.705 124.175 105.028 123.94 108.908 122.97C112.372 122.104 115.653 120.531 119.221 119.876C134.196 117.045 149.171 123.704 163.781 126.325C172.558 127.898 184.433 130.048 192.324 124.49C206.7 114.344 208.94 107.581 208.94 94.053C208.94 84.5365 203.106 74.9152 197.611 67.5746C188.027 54.7287 175.917 48.6465 160.89 44.5044C145.863 40.3622 131.305 37.5046 116.304 37.3211C113.57 37.2949 110.835 37.3736 108.127 37.6619Z" fill="url(#paint3_linear_1011_6827)"/>
<path d="M103.647 40.0215C96.0946 41.7255 88.9327 45.2123 83.1251 50.4293C79.453 53.7326 76.3799 57.7436 74.1662 62.1742C71.5359 67.4699 71.4057 73.1326 71.2755 78.9788C71.1452 84.825 71.6661 91.3266 75.208 96.229C77.2393 99.0342 80.1822 100.948 83.4637 101.97C92.6829 104.802 102.553 101.053 111.929 101.027C127.659 101.027 141.279 106.899 156.228 110.7C165.239 112.981 183.652 118.723 190.996 109.861C199.069 100.109 193.131 85.3231 187.949 75.7017C181.725 64.1404 173.156 53.8374 160.708 48.8563C144.561 42.4334 127.164 37.2688 109.637 39.0515C107.632 39.2612 105.626 39.5758 103.647 40.0215Z" fill="url(#paint4_linear_1011_6827)"/>
<path d="M127.502 70.1179C126.591 69.7509 125.653 69.5412 124.69 69.4363C123.883 69.3577 122.997 69.3577 122.216 69.646C121.2 70.0393 120.445 70.852 120.419 72.0055C120.393 73.159 121.018 74.0241 121.877 74.6533C122.606 75.2039 123.518 75.5447 124.377 75.8331C125.263 76.1477 126.2 76.3574 127.164 76.4623C128.935 76.672 130.94 75.8593 131.096 73.8406C131.175 72.8444 130.68 71.7958 129.925 71.1666C129.091 70.4587 128.049 70.1704 126.982 69.9606C126.305 69.8296 125.549 70.1441 125.367 70.8782C125.211 71.5336 125.549 72.3463 126.278 72.5036C126.565 72.556 126.851 72.6085 127.164 72.6871C127.32 72.7133 127.45 72.7658 127.581 72.8182C127.633 72.8182 127.711 72.8706 127.763 72.8706C127.581 72.792 127.763 72.8706 127.841 72.9231C127.971 73.0017 128.101 73.0542 128.206 73.159C128.049 73.0279 128.232 73.2114 128.284 73.2639C128.466 73.4474 128.31 73.3163 128.284 73.2639C128.31 73.3163 128.336 73.3687 128.362 73.4212C128.362 73.4474 128.466 73.6833 128.414 73.526C128.362 73.3687 128.414 73.6047 128.414 73.6309C128.492 73.7882 128.414 73.4212 128.414 73.6309C128.414 73.6833 128.414 73.7358 128.414 73.7882C128.414 73.7358 128.492 73.526 128.414 73.762C128.414 73.7882 128.336 73.9193 128.414 73.8144C128.492 73.6833 128.414 73.8144 128.388 73.8406C128.466 73.6571 128.492 73.7358 128.388 73.8144C128.362 73.8144 128.232 73.9193 128.388 73.8144C128.544 73.7096 128.31 73.8406 128.284 73.8669C128.284 73.8669 128.492 73.8144 128.362 73.8406C128.31 73.8406 128.232 73.8931 128.18 73.8931C128.075 73.8931 127.763 73.9193 128.075 73.9193C127.815 73.9193 127.581 73.9193 127.32 73.9193C127.242 73.9193 127.19 73.9193 127.112 73.9193C127.138 73.9193 127.372 73.9717 127.19 73.9193C127.034 73.8931 126.851 73.8669 126.695 73.8144C126.331 73.7358 125.992 73.6571 125.653 73.5523C124.976 73.3425 124.455 73.159 123.909 72.8706C123.778 72.792 123.648 72.7395 123.518 72.6609C123.466 72.6347 123.153 72.425 123.31 72.556C123.205 72.4774 123.127 72.3987 123.049 72.2939C123.205 72.4774 122.945 72.0055 123.049 72.2677C123.049 72.189 122.997 72.1104 122.997 72.0317C122.997 72.0317 123.049 72.2414 122.997 72.0842C122.945 71.9269 122.971 72.1628 122.971 72.189C122.971 72.2939 122.945 72.189 122.971 72.1366C122.971 72.1366 122.763 72.3463 122.971 72.1628C123.127 72.0841 122.997 72.1366 122.971 72.1628C122.815 72.2414 122.971 72.1628 122.997 72.1628C123.284 72.0579 122.841 72.1628 122.997 72.1628C123.049 72.1628 123.101 72.1366 123.153 72.1104C123.153 72.1104 123.492 72.0317 123.284 72.0842C123.127 72.1104 123.284 72.0842 123.31 72.0842C123.388 72.0842 123.492 72.0842 123.57 72.0842C123.935 72.0842 124.325 72.0841 124.69 72.1366C124.846 72.1366 124.716 72.1366 124.69 72.1366C124.794 72.1366 124.924 72.1628 125.028 72.189C125.211 72.2152 125.393 72.2677 125.575 72.3201C125.966 72.425 126.331 72.556 126.721 72.7133C127.346 72.9755 128.18 72.425 128.336 71.7958C128.518 71.0355 128.101 70.4587 127.424 70.1704L127.502 70.1179Z" fill="#433A0D"/>
<path d="M94.7405 58.058C95.1832 54.0993 98.6209 51.1107 102.553 51.1631C106.486 51.2156 109.819 54.3353 110.158 58.2939C110.288 59.9718 112.893 59.9718 112.762 58.2939C112.32 52.9196 107.996 48.5939 102.553 48.5415C97.1104 48.4891 92.7351 52.7099 92.1361 58.058C92.058 58.7658 92.7872 59.3688 93.4383 59.3688C94.1936 59.3688 94.6623 58.7658 94.7405 58.058Z" fill="#433A0D"/>
<path d="M142.816 60.6274C143.311 55.9085 147.426 52.3168 152.113 52.4479C156.801 52.579 160.838 56.6425 160.942 61.4925C160.968 63.1704 163.572 63.1704 163.546 61.4925C163.39 55.2006 158.416 50.0098 152.113 49.8263C145.811 49.6428 140.837 54.519 140.212 60.6274C140.029 62.3052 142.634 62.279 142.816 60.6274Z" fill="#433A0D"/>
<path d="M150.03 57.6126C149.769 58.1107 149.483 58.6088 149.353 59.1331C149.223 59.6574 149.144 60.3915 149.353 60.942C149.587 61.5712 149.952 62.0431 150.499 62.4101C151.019 62.751 151.723 62.882 152.322 62.6985C152.66 62.5937 152.947 62.4101 153.207 62.1742C153.494 61.912 153.65 61.5974 153.78 61.2304C153.936 60.811 153.988 60.3391 153.988 59.8934C153.988 59.4215 153.988 58.9234 153.832 58.4777C153.676 57.901 153.285 57.298 152.738 57.0096C151.957 56.6164 151.098 56.7999 150.473 57.3504C150.212 57.5601 150.03 57.901 149.926 58.2155C149.822 58.635 149.874 59.1855 150.134 59.5264C150.342 59.8147 150.551 60.0245 150.915 60.1293C151.228 60.208 151.645 60.1818 151.931 59.9983C152.217 59.8147 152.452 59.5526 152.53 59.2118C152.608 58.871 152.608 58.4777 152.4 58.1893C152.374 58.1631 152.348 58.1107 152.348 58.0845L152.478 58.3991C152.478 58.3991 152.478 58.3466 152.478 58.3204L152.53 58.6612C152.53 58.6612 152.53 58.6088 152.53 58.5826L152.478 58.9234C152.478 58.9234 152.478 58.871 152.478 58.8447L152.348 59.1593C152.348 59.1593 152.4 59.0807 152.426 59.0283L152.217 59.2904C152.217 59.2904 152.296 59.2118 152.322 59.1855L152.061 59.3953C152.061 59.3953 152.191 59.3166 152.27 59.2642L151.957 59.3953C151.957 59.3953 152.087 59.3428 152.165 59.3428L151.827 59.3953C151.827 59.3953 151.931 59.3953 151.983 59.3953L151.645 59.3428C151.645 59.3428 151.723 59.3428 151.775 59.3691L151.462 59.238C151.462 59.238 151.54 59.2904 151.592 59.3166L151.332 59.1069C151.332 59.1069 151.462 59.2118 151.514 59.2904L151.306 59.0283C151.306 59.0283 151.41 59.1855 151.462 59.2904L151.332 58.9758C151.384 59.1331 151.436 59.2904 151.462 59.4477L151.41 59.1069C151.462 59.5264 151.462 59.9458 151.41 60.3391L151.462 59.9983C151.462 60.1555 151.41 60.3391 151.332 60.4964L151.462 60.1818C151.462 60.1818 151.384 60.3391 151.332 60.4177L151.54 60.1555C151.54 60.1555 151.436 60.2866 151.384 60.3128L151.645 60.1031C151.645 60.1031 151.54 60.1818 151.462 60.208L151.775 60.0769C151.775 60.0769 151.618 60.1293 151.54 60.1293L151.879 60.0769C151.879 60.0769 151.749 60.0769 151.697 60.0769L152.035 60.1293C152.035 60.1293 151.853 60.1031 151.775 60.0507L152.087 60.1818C152.087 60.1818 151.905 60.0769 151.801 60.0245L152.061 60.2342C152.061 60.2342 151.879 60.0769 151.801 59.972L152.009 60.2342C152.009 60.2342 151.879 60.0507 151.827 59.9458L151.957 60.2604C151.957 60.2604 151.879 60.0507 151.853 59.9458L151.905 60.2866C151.905 60.1293 151.905 59.972 151.905 59.7885L151.853 60.1293C151.879 59.8672 151.983 59.605 152.087 59.3428L151.957 59.6574C152.087 59.3953 152.217 59.1069 152.374 58.871C152.53 58.5826 152.608 58.1893 152.504 57.8485C152.426 57.5339 152.191 57.2193 151.905 57.062C151.28 56.7474 150.473 56.9047 150.134 57.5339L150.03 57.6126Z" fill="#433A0D"/>
<path d="M101.434 56.2491C101.277 56.3278 101.095 56.3802 100.965 56.4589C100.835 56.5375 100.678 56.6686 100.548 56.7735C100.366 56.9307 100.21 57.1405 100.079 57.324C99.793 57.7435 99.6888 58.2416 99.6367 58.7397C99.6367 59.0018 99.6367 59.2378 99.6888 59.4737C99.7409 59.7097 99.819 59.9456 99.9232 60.1816C100.132 60.601 100.496 61.0205 100.913 61.2302C101.121 61.3351 101.356 61.4399 101.59 61.4924C101.824 61.5448 102.085 61.571 102.345 61.571C102.84 61.5448 103.335 61.4137 103.778 61.1516C104.194 60.8894 104.585 60.5224 104.793 60.1029C104.95 59.8145 105.028 59.5524 105.054 59.2378C105.106 58.897 105.08 58.6086 105.002 58.2678C104.95 57.9794 104.819 57.7172 104.689 57.4813C104.559 57.2453 104.351 56.9832 104.142 56.7997C103.621 56.3278 102.97 56.0394 102.267 56.0132C101.929 56.0132 101.564 56.1705 101.356 56.4064C101.147 56.6424 100.965 57.0094 100.965 57.324C100.965 57.6386 101.095 58.0056 101.356 58.2416C101.616 58.4775 101.929 58.6086 102.267 58.6348C102.319 58.6348 102.371 58.6348 102.397 58.6348L102.059 58.5824C102.059 58.5824 102.319 58.6348 102.423 58.6872L102.111 58.5562C102.111 58.5562 102.345 58.6872 102.449 58.7659L102.189 58.5562C102.189 58.5562 102.423 58.7659 102.528 58.897L102.319 58.6348C102.319 58.6348 102.475 58.8707 102.528 59.0018L102.397 58.6872C102.397 58.6872 102.475 58.9232 102.501 59.0543L102.449 58.7135C102.449 58.7135 102.449 58.9494 102.449 59.0805L102.501 58.7397C102.501 58.7397 102.449 58.9494 102.423 59.0543L102.554 58.7397C102.554 58.7397 102.449 58.9494 102.397 59.028L102.606 58.7659C102.606 58.7659 102.423 58.9756 102.319 59.0543L102.58 58.8445C102.58 58.8445 102.345 59.0018 102.241 59.0543L102.554 58.9232C102.423 58.9756 102.267 59.028 102.111 59.0543L102.449 59.0018C102.319 59.0018 102.163 59.0018 102.033 59.0018L102.371 59.0543C102.371 59.0543 102.137 59.0018 102.033 58.9494L102.345 59.0805C102.345 59.0805 102.163 59.0018 102.085 58.9232L102.345 59.1329C102.345 59.1329 102.189 59.0018 102.137 58.9232L102.345 59.1853C102.345 59.1853 102.215 58.9756 102.163 58.8708L102.293 59.1853C102.293 59.1853 102.215 58.9494 102.189 58.8183L102.241 59.1591C102.241 59.028 102.241 58.8707 102.241 58.7397L102.189 59.0805C102.189 58.9232 102.241 58.7921 102.319 58.6348L102.189 58.9494C102.189 58.9494 102.293 58.7135 102.397 58.6086L102.189 58.8708C102.189 58.8708 102.345 58.7135 102.423 58.6348L102.163 58.8445C102.163 58.8445 102.319 58.7397 102.423 58.6872L102.111 58.8183H102.137C102.319 58.7659 102.449 58.6872 102.58 58.5824C102.71 58.4775 102.84 58.3726 102.918 58.2153C103.074 57.927 103.153 57.5075 103.048 57.1929C102.944 56.8783 102.762 56.5637 102.449 56.4064C102.137 56.2491 101.772 56.1443 101.434 56.2753V56.2491Z" fill="#433A0D"/>
<path d="M158.39 53.8372C160.057 53.9421 161.697 53.2867 162.922 52.1856C163.416 51.7137 163.416 50.7962 162.922 50.3243C162.375 49.8262 161.619 49.8262 161.072 50.3243C160.968 50.4291 160.864 50.5078 160.76 50.5864L161.02 50.3767C160.682 50.6389 160.343 50.8224 159.953 51.0059L160.265 50.8748C159.848 51.0583 159.406 51.1632 158.963 51.2418L159.302 51.1894C158.989 51.2418 158.676 51.2418 158.364 51.2156C157.687 51.1894 157.036 51.8448 157.062 52.5264C157.088 53.2605 157.635 53.7848 158.364 53.8372H158.39Z" fill="#433A0D"/>
<path d="M160.786 57.4028C161.723 57.6125 162.687 57.6125 163.625 57.3766C164.562 57.1406 165.369 56.6688 166.099 56.0658C166.333 55.8561 166.489 55.4366 166.489 55.1482C166.489 54.8598 166.359 54.4404 166.099 54.2306C165.838 54.0209 165.526 53.8374 165.187 53.8374C164.849 53.8374 164.536 53.9947 164.276 54.2306C164.224 54.2831 164.171 54.3093 164.119 54.3617L164.38 54.152C164.067 54.4142 163.703 54.5977 163.338 54.7812L163.651 54.6501C163.26 54.8074 162.843 54.9385 162.401 54.9909L162.739 54.9385C162.322 54.9909 161.932 54.9909 161.515 54.9385L161.854 54.9909C161.854 54.9909 161.593 54.9385 161.463 54.9123C160.812 54.755 160.031 55.122 159.848 55.8298C159.692 56.4852 160.057 57.2979 160.76 57.4552L160.786 57.4028Z" fill="#433A0D"/>
<path d="M94.7663 51.7139C94.7663 51.7139 94.584 51.7401 94.5059 51.7664L94.8444 51.7139C94.5579 51.7401 94.2715 51.7401 93.985 51.7139L94.3236 51.7664C94.011 51.7139 93.7246 51.6353 93.4381 51.5304L93.7506 51.6615C93.4381 51.5304 93.1516 51.3731 92.8912 51.1634L93.1516 51.3731C92.9172 51.1896 92.7089 50.9799 92.5266 50.7439L92.7349 51.0061C92.5526 50.7701 92.3964 50.5342 92.2922 50.2458L92.4224 50.5604C92.4224 50.5604 92.3964 50.4818 92.3703 50.4556C92.2401 50.141 92.0838 49.8526 91.7713 49.6691C91.4849 49.5118 91.0682 49.4331 90.7556 49.538C90.4431 49.6428 90.1306 49.8264 89.9744 50.141C89.8181 50.4556 89.7139 50.8226 89.8441 51.1634C90.2608 52.2645 91.0161 53.182 92.0578 53.7588C93.0995 54.3356 94.2715 54.5191 95.4434 54.2569C96.1205 54.0996 96.5633 53.2869 96.3549 52.6315C96.1205 51.9237 95.4695 51.5566 94.7403 51.7139H94.7663Z" fill="#433A0D"/>
<path d="M98.1258 49.564H98.0737C98.0737 49.564 98.3081 49.564 98.4123 49.5116C98.1779 49.5378 97.9435 49.5378 97.7091 49.5116L98.0477 49.564C97.8133 49.5378 97.5529 49.4592 97.3445 49.3805L97.657 49.5116C97.4226 49.4067 97.1882 49.2757 96.9799 49.1184L97.2403 49.3281C97.032 49.1708 96.8757 48.9873 96.7195 48.8038L96.9278 49.0659C96.7976 48.8824 96.6674 48.6727 96.5632 48.463L96.6934 48.7776C96.6413 48.6465 96.5893 48.5154 96.5632 48.3581C96.407 47.7027 95.6257 47.2308 94.9485 47.4405C94.2714 47.6503 93.8547 48.3319 94.037 49.0659C94.2975 50.0884 94.9746 50.9273 95.808 51.504C96.1986 51.7662 96.6413 51.9497 97.0841 52.0546C97.6831 52.1857 98.2039 52.1857 98.8029 52.107C99.1154 52.0546 99.428 51.7662 99.5842 51.504C99.7405 51.2157 99.8186 50.7962 99.7144 50.4816C99.6103 50.167 99.428 49.8524 99.1154 49.6951L98.8029 49.564C98.5685 49.5116 98.3341 49.5116 98.0998 49.564H98.1258Z" fill="#433A0D"/>
<path d="M88.9586 88.6262C92.1098 89.937 95.1308 91.5362 98.3602 92.7159C101.59 93.8956 104.871 94.8132 108.231 95.521C115.106 96.9891 122.19 97.5659 129.221 97.2513C136.253 96.9367 142.66 95.8618 149.118 93.9481C152.296 93.0043 155.421 91.877 158.468 90.5399C161.098 89.3864 164.484 86.8435 167.479 87.5513C170.474 88.2591 170.057 92.7159 169.901 95.154C169.718 98.1426 169.224 101.21 167.974 103.936C165.369 109.52 159.874 112.299 154.223 113.872C147.556 115.734 140.55 116.494 133.649 116.756C126.747 117.018 119.742 116.835 112.944 115.655C106.147 114.475 99.3759 112.037 94.4798 106.951C92.214 104.592 90.3389 101.734 89.3753 98.5621C88.8805 96.9629 88.568 95.2589 88.6461 93.581C88.6721 92.5586 88.8544 91.5624 89.0888 90.5924C89.2451 89.9894 89.3753 88.6786 89.8441 88.2591L88.9326 88.6524H89.3493C91.016 88.731 91.016 86.1094 89.3493 86.057C87.7606 86.0045 87.3439 87.1843 86.9533 88.5213C86.4845 90.1729 86.0939 91.877 86.0418 93.581C85.9376 96.7007 86.8491 99.8205 88.2294 102.599C91.1202 108.419 96.3028 112.745 102.189 115.288C108.725 118.119 115.913 118.958 122.945 119.325C130.836 119.719 138.753 119.404 146.566 118.198C152.999 117.202 159.9 115.76 165.135 111.67C170.37 107.58 172.245 101.341 172.557 94.9443C172.687 92.2178 172.896 88.8097 170.916 86.6599C168.781 84.3529 165.447 84.6413 162.817 85.7162C159.431 87.1056 156.228 88.8097 152.764 90.0418C149.301 91.274 145.498 92.3489 141.774 93.1091C132.815 94.9443 123.492 95.2589 114.429 93.9743C110.21 93.3713 106.069 92.4537 102.006 91.1691C97.7352 89.8321 93.8287 87.8135 89.7139 86.1094C88.1773 85.4802 87.5002 87.997 89.0107 88.6262H88.9586Z" fill="#433A0D"/>
<path d="M94.2713 89.1243C93.0994 90.5662 92.292 92.2703 92.0055 94.1316C91.8493 95.1803 92.0055 96.2551 92.8389 96.9892C93.5681 97.6184 94.5317 97.8281 95.4172 98.0378C96.3547 98.2738 97.3183 98.4835 98.2819 98.6408C99.2976 98.8243 100.391 99.034 101.381 98.6408C103.308 97.9067 103.933 95.9143 104.194 94.0267C104.298 93.3189 104.037 92.6111 103.282 92.4013C102.683 92.244 101.772 92.6111 101.668 93.3189C101.589 93.9481 101.511 94.6821 101.277 95.2589C101.173 95.4949 101.016 95.7308 100.912 95.8357C100.912 95.8357 100.626 96.0978 100.756 96.0192C100.756 96.0192 100.417 96.2027 100.574 96.1503C100.027 96.3862 99.2716 96.1503 98.7247 96.0454C97.9694 95.9143 97.2402 95.757 96.485 95.5735C96.1204 95.4948 95.7818 95.39 95.4172 95.3113C95.2609 95.2589 95.1307 95.2327 94.9745 95.1803C94.9745 95.1803 94.5838 95.023 94.7661 95.1016C94.688 95.0492 94.6099 95.023 94.5317 94.9705C94.6099 95.023 94.6099 95.023 94.5317 94.9705C94.4796 94.9181 94.4796 94.9181 94.5317 94.9705C94.5317 94.9705 94.5317 94.9967 94.5317 95.023C94.5578 94.787 94.5317 94.5773 94.5838 94.3151C94.8182 93.083 95.313 91.9032 96.0943 90.9594C96.537 90.4089 96.6412 89.6486 96.0943 89.0981C95.6255 88.6262 94.688 88.5475 94.2452 89.0981L94.2713 89.1243Z" fill="#433A0D"/>
<path d="M108.048 95.3375V98.0902C108.075 98.9554 107.97 99.9254 108.465 100.686C109.064 101.577 110.08 101.603 111.043 101.629C111.955 101.629 112.866 101.682 113.778 101.708C114.69 101.734 115.523 101.787 116.408 101.787C117.294 101.787 118.179 101.629 118.83 101C119.481 100.371 119.664 99.5846 119.664 98.7456C119.664 98.431 119.638 98.1427 119.638 97.8281C119.638 97.7756 119.69 97.2775 119.638 97.5397C119.638 97.461 119.664 97.3824 119.69 97.3038C119.638 97.4348 119.638 97.4348 119.69 97.3038C120.054 96.7008 119.82 95.8619 119.221 95.521C118.622 95.1802 117.789 95.39 117.45 95.9929C117.112 96.5959 117.007 97.2775 117.007 97.9854C117.007 98.2475 117.033 98.5097 117.033 98.7719C117.033 98.9029 117.033 99.034 117.033 99.1389C117.033 99.0078 117.033 98.9816 117.033 99.0865C117.007 99.1651 117.033 99.1651 117.059 99.0602C116.981 99.1913 116.981 99.1913 117.059 99.0865L116.955 99.1913C116.955 99.1913 117.138 99.1127 116.955 99.1651C116.929 99.1651 116.565 99.2175 116.773 99.2175C116.617 99.2175 116.46 99.2175 116.304 99.2175C115.575 99.2175 114.846 99.1913 114.117 99.1651C113.387 99.1389 112.658 99.1127 111.929 99.1127C111.538 99.1127 111.148 99.1127 110.757 99.0865C110.601 99.0865 110.444 99.0602 110.288 99.0865C110.184 99.0865 110.21 99.0865 110.314 99.0865C110.444 99.1389 110.523 99.2438 110.601 99.3748C110.627 99.4535 110.653 99.6894 110.653 99.4273C110.653 99.27 110.653 99.0865 110.653 98.9292V97.8281C110.653 97.0416 110.653 96.2289 110.627 95.4424C110.627 94.7346 110.028 94.1316 109.325 94.1316C108.621 94.1316 108.022 94.7346 108.022 95.4424L108.048 95.3375Z" fill="#433A0D"/>
<path d="M126.096 97.6969C126.851 98.7456 126.565 100.502 127.268 101.76C128.362 103.7 130.706 103.491 132.607 103.517C134.508 103.543 137.217 104.12 138.31 102.127C138.805 101.236 138.909 100.109 139.118 99.1388C139.352 98.0378 139.587 96.9367 139.821 95.8356C139.977 95.154 139.613 94.4199 138.909 94.2102C138.258 94.0267 137.451 94.4199 137.295 95.1278C136.904 96.9105 136.592 98.7194 136.123 100.502C136.097 100.633 136.071 100.79 135.993 100.869C135.81 101.053 135.993 100.869 135.967 100.895C135.784 101 135.368 100.948 135.133 100.948C134.222 100.948 133.284 100.895 132.373 100.869C131.617 100.869 130.784 100.948 130.055 100.764C129.82 100.712 129.69 100.659 129.534 100.476C129.664 100.633 129.456 100.345 129.456 100.292C129.534 100.476 129.404 100.083 129.378 100.03C129.039 98.7718 129.143 97.4348 128.336 96.3337C127.919 95.757 127.216 95.4686 126.565 95.8618C126.018 96.2026 125.68 97.094 126.096 97.6445V97.6969Z" fill="#433A0D"/>
<path d="M145.524 94.2888C146.123 97.0153 147.347 99.8729 150.16 100.869C151.41 101.315 152.973 101.184 154.093 100.423C155.317 99.5845 155.89 98.2737 156.124 96.8318C156.41 95.1015 156.567 93.345 156.645 91.5885C156.671 90.9069 156.02 90.2515 155.343 90.2777C154.613 90.304 154.067 90.8545 154.041 91.5885C153.988 93.1615 153.858 94.7607 153.598 96.2813C153.546 96.5958 153.468 96.9104 153.389 97.1988C153.363 97.2775 153.337 97.3823 153.311 97.461C153.363 97.3561 153.363 97.3823 153.311 97.5134C153.233 97.6707 153.155 97.828 153.051 97.9591C153.181 97.8018 152.947 98.064 152.921 98.0902C152.816 98.195 152.79 98.195 152.921 98.1164C152.843 98.1688 152.79 98.195 152.712 98.2475C152.634 98.2999 152.582 98.3261 152.504 98.3523C152.634 98.2999 152.608 98.2999 152.478 98.3523C152.348 98.3785 152.191 98.431 152.061 98.4572C151.957 98.4572 151.983 98.4572 152.087 98.4572C152.009 98.4572 151.931 98.4572 151.827 98.4572C151.775 98.4572 151.28 98.431 151.54 98.4572C151.384 98.4572 151.254 98.4048 151.124 98.3523C151.072 98.3523 150.707 98.195 150.889 98.2737C150.264 97.9853 150.056 97.7756 149.561 97.1988C149.457 97.0677 149.457 97.0677 149.535 97.1464C149.483 97.0677 149.431 97.0153 149.379 96.9367C149.301 96.8318 149.249 96.7269 149.17 96.5958C148.988 96.2813 148.806 95.9142 148.728 95.6783C148.467 94.9704 148.285 94.2364 148.129 93.5023C147.972 92.8207 147.191 92.4013 146.514 92.5848C145.811 92.7683 145.446 93.5023 145.603 94.2102L145.524 94.2888Z" fill="#433A0D"/>
<path d="M167.844 106.558C167.245 105.142 165.682 104.382 164.224 104.277C162.661 104.172 161.15 104.933 159.874 105.798C157.296 107.554 155.161 110.438 156.02 113.741C156.202 114.423 156.958 114.842 157.635 114.659C158.312 114.475 158.728 113.741 158.546 113.034C158.312 112.142 158.494 111.198 158.989 110.307C159.484 109.416 160.291 108.708 161.072 108.131C161.932 107.528 162.973 106.899 163.963 106.873C164.067 106.873 164.171 106.873 164.302 106.873C164.406 106.873 164.38 106.873 164.302 106.873H164.432C164.432 106.873 164.692 106.978 164.823 107.004C164.666 106.951 164.875 107.004 164.927 107.056C165.031 107.109 165.109 107.161 165.213 107.214C165.031 107.082 165.317 107.318 165.343 107.345C165.552 107.528 165.343 107.266 165.448 107.476C165.5 107.581 165.578 107.712 165.63 107.816C165.916 108.472 166.854 108.603 167.401 108.288C168.078 107.895 168.156 107.135 167.87 106.506L167.844 106.558Z" fill="#433A0D"/>
<path d="M150.941 114.764C150.551 114.502 150.264 113.925 149.978 113.427C149.613 112.797 149.248 112.168 148.727 111.67C147.191 110.254 144.951 110.779 143.076 110.936C142.008 111.015 140.941 111.093 139.873 111.172C138.805 111.251 137.841 111.487 137.086 112.247C135.576 113.794 135.862 115.97 136.331 117.883C136.748 119.509 139.248 118.827 138.831 117.176C138.597 116.284 138.024 114.344 139.248 113.899C139.951 113.636 140.836 113.715 141.566 113.663C142.477 113.584 143.389 113.532 144.3 113.453C145.003 113.4 145.889 113.191 146.592 113.374C146.878 113.453 147.113 113.741 147.321 114.082C148.024 115.183 148.519 116.284 149.613 117.044C150.186 117.438 151.071 117.149 151.384 116.573C151.775 115.917 151.488 115.183 150.915 114.79L150.941 114.764Z" fill="#433A0D"/>
<path d="M125.966 118.355C126.695 116.678 127.242 114.633 125.732 113.191C124.612 112.116 122.945 111.854 121.461 111.592C119.69 111.303 117.71 111.225 116.148 112.299C114.689 113.322 113.856 114.869 114.142 116.678C114.247 117.385 115.106 117.779 115.757 117.595C116.486 117.385 116.773 116.678 116.669 115.97C116.695 116.153 116.669 115.76 116.669 115.76C116.669 115.943 116.669 115.708 116.695 115.629C116.747 115.419 116.773 115.367 116.929 115.105C117.111 114.842 117.398 114.554 117.789 114.344C118.596 113.899 119.924 113.951 120.966 114.135C121.539 114.239 122.086 114.344 122.633 114.475C122.867 114.528 123.101 114.606 123.336 114.685L123.466 114.738C123.57 114.79 123.648 114.842 123.752 114.895C123.987 115.026 124.117 115.157 124.143 115.498C124.169 115.996 123.935 116.52 123.726 116.992C123.44 117.648 123.544 118.408 124.195 118.775C124.742 119.089 125.706 118.958 125.966 118.303V118.355Z" fill="#433A0D"/>
<path d="M106.486 114.397C106.121 112.797 106.355 111.067 105.913 109.442C105.444 107.685 104.324 106.453 102.631 105.772C101.902 105.483 101.147 105.3 100.392 105.142C99.4279 104.933 98.4383 104.828 97.4747 105.011C95.86 105.326 94.4016 106.794 94.5058 108.524C94.5578 109.232 95.0787 109.835 95.8079 109.835C96.485 109.835 97.1622 109.232 97.1101 108.524C97.1101 108.446 97.1361 108.131 97.1101 108.367C97.1101 108.315 97.2663 108.026 97.1621 108.21C97.1621 108.183 97.3965 107.895 97.2663 108.052C97.3444 107.947 97.4486 107.869 97.5528 107.79C97.3965 107.921 97.7091 107.712 97.7351 107.712C97.9434 107.58 97.683 107.712 97.9174 107.633C98.2039 107.58 98.4122 107.528 98.7247 107.554C99.3498 107.554 99.9748 107.738 100.6 107.895C101.225 108.052 101.798 108.183 102.267 108.446C102.735 108.708 102.97 108.97 103.204 109.442C103.308 109.625 103.36 109.783 103.439 110.071C103.517 110.359 103.569 110.648 103.621 110.936C103.621 111.041 103.621 111.041 103.621 110.936C103.621 111.015 103.621 111.093 103.621 111.172C103.621 111.356 103.647 111.513 103.647 111.696C103.647 112.037 103.673 112.404 103.699 112.745C103.751 113.532 103.829 114.318 103.985 115.078C104.142 115.76 104.923 116.179 105.6 115.996C106.303 115.812 106.668 115.078 106.512 114.37L106.486 114.397Z" fill="#433A0D"/>
</g>
<defs>
<filter id="filter0_d_1011_6827" x="0" y="0" width="294.547" height="223.025" filterUnits="userSpaceOnUse" color-interpolation-filters="sRGB">
<feFlood flood-opacity="0" result="BackgroundImageFix"/>
<feColorMatrix in="SourceAlpha" type="matrix" values="0 0 0 0 0 0 0 0 0 0 0 0 0 0 0 0 0 0 127 0" result="hardAlpha"/>
<feOffset dx="-4" dy="4"/>
<feGaussianBlur stdDeviation="15"/>
<feComposite in2="hardAlpha" operator="out"/>
<feColorMatrix type="matrix" values="0 0 0 0 0.973437 0 0 0 0 0.880019 0 0 0 0 0.623117 0 0 0 0.15 0"/>
<feBlend mode="normal" in2="BackgroundImageFix" result="effect1_dropShadow_1011_6827"/>
<feBlend mode="normal" in="SourceGraphic" in2="effect1_dropShadow_1011_6827" result="shape"/>
</filter>
<linearGradient id="paint0_linear_1011_6827" x1="2.83838" y1="14.2784" x2="294.83" y2="180.031" gradientUnits="userSpaceOnUse">
<stop stop-color="#FFB900" stop-opacity="0.05"/>
<stop offset="1" stop-color="#BDFF00" stop-opacity="0.05"/>
</linearGradient>
<linearGradient id="paint1_linear_1011_6827" x1="65.5724" y1="53.5752" x2="231.884" y2="158.022" gradientUnits="userSpaceOnUse">
<stop stop-color="#FFB900" stop-opacity="0.1"/>
<stop offset="1" stop-color="#DEFF7F" stop-opacity="0.1"/>
</linearGradient>
<linearGradient id="paint2_linear_1011_6827" x1="70.8591" y1="53.3131" x2="215.081" y2="143.892" gradientUnits="userSpaceOnUse">
<stop stop-color="#FFB900" stop-opacity="0.15"/>
<stop offset="1" stop-color="#DEFF7F" stop-opacity="0.15"/>
</linearGradient>
<linearGradient id="paint3_linear_1011_6827" x1="76.0416" y1="52.6576" x2="198.671" y2="129.681" gradientUnits="userSpaceOnUse">
<stop stop-color="#FFB900" stop-opacity="0.2"/>
<stop offset="1" stop-color="#DEFF7F" stop-opacity="0.2"/>
</linearGradient>
<linearGradient id="paint4_linear_1011_6827" x1="81.4844" y1="49.4855" x2="190.233" y2="117.784" gradientUnits="userSpaceOnUse">
<stop stop-color="#FFB900" stop-opacity="0.3"/>
<stop offset="1" stop-color="#DEFF7F" stop-opacity="0.3"/>
</linearGradient>
</defs>
</svg>
