<svg width="60" height="60" viewBox="0 0 60 60" fill="none" xmlns="http://www.w3.org/2000/svg">
<path fill-rule="evenodd" clip-rule="evenodd" d="M23.7493 9.58317C15.9253 9.58317 9.58268 15.9258 9.58268 23.7498C9.58268 31.5739 15.9253 37.9165 23.7493 37.9165C31.5734 37.9165 37.916 31.5739 37.916 23.7498C37.916 15.9258 31.5734 9.58317 23.7493 9.58317ZM5.41602 23.7498C5.41602 13.6246 13.6241 5.4165 23.7493 5.4165C33.8746 5.4165 42.0827 13.6246 42.0827 23.7498C42.0827 33.8751 33.8746 42.0832 23.7493 42.0832C13.6241 42.0832 5.41602 33.8751 5.41602 23.7498Z" fill="white"/>
<path fill-rule="evenodd" clip-rule="evenodd" d="M37.499 34.5537L52.9453 50L49.999 52.9463L34.5527 37.5L37.499 34.5537Z" fill="white"/>
</svg>
