<svg width="60" height="60" viewBox="0 0 60 60" fill="none" xmlns="http://www.w3.org/2000/svg">
<path fill-rule="evenodd" clip-rule="evenodd" d="M22.5 7H22.1022L22.0128 7.38757L20.5128 13.8876L21 14H8V15H13.5V52V52.5H14H47.5H48V52V15H53V14H40L40.4872 13.8876L38.9872 7.38757L38.8978 7H38.5H22.5ZM39.4869 14L38.1022 8H22.8978L21.5131 14H39.4869ZM14.5 15H47V51.5H14.5V15ZM24.5 42V25H25.5V42H24.5ZM35.5 25V42H36.5V25H35.5Z" fill="white"/>
<path d="M22.1022 7V5.5H20.909L20.6407 6.66271L22.1022 7ZM22.0128 7.38757L20.5512 7.05028V7.05028L22.0128 7.38757ZM20.5128 13.8876L19.0512 13.5503L18.7139 15.0119L20.1755 15.3492L20.5128 13.8876ZM21 14V15.5L21.3373 12.5384L21 14ZM8 14V12.5H6.5V14H8ZM8 15H6.5V16.5H8V15ZM13.5 15H15V13.5H13.5V15ZM13.5 52.5H12V54H13.5V52.5ZM48 52.5V54H49.5V52.5H48ZM48 15V13.5H46.5V15H48ZM53 15V16.5H54.5V15H53ZM53 14H54.5V12.5H53V14ZM40 14L39.6627 12.5384L40 15.5V14ZM40.4872 13.8876L40.8245 15.3492L42.2861 15.0119L41.9488 13.5503L40.4872 13.8876ZM38.9872 7.38757L37.5256 7.72486V7.72486L38.9872 7.38757ZM38.8978 7L40.3593 6.66271L40.091 5.5H38.8978V7ZM38.1022 8L39.5638 7.66271L39.2955 6.5H38.1022V8ZM39.4869 14V15.5H41.3724L40.9484 13.6627L39.4869 14ZM22.8978 8V6.5H21.7045L21.4362 7.66271L22.8978 8ZM21.5131 14L20.0516 13.6627L19.6276 15.5H21.5131V14ZM47 15H48.5V13.5H47V15ZM14.5 15V13.5H13V15H14.5ZM47 51.5V53H48.5V51.5H47ZM14.5 51.5H13V53H14.5V51.5ZM24.5 25V23.5H23V25H24.5ZM24.5 42H23V43.5H24.5V42ZM25.5 25H27V23.5H25.5V25ZM25.5 42V43.5H27V42H25.5ZM35.5 42H34V43.5H35.5V42ZM35.5 25V23.5H34V25H35.5ZM36.5 42V43.5H38V42H36.5ZM36.5 25H38V23.5H36.5V25ZM22.1022 8.5H22.5V5.5H22.1022V8.5ZM23.4744 7.72486L23.5638 7.33729L20.6407 6.66271L20.5512 7.05028L23.4744 7.72486ZM21.9744 14.2249L23.4744 7.72486L20.5512 7.05028L19.0512 13.5503L21.9744 14.2249ZM21.3373 12.5384L20.8501 12.426L20.1755 15.3492L20.6627 15.4616L21.3373 12.5384ZM8 15.5H21V12.5H8V15.5ZM9.5 15V14H6.5V15H9.5ZM13.5 13.5H8V16.5H13.5V13.5ZM15 52V15H12V52H15ZM15 52.5V52H12V52.5H15ZM14 51H13.5V54H14V51ZM47.5 51H14V54H47.5V51ZM48 51H47.5V54H48V51ZM46.5 52V52.5H49.5V52H46.5ZM46.5 15V52H49.5V15H46.5ZM53 13.5H48V16.5H53V13.5ZM51.5 14V15H54.5V14H51.5ZM40 15.5H53V12.5H40V15.5ZM40.1499 12.426L39.6627 12.5384L40.3373 15.4616L40.8245 15.3492L40.1499 12.426ZM37.5256 7.72486L39.0256 14.2249L41.9488 13.5503L40.4488 7.05028L37.5256 7.72486ZM37.4362 7.33729L37.5256 7.72486L40.4488 7.05028L40.3593 6.66271L37.4362 7.33729ZM38.5 8.5H38.8978V5.5H38.5V8.5ZM22.5 8.5H38.5V5.5H22.5V8.5ZM36.6407 8.33729L38.0253 14.3373L40.9484 13.6627L39.5638 7.66271L36.6407 8.33729ZM22.8978 9.5H38.1022V6.5H22.8978V9.5ZM22.9747 14.3373L24.3593 8.33729L21.4362 7.66271L20.0516 13.6627L22.9747 14.3373ZM39.4869 12.5H21.5131V15.5H39.4869V12.5ZM47 13.5H14.5V16.5H47V13.5ZM48.5 51.5V15H45.5V51.5H48.5ZM14.5 53H47V50H14.5V53ZM13 15V51.5H16V15H13ZM23 25V42H26V25H23ZM25.5 23.5H24.5V26.5H25.5V23.5ZM27 42V25H24V42H27ZM24.5 43.5H25.5V40.5H24.5V43.5ZM37 42V25H34V42H37ZM36.5 40.5H35.5V43.5H36.5V40.5ZM35 25V42H38V25H35ZM35.5 26.5H36.5V23.5H35.5V26.5Z" fill="white"/>
</svg>
