<svg width="60" height="60" viewBox="0 0 60 60" fill="none" xmlns="http://www.w3.org/2000/svg">
<g clip-path="url(#clip0_753_7253)">
<path fill-rule="evenodd" clip-rule="evenodd" d="M44.7593 21.6724C43.1237 17.9545 41.2752 15.8711 37.7469 13.9973C34.1897 12.1081 30.0996 11.4726 26.1368 12.1935C22.174 12.9143 18.5697 14.9495 15.9056 17.9704C13.2415 20.9913 11.673 24.8217 11.4533 28.8436L11.3397 30.9238L7.17919 30.6965L7.29283 28.6163C7.56364 23.6592 9.49687 18.9379 12.7805 15.2144C16.0642 11.491 20.5067 8.98259 25.3911 8.0941C30.2754 7.20561 35.3167 7.98886 39.7013 10.3174C44.1148 12.6614 46.5877 15.4813 48.5732 19.9945L49.4121 21.9015L45.5982 23.5793L44.7593 21.6724Z" fill="white"/>
<path fill-rule="evenodd" clip-rule="evenodd" d="M15.2414 36.6611C16.8817 40.3898 18.9038 42.6981 22.4224 44.5667C25.9796 46.456 30.0697 47.0914 34.0325 46.3706C37.9953 45.6497 41.5996 43.6146 44.2637 40.5937C46.9278 37.5728 48.4963 33.7423 48.716 29.7205L48.8296 27.6403L52.9901 27.8675L52.8765 29.9478C52.6057 34.9049 50.6724 39.6262 47.3888 43.3496C44.1051 47.0731 39.6626 49.5815 34.7782 50.47C29.8939 51.3585 24.8526 50.5752 20.468 48.2466C16.0448 45.8975 13.4082 42.8413 11.4275 38.3389L10.5885 36.432L14.4024 34.7541L15.2414 36.6611Z" fill="white"/>
<path fill-rule="evenodd" clip-rule="evenodd" d="M51.525 10.6023L50.0516 22.7896L47.5272 24.5723L35.2716 21.8225L36.1838 17.757L46.1915 20.0024L47.3885 10.1022L51.525 10.6023Z" fill="white"/>
<path fill-rule="evenodd" clip-rule="evenodd" d="M8.6449 47.9617L10.1184 35.7744L12.6427 33.9917L24.8983 36.7414L23.9861 40.807L13.9784 38.5616L12.7814 48.4618L8.6449 47.9617Z" fill="white"/>
</g>
<defs>
<clipPath id="clip0_753_7253">
<rect width="60" height="60" fill="white"/>
</clipPath>
</defs>
</svg>
