<svg width="60" height="60" viewBox="0 0 60 60" fill="none" xmlns="http://www.w3.org/2000/svg">
<path fill-rule="evenodd" clip-rule="evenodd" d="M34.202 11.7654L33.3103 12.3103L33 12.5L33.0489 12.5543L35.3817 15.1463L44.0835 24.815L46.5 27.5L47.4948 26.0078L48.5037 24.4944L52.5 18.5L42 7L36.0379 10.6435L34.202 11.7654ZM38.4196 13.2898L41.3618 11.4918L48.0686 18.8374L46.0872 21.8094L38.4196 13.2898ZM44.2215 30.2003L45.5 29L45.1957 28.6739L33.8881 16.5587L31.5 14L30.4925 14.9458L28.9482 16.3955L7 37V48.5V52H10.5H21L44.2215 30.2003ZM19.6146 48.5L40.5601 28.8368L31.3364 18.9542L10.5 38.5149V48.5H19.6146Z" fill="white"/>
</svg>
