<svg width="44" height="44" viewBox="0 0 44 44" fill="none" xmlns="http://www.w3.org/2000/svg">
<path fill-rule="evenodd" clip-rule="evenodd" d="M42.3253 13.581C43.431 16.2501 44 19.1109 44 22H22L0 22C0 19.1109 0.569046 16.2501 1.67465 13.581C2.78025 10.9118 4.40076 8.48654 6.44365 6.44365C8.48654 4.40076 10.9118 2.78025 13.581 1.67465C16.2501 0.569047 19.1109 0 22 0C24.8891 0 27.7499 0.569047 30.419 1.67465C33.0882 2.78025 35.5135 4.40076 37.5564 6.44365C39.5992 8.48654 41.2197 10.9118 42.3253 13.581ZM22 22C19.1109 22 16.2501 22.569 13.581 23.6747C10.9118 24.7803 8.48654 26.4008 6.44365 28.4437C4.40076 30.4865 2.78025 32.9118 1.67465 35.581C0.569046 38.2501 0 41.1109 0 44L22 44H44C44 41.1109 43.431 38.2501 42.3253 35.581C41.2197 32.9118 39.5992 30.4865 37.5564 28.4437C35.5135 26.4008 33.0882 24.7803 30.419 23.6747C27.7499 22.569 24.8891 22 22 22Z" fill="#CB7C41"/>
</svg>
