<svg width="44" height="45" viewBox="0 0 44 45" fill="none" xmlns="http://www.w3.org/2000/svg">
<path d="M0.000892706 22.0526C1.44543 19.5506 3.36864 17.3576 5.6607 15.5988C7.95276 13.84 10.5688 12.55 13.3594 11.8022C16.1501 11.0545 19.0607 10.8637 21.925 11.2408C24.7894 11.6179 27.5514 12.5555 30.0535 14C32.5555 15.4446 34.7485 17.3678 36.5072 19.6598C38.266 21.9519 39.5561 24.5679 40.3038 27.3586C41.0516 30.1492 41.2423 33.0598 40.8652 35.9242C40.4881 38.7885 39.5505 41.5506 38.106 44.0526L19.0535 33.0526L0.000892706 22.0526Z" fill="#FF9D47"/>
<path d="M17.5214 7.06417C18.4501 5.4556 19.6864 4.04562 21.1597 2.91473C22.633 1.78384 24.3145 0.954192 26.1081 0.473154C27.9017 -0.0078846 29.7723 -0.130892 31.6132 0.111153C33.454 0.353199 35.229 0.955558 36.8368 1.88384C38.4447 2.81212 39.8538 4.04814 40.9839 5.52133C42.1139 6.99453 42.9427 8.67604 43.4229 10.4699C43.9031 12.2637 44.0253 14.1347 43.7826 15.9761C43.5399 17.8174 42.937 19.5931 42.0082 21.2017L29.7648 14.1329L17.5214 7.06417Z" fill="#FF9D47"/>
</svg>
