<svg width="44" height="44" viewBox="0 0 44 44" fill="none" xmlns="http://www.w3.org/2000/svg">
<path d="M18 0C19.3789 -6.02727e-08 20.7443 0.284523 22.0182 0.837325C23.2921 1.39013 24.4496 2.20038 25.4246 3.22183C26.3996 4.24327 27.1731 5.4559 27.7007 6.79048C28.2284 8.12506 28.5 9.55546 28.5 11C28.5 12.4445 28.2284 13.8749 27.7007 15.2095C27.1731 16.5441 26.3996 17.7567 25.4246 18.7782C24.4496 19.7996 23.2921 20.6099 22.0182 21.1627C20.7443 21.7155 19.3789 22 18 22L18 11L18 0Z" fill="#FF8D36"/>
<path d="M33.5 0C34.8789 -6.02728e-08 36.2443 0.284523 37.5182 0.837325C38.7921 1.39013 39.9496 2.20038 40.9246 3.22183C41.8996 4.24327 42.6731 5.4559 43.2007 6.79048C43.7284 8.12506 44 9.55546 44 11C44 12.4445 43.7284 13.8749 43.2007 15.2095C42.6731 16.5441 41.8996 17.7567 40.9246 18.7782C39.9496 19.7996 38.7921 20.6099 37.5182 21.1627C36.2443 21.7155 34.8789 22 33.5 22L33.5 11L33.5 0Z" fill="#FF8D36"/>
<path d="M17.5 22C18.8789 22 20.2443 22.2845 21.5182 22.8373C22.7921 23.3901 23.9496 24.2004 24.9246 25.2218C25.8996 26.2433 26.6731 27.4559 27.2007 28.7905C27.7284 30.1251 28 31.5555 28 33C28 34.4445 27.7284 35.8749 27.2007 37.2095C26.6731 38.5441 25.8996 39.7567 24.9246 40.7782C23.9496 41.7996 22.7921 42.6099 21.5182 43.1627C20.2443 43.7155 18.8789 44 17.5 44L17.5 33L17.5 22Z" fill="#FF8D36"/>
<path d="M33.5 22C34.8789 22 36.2443 22.2845 37.5182 22.8373C38.7921 23.3901 39.9496 24.2004 40.9246 25.2218C41.8996 26.2433 42.6731 27.4559 43.2007 28.7905C43.7284 30.1251 44 31.5555 44 33C44 34.4445 43.7284 35.8749 43.2007 37.2095C42.6731 38.5441 41.8996 39.7567 40.9246 40.7782C39.9496 41.7996 38.7921 42.6099 37.5182 43.1627C36.2443 43.7155 34.8789 44 33.5 44L33.5 33L33.5 22Z" fill="#FF8D36"/>
<path d="M1.57361e-06 4C2.3638 4 4.70444 4.46558 6.8883 5.37017C9.07216 6.27475 11.0565 7.60062 12.7279 9.27208C14.3994 10.9435 15.7252 12.9278 16.6298 15.1117C17.5344 17.2956 18 19.6362 18 22C18 24.3638 17.5344 26.7044 16.6298 28.8883C15.7252 31.0722 14.3994 33.0565 12.7279 34.7279C11.0565 36.3994 9.07216 37.7252 6.8883 38.6298C4.70444 39.5344 2.36379 40 -1.57361e-06 40L7.86801e-07 22L1.57361e-06 4Z" fill="#FF8D36"/>
</svg>
