<svg width="44" height="44" viewBox="0 0 44 44" fill="none" xmlns="http://www.w3.org/2000/svg">
<path d="M-0.000225429 -1.90735e-05C1.70442 -1.9148e-05 3.39238 0.335736 4.96727 0.988077C6.54216 1.64042 7.97314 2.59657 9.17851 3.80194C10.3839 5.00731 11.34 6.43829 11.9924 8.01318C12.6447 9.58807 12.9805 11.276 12.9805 12.9807C12.9805 14.6853 12.6447 16.3733 11.9924 17.9482C11.34 19.5231 10.3839 20.954 9.17851 22.1594C7.97314 23.3648 6.54216 24.3209 4.96727 24.9733C3.39238 25.6256 1.70442 25.9614 -0.000225429 25.9614L-0.000224862 12.9807L-0.000225429 -1.90735e-05Z" fill="#D46A18"/>
<path d="M15.9998 -1.90735e-05C17.7044 -1.9148e-05 19.3924 0.335736 20.9673 0.988077C22.5422 1.64042 23.9731 2.59657 25.1785 3.80194C26.3839 5.00731 27.34 6.43829 27.9924 8.01318C28.6447 9.58807 28.9805 11.276 28.9805 12.9807C28.9805 14.6853 28.6447 16.3733 27.9924 17.9482C27.34 19.5231 26.3839 20.954 25.1785 22.1594C23.9731 23.3648 22.5422 24.3209 20.9673 24.9733C19.3924 25.6256 17.7044 25.9614 15.9998 25.9614L15.9998 12.9807L15.9998 -1.90735e-05Z" fill="#D46A18"/>
<path d="M30.9998 -1.90735e-05C32.7044 -1.9148e-05 34.3924 0.335736 35.9673 0.988077C37.5422 1.64042 38.9731 2.59657 40.1785 3.80194C41.3839 5.00731 42.34 6.43829 42.9924 8.01318C43.6447 9.58807 43.9805 11.276 43.9805 12.9807C43.9805 14.6853 43.6447 16.3733 42.9924 17.9482C42.34 19.5231 41.3839 20.954 40.1785 22.1594C38.9731 23.3648 37.5422 24.3209 35.9673 24.9733C34.3924 25.6256 32.7044 25.9614 30.9998 25.9614L30.9998 12.9807L30.9998 -1.90735e-05Z" fill="#D46A18"/>
<path d="M43.9614 43.9807C43.9614 41.0941 43.3928 38.2359 42.2882 35.569C41.1836 32.9022 39.5645 30.4791 37.5234 28.438C35.4823 26.3969 33.0592 24.7778 30.3923 23.6732C27.7255 22.5685 24.8672 22 21.9807 22C19.0941 22 16.2359 22.5685 13.569 23.6732C10.9022 24.7778 8.47909 26.3969 6.43799 28.438C4.3969 30.4791 2.77781 32.9022 1.67318 35.569C0.568547 38.2359 -2.5235e-07 41.0941 0 43.9807L21.9807 43.9807L43.9614 43.9807Z" fill="#D46A18"/>
</svg>
