<svg width="44" height="44" viewBox="0 0 44 44" fill="none" xmlns="http://www.w3.org/2000/svg">
<path d="M-0.000225429 -1.90735e-05C1.70442 -1.9148e-05 3.39238 0.335736 4.96727 0.988077C6.54216 1.64042 7.97314 2.59657 9.17851 3.80194C10.3839 5.00731 11.34 6.43829 11.9924 8.01318C12.6447 9.58807 12.9805 11.276 12.9805 12.9807C12.9805 14.6853 12.6447 16.3733 11.9924 17.9482C11.34 19.5231 10.3839 20.954 9.17851 22.1594C7.97314 23.3648 6.54216 24.3209 4.96727 24.9733C3.39238 25.6256 1.70442 25.9614 -0.000225429 25.9614L-0.000224862 12.9807L-0.000225429 -1.90735e-05Z" fill="#F7703E"/>
<path d="M17.9998 18C19.7044 18 21.3924 18.3357 22.9673 18.9881C24.5422 19.6404 25.9731 20.5966 27.1785 21.8019C28.3839 23.0073 29.34 24.4383 29.9924 26.0132C30.6447 27.5881 30.9805 29.276 30.9805 30.9807C30.9805 32.6853 30.6447 34.3733 29.9924 35.9482C29.34 37.5231 28.3839 38.954 27.1785 40.1594C25.9731 41.3648 24.5422 42.3209 22.9673 42.9733C21.3924 43.6256 19.7044 43.9614 17.9998 43.9614L17.9998 30.9807L17.9998 18Z" fill="#F7703E"/>
<path d="M25.9807 -1.90735e-05C24.276 -1.9148e-05 22.5881 0.335736 21.0132 0.988077C19.4383 1.64042 18.0073 2.59657 16.802 3.80194C15.5966 5.00731 14.6404 6.43829 13.9881 8.01318C13.3358 9.58807 13 11.276 13 12.9807C13 14.6853 13.3358 16.3733 13.9881 17.9482C14.6404 19.5231 15.5966 20.954 16.802 22.1594C18.0073 23.3648 19.4383 24.3209 21.0132 24.9733C22.5881 25.6256 24.276 25.9614 25.9807 25.9614L25.9807 12.9807L25.9807 -1.90735e-05Z" fill="#F7703E"/>
<path d="M43.9807 18C42.276 18 40.5881 18.3357 39.0132 18.9881C37.4383 19.6404 36.0073 20.5966 34.802 21.8019C33.5966 23.0073 32.6404 24.4383 31.9881 26.0132C31.3358 27.5881 31 29.276 31 30.9807C31 32.6853 31.3358 34.3733 31.9881 35.9482C32.6404 37.5231 33.5966 38.954 34.802 40.1594C36.0073 41.3648 37.4383 42.3209 39.0132 42.9733C40.5881 43.6256 42.276 43.9614 43.9807 43.9614L43.9807 30.9807L43.9807 18Z" fill="#F7703E"/>
</svg>
