<svg width="44" height="44" viewBox="0 0 44 44" fill="none" xmlns="http://www.w3.org/2000/svg">
<path d="M0.00079808 1.33514e-05C1.5427 1.3284e-05 3.0695 0.303713 4.49403 0.893773C5.91856 1.48383 7.21292 2.3487 8.30321 3.43899C9.3935 4.52927 10.2584 5.82364 10.8484 7.24817C11.4385 8.6727 11.7422 10.1995 11.7422 11.7414C11.7422 13.2833 11.4385 14.8101 10.8484 16.2346C10.2584 17.6592 9.3935 18.9535 8.30321 20.0438C7.21292 21.1341 5.91856 21.999 4.49403 22.589C3.0695 23.1791 1.5427 23.4828 0.00079808 23.4828L0.000798593 11.7414L0.00079808 1.33514e-05Z" fill="#BC5800"/>
<path d="M34.4828 6.67572e-06C34.4828 1.54191 34.1791 3.06871 33.589 4.49324C32.999 5.91777 32.1341 7.21213 31.0438 8.30242C29.9535 9.39271 28.6592 10.2576 27.2346 10.8476C25.8101 11.4377 24.2833 11.7414 22.7414 11.7414C21.1995 11.7414 19.6727 11.4377 18.2482 10.8476C16.8236 10.2576 15.5293 9.39271 14.439 8.30242C13.3487 7.21213 12.4838 5.91777 11.8938 4.49324C11.3037 3.06871 11 1.54191 11 5.64926e-06L22.7414 6.67572e-06L34.4828 6.67572e-06Z" fill="#BC5800"/>
<path d="M43.6125 43.4181C42.0706 43.4181 40.5438 43.1144 39.1192 42.5244C37.6947 41.9343 36.4004 41.0695 35.3101 39.9792C34.2198 38.8889 33.3549 37.5945 32.7649 36.17C32.1748 34.7455 31.8711 33.2187 31.8711 31.6768C31.8711 30.1349 32.1748 28.608 32.7649 27.1835C33.3549 25.759 34.2198 24.4646 35.3101 23.3743C36.4004 22.284 37.6947 21.4192 39.1192 20.8291C40.5438 20.2391 42.0706 19.9354 43.6125 19.9354L43.6125 31.6768L43.6125 43.4181Z" fill="#BC5800"/>
<path d="M9.99965 43.7414C9.99965 42.1995 10.3033 40.6727 10.8934 39.2482C11.4835 37.8236 12.3483 36.5293 13.4386 35.439C14.5289 34.3487 15.8233 33.4838 17.2478 32.8938C18.6723 32.3037 20.1991 32 21.741 32C23.2829 32 24.8097 32.3037 26.2343 32.8938C27.6588 33.4838 28.9532 34.3487 30.0434 35.439C31.1337 36.5293 31.9986 37.8236 32.5887 39.2482C33.1787 40.6727 33.4824 42.1995 33.4824 43.7414L21.741 43.7414L9.99965 43.7414Z" fill="#BC5800"/>
</svg>
