<svg width="44" height="44" viewBox="0 0 44 44" fill="none" xmlns="http://www.w3.org/2000/svg">
<path d="M44 4C41.6362 4 39.2956 4.46558 37.1117 5.37017C34.9278 6.27475 32.9435 7.60062 31.2721 9.27208C29.6006 10.9435 28.2748 12.9278 27.3702 15.1117C26.4656 17.2956 26 19.6362 26 22C26 24.3638 26.4656 26.7044 27.3702 28.8883C28.2748 31.0722 29.6006 33.0565 31.2721 34.7279C32.9435 36.3994 34.9278 37.7252 37.1117 38.6298C39.2956 39.5344 41.6362 40 44 40L44 22L44 4Z" fill="#FFB074"/>
<path d="M4 44C4 41.6362 4.46558 39.2956 5.37017 37.1117C6.27475 34.9278 7.60062 32.9435 9.27208 31.2721C10.9435 29.6006 12.9278 28.2748 15.1117 27.3702C17.2956 26.4656 19.6362 26 22 26C24.3638 26 26.7044 26.4656 28.8883 27.3702C31.0722 28.2748 33.0565 29.6006 34.7279 31.2721C36.3994 32.9435 37.7252 34.9278 38.6298 37.1117C39.5344 39.2956 40 41.6362 40 44L22 44L4 44Z" fill="#FFB074"/>
<path d="M4 3.14722e-06C4 2.3638 4.46558 4.70444 5.37017 6.8883C6.27475 9.07217 7.60062 11.0565 9.27208 12.7279C10.9435 14.3994 12.9278 15.7252 15.1117 16.6298C17.2956 17.5344 19.6362 18 22 18C24.3638 18 26.7044 17.5344 28.8883 16.6298C31.0722 15.7252 33.0565 14.3994 34.7279 12.7279C36.3994 11.0565 37.7252 9.07216 38.6298 6.8883C39.5344 4.70444 40 2.36379 40 -1.57361e-06L22 1.57361e-06L4 3.14722e-06Z" fill="#FFB074"/>
<path d="M1.57361e-06 4C2.3638 4 4.70444 4.46558 6.8883 5.37017C9.07216 6.27475 11.0565 7.60062 12.7279 9.27208C14.3994 10.9435 15.7252 12.9278 16.6298 15.1117C17.5344 17.2956 18 19.6362 18 22C18 24.3638 17.5344 26.7044 16.6298 28.8883C15.7252 31.0722 14.3994 33.0565 12.7279 34.7279C11.0565 36.3994 9.07216 37.7252 6.8883 38.6298C4.70444 39.5344 2.36379 40 -1.57361e-06 40L7.86801e-07 22L1.57361e-06 4Z" fill="#FFB074"/>
</svg>
