<svg width="44" height="44" viewBox="0 0 44 44" fill="none" xmlns="http://www.w3.org/2000/svg">
<path d="M40 20C38.4241 20 36.8637 20.3104 35.4078 20.9134C33.9519 21.5165 32.629 22.4004 31.5147 23.5147C30.4004 24.629 29.5165 25.9519 28.9134 27.4078C28.3104 28.8637 28 30.4241 28 32C28 33.5759 28.3104 35.1363 28.9134 36.5922C29.5165 38.0481 30.4004 39.371 31.5147 40.4853C32.629 41.5996 33.9519 42.4835 35.4078 43.0866C36.8637 43.6896 38.4241 44 40 44L40 32L40 20Z" fill="#B6500D"/>
<path d="M40 -1.04907e-06C38.4241 -9.8019e-07 36.8637 0.310388 35.4078 0.913445C33.9519 1.5165 32.629 2.40042 31.5147 3.51472C30.4004 4.62902 29.5165 5.95189 28.9134 7.4078C28.3104 8.86371 28 10.4241 28 12C28 13.5759 28.3104 15.1363 28.9134 16.5922C29.5165 18.0481 30.4004 19.371 31.5147 20.4853C32.629 21.5996 33.9519 22.4835 35.4078 23.0866C36.8637 23.6896 38.4241 24 40 24L40 12L40 -1.04907e-06Z" fill="#B6500D"/>
<path d="M28 -1.04907e-06C26.4241 -9.8019e-07 24.8637 0.310388 23.4078 0.913445C21.9519 1.5165 20.629 2.40042 19.5147 3.51472C18.4004 4.62902 17.5165 5.95189 16.9134 7.4078C16.3104 8.86371 16 10.4241 16 12C16 13.5759 16.3104 15.1363 16.9134 16.5922C17.5165 18.0481 18.4004 19.371 19.5147 20.4853C20.629 21.5996 21.9519 22.4835 23.4078 23.0866C24.8637 23.6896 26.4241 24 28 24L28 12L28 -1.04907e-06Z" fill="#B6500D"/>
<path d="M28 20C26.4241 20 24.8637 20.3104 23.4078 20.9134C21.9519 21.5165 20.629 22.4004 19.5147 23.5147C18.4004 24.629 17.5165 25.9519 16.9134 27.4078C16.3104 28.8637 16 30.4241 16 32C16 33.5759 16.3104 35.1363 16.9134 36.5922C17.5165 38.0481 18.4004 39.371 19.5147 40.4853C20.629 41.5996 21.9519 42.4835 23.4078 43.0866C24.8637 43.6896 26.4241 44 28 44L28 32L28 20Z" fill="#B6500D"/>
<path d="M16 20C14.4241 20 12.8637 20.3104 11.4078 20.9134C9.95189 21.5165 8.62902 22.4004 7.51472 23.5147C6.40042 24.629 5.5165 25.9519 4.91345 27.4078C4.31039 28.8637 4 30.4241 4 32C4 33.5759 4.31039 35.1363 4.91345 36.5922C5.5165 38.0481 6.40042 39.371 7.51472 40.4853C8.62902 41.5996 9.95189 42.4835 11.4078 43.0866C12.8637 43.6896 14.4241 44 16 44L16 32L16 20Z" fill="#B6500D"/>
<path d="M16 -1.04907e-06C14.4241 -9.8019e-07 12.8637 0.310388 11.4078 0.913445C9.95189 1.5165 8.62902 2.40042 7.51472 3.51472C6.40042 4.62902 5.5165 5.95189 4.91345 7.4078C4.31039 8.86371 4 10.4241 4 12C4 13.5759 4.31039 15.1363 4.91345 16.5922C5.5165 18.0481 6.40042 19.371 7.51472 20.4853C8.62902 21.5996 9.95189 22.4835 11.4078 23.0866C12.8637 23.6896 14.4241 24 16 24L16 12L16 -1.04907e-06Z" fill="#B6500D"/>
</svg>
