<svg width="45" height="45" viewBox="0 0 45 45" fill="none" xmlns="http://www.w3.org/2000/svg">
<path d="M34.1769 9.58846C32.995 7.54135 31.4215 5.74708 29.5462 4.3081C27.6708 2.86911 25.5304 1.81359 23.2472 1.20179C20.9639 0.589997 18.5826 0.433913 16.239 0.74245C13.8954 1.05099 11.6356 1.8181 9.58846 3C7.54135 4.1819 5.74708 5.75543 4.3081 7.63075C2.86911 9.50608 1.81359 11.6465 1.20179 13.9297C0.589997 16.213 0.433913 18.5944 0.74245 20.9379C1.05099 23.2815 1.8181 25.5414 3 27.5885L18.5885 18.5885L34.1769 9.58846Z" fill="#FFCFA9"/>
<path d="M11.0008 36C12.1827 38.0471 13.7562 39.8414 15.6316 41.2803C17.5069 42.7193 19.6473 43.7749 21.9305 44.3866C24.2138 44.9984 26.5952 45.1545 28.9387 44.846C31.2823 44.5375 33.5422 43.7703 35.5893 42.5884C37.6364 41.4065 39.4307 39.833 40.8696 37.9577C42.3086 36.0824 43.3641 33.942 43.9759 31.6587C44.5877 29.3755 44.7438 26.9941 44.4353 24.6505C44.1267 22.3069 43.3596 20.0471 42.1777 18L26.5893 27L11.0008 36Z" fill="#FFCFA9"/>
</svg>
