<svg width="44" height="44" viewBox="0 0 44 44" fill="none" xmlns="http://www.w3.org/2000/svg">
<path d="M37.1122 6.00005C39.155 8.04294 40.7756 10.4682 41.8812 13.1374C42.9868 15.8065 43.5558 18.6673 43.5558 21.5564C43.5558 24.4455 42.9868 27.3063 41.8812 29.9754C40.7756 32.6446 39.155 35.0699 37.1122 37.1127C35.0693 39.1556 32.644 40.7761 29.9748 41.8817C27.3057 42.9873 24.4449 43.5564 21.5558 43.5564C18.6667 43.5564 15.8059 42.9873 13.1368 41.8817C10.4676 40.7761 8.04235 39.1556 5.99947 37.1127L21.5558 21.5564L37.1122 6.00005Z" fill="#FFCC9F"/>
<path d="M17.8856 3.46836e-08C19.06 1.17442 19.9916 2.56865 20.6272 4.1031C21.2628 5.63755 21.5899 7.28216 21.5899 8.94303C21.5899 10.6039 21.2628 12.2485 20.6272 13.783C19.9916 15.3174 19.06 16.7117 17.8856 17.8861C16.7112 19.0605 15.3169 19.9921 13.7825 20.6277C12.248 21.2633 10.6034 21.5904 8.94255 21.5904C7.28167 21.5904 5.63706 21.2633 4.10261 20.6277C2.56816 19.9921 1.17393 19.0605 -0.00048853 17.8861L8.94255 8.94303L17.8856 3.46836e-08Z" fill="#FFCC9F"/>
</svg>
